<svg id="ic_CreateReport" xmlns="http://www.w3.org/2000/svg" width="105.779" height="105.779" viewBox="0 0 105.779 105.779">
  <g id="Group_532" data-name="Group 532" transform="translate(0 0)">
    <g id="Rectangle_733" data-name="Rectangle 733" transform="translate(105.779 105.779) rotate(180)" fill="#4e4e4e" stroke="#707070" stroke-width="2">
      <rect width="105.779" height="105.779" rx="33" stroke="none"/>
      <rect x="1" y="1" width="103.779" height="103.779" rx="32" fill="none"/>
    </g>
  </g>
  <g id="SU_Groups" data-name="SU Groups" transform="translate(0 0)">
    <g id="Group_250" data-name="Group 250" transform="translate(0 0)">
      <g id="Rectangle_733-2" data-name="Rectangle 733" transform="translate(105.779 105.779) rotate(180)" fill="#4e4e4e" stroke="#7a7a7a" stroke-width="1">
        <rect width="105.779" height="105.779" rx="15" stroke="none"/>
        <rect x="0.5" y="0.5" width="104.779" height="104.779" rx="14.5" fill="none"/>
      </g>
    </g>
  </g>
  <g id="Rectangle_1565" data-name="Rectangle 1565" transform="translate(25.981 16.702)" fill="#fff" stroke="#707070" stroke-width="1">
    <rect width="55.673" height="76.087" stroke="none"/>
    <rect x="0.5" y="0.5" width="54.673" height="75.087" fill="none"/>
  </g>
  <line id="Line_124" data-name="Line 124" x2="16.829" transform="translate(33.256 26.678)" fill="none" stroke="#707070" stroke-width="4"/>
  <line id="Line_126" data-name="Line 126" x2="16.829" transform="translate(33.256 73.156)" fill="none" stroke="#707070" stroke-width="4"/>
  <line id="Line_125" data-name="Line 125" x2="41.671" transform="translate(33.256 31.379)" fill="none" stroke="#707070" stroke-width="2"/>
  <line id="Line_125-2" data-name="Line 125" x2="41.671" transform="translate(33.256 37.79)" fill="none" stroke="#707070" stroke-width="2"/>
  <line id="Line_125-3" data-name="Line 125" x2="41.671" transform="translate(33.256 44.201)" fill="none" stroke="#707070" stroke-width="2"/>
  <line id="Line_125-4" data-name="Line 125" x2="41.671" transform="translate(33.256 50.611)" fill="none" stroke="#707070" stroke-width="2"/>
  <line id="Line_125-5" data-name="Line 125" x2="41.671" transform="translate(33.256 57.022)" fill="none" stroke="#707070" stroke-width="2"/>
  <line id="Line_125-6" data-name="Line 125" x2="41.671" transform="translate(33.256 63.434)" fill="none" stroke="#707070" stroke-width="2"/>
  <line id="Line_127" data-name="Line 127" x2="41.671" transform="translate(33.256 77.964)" fill="none" stroke="#707070" stroke-width="2"/>
  <line id="Line_128" data-name="Line 128" x2="41.671" transform="translate(33.256 84.375)" fill="none" stroke="#707070" stroke-width="2"/>
</svg>
