<svg xmlns="http://www.w3.org/2000/svg" xmlns:xlink="http://www.w3.org/1999/xlink" width="18" height="18" viewBox="0 0 18 18">
  <defs>
    <clipPath id="clip-path">
      <rect id="Rectangle_123" data-name="Rectangle 123" width="18" height="18" transform="translate(841 37)" fill="#fff" stroke="#707070" stroke-width="1"/>
    </clipPath>
  </defs>
  <g id="ic_instagram" transform="translate(-841 -37)" clip-path="url(#clip-path)">
    <g id="_9741883171561032669" data-name="9741883171561032669" transform="translate(841 37)">
      <path id="Path_67" data-name="Path 67" d="M12.375,0H5.625A5.626,5.626,0,0,0,0,5.625v6.75A5.626,5.626,0,0,0,5.625,18h6.75A5.626,5.626,0,0,0,18,12.375V5.625A5.626,5.626,0,0,0,12.375,0Zm3.938,12.375a3.942,3.942,0,0,1-3.937,3.938H5.625a3.942,3.942,0,0,1-3.937-3.937V5.625A3.942,3.942,0,0,1,5.625,1.688h6.75a3.942,3.942,0,0,1,3.938,3.938Z" fill="#fff"/>
      <path id="Path_68" data-name="Path 68" d="M9,4.5A4.5,4.5,0,1,0,13.5,9,4.5,4.5,0,0,0,9,4.5Zm0,7.313A2.813,2.813,0,1,1,11.813,9,2.816,2.816,0,0,1,9,11.813Z" fill="#fff"/>
      <circle id="Ellipse_18" data-name="Ellipse 18" cx="0.6" cy="0.6" r="0.6" transform="translate(13.238 3.563)" fill="#fff"/>
    </g>
  </g>
</svg>
