<svg xmlns="http://www.w3.org/2000/svg" xmlns:xlink="http://www.w3.org/1999/xlink" width="18" height="18" viewBox="0 0 18 18">
  <defs>
    <clipPath id="clip-path">
      <rect id="Rectangle_124" data-name="Rectangle 124" width="18" height="18" transform="translate(889 37)" fill="#fff" stroke="#707070" stroke-width="1"/>
    </clipPath>
  </defs>
  <g id="ic_linkedin" transform="translate(-889 -37)" clip-path="url(#clip-path)">
    <g id="Page-1" transform="translate(889 37)">
      <g id="Dribbble-Light-Preview" transform="translate(-162 -6731.1)">
        <g id="icons" transform="translate(50.4 144)">
          <path id="linkedin-_161_" data-name="linkedin-[#161]" d="M129.6,6605.1H126v-6.3c0-1.728-.762-2.692-2.129-2.692-1.488,0-2.371,1-2.371,2.692v6.3h-3.6v-11.7h3.6v1.315a4.339,4.339,0,0,1,3.675-1.982c2.546,0,4.425,1.554,4.425,4.769v7.6Zm-15.8-13.571a2.215,2.215,0,1,1,2.2-2.215,2.207,2.207,0,0,1-2.2,2.215Zm-2.2,13.571h4.5v-11.7h-4.5Z" fill="#fff" fill-rule="evenodd"/>
        </g>
      </g>
    </g>
  </g>
</svg>
