<svg xmlns="http://www.w3.org/2000/svg" viewBox="0 0 585.94 197.27"><g id="Layer_2" data-name="Layer 2"><g id="Layer_1-2" data-name="Layer 1"><path d="M65.36,0,0,65.36V197.27H131.9l65.37-65.36V0ZM125,125H72.94V72.27H125ZM9.76,69.41,63.18,16V134.77H125V187.5H9.76ZM187.5,127.86,134.77,180.6V62.5H72.94V9.77H187.5Z"/><path d="M298.4,77.19a28.44,28.44,0,1,0,28.44,28.44A28.47,28.47,0,0,0,298.4,77.19Zm0,46.62a18.18,18.18,0,1,1,18.19-18.18A18.21,18.21,0,0,1,298.4,123.81Z"/><polygon points="392.75 132.6 392.75 112.78 411.92 132.6 426.19 132.6 397.86 103.3 423.26 78.76 408.5 78.76 392.75 93.98 392.75 62.65 382.5 62.65 382.5 132.6 392.75 132.6"/><polygon points="239.37 62.65 229.11 62.65 229.11 132.66 271.24 132.66 271.24 122.41 239.37 122.41 239.37 62.65"/><path d="M371.84,118.49a18.18,18.18,0,1,1,0-25.72l7.25-7.25a28.44,28.44,0,1,0,0,40.22Z"/><path d="M541.62,84.62a27.6,27.6,0,1,0,0,42.9v5.08h10.25V77.78H541.62Zm-17.35,38.8a17.35,17.35,0,1,1,17.35-17.35A17.37,17.37,0,0,1,524.27,123.42Z"/><path d="M568.15,84.08v-6.3H557.9V132.6h10.25V103.92a17.9,17.9,0,0,1,17.79-16.17V77.67A27.84,27.84,0,0,0,568.15,84.08Z"/><path d="M465.81,109.4a13.94,13.94,0,0,1-27.88,0V78.76H427.67V109.4a24.2,24.2,0,1,0,48.39,0V78.76H465.81Z"/><rect x="481.46" y="62.65" width="10.25" height="69.96"/></g></g></svg>