<svg xmlns="http://www.w3.org/2000/svg" width="120.474" height="15.362" viewBox="0 0 120.474 15.362">
  <path id="logo" d="M-105.705-1.944a.759.759,0,0,1-.148-.014A.759.759,0,0,0-106-1.971a2.506,2.506,0,0,0-.77.324q-.607.324-1.539.729a13.6,13.6,0,0,1-2.119.7,10.205,10.205,0,0,1-2.484.3,12.23,12.23,0,0,1-3.267-.432,8.157,8.157,0,0,1-2.768-1.336,6.59,6.59,0,0,1-1.9-2.254,6.756,6.756,0,0,1-.7-3.159,6.777,6.777,0,0,1,.7-3.145,6.682,6.682,0,0,1,1.9-2.281,8.4,8.4,0,0,1,2.768-1.377,11.555,11.555,0,0,1,3.267-.459,13.241,13.241,0,0,1,2.5.216q1.121.216,1.958.459a10.8,10.8,0,0,1,1.323.459,2.406,2.406,0,0,0,.594.216.275.275,0,0,0,.229-.135q.094-.135.148-.216l.4.324-2.106,3.267-.27-.189a.984.984,0,0,0-.013-.162q-.014-.081-.041-.189-.054-.3-.54-.608a5.555,5.555,0,0,0-1.2-.554,12.358,12.358,0,0,0-1.512-.4,7.42,7.42,0,0,0-1.471-.162,7.262,7.262,0,0,0-2.174.324,5.41,5.41,0,0,0-1.809.945,4.623,4.623,0,0,0-1.229,1.525,4.5,4.5,0,0,0-.459,2.066,4.5,4.5,0,0,0,.459,2.066A4.623,4.623,0,0,0-116.9-3.591a5.41,5.41,0,0,0,1.809.945,7.262,7.262,0,0,0,2.174.324,8.636,8.636,0,0,0,1.809-.2,10.863,10.863,0,0,0,1.728-.513,5.733,5.733,0,0,0,1.309-.7q.527-.392.527-.742a.5.5,0,0,0-.108-.324l.378-.216,1.782,2.862ZM-88.668-13.23q0-.486-.594-.486V-14.2H-85.1v.486a.518.518,0,0,0-.338.122.443.443,0,0,0-.148.364V-.972a.443.443,0,0,0,.148.364.518.518,0,0,0,.338.122V0h-4.158V-.486q.594,0,.594-.486V-6.048h-8.694V-.972a.443.443,0,0,0,.148.364.518.518,0,0,0,.338.122V0h-4.077V-.486q.513,0,.513-.486V-13.23q0-.486-.513-.486V-14.2h4.077v.486a.518.518,0,0,0-.338.122.443.443,0,0,0-.148.364v4.59h8.694Zm8.4,12.744q.7,0,.7-.486V-13.23q0-.486-.7-.486V-14.2h4.482v.486q-.7,0-.7.486V-.972q0,.486.7.486V0h-4.482Zm18.63-7.776a3.107,3.107,0,0,0,1.525-.351,1.431,1.431,0,0,0,.635-1.377,1.431,1.431,0,0,0-.635-1.377,3.107,3.107,0,0,0-1.525-.351h-5.751v3.456ZM-71.469,0V-.486q1,0,1-.486V-13.23q0-.486-1-.486V-14.2h9.5a7.466,7.466,0,0,1,4.077.959A3.573,3.573,0,0,1-56.4-9.99a3.573,3.573,0,0,1-1.485,3.253,7.466,7.466,0,0,1-4.077.959h-5.427V-.972q0,.486.864.486V0Zm18.414-.486q.513,0,.513-.486V-13.23q0-.486-.513-.486V-14.2h4.617v.486q-.216,0-.216.27,0,.216.54.756l7.749,8.046V-13.23q0-.486-.7-.486V-14.2h4.077v.486q-.513,0-.513.486V-.972q0,.486.513.486V0h-4.374V-.486q.351,0,.351-.243,0-.189-.432-.621L-49.68-9.936V-.972q0,.486.621.486V0h-4Zm34.209-10.8a.5.5,0,0,0-.229-.446,1.551,1.551,0,0,0-.8-.148H-28.62v3.348h5.292a1.909,1.909,0,0,0,.837-.148q.3-.148.3-.769h.486v4.212h-.486q0-.621-.3-.8a1.655,1.655,0,0,0-.837-.175H-28.62v3.726H-19.6a1.087,1.087,0,0,0,.662-.189.6.6,0,0,0,.257-.513h.486v3.7h-.486q0-.405-.257-.459A3.311,3.311,0,0,0-19.6,0H-32.184V-.486a.518.518,0,0,0,.338-.122A.443.443,0,0,0-31.7-.972V-13.23a.443.443,0,0,0-.149-.364.518.518,0,0,0-.338-.122V-14.2h12.312a1.352,1.352,0,0,0,.8-.175.564.564,0,0,0,.229-.472h.486v3.564ZM-6.723-.972q0,.486.594.486V0h-4.158V-.486A.518.518,0,0,0-9.95-.608.443.443,0,0,0-9.8-.972V-11.718h-4.455a.92.92,0,0,0-.472.135.544.544,0,0,0-.23.513h-.486v-3.78h.486a.544.544,0,0,0,.23.513.92.92,0,0,0,.472.135H-2.268a.92.92,0,0,0,.472-.135.544.544,0,0,0,.229-.513h.486v3.78h-.486a.544.544,0,0,0-.229-.513.92.92,0,0,0-.472-.135H-6.723Z" transform="translate(121.554 14.85)" fill="#fff"/>
</svg>
