<svg xmlns="http://www.w3.org/2000/svg" width="105.779" height="105.78" viewBox="0 0 105.779 105.78">
  <g id="ic_MaintainPeople" transform="translate(0 0.001)">
    <g id="Group_250" data-name="Group 250" transform="translate(0 0)">
      <g id="Rectangle_733" data-name="Rectangle 733" transform="translate(105.779 105.779) rotate(180)" fill="#4e4e4e" stroke="#707070" stroke-width="2">
        <rect width="105.779" height="105.779" rx="33" stroke="none"/>
        <rect x="1" y="1" width="103.779" height="103.779" rx="32" fill="none"/>
      </g>
    </g>
    <g id="Group_250-2" data-name="Group 250" transform="translate(0 -0.381)">
      <g id="Rectangle_733-2" data-name="Rectangle 733" transform="translate(105.779 106.16) rotate(180)" fill="#4e4e4e" stroke="#7a7a7a" stroke-width="1">
        <rect width="105.779" height="105.779" rx="15" stroke="none"/>
        <rect x="0.5" y="0.5" width="104.779" height="104.779" rx="14.5" fill="none"/>
      </g>
    </g>
    <g id="address-book" transform="translate(26.938 22.717)" fill="none">
      <path d="M52.46,19.251A1.448,1.448,0,0,0,53.9,17.807V12.995a1.448,1.448,0,0,0-1.444-1.444H50.053V5.775A5.777,5.777,0,0,0,44.278,0H5.775A5.777,5.777,0,0,0,0,5.775V55.828A5.777,5.777,0,0,0,5.775,61.6h38.5a5.777,5.777,0,0,0,5.775-5.775V50.053H52.46A1.448,1.448,0,0,0,53.9,48.609V43.8a1.448,1.448,0,0,0-1.444-1.444H50.053v-7.7H52.46A1.448,1.448,0,0,0,53.9,33.208V28.4a1.448,1.448,0,0,0-1.444-1.444H50.053v-7.7Z" stroke="none"/>
      <path d="M 5.775371551513672 3.814697265625e-06 C 2.586883544921875 3.814697265625e-06 3.814697265625e-06 2.586860656738281 3.814697265625e-06 5.775333404541016 L 3.814697265625e-06 55.82824325561523 C 3.814697265625e-06 59.0167121887207 2.586883544921875 61.60358047485352 5.775371551513672 61.60358047485352 L 44.27786254882812 61.60358047485352 C 47.46635055541992 61.60358047485352 50.05323028564453 59.0167121887207 50.05323028564453 55.82824325561523 L 50.05323028564453 50.05290222167969 L 52.45964050292969 50.05290222167969 C 53.25376129150391 50.05290222167969 53.90348052978516 49.40318298339844 53.90348052978516 48.60906982421875 L 53.90348052978516 43.79629135131836 C 53.90348052978516 43.00218200683594 53.25376129150391 42.35246276855469 52.45964050292969 42.35246276855469 L 50.05323028564453 42.35246276855469 L 50.05323028564453 34.65201187133789 L 52.45964050292969 34.65201187133789 C 53.25376129150391 34.65201187133789 53.90348052978516 34.00229263305664 53.90348052978516 33.20818328857422 L 53.90348052978516 28.39540100097656 C 53.90348052978516 27.60129165649414 53.25376129150391 26.95157241821289 52.45964050292969 26.95157241821289 L 50.05323028564453 26.95157241821289 L 50.05323028564453 19.25111389160156 L 52.45964050292969 19.25111389160156 C 53.25376129150391 19.25111389160156 53.90348052978516 18.60139083862305 53.90348052978516 17.80728149414062 L 53.90348052978516 12.99450302124023 C 53.90348052978516 12.20039367675781 53.25376129150391 11.5506706237793 52.45964050292969 11.5506706237793 L 50.05323028564453 11.5506706237793 L 50.05323028564453 5.775333404541016 C 50.05323028564453 2.586860656738281 47.46635055541992 3.814697265625e-06 44.27786254882812 3.814697265625e-06 L 5.775371551513672 3.814697265625e-06 M 5.775371551513672 -1.999996185302734 L 44.27786254882812 -1.999996185302734 C 48.56521224975586 -1.999996185302734 52.05323028564453 1.488002777099609 52.05323028564453 5.775333404541016 L 52.05323028564453 9.550670623779297 L 52.45964050292969 9.550670623779297 C 54.35858154296875 9.550670623779297 55.90348052978516 11.09557342529297 55.90348052978516 12.99450302124023 L 55.90348052978516 17.80728149414062 C 55.90348052978516 19.70621109008789 54.35858154296875 21.25111389160156 52.45964050292969 21.25111389160156 L 52.05323028564453 21.25111389160156 L 52.05323028564453 24.95157241821289 L 52.45964050292969 24.95157241821289 C 54.35858154296875 24.95157241821289 55.90348052978516 26.4964714050293 55.90348052978516 28.39540100097656 L 55.90348052978516 33.20818328857422 C 55.90348052978516 35.10711288452148 54.35858154296875 36.65201187133789 52.45964050292969 36.65201187133789 L 52.05323028564453 36.65201187133789 L 52.05323028564453 40.35246276855469 L 52.45964050292969 40.35246276855469 C 54.35858154296875 40.35246276855469 55.90348052978516 41.89736175537109 55.90348052978516 43.79629135131836 L 55.90348052978516 48.60906982421875 C 55.90348052978516 50.50800323486328 54.35858154296875 52.05290222167969 52.45964050292969 52.05290222167969 L 52.05323028564453 52.05290222167969 L 52.05323028564453 55.82824325561523 C 52.05323028564453 60.11558151245117 48.56521224975586 63.60358047485352 44.27786254882812 63.60358047485352 L 5.775371551513672 63.60358047485352 C 1.488021850585938 63.60358047485352 -1.999996185302734 60.11558151245117 -1.999996185302734 55.82824325561523 L -1.999996185302734 5.775333404541016 C -1.999996185302734 1.488002777099609 1.488021850585938 -1.999996185302734 5.775371551513672 -1.999996185302734 Z" stroke="none" fill="#fff"/>
    </g>
    <path id="address-book-2" data-name="address-book" d="M30.215,37.408a8.633,8.633,0,1,0-8.633-8.633A8.641,8.641,0,0,0,30.215,37.408ZM18.128,54.675H42.3a2.829,2.829,0,0,0,3.022-2.59V49.5c0-4.29-4.06-7.77-9.065-7.77-1.457,0-2.523,1.079-6.043,1.079-3.629,0-4.506-1.079-6.043-1.079-5,0-9.065,3.48-9.065,7.77v2.59A2.829,2.829,0,0,0,18.128,54.675Z" transform="translate(29.13 12.303)" fill="#929292"/>
    <g id="address-book-3" data-name="address-book" transform="translate(15.805 14.205)" fill="#fff">
      <path d="M 45.30060577392578 59.48343276977539 L 18.46105575561523 59.48343276977539 C 17.32465553283691 59.48343276977539 16.25031471252441 59.09862518310547 15.43595504760742 58.39988327026367 C 14.57838535308838 57.66408538818359 14.10610485076904 56.67249298095703 14.10610485076904 55.60778427124023 L 14.10610485076904 52.73213577270508 C 14.10610485076904 50.13204574584961 15.27732467651367 47.69621276855469 17.40400505065918 45.87335586547852 C 19.48660469055176 44.08828353881836 22.24496459960938 43.10519409179688 25.17094421386719 43.10519409179688 C 26.00638580322266 43.10519409179688 26.6817455291748 43.33020401000977 27.39675521850586 43.56842422485352 C 28.37957572937012 43.8958625793457 29.60272598266602 44.30338287353516 31.88082504272461 44.30338287353516 C 34.10172653198242 44.30338287353516 35.37215423583984 43.8917350769043 36.3929557800293 43.56096267700195 C 37.11630630493164 43.32657241821289 37.79953384399414 43.10519409179688 38.59070587158203 43.10519409179688 C 41.51668548583984 43.10519409179688 44.27504348754883 44.08828353881836 46.35764694213867 45.87335586547852 C 48.48432540893555 47.69621276855469 49.65554428100586 50.13204574584961 49.65554428100586 52.73213577270508 L 49.65554428100586 55.60778427124023 C 49.65554428100586 56.67249298095703 49.18326568603516 57.6640739440918 48.3256950378418 58.39988327026367 C 47.51133346557617 59.09862518310547 46.43700408935547 59.48343276977539 45.30060577392578 59.48343276977539 Z M 31.88082504272461 40.31245422363281 C 26.04393577575684 40.31245422363281 21.29527473449707 35.56382369995117 21.29527473449707 29.72696495056152 C 21.29527473449707 23.89011383056641 26.04393577575684 19.14148330688477 31.88082504272461 19.14148330688477 C 37.71771621704102 19.14148330688477 42.46637344360352 23.89011383056641 42.46637344360352 29.72696495056152 C 42.46637344360352 35.56382369995117 37.71771621704102 40.31245422363281 31.88082504272461 40.31245422363281 Z" stroke="none"/>
      <path d="M 31.88082504272461 20.14147567749023 C 26.59379577636719 20.14147567749023 22.2952766418457 24.43997573852539 22.2952766418457 29.72696304321289 C 22.2952766418457 35.01396560668945 26.59379577636719 39.31245422363281 31.88082504272461 39.31245422363281 C 37.16785430908203 39.31245422363281 41.46637725830078 35.01396560668945 41.46637725830078 29.72696304321289 C 41.46637725830078 24.43997573852539 37.16785430908203 20.14147567749023 31.88082504272461 20.14147567749023 M 25.17094421386719 44.10519409179688 C 19.61431503295898 44.10519409179688 15.10610580444336 47.96934509277344 15.10610580444336 52.73213195800781 L 15.10610580444336 55.60778427124023 C 15.10610580444336 57.19538497924805 16.60385513305664 58.48343658447266 18.46105575561523 58.48343658447266 L 45.30060577392578 58.48343658447266 C 47.15779495239258 58.48343658447266 48.65553283691406 57.19538497924805 48.65553283691406 55.60778427124023 L 48.65553283691406 52.73213195800781 C 48.65553283691406 47.96934509277344 44.14733505249023 44.10519409179688 38.59070587158203 44.10519409179688 C 36.9731559753418 44.10519409179688 35.78993225097656 45.30337524414062 31.88082504272461 45.30337524414062 C 27.85190582275391 45.30337524414062 26.87836456298828 44.10519409179688 25.17094421386719 44.10519409179688 M 31.88082504272461 18.14147567749023 C 38.26911544799805 18.14147567749023 43.46637725830078 23.33870315551758 43.46637725830078 29.72696304321289 C 43.46637725830078 36.1152229309082 38.26911544799805 41.31245422363281 31.88082504272461 41.31245422363281 C 25.49253463745117 41.31245422363281 20.2952766418457 36.1152229309082 20.2952766418457 29.72696304321289 C 20.2952766418457 23.33870315551758 25.49253463745117 18.14147567749023 31.88082504272461 18.14147567749023 Z M 25.17094421386719 42.10519409179688 C 26.16858673095703 42.10519409179688 26.95363616943359 42.36674499511719 27.71284484863281 42.61968612670898 C 28.67471694946289 42.94015502929688 29.76492691040039 43.30337524414062 31.88082504272461 43.30337524414062 C 33.94375610351562 43.30337524414062 35.08118438720703 42.9348258972168 36.084716796875 42.60965347290039 C 36.85011291503906 42.36164474487305 37.64156341552734 42.10519409179688 38.59070587158203 42.10519409179688 C 41.75523376464844 42.10519409179688 44.74471282958984 43.17377471923828 47.0084342956543 45.11410522460938 C 48.13907623291016 46.08321380615234 49.03041458129883 47.2188835144043 49.65769577026367 48.48956298828125 C 50.31981658935547 49.83083343505859 50.65553283691406 51.25823211669922 50.65553283691406 52.73213195800781 L 50.65553283691406 55.60778427124023 C 50.65553283691406 56.94916534423828 50.04368591308594 58.24346160888672 48.97686386108398 59.1588134765625 C 47.9813232421875 60.01300430297852 46.67574310302734 60.48343658447266 45.30060577392578 60.48343658447266 L 18.46105575561523 60.48343658447266 C 17.08591461181641 60.48343658447266 15.78032684326172 60.01301574707031 14.78478622436523 59.1588134765625 C 13.71795654296875 58.24346160888672 13.10610580444336 56.94916534423828 13.10610580444336 55.60778427124023 L 13.10610580444336 52.73213195800781 C 13.10610580444336 51.25823211669922 13.44182586669922 49.83082580566406 14.10395431518555 48.48956298828125 C 14.73122406005859 47.2188835144043 15.62256622314453 46.08321380615234 16.75321578979492 45.11410522460938 C 19.01693344116211 43.17377471923828 22.00641632080078 42.10519409179688 25.17094421386719 42.10519409179688 Z" stroke="none" fill="#4e4e4e"/>
    </g>
  </g>
</svg>
