<svg id="ic_ProduceConsentBatch" xmlns="http://www.w3.org/2000/svg" width="105.779" height="105.779" viewBox="0 0 105.779 105.779">
  <g id="Group_250" data-name="Group 250" transform="translate(0 0)">
    <g id="Rectangle_733" data-name="Rectangle 733" transform="translate(105.779 105.779) rotate(180)" fill="#4e4e4e" stroke="#707070" stroke-width="2">
      <rect width="105.779" height="105.779" rx="33" stroke="none"/>
      <rect x="1" y="1" width="103.779" height="103.779" rx="32" fill="none"/>
    </g>
  </g>
  <g id="SU_Groups" data-name="SU Groups" transform="translate(0 0)">
    <g id="Group_250-2" data-name="Group 250" transform="translate(0 0)">
      <g id="Rectangle_733-2" data-name="Rectangle 733" transform="translate(105.779 105.779) rotate(180)" fill="#4e4e4e" stroke="#7a7a7a" stroke-width="1">
        <rect width="105.779" height="105.779" rx="15" stroke="none"/>
        <rect x="0.5" y="0.5" width="104.779" height="104.779" rx="14.5" fill="none"/>
      </g>
    </g>
  </g>
  <path id="Path_510" data-name="Path 510" d="M10401.922-9286.8h18.006l9.639-15.594h11.182" transform="translate(-10376.825 9334.447)" fill="none" stroke="#fff" stroke-width="1"/>
  <path id="Path_511" data-name="Path 511" d="M10406.926-9302.4h14.025l9.627,15.594h11.23" transform="translate(-10377.818 9359.882)" fill="none" stroke="#fff" stroke-width="1"/>
  <path id="Path_512" data-name="Path 512" d="M10406.926-9408.437h34.883" transform="translate(-10377.818 9461.221)" fill="none" stroke="#fff" stroke-width="1"/>
  <g id="Rectangle_1556" data-name="Rectangle 1556" transform="translate(12.063 41.755)" fill="#4e4e4e" stroke="#fff" stroke-width="2">
    <rect width="18.558" height="22.269" rx="9.279" stroke="none"/>
    <rect x="1" y="1" width="16.558" height="20.269" rx="8.279" fill="none"/>
  </g>
  <g id="Rectangle_1555" data-name="Rectangle 1555" transform="translate(63.096 67.735)" fill="none" stroke="#fff" stroke-width="1">
    <rect width="31.548" height="10.207" rx="5.103" stroke="none"/>
    <rect x="0.5" y="0.5" width="30.548" height="9.207" rx="4.603" fill="none"/>
  </g>
  <g id="Rectangle_1566" data-name="Rectangle 1566" transform="translate(63.096 47.322)" fill="none" stroke="#fff" stroke-width="1">
    <rect width="31.548" height="11.135" rx="5.567" stroke="none"/>
    <rect x="0.5" y="0.5" width="30.548" height="10.135" rx="5.067" fill="none"/>
  </g>
  <g id="Rectangle_1567" data-name="Rectangle 1567" transform="translate(63.096 26.909)" fill="none" stroke="#fff" stroke-width="1">
    <rect width="31.548" height="11.135" rx="5.567" stroke="none"/>
    <rect x="0.5" y="0.5" width="30.548" height="10.135" rx="5.067" fill="none"/>
  </g>
  <path id="check" d="M3.63,72.912.157,69.438a.534.534,0,0,1,0-.756l.756-.756a.534.534,0,0,1,.756,0l2.34,2.34L9.02,65.255a.534.534,0,0,1,.756,0l.756.756a.534.534,0,0,1,0,.756L4.386,72.912a.534.534,0,0,1-.756,0Z" transform="translate(15.892 -16.105)" fill="#929292"/>
  <g id="Polygon_22" data-name="Polygon 22" transform="translate(62.506 48.081) rotate(90)" fill="#fff">
    <path d="M 7.680017471313477 7.727940082550049 L 1.723157644271851 7.727940082550049 C 1.463287711143494 7.727940082550049 1.334167718887329 7.553780078887939 1.29070770740509 7.478910446166992 C 1.247257709503174 7.404030323028564 1.160107731819153 7.205510139465332 1.289037704467773 6.979880332946777 L 4.267457485198975 1.76753032207489 C 4.397387504577637 1.540140271186829 4.61433744430542 1.515600323677063 4.701587677001953 1.515600323677063 C 4.788827896118164 1.515600323677063 5.005777835845947 1.540140271186829 5.135717868804932 1.76753032207489 L 8.114137649536133 6.979880332946777 C 8.243067741394043 7.205510139465332 8.155918121337891 7.404030323028564 8.112467765808105 7.478910446166992 C 8.069007873535156 7.553780078887939 7.939887523651123 7.727940082550049 7.680017471313477 7.727940082550049 Z" stroke="none"/>
    <path d="M 4.701587677001953 2.015590190887451 L 1.723167896270752 7.227940559387207 C 1.723167896270752 7.227940559387207 1.723167896270752 7.227940559387207 1.72315788269043 7.227940559387207 L 7.680007934570312 7.227940559387207 L 4.701597690582275 2.015600204467773 C 4.701595306396484 2.01559591293335 4.701594352722168 2.015590667724609 4.701587677001953 2.015590190887451 M 4.701583862304688 1.015595436096191 C 5.039735317230225 1.015595436096191 5.377887725830078 1.183550357818604 5.56983757019043 1.519460201263428 L 8.548257827758789 6.731810569763184 C 8.929197311401367 7.398470401763916 8.447827339172363 8.227940559387207 7.680007934570312 8.227940559387207 L 1.72315788269043 8.227940559387207 C 0.955348014831543 8.227940559387207 0.4739780426025391 7.398470401763916 0.8549175262451172 6.731810569763184 L 3.833337783813477 1.519460201263428 C 4.025282859802246 1.183550357818604 4.363432884216309 1.015595436096191 4.701583862304688 1.015595436096191 Z" stroke="none" fill="#4e4e4e"/>
  </g>
  <g id="Polygon_24" data-name="Polygon 24" transform="translate(62.506 68.222) rotate(90)" fill="#fff">
    <path d="M 7.680017471313477 7.727940082550049 L 1.723157644271851 7.727940082550049 C 1.463287711143494 7.727940082550049 1.334167718887329 7.553780078887939 1.29070770740509 7.478910446166992 C 1.247257709503174 7.404030323028564 1.160107731819153 7.205510139465332 1.289037704467773 6.979880332946777 L 4.267457485198975 1.76753032207489 C 4.397387504577637 1.540140271186829 4.61433744430542 1.515600323677063 4.701587677001953 1.515600323677063 C 4.788827896118164 1.515600323677063 5.005777835845947 1.540140271186829 5.135717868804932 1.76753032207489 L 8.114137649536133 6.979880332946777 C 8.243067741394043 7.205510139465332 8.155918121337891 7.404030323028564 8.112467765808105 7.478910446166992 C 8.069007873535156 7.553780078887939 7.939887523651123 7.727940082550049 7.680017471313477 7.727940082550049 Z" stroke="none"/>
    <path d="M 4.701587677001953 2.015590190887451 L 1.723167896270752 7.227940559387207 C 1.723167896270752 7.227940559387207 1.723167896270752 7.227940559387207 1.72315788269043 7.227940559387207 L 7.680007934570312 7.227940559387207 L 4.701597690582275 2.015600204467773 C 4.701595306396484 2.01559591293335 4.701594352722168 2.015590667724609 4.701587677001953 2.015590190887451 M 4.701583862304688 1.015595436096191 C 5.039735317230225 1.015595436096191 5.377887725830078 1.183550357818604 5.56983757019043 1.519460201263428 L 8.548257827758789 6.731810569763184 C 8.929197311401367 7.398470401763916 8.447827339172363 8.227940559387207 7.680007934570312 8.227940559387207 L 1.72315788269043 8.227940559387207 C 0.955348014831543 8.227940559387207 0.4739780426025391 7.398470401763916 0.8549175262451172 6.731810569763184 L 3.833337783813477 1.519460201263428 C 4.025282859802246 1.183550357818604 4.363432884216309 1.015595436096191 4.701583862304688 1.015595436096191 Z" stroke="none" fill="#4e4e4e"/>
  </g>
  <g id="Polygon_23" data-name="Polygon 23" transform="translate(62.506 27.353) rotate(90)" fill="#fff">
    <path d="M 7.680017471313477 7.727940082550049 L 1.723157644271851 7.727940082550049 C 1.463287711143494 7.727940082550049 1.334167718887329 7.553780078887939 1.29070770740509 7.478910446166992 C 1.247257709503174 7.404030323028564 1.160107731819153 7.205510139465332 1.289037704467773 6.979880332946777 L 4.267457485198975 1.76753032207489 C 4.397387504577637 1.540140271186829 4.61433744430542 1.515600323677063 4.701587677001953 1.515600323677063 C 4.788827896118164 1.515600323677063 5.005777835845947 1.540140271186829 5.135717868804932 1.76753032207489 L 8.114137649536133 6.979880332946777 C 8.243067741394043 7.205510139465332 8.155918121337891 7.404030323028564 8.112467765808105 7.478910446166992 C 8.069007873535156 7.553780078887939 7.939887523651123 7.727940082550049 7.680017471313477 7.727940082550049 Z" stroke="none"/>
    <path d="M 4.701587677001953 2.015590190887451 L 1.723167896270752 7.227940559387207 C 1.723167896270752 7.227940559387207 1.723167896270752 7.227940559387207 1.72315788269043 7.227940559387207 L 7.680007934570312 7.227940559387207 L 4.701597690582275 2.015600204467773 C 4.701595306396484 2.01559591293335 4.701594352722168 2.015590667724609 4.701587677001953 2.015590190887451 M 4.701583862304688 1.015595436096191 C 5.039735317230225 1.015595436096191 5.377887725830078 1.183550357818604 5.56983757019043 1.519460201263428 L 8.548257827758789 6.731810569763184 C 8.929197311401367 7.398470401763916 8.447827339172363 8.227940559387207 7.680007934570312 8.227940559387207 L 1.72315788269043 8.227940559387207 C 0.955348014831543 8.227940559387207 0.4739780426025391 7.398470401763916 0.8549175262451172 6.731810569763184 L 3.833337783813477 1.519460201263428 C 4.025282859802246 1.183550357818604 4.363432884216309 1.015595436096191 4.701583862304688 1.015595436096191 Z" stroke="none" fill="#4e4e4e"/>
  </g>
  <path id="Path_522" data-name="Path 522" d="M10477.293-9309.02h23.152" transform="translate(-10409.744 9383.53)" fill="none" stroke="#fff" stroke-width="1"/>
  <path id="Path_545" data-name="Path 545" d="M10477.293-9309.02h23.152" transform="translate(-10409.744 9363.496)" fill="none" stroke="#fff" stroke-width="1"/>
  <path id="Path_547" data-name="Path 547" d="M10477.293-9309.02h23.152" transform="translate(-10409.744 9342.66)" fill="none" stroke="#fff" stroke-width="1"/>
  <path id="Path_523" data-name="Path 523" d="M10477.293-9309.02h23.152" transform="translate(-10409.744 9381.943)" fill="none" stroke="#fff" stroke-width="1" stroke-dasharray="3 2"/>
  <path id="Path_544" data-name="Path 544" d="M10477.293-9309.02h23.152" transform="translate(-10409.744 9361.908)" fill="none" stroke="#fff" stroke-width="1" stroke-dasharray="3 2"/>
  <path id="Path_546" data-name="Path 546" d="M10477.293-9309.02h23.152" transform="translate(-10409.744 9341.073)" fill="none" stroke="#fff" stroke-width="1" stroke-dasharray="3 2"/>
</svg>
