<svg xmlns="http://www.w3.org/2000/svg" width="20.933" height="20.271" viewBox="0 0 20.933 20.271">
  <g id="Group_546" data-name="Group 546" transform="translate(-1230.5 -270.205)">
    <g id="Group_545" data-name="Group 545" transform="translate(1231 270.705)">
      <g id="Group_542" data-name="Group 542">
        <path id="Path_552" data-name="Path 552" d="M12060.14-8319.363a.494.494,0,0,1-.266-.077l-4.471-2.81a.5.5,0,0,1-.233-.448.5.5,0,0,1,.278-.423l19.933-9.819a.5.5,0,0,1,.636.17.5.5,0,0,1-.084.652l-6.1,5.4a.268.268,0,0,1-.025.021l-9.359,7.227A.5.5,0,0,1,12060.14-8319.363Zm-3.446-3.257,3.417,2.147,9.069-7,3.3-2.922Z" transform="translate(-12055.669 8332.492)" fill="#ccc"/>
      </g>
      <path id="Path_553" data-name="Path 553" d="M12078.837-8332.492l-6.562,16.382-6.079-2.37,6.917-8.139Z" transform="translate(-12058.904 8332.492)" fill="#ccc"/>
      <path id="Path_553_-_Outline" data-name="Path 553 - Outline" d="M12078.837-8332.992a.493.493,0,0,1,.272.081.5.5,0,0,1,.191.6l-6.562,16.382a.5.5,0,0,1-.646.28l-6.079-2.37a.5.5,0,0,1-.3-.344.5.5,0,0,1,.1-.446l6.917-8.139.022-.024,5.724-5.873A.5.5,0,0,1,12078.837-8332.992Zm-6.842,16.236,5.44-13.582-3.952,4.056-6.451,7.591Z" transform="translate(-12058.904 8332.492)" fill="#ccc"/>
    </g>
    <path id="Path_554" data-name="Path 554" d="M12037.837-8307.015l3.376,1.446-3.376,1.869Z" transform="translate(-10799.736 8593.676)" fill="#ccc"/>
    <path id="Path_554_-_Outline" data-name="Path 554 - Outline" d="M12037.837-8307.515a.516.516,0,0,1,.2.04l3.376,1.446a.5.5,0,0,1,.3.435.5.5,0,0,1-.257.463l-3.376,1.869a.5.5,0,0,1-.5-.007.5.5,0,0,1-.246-.431v-3.315a.5.5,0,0,1,.225-.417A.5.5,0,0,1,12037.837-8307.515Zm2.24,2-1.74-.746v1.709Z" transform="translate(-10799.736 8593.676)" fill="#ccc"/>
  </g>
</svg>
