<svg xmlns="http://www.w3.org/2000/svg" xmlns:xlink="http://www.w3.org/1999/xlink" width="256" height="256" viewBox="0 0 256 256">
  <defs>
    <linearGradient id="linear-gradient" x1="0.5" x2="0.5" y2="1" gradientUnits="objectBoundingBox">
      <stop offset="0" stop-color="#cbf3d9"/>
      <stop offset="1" stop-color="#afa9db"/>
    </linearGradient>
    <filter id="Path_1203" x="77.218" y="32.677" width="102.044" height="29.011" filterUnits="userSpaceOnUse">
      <feOffset dy="1" input="SourceAlpha"/>
      <feGaussianBlur stdDeviation="1" result="blur"/>
      <feFlood flood-opacity="0.161"/>
      <feComposite operator="in" in2="blur"/>
      <feComposite in="SourceGraphic"/>
    </filter>
    <filter id="Rectangle_9" x="75.938" y="129.643" width="103.534" height="58.609" filterUnits="userSpaceOnUse">
      <feOffset dy="1" input="SourceAlpha"/>
      <feGaussianBlur stdDeviation="1" result="blur-2"/>
      <feFlood flood-opacity="0.161"/>
      <feComposite operator="in" in2="blur-2"/>
      <feComposite in="SourceGraphic"/>
    </filter>
    <filter id="Rectangle_9-2" x="76.529" y="66.985" width="103.534" height="58.609" filterUnits="userSpaceOnUse">
      <feOffset dy="1" input="SourceAlpha"/>
      <feGaussianBlur stdDeviation="1" result="blur-3"/>
      <feFlood flood-opacity="0.161"/>
      <feComposite operator="in" in2="blur-3"/>
      <feComposite in="SourceGraphic"/>
    </filter>
    <linearGradient id="linear-gradient-4" x1="0.527" y1="1.825" x2="0.524" y2="0.232" gradientUnits="objectBoundingBox">
      <stop offset="0" stop-color="#cbf3d9"/>
      <stop offset="1" stop-color="#9088cb"/>
    </linearGradient>
    <filter id="Path_1204" x="78.043" y="194.05" width="100.437" height="18.773" filterUnits="userSpaceOnUse">
      <feOffset input="SourceAlpha"/>
      <feGaussianBlur stdDeviation="0.5" result="blur-4"/>
      <feFlood flood-opacity="0.4"/>
      <feComposite operator="in" in2="blur-4"/>
      <feComposite in="SourceGraphic"/>
    </filter>
  </defs>
  <g id="_100" data-name="100" transform="translate(1638 -1551)">
    <rect id="Rectangle_29" data-name="Rectangle 29" width="256" height="256" rx="50" transform="translate(-1638 1551)" fill="#f8fffb"/>
    <g id="Group_75" data-name="Group 75" transform="translate(-8094.063 1076.717)">
      <g transform="matrix(1, 0, 0, 1, 6456.06, 474.28)" filter="url(#Path_1203)">
        <path id="Path_1203-2" data-name="Path 1203" d="M6537.165,522.394v9.576h96.044v-9.576l-11.291-13.435H6611.2l11.576,13.435Z" transform="translate(-6456.95 -474.28)" fill="url(#linear-gradient)"/>
      </g>
      <path id="Rectangle_9-3" data-name="Rectangle 9" d="M24.827,10.049A14.8,14.8,0,0,0,10.049,24.827v2.956A14.8,14.8,0,0,0,24.827,42.56h47.88A14.8,14.8,0,0,0,87.485,27.782V24.827A14.8,14.8,0,0,0,72.707,10.049H24.827M24.827,0h47.88A24.827,24.827,0,0,1,97.534,24.827v2.956A24.827,24.827,0,0,1,72.707,52.609H24.827A24.827,24.827,0,0,1,0,27.782V24.827A24.827,24.827,0,0,1,24.827,0Z" transform="translate(6535.591 543.268)" fill="#707070"/>
      <g transform="matrix(1, 0, 0, 1, 6456.06, 474.28)" filter="url(#Rectangle_9)">
        <path id="Rectangle_9-4" data-name="Rectangle 9" d="M24.827,10.049A14.8,14.8,0,0,0,10.049,24.827v2.956A14.8,14.8,0,0,0,24.827,42.56h47.88A14.8,14.8,0,0,0,87.485,27.782V24.827A14.8,14.8,0,0,0,72.707,10.049H24.827M24.827,0h47.88A24.827,24.827,0,0,1,97.534,24.827v2.956A24.827,24.827,0,0,1,72.707,52.609H24.827A24.827,24.827,0,0,1,0,27.782V24.827A24.827,24.827,0,0,1,24.827,0Z" transform="translate(78.94 131.64)" fill="url(#linear-gradient)"/>
      </g>
      <g transform="matrix(1, 0, 0, 1, 6456.06, 474.28)" filter="url(#Rectangle_9-2)">
        <path id="Rectangle_9-5" data-name="Rectangle 9" d="M24.827,10.049A14.8,14.8,0,0,0,10.049,24.827v2.956A14.8,14.8,0,0,0,24.827,42.56h47.88A14.8,14.8,0,0,0,87.485,27.782V24.827A14.8,14.8,0,0,0,72.707,10.049H24.827M24.827,0h47.88A24.827,24.827,0,0,1,97.534,24.827v2.956A24.827,24.827,0,0,1,72.707,52.609H24.827A24.827,24.827,0,0,1,0,27.782V24.827A24.827,24.827,0,0,1,24.827,0Z" transform="translate(79.53 68.99)" fill="url(#linear-gradient)"/>
      </g>
      <g transform="matrix(1, 0, 0, 1, 6456.06, 474.28)" filter="url(#Path_1204)">
        <path id="Path_1204-2" data-name="Path 1204" d="M11.4-11.387A2.749,2.749,0,0,1,10.937-9.8a3.132,3.132,0,0,1-1.25,1.059,3.916,3.916,0,0,1-1.73.381H2.38V-20.109H8.223a2.371,2.371,0,0,1,1.432.439,2.881,2.881,0,0,1,.927,1.125,3.328,3.328,0,0,1,.323,1.432,3.154,3.154,0,0,1-.439,1.614,2.678,2.678,0,0,1-1.25,1.117,2.953,2.953,0,0,1,1.6,1.1A3.121,3.121,0,0,1,11.4-11.387Zm-1.506-.265a2.163,2.163,0,0,0-.24-1.01,2.018,2.018,0,0,0-.645-.745,1.6,1.6,0,0,0-.935-.281H3.87v4.038H7.958a1.785,1.785,0,0,0,.985-.281,2.069,2.069,0,0,0,.7-.737A1.973,1.973,0,0,0,9.894-11.651ZM3.87-18.818V-14.9H7.61a1.672,1.672,0,0,0,.935-.265,1.915,1.915,0,0,0,.645-.712,2.031,2.031,0,0,0,.24-.977,2.175,2.175,0,0,0-.223-1,1.85,1.85,0,0,0-.612-.7,1.536,1.536,0,0,0-.885-.265Zm9.716,10.46V-17h1.457v8.64Zm0-10.262V-20.44h1.457v1.821Zm7.1,10.427a5.674,5.674,0,0,1-2.019-.356,4.313,4.313,0,0,1-1.622-1.068l.563-1.026a4.872,4.872,0,0,0,1.49.993,4.066,4.066,0,0,0,1.523.3,2.821,2.821,0,0,0,1.457-.335,1.08,1.08,0,0,0,.563-.988.847.847,0,0,0-.29-.706,2.42,2.42,0,0,0-.819-.386q-.53-.156-1.258-.353a9.976,9.976,0,0,1-1.506-.558,2.362,2.362,0,0,1-.927-.739,1.885,1.885,0,0,1-.314-1.117,2.229,2.229,0,0,1,.43-1.388,2.668,2.668,0,0,1,1.183-.863,4.658,4.658,0,0,1,1.713-.3,4.826,4.826,0,0,1,1.738.3,3.677,3.677,0,0,1,1.341.877l-.662,1.01a3.389,3.389,0,0,0-1.125-.786,3.524,3.524,0,0,0-1.374-.257,3.632,3.632,0,0,0-.877.107,1.536,1.536,0,0,0-.712.377,1.009,1.009,0,0,0-.281.763.909.909,0,0,0,.223.648,1.724,1.724,0,0,0,.662.4q.439.164,1.068.361.977.279,1.7.558A2.852,2.852,0,0,1,23.665-12a1.779,1.779,0,0,1,.4,1.231,2.219,2.219,0,0,1-.927,1.9A4.042,4.042,0,0,1,20.686-8.192Zm12.943-.166H32.172v-4.79a3.372,3.372,0,0,0-.472-1.968,1.561,1.561,0,0,0-1.349-.656,2.458,2.458,0,0,0-1.134.294,3.327,3.327,0,0,0-1,.793,3.138,3.138,0,0,0-.629,1.153v5.174H26.131V-20.44h1.457v5.348a3.863,3.863,0,0,1,1.4-1.454A3.637,3.637,0,0,1,30.9-17.08a2.8,2.8,0,0,1,1.3.271,2.152,2.152,0,0,1,.836.764,3.469,3.469,0,0,1,.455,1.142,6.709,6.709,0,0,1,.141,1.421ZM40-8.192a4.312,4.312,0,0,1-1.771-.353,4.214,4.214,0,0,1-1.374-.969,4.379,4.379,0,0,1-.894-1.421,4.609,4.609,0,0,1-.314-1.692,4.654,4.654,0,0,1,.314-1.709,4.379,4.379,0,0,1,.894-1.421,4.191,4.191,0,0,1,1.382-.969,4.37,4.37,0,0,1,1.779-.353,4.27,4.27,0,0,1,1.754.353,4.308,4.308,0,0,1,1.382.969,4.31,4.31,0,0,1,.9,1.421,4.654,4.654,0,0,1,.314,1.709,4.609,4.609,0,0,1-.314,1.692,4.379,4.379,0,0,1-.894,1.421,4.191,4.191,0,0,1-1.382.969A4.37,4.37,0,0,1,40-8.192Zm-2.863-4.419a3.326,3.326,0,0,0,.389,1.605,3.053,3.053,0,0,0,1.034,1.139A2.594,2.594,0,0,0,40-9.45a2.6,2.6,0,0,0,1.448-.426,3.079,3.079,0,0,0,1.043-1.155,3.373,3.373,0,0,0,.389-1.614,3.325,3.325,0,0,0-.389-1.605A3.1,3.1,0,0,0,41.449-15.4,2.6,2.6,0,0,0,40-15.822a2.523,2.523,0,0,0-1.44.434,3.19,3.19,0,0,0-1.034,1.155A3.36,3.36,0,0,0,37.137-12.612ZM51.123-8.192a3.443,3.443,0,0,1-1.887-.526,3.977,3.977,0,0,1-1.308-1.331v5.216H46.472V-16.948h1.291v1.625A3.966,3.966,0,0,1,49.1-16.6a3.507,3.507,0,0,1,1.8-.485,3.7,3.7,0,0,1,1.639.361,4.045,4.045,0,0,1,1.291.986,4.7,4.7,0,0,1,.852,1.421A4.609,4.609,0,0,1,55-12.644a5.1,5.1,0,0,1-.488,2.234,4.02,4.02,0,0,1-1.365,1.618A3.492,3.492,0,0,1,51.123-8.192ZM50.676-9.45a2.5,2.5,0,0,0,1.167-.27,2.848,2.848,0,0,0,.894-.721,3.273,3.273,0,0,0,.571-1.024,3.579,3.579,0,0,0,.2-1.18,3.308,3.308,0,0,0-.223-1.212,3.216,3.216,0,0,0-.629-1.016,3.016,3.016,0,0,0-.943-.7,2.7,2.7,0,0,0-1.167-.254,2.482,2.482,0,0,0-.819.147,3.215,3.215,0,0,0-.8.417,2.99,2.99,0,0,0-.645.613,1.807,1.807,0,0,0-.348.736v2.448a3.838,3.838,0,0,0,.662,1.014,3.186,3.186,0,0,0,.96.728A2.513,2.513,0,0,0,50.676-9.45Zm9.4,1.258a5.674,5.674,0,0,1-2.019-.356,4.313,4.313,0,0,1-1.622-1.068L57-10.642a4.872,4.872,0,0,0,1.49.993,4.066,4.066,0,0,0,1.523.3,2.821,2.821,0,0,0,1.457-.335,1.08,1.08,0,0,0,.563-.988.847.847,0,0,0-.29-.706,2.42,2.42,0,0,0-.819-.386q-.53-.156-1.258-.353a9.976,9.976,0,0,1-1.506-.558,2.362,2.362,0,0,1-.927-.739,1.885,1.885,0,0,1-.314-1.117,2.229,2.229,0,0,1,.43-1.388,2.668,2.668,0,0,1,1.183-.863,4.658,4.658,0,0,1,1.713-.3,4.826,4.826,0,0,1,1.738.3,3.677,3.677,0,0,1,1.341.877l-.662,1.01a3.389,3.389,0,0,0-1.125-.786,3.524,3.524,0,0,0-1.374-.257,3.632,3.632,0,0,0-.877.107,1.536,1.536,0,0,0-.712.377,1.009,1.009,0,0,0-.281.763.909.909,0,0,0,.223.648,1.724,1.724,0,0,0,.662.4q.439.164,1.068.361.977.279,1.7.558A2.852,2.852,0,0,1,63.057-12a1.779,1.779,0,0,1,.4,1.231,2.219,2.219,0,0,1-.927,1.9A4.042,4.042,0,0,1,60.077-8.192Zm8.888,0a3.66,3.66,0,0,1-1.614-.356,3.846,3.846,0,0,1-1.266-.977,4.572,4.572,0,0,1-.819-1.415,4.794,4.794,0,0,1-.29-1.655,5.079,5.079,0,0,1,.29-1.721,4.446,4.446,0,0,1,.828-1.432,3.963,3.963,0,0,1,1.266-.977,3.645,3.645,0,0,1,1.622-.356,3.371,3.371,0,0,1,1.879.521,4.7,4.7,0,0,1,1.349,1.332v-1.721H73.5v8.506a3.508,3.508,0,0,1-.588,2.061A3.691,3.691,0,0,1,71.324-5.1a5.51,5.51,0,0,1-2.226.437,4.891,4.891,0,0,1-2.383-.513,4.532,4.532,0,0,1-1.539-1.39l.844-.745a3.214,3.214,0,0,0,1.332,1.142,4.094,4.094,0,0,0,1.746.381,3.741,3.741,0,0,0,1.465-.282,2.436,2.436,0,0,0,1.076-.862,2.478,2.478,0,0,0,.406-1.455V-9.913a3.475,3.475,0,0,1-1.316,1.258A3.582,3.582,0,0,1,68.965-8.192Zm.447-1.192a2.469,2.469,0,0,0,.894-.166,3.279,3.279,0,0,0,.794-.439,2.836,2.836,0,0,0,.612-.621,1.979,1.979,0,0,0,.331-.712V-13.8a3.2,3.2,0,0,0-.662-1.051,3.22,3.22,0,0,0-.977-.712,2.62,2.62,0,0,0-1.125-.257,2.452,2.452,0,0,0-1.183.281,2.767,2.767,0,0,0-.885.753,3.637,3.637,0,0,0-.563,1.051,3.6,3.6,0,0,0-.2,1.175,3.2,3.2,0,0,0,.232,1.217,3.5,3.5,0,0,0,.629,1.018,2.8,2.8,0,0,0,.943.7A2.767,2.767,0,0,0,69.412-9.384ZM75.5-10.84a2.235,2.235,0,0,1,.472-1.423,3.031,3.031,0,0,1,1.3-.929,5.174,5.174,0,0,1,1.92-.329,8.786,8.786,0,0,1,1.225.091,5.6,5.6,0,0,1,1.142.273v-.625a2.02,2.02,0,0,0-.6-1.542,2.363,2.363,0,0,0-1.688-.563,3.705,3.705,0,0,0-1.365.257,7.56,7.56,0,0,0-1.382.737L76-15.922a7.023,7.023,0,0,1,1.688-.869,5.368,5.368,0,0,1,1.754-.29,3.644,3.644,0,0,1,2.615.911,3.327,3.327,0,0,1,.96,2.535v3.626a.576.576,0,0,0,.108.386.5.5,0,0,0,.356.139v1.125q-.215.033-.372.05a2.552,2.552,0,0,1-.257.017.99.99,0,0,1-.77-.281,1.043,1.043,0,0,1-.29-.6l-.033-.546a3.683,3.683,0,0,1-1.473,1.125,4.484,4.484,0,0,1-1.8.4,3.281,3.281,0,0,1-1.539-.354A2.7,2.7,0,0,1,75.884-9.5,2.451,2.451,0,0,1,75.5-10.84Zm5.627.605a2.17,2.17,0,0,0,.314-.467.958.958,0,0,0,.116-.4v-1.065a6.253,6.253,0,0,0-1.076-.3,5.952,5.952,0,0,0-1.109-.107,3.318,3.318,0,0,0-1.8.434,1.342,1.342,0,0,0-.687,1.188,1.564,1.564,0,0,0,.223.795,1.707,1.707,0,0,0,.662.631,2.191,2.191,0,0,0,1.084.246,3.161,3.161,0,0,0,1.291-.27A2.789,2.789,0,0,0,81.13-10.235Zm8.954,1.5q-.182.083-.5.215a4.73,4.73,0,0,1-.728.232,3.749,3.749,0,0,1-.877.1,2.466,2.466,0,0,1-.977-.19,1.564,1.564,0,0,1-.712-.6A1.825,1.825,0,0,1,86.03-10v-5.809H84.854v-1.142H86.03v-2.88h1.456v2.88h1.936v1.142H87.486v5.363a.912.912,0,0,0,.314.687,1.033,1.033,0,0,0,.662.223,2.078,2.078,0,0,0,.794-.149,4.99,4.99,0,0,0,.48-.215Zm5.4.546A4.37,4.37,0,0,1,93.7-8.545a4.284,4.284,0,0,1-1.39-.969,4.423,4.423,0,0,1-.91-1.421,4.549,4.549,0,0,1-.323-1.709,4.451,4.451,0,0,1,.563-2.218,4.348,4.348,0,0,1,1.564-1.61A4.329,4.329,0,0,1,95.5-17.08a4.146,4.146,0,0,1,2.276.617,4.319,4.319,0,0,1,1.506,1.611,4.44,4.44,0,0,1,.538,2.146q0,.164-.008.32a1.769,1.769,0,0,1-.025.238H92.617a3.22,3.22,0,0,0,.472,1.481A2.954,2.954,0,0,0,94.14-9.653a2.76,2.76,0,0,0,1.39.368,3,3,0,0,0,1.5-.4A2.123,2.123,0,0,0,98-10.724l1.258.348a3.331,3.331,0,0,1-.836,1.125,4.075,4.075,0,0,1-1.308.778A4.621,4.621,0,0,1,95.48-8.192Zm-2.913-4.965h5.892a3.112,3.112,0,0,0-.48-1.472,2.975,2.975,0,0,0-1.059-1,2.873,2.873,0,0,0-1.423-.36,2.841,2.841,0,0,0-1.407.36,2.907,2.907,0,0,0-1.051,1A3.167,3.167,0,0,0,92.567-13.157Z" transform="translate(77.16 215.99)" fill="url(#linear-gradient-4)"/>
      </g>
    </g>
  </g>
</svg>
