<svg id="Example_Company_Apple" xmlns="http://www.w3.org/2000/svg" width="62.363" height="76.589" viewBox="0 0 62.363 76.589">
  <path id="Path_566" data-name="Path 566" d="M52.083,40.69a16.928,16.928,0,0,0,10.279,15.5,41.918,41.918,0,0,1-5.3,10.893c-3.192,4.666-6.505,9.314-11.724,9.411-5.128.094-6.777-3.041-12.64-3.041S25,76.393,20.15,76.584c-5.038.191-8.874-5.045-12.093-9.694C1.48,57.382-3.546,40.021,3.2,28.3a18.749,18.749,0,0,1,15.848-9.6c4.947-.094,9.616,3.328,12.64,3.328s8.7-4.116,14.662-3.511a17.892,17.892,0,0,1,14.008,7.6C60,26.341,52,31,52.083,40.69M42.445,12.229A16.87,16.87,0,0,0,46.429,0,17.169,17.169,0,0,0,35.147,5.8C32.669,8.67,30.5,13.256,31.084,17.652c4.3.332,8.687-2.184,11.361-5.423" transform="translate(0)" fill="#707070"/>
</svg>
