<svg xmlns="http://www.w3.org/2000/svg" width="256" height="256" viewBox="0 0 256 256">
  <g id="AstraZeneca" transform="translate(2272 -1324)">
    <rect id="Rectangle_19" data-name="Rectangle 19" width="256" height="256" rx="50" transform="translate(-2272 1324)" fill="#fffbf2"/>
    <g id="astrazeneca-vector-logo" transform="translate(-2262.6 1169.787)">
      <path id="Path_28" data-name="Path 28" d="M25.716,340.733l3.274-8.862,3.108,8.862Zm9.556,8.928h3.009L30.51,328.3H27.534L19.4,349.661h3.009l2.381-6.547h8.134Zm14.218-4.53c0,1.753-1.422,2.678-3.836,2.678-1.951,0-3.24-.562-3.968-1.819l-2.877.5c1.124,2.282,3.439,3.406,6.745,3.406,4.464,0,6.779-2.48,6.779-5.092,0-3.373-3.108-4.3-6.712-5.026-1.719-.364-3.77-.992-3.77-2.513,0-1.091,1.058-2.348,3.207-2.348A4.026,4.026,0,0,1,48.73,337l2.513-1.058c-1.157-2.215-3.472-3.108-5.919-3.108-3.736,0-6.249,1.852-6.249,4.795,0,3.34,2.877,4,5.654,4.6,2.447.5,4.761,1.091,4.761,2.91M58.319,328.3l-2.811,1.157v3.935H52.929v2.282h2.579v10.416c-.033,2.116-.033,3.637,3.108,3.637a19.485,19.485,0,0,0,2.645-.265v-2.248a6.862,6.862,0,0,1-1.786.364c-1.157,0-1.157-.827-1.157-2.744v-9.192h2.943v-2.282H58.319Zm5.39,5.125v16.235H66.42v-7.473c0-1.389-.033-3.042.694-4.2.893-1.455,2.182-1.984,4.861-2.017v-2.811a5.87,5.87,0,0,0-5.555,3.174v-2.91H63.708Zm24.4-5.092v2.645h12.135L88.111,346.916v2.778h15.673v-2.546h-12.4l12.069-16.1v-2.678H88.111Zm32.735,5.092v16.235h2.711v-9.192a4.507,4.507,0,0,1,1.19-3.637,4.16,4.16,0,0,1,3.108-1.223,3.427,3.427,0,0,1,3.472,2.215,9.448,9.448,0,0,1,.165,2.678v9.159h2.711v-9.622a12.262,12.262,0,0,0-.265-3.307,5.341,5.341,0,0,0-5.324-3.7,5.7,5.7,0,0,0-5.059,2.877v-2.48h-2.711Zm42.291,12.3a3.828,3.828,0,0,1-3.736,2.116c-1.819,0-4.894-1.157-4.894-6.514,0-1.455.265-6.547,4.728-6.547a3.8,3.8,0,0,1,3.77,2.282L165.552,336a7.269,7.269,0,0,0-6.448-3.24c-5.158,0-7.671,4.166-7.671,8.729,0,3.968,2.149,8.4,7.9,8.4a6.927,6.927,0,0,0,6.183-3.207Zm-55.452-5.853h8.6c-.231-4.232-2.678-4.96-4.332-4.96-2.315-.033-3.968,1.686-4.266,4.96m10.846,6.679a6.74,6.74,0,0,1-6.249,3.406c-4.795,0-7.539-3.24-7.539-8.729,0-6.084,4.034-8.432,7.44-8.432,2.976,0,5.82,1.653,6.779,5.72a15.055,15.055,0,0,1,.3,3.273H107.62c-.066,2.711,1.058,6.15,4.894,6.084a3.852,3.852,0,0,0,3.373-1.852Zm20.1-6.679h8.6c-.231-4.232-2.678-4.96-4.332-4.96-2.315-.033-3.968,1.686-4.266,4.96m10.846,6.679a6.74,6.74,0,0,1-6.249,3.406c-4.795,0-7.539-3.24-7.539-8.729,0-6.084,4-8.432,7.44-8.432,2.976,0,5.82,1.653,6.779,5.72a15.056,15.056,0,0,1,.3,3.273H138.57c-.066,2.711,1.058,6.15,4.894,6.084a3.852,3.852,0,0,0,3.373-1.852Zm30.95,3.108h-2.844a23.484,23.484,0,0,1-.331-2.381,6.963,6.963,0,0,1-5.423,2.612c-3.141,0-5.489-1.885-5.489-4.6a4.329,4.329,0,0,1,.727-2.447c.926-1.389,2.645-2.48,7.473-2.844l2.579-.2v-.4c0-1.686,0-4.5-3.637-4.5-2.282,0-3.042,1.091-3.307,2.116l-2.513-1.058a.991.991,0,0,1,.132-.264c.959-1.786,2.844-2.877,5.588-2.877a7.982,7.982,0,0,1,4.728,1.389c1.819,1.356,1.752,4.067,1.752,4.067l.1,8.333a14.332,14.332,0,0,0,.463,3.042m-3.736-4.464c.4-.893.43-1.257.43-3.637-1.058.165-2.48.364-4.232.761-3.009.661-3.538,1.786-3.538,2.91,0,1.29,1.025,2.414,3.042,2.414a4.485,4.485,0,0,0,4.3-2.447M86.16,349.661H83.317a23.491,23.491,0,0,1-.331-2.381,6.963,6.963,0,0,1-5.423,2.612c-3.141,0-5.489-1.885-5.489-4.6a4.329,4.329,0,0,1,.727-2.447c.926-1.389,2.645-2.48,7.473-2.844l2.579-.2v-.4c0-1.686,0-4.5-3.6-4.5-2.282,0-3.042,1.091-3.307,2.116l-2.513-1.058c.033-.1.1-.165.132-.264.959-1.786,2.844-2.877,5.588-2.877a7.982,7.982,0,0,1,4.728,1.389c1.819,1.356,1.753,4.067,1.753,4.067l.1,8.333a13.74,13.74,0,0,0,.43,3.042m-3.7-4.464c.4-.893.463-1.257.463-3.637-1.058.165-2.48.364-4.232.761-3.009.661-3.538,1.786-3.538,2.91,0,1.29,1.025,2.414,3.042,2.414a4.534,4.534,0,0,0,4.266-2.447" transform="translate(0 -52.997)" fill="#8b034f"/>
      <path id="Path_29" data-name="Path 29" d="M519.462,283.008c-.43.265-.86.529-1.256.827-4.894-2.711-15.409-7.936-16.3-8.432-.959-.5-2.678-1.19-2.447-2.811.3-2.281,4.232-7.241,5.919-9.292,9.06-11.077,13.127-14.516,15.805-14.152,2.877.364,4.464,3.34,4.662,17.227-1.587-.5-3.373-.992-5.258-1.488-.165-2.017-.529-5.059-.661-6.117-.165-1.19-.4-1.653-.86-1.686-.529-.066-1.852,1.19-3.075,2.414-.562.562-2.083,2.116-3.8,3.836-1.422-.1-2.381.2-2.91.893a2.61,2.61,0,0,0-.265,2.282l-2.215,2.215c-1.885,1.885-3.9,3.439-4,4.2-.066.628.86,1.257,2.249,2.083,3.34,2.017,11.507,6.448,14.417,8m12.73-13.888c-3.207-1.124-11.11-4.067-19.443-5.158-2.877-.364-4.034.628-2.844,3.373a43.726,43.726,0,0,0,7.341,10.614c3.174,3.406,6.58,4.3,7.671-.926.033-.2.066-.364.1-.562a37.35,37.35,0,0,0,.562-3.77c-1.389-.628-2.976-1.323-4.563-1.984.1,1.19.232,3.273.3,4.861,0,.2.033.4.033.6.1,2.579-.794,2.579-2.248,1.521-1.719-1.223-6.944-8.134-7.539-11.176-.033-.2.066-.2.165-.165.033,0,.066.033.132.066h0c1.19.463,5.125,2.017,9.093,3.7,1.587.661,3.207,1.356,4.629,2.017,1.422.628,2.678,1.223,3.637,1.753,1.719.926,2.381,1.554,1.686,2.282-3.6,3.637-16.136,8.829-20.468,15.243a.115.115,0,0,0-.033.066.533.533,0,0,0-.132.231.115.115,0,0,1-.033.066,5.881,5.881,0,0,0-.628,1.918c-.2,1.389.529,2.678,2.546,3.24a8.355,8.355,0,0,0,1.719.331c.1,0,.231.033.364.033,3.869.2,13.921-2.017,16.963-3.373,3.174-1.389,2.215-2.811,1.29-3.5-.694-.562-4.2-2.513-5.919-3.439-.463.3-.827.529-1.256.827a50.153,50.153,0,0,1,4.728,3.174c.265.2.132.43-.265.463a.915.915,0,0,0-.3.033c-2.744.2-7.969.562-10.416.694-.364.033-.76.033-.992.033a16.061,16.061,0,0,1,1.62-1.323c5.258-3.67,13.987-8.862,16.566-11.11,1.885-1.719,7.043-6.745-4.067-10.647" transform="translate(-321.307 0)" fill="#f9b000"/>
    </g>
  </g>
</svg>
