<svg xmlns="http://www.w3.org/2000/svg" width="256" height="256" viewBox="0 0 256 256">
  <g id="Atkins" transform="translate(-7 -340)">
    <rect id="Rectangle_10" data-name="Rectangle 10" width="256" height="256" rx="50" transform="translate(7 340)" fill="#5e5e5e"/>
    <g id="Atkins-2" data-name="Atkins" transform="translate(36.57 430.251)">
      <g id="Group_7" data-name="Group 7" transform="translate(0 0.68)">
        <g id="Group_6" data-name="Group 6" transform="translate(0 0)">
          <g id="Group_5" data-name="Group 5">
            <path id="Path_14" data-name="Path 14" d="M0,51.669H1.445l2.588,5.436h.028l2.56-5.436H8V62.4H6.967V53.205H6.936L4.395,58.667H3.6L1.043,53.218H.99V62.4H0V51.669M14.371,58v-.823a1.593,1.593,0,0,0-1.661-1.806,1.631,1.631,0,0,0-1.635,1.805V58H14.37ZM10,59.81V57.478a2.674,2.674,0,0,1,2.781-2.92,2.439,2.439,0,0,1,2.59,2.71v1.505h-4.3v1.051c0,1.295.673,1.865,1.924,1.865a3.506,3.506,0,0,0,1.862-.555l.4.709a3.822,3.822,0,0,1-2.409.735A2.532,2.532,0,0,1,10,59.81Zm7.236-5.071h.993v1.325h.015a2.529,2.529,0,0,1,2.4-1.505,1.862,1.862,0,0,1,1.866,1.491h.012a2.563,2.563,0,0,1,2.394-1.492,1.849,1.849,0,0,1,1.91,1.94v5.9H25.773V56.8c0-1.038-.512-1.4-1.327-1.4a2.029,2.029,0,0,0-1.882,1.971V62.4h-1.05V56.726A1.178,1.178,0,0,0,20.19,55.4a2.07,2.07,0,0,0-1.9,2.06V62.4H17.239V54.74m16.081,5.432V56.86A1.326,1.326,0,0,0,31.846,55.4a2.076,2.076,0,0,0-1.8,2.229v1.952a2.046,2.046,0,0,0,1.853,2.2c.841,0,1.425-.543,1.425-1.611Zm-3.353.962h-.029L29.921,62.4h-.933V51.669h1.054v4.29h.047a2.4,2.4,0,0,1,2.151-1.417A2.069,2.069,0,0,1,34.374,56.8v3.325a2.287,2.287,0,0,1-4.407,1.008ZM40.391,58v-.823a1.587,1.587,0,0,0-1.65-1.806A1.632,1.632,0,0,0,37.1,57.178V58ZM36.03,59.81V57.478a2.677,2.677,0,0,1,2.786-2.92,2.439,2.439,0,0,1,2.585,2.71v1.505H37.1v1.051c0,1.295.682,1.865,1.93,1.865a3.526,3.526,0,0,0,1.86-.555l.4.709a3.82,3.82,0,0,1-2.411.735A2.531,2.531,0,0,1,36.03,59.81Zm7.233-5.071h1v1.325h.012a2.164,2.164,0,0,1,2.167-1.414,2.471,2.471,0,0,1,.509.046v.944a4.014,4.014,0,0,0-.635-.044,1.873,1.873,0,0,0-1.995,1.986V62.4H43.263V54.74m11.978,5.055V57.238a1.631,1.631,0,0,0-1.7-1.853c-1.223,0-1.67.874-1.67,1.928v2.5c0,1.175.494,1.909,1.712,1.909,1.254,0,1.656-.841,1.656-1.924Zm-4.424.029V57.343a2.579,2.579,0,0,1,2.726-2.785A2.527,2.527,0,0,1,56.294,57.3v2.484a2.739,2.739,0,1,1-5.478.044Zm7.976-4.2H57.619v-.87h1.174V53.445a1.758,1.758,0,0,1,1.882-1.953,3.4,3.4,0,0,1,.886.106v.855a2.951,2.951,0,0,0-.75-.074c-.56,0-.967.286-.967,1.051v1.327H61.38v.87H59.842V62.4h-1.05V55.626m7.475,5.4V55.614H65.018v-.844h1.249V52.54h1.054v2.23h1.966v.844H67.321V60.7c0,.615.315.888.993.888a3.088,3.088,0,0,0,.92-.168v.874a3.823,3.823,0,0,1-1.27.239c-.809,0-1.7-.285-1.7-1.5m4.588-9.36H71.91V56h.029a2.452,2.452,0,0,1,2.316-1.445,1.855,1.855,0,0,1,1.925,1.957V62.4H75.129V56.83c0-1.036-.45-1.428-1.323-1.428a2.1,2.1,0,0,0-1.9,2.105V62.4H70.855V51.669M82.423,58v-.823a1.589,1.589,0,0,0-1.653-1.806,1.635,1.635,0,0,0-1.642,1.805V58ZM78.06,59.81V57.478a2.678,2.678,0,0,1,2.787-2.92,2.438,2.438,0,0,1,2.584,2.71v1.505h-4.3v1.051c0,1.295.676,1.865,1.924,1.865a3.531,3.531,0,0,0,1.866-.555l.4.709a3.823,3.823,0,0,1-2.412.735,2.53,2.53,0,0,1-2.84-2.768Zm9.266,1.37.736-.769A3.634,3.634,0,0,0,90.847,61.6a1.85,1.85,0,0,0,2.046-1.85c0-1.188-.823-1.7-1.668-2.1L89.872,57a2.989,2.989,0,0,1-2.017-2.71,2.829,2.829,0,0,1,3.055-2.815,3.7,3.7,0,0,1,2.962,1.235l-.706.707a3.1,3.1,0,0,0-2.333-.995A1.655,1.655,0,0,0,89,54.166c0,.876.513,1.371,1.534,1.851l1.249.6c1.4.675,2.243,1.564,2.243,2.948a3.032,3.032,0,0,1-3.3,3.008,4.383,4.383,0,0,1-3.4-1.4m8.605-9.511h1.131l4.663,8.487h.029V51.669h.993V62.4h-.975l-4.816-8.864h-.033V62.4h-.993V51.669m8.863,7.75V54.68c0-1.929,1.429-3.189,3.509-3.189,1.918,0,3.2,1.143,3.2,2.723v.829h-1v-.6a1.972,1.972,0,0,0-2.25-2.02,2.155,2.155,0,0,0-2.329,2.32v4.543A2.127,2.127,0,0,0,108.3,61.63c1.407,0,2.2-.8,2.2-1.91v-.709h1v.8c0,1.685-1.282,2.768-3.2,2.768-2.023,0-3.509-1.037-3.509-3.16m8.138-1.054h3.127v-.841h-3.127Zm4.873-6.7h1.114v9.766h4.71V62.4h-5.824V51.669m11.33,8.185V58.667h-1.3c-.887,0-1.89.286-1.89,1.564a1.357,1.357,0,0,0,1.383,1.521,1.834,1.834,0,0,0,1.806-1.9Zm-4.274.527a2.534,2.534,0,0,1,2.815-2.438h1.458V56.638c0-.906-.606-1.311-1.5-1.311-.811,0-1.582.39-1.582,1.218v.437H125.1v-.468c0-1.294,1.188-1.957,2.651-1.957,1.352,0,2.45.617,2.45,2.035v3.866c0,.586.064,1.562.076,1.94h-.98l-.059-1.218h-.031a2.41,2.41,0,0,1-2.244,1.387,2.025,2.025,0,0,1-2.105-2.185Zm6.589-5.641h1.129l1.716,6.229h.012l1.79-6.229h.991l-2.345,7.674h-1.021l-2.272-7.674m10.8,5.115V58.667h-1.291c-.891,0-1.9.286-1.9,1.564a1.362,1.362,0,0,0,1.388,1.521,1.833,1.833,0,0,0,1.8-1.9Zm-4.269.527a2.53,2.53,0,0,1,2.811-2.438h1.458V56.638c0-.906-.6-1.311-1.5-1.311-.814,0-1.578.39-1.578,1.218v.437h-.95v-.468c0-1.294,1.188-1.957,2.646-1.957,1.352,0,2.454.617,2.454,2.035v3.866c0,.586.06,1.562.071,1.94h-.974l-.059-1.218h-.032a2.407,2.407,0,0,1-2.242,1.387,2.025,2.025,0,0,1-2.105-2.185Zm7.462.512V51.669H146.5v9.043a.771.771,0,0,0,.886.859,4.436,4.436,0,0,0,.647-.06v.829a2.976,2.976,0,0,1-.995.146,1.439,1.439,0,0,1-1.592-1.592m4.14,1.505h1.05V54.74h-1.05V62.4Zm0-8.968h1.05V51.822h-1.05v1.609Zm3.273,1.309h.995v1.294h.013a2.556,2.556,0,0,1,2.394-1.475,1.881,1.881,0,0,1,1.925,1.957V62.4h-1.055V56.8c0-1.023-.5-1.4-1.323-1.4a2.067,2.067,0,0,0-1.892,2.06V62.4h-1.058V54.74m9.962,4.679V54.739a3.241,3.241,0,0,1,3.5-3.266c1.958,0,3.281,1.143,3.281,2.723v.77h-1.023v-.617a2.009,2.009,0,0,0-2.273-1.942,2.235,2.235,0,0,0-2.376,2.378v4.561a2.146,2.146,0,0,0,2.409,2.285c1.668,0,2.252-.918,2.252-2.03V57.734h-2.239v-.887h3.3v2.887c0,1.67-1.3,2.844-3.328,2.844-2,0-3.5-1.037-3.5-3.16m8.918-4.679h1v1.325h.014a2.157,2.157,0,0,1,2.163-1.414,2.476,2.476,0,0,1,.513.046v.944a4.022,4.022,0,0,0-.632-.044,1.882,1.882,0,0,0-2,1.986V62.4h-1.054V54.74m9.273,5.055V57.238a1.633,1.633,0,0,0-1.7-1.853c-1.223,0-1.675.874-1.675,1.928v2.5c0,1.175.5,1.909,1.715,1.909,1.25,0,1.662-.841,1.662-1.924Zm-4.43.029V57.343a2.578,2.578,0,0,1,2.728-2.785,2.528,2.528,0,0,1,2.752,2.739v2.484a2.74,2.74,0,1,1-5.48.044Z" transform="translate(0 9.061)" fill="#fff" fill-rule="evenodd"/>
            <path id="Path_15" data-name="Path 15" d="M183.947,69.682V63.8H185v5.565c0,1.026.455,1.414,1.31,1.414a2.046,2.046,0,0,0,1.913-2.091V63.8h1.054v7.658h-.95l-.046-1.311h-.027a2.517,2.517,0,0,1-2.333,1.491,1.88,1.88,0,0,1-1.976-1.957m11.863-.435v-3.28a1.361,1.361,0,0,0-1.479-1.5c-1.008,0-1.806.934-1.806,2.271v1.851a2.051,2.051,0,0,0,1.9,2.258C195.222,70.843,195.81,70.329,195.81,69.247ZM191.473,63.8h.993v1.263h.027a2.447,2.447,0,0,1,2.2-1.461,2.074,2.074,0,0,1,2.17,2.213v3.311a2.253,2.253,0,0,1-2.32,2.512,2.111,2.111,0,0,1-1.984-1.355h-.033v3.854h-1.05V63.8ZM15.251.9,0,41.009H8.5l11.6-31.82,11.83,31.82h9.046L25.349.9h-10.1M49.012,7.242H37.918L35.49.9H68.876V7.242H57.138V41.009H49.012V7.242M81.947,22.311v18.7H73.815V.9h8.132V18.1L96.745.9h9.773L89.885,19.69,107.2,41.009H96.925l-14.978-18.7m29.822,18.7H119.9V.9h-8.128Zm43.3-10.776V.9h7.451v40.11h-9.782l-16.122-29.38v29.38h-7.452V.9h9.874l16.032,29.334M194.028,8.651a18.558,18.558,0,0,0-8.817-2.178c-2.825,0-6.854,1.268-6.854,5.116s4.715,4.882,9.144,6.656c5.337,2.123,9.36,4.883,9.36,11.4,0,8.378-6.849,12.678-15.708,12.678a25.8,25.8,0,0,1-11.469-2.539l1-7.287a19.787,19.787,0,0,0,10.327,3.081c4.2,0,7.3-1.635,7.3-5.252s-4.377-4.936-8.764-6.7c-4.663-1.858-9.64-4.215-9.64-11.184C169.909,4.116,177.4,0,184.757,0A22.634,22.634,0,0,1,194.9,2.166l-.869,6.485" transform="translate(0 0)" fill="#fff" fill-rule="evenodd"/>
          </g>
        </g>
      </g>
    </g>
  </g>
</svg>
