<svg xmlns="http://www.w3.org/2000/svg" width="256" height="256" viewBox="0 0 256 256">
  <g id="Atradius" transform="translate(2924 -1324)">
    <rect id="Rectangle_17" data-name="Rectangle 17" width="256" height="256" rx="50" transform="translate(-2924 1324)" fill="#fff0f4"/>
    <g id="layer1" transform="translate(-2875.819 1285.111)">
      <g id="g828" transform="translate(-18.329 140.237)">
        <path id="path253" d="M278.128,173.948h-8.685l-.956,3.062.612.612h1.645v3.252h-9.106v-3.252h1.34l.688-.689,8.111-22.919h5.433l8.494,23,.651.612h1.338v3.252H277.247v-3.252h1.379l.573-.612Zm-7.537-3.634h6.237l-3.252-9.335Z" transform="translate(-211.767 -143.588)" fill="#7b7979"/>
        <path id="path265" d="M277.637,163.011v13.276l.689.69h3.711v3.06a37.787,37.787,0,0,1-5.166.382c-3.328,0-5.051-1.225-5.051-4.744V163.011h-2.372v-3.175h1.684l.688-.689L274,154.4h3.634v5.433h4.285v3.175Z" transform="translate(-194.899 -142.751)" fill="#7b7979"/>
        <path id="path269" d="M282.574,173.576h2.142v3.06h-10.98v-3.06h1.683l.689-.689V160.3l-.689-.689h-1.683v-3.251h6.083c1.53,0,1.76.879,1.76,1.683v1.033h.115a7.425,7.425,0,0,1,5.586-3.1,11.85,11.85,0,0,1,1.531.115v8H285.29v-2.678l-.65-.612a9.14,9.14,0,0,0-2.717,1.033v11.057Z" transform="translate(-185.641 -139.352)" fill="#7b7979"/>
        <path id="path273" d="M297.958,176.637h-6.007c-1.53,0-1.76-.879-1.76-1.684v-.727H290a7.1,7.1,0,0,1-5.356,2.794c-4.133,0-5.892-2.6-5.892-5.855,0-3.941,2.64-6.122,6.811-6.122h4.285V163.4c0-2.219-.115-3.826-3.4-3.826a13.776,13.776,0,0,0-1.684.115l-.574.574v2.563h-3.711V157.2a28.145,28.145,0,0,1,7.959-1.225c5.471,0,7.154,2.946,7.154,6.5v10.407l.689.689h1.684Zm-8.111-5.051V168.3H287.13c-1.837,0-2.64.766-2.64,2.22,0,1.376.612,2.18,2.411,2.18a5.235,5.235,0,0,0,2.946-1.11" transform="translate(-174.816 -139.352)" fill="#7b7979"/>
        <path id="path277" d="M299.924,181.6c-1.53,0-1.76-.879-1.76-1.684v-.727h-.115a6.65,6.65,0,0,1-5.586,2.832c-4.095,0-7.27-3.482-7.27-10.292s3.711-10.79,8.111-10.79a6.454,6.454,0,0,1,4.515,1.989v-5.318l-.689-.688h-1.684v-3.252h6.428c1.53,0,1.76.879,1.76,1.683v22.5l.689.689h1.683v3.06Zm-2.1-4.859V166.339a4.471,4.471,0,0,0-3.1-1.262c-2.3,0-3.444,1.912-3.444,6.58,0,4.782,1.148,6.084,3.521,6.084a5.3,5.3,0,0,0,3.023-1" transform="translate(-160.904 -144.32)" fill="#7b7979"/>
        <path id="path281" d="M298.573,161.72c1.53,0,1.76.879,1.76,1.683v14.845l.651.689h1.722V182h-10.56v-3.06h1.683l.689-.689V165.661l-.689-.689h-1.683V161.72Zm-1.492-8.226c2.181,0,3.252,1.186,3.252,3.06s-1.071,3.062-3.252,3.062-3.252-1.187-3.252-3.062,1.072-3.06,3.252-3.06" transform="translate(-145.892 -144.711)" fill="#7b7979"/>
        <path id="path285" d="M313.342,156.1c1.53,0,1.76.879,1.76,1.683v14.845l.689.689h1.683v3.06h-6.083c-1.53,0-1.76-.879-1.76-1.683V174h-.115a7.4,7.4,0,0,1-5.509,2.755c-4.554,0-5.892-2.755-5.892-6.122v-10.6l-.689-.689h-1.684V156.1h6.428c1.53,0,1.76.994,1.76,1.875v11.746c0,1.148.115,2.717,2.334,2.717a5.409,5.409,0,0,0,3.023-1.033V160.039l-.689-.689h-1.683V156.1Z" transform="translate(-138.126 -139.089)" fill="#7b7979"/>
        <path id="path289" d="M309.889,177.02a23.1,23.1,0,0,1-6.772-.88v-5.7h3.4V172.7l.65.688a17.231,17.231,0,0,0,2.64.192c2.066,0,2.985-1.071,2.985-2.142,0-1.378-.459-1.838-3.634-2.717-4.783-1.339-6.007-3.711-6.007-6.5,0-3.634,3.252-6.237,8.494-6.237a28.773,28.773,0,0,1,6.007.651v5.548H314.25v-1.989l-.65-.613a11.07,11.07,0,0,0-2.028-.191c-1.875,0-2.983.765-2.983,1.95,0,1,.268,1.684,3.023,2.488,4.858,1.453,6.887,2.908,6.887,6.39,0,4.361-3.673,6.811-8.608,6.811" transform="translate(-122.201 -139.352)" fill="#7b7979"/>
        <path id="path293" d="M265.4,176.092c5.187,5.03,7.207,13.5,8.1,16.839a3.662,3.662,0,1,0,7.075-1.9c-.895-3.342-3.38-11.682-1.4-18.633,1.767-7.007,8.088-12.99,10.531-15.433a3.664,3.664,0,0,0-5.179-5.184c-2.445,2.446-8.425,8.769-15.434,10.535-6.952,1.975-15.292-.512-18.632-1.405a3.663,3.663,0,0,0-1.9,7.077c3.341.894,11.8,2.912,16.836,8.1" transform="translate(-245.851 -150.714)" fill="#ed1443"/>
        <path id="path297" d="M261.882,171.084h.662l.15-.14v-5.7l-.15-.141h-.662v-.522H263.6l2.067,3.753,2.087-3.753H269.4v.522h-.671l-.14.141v5.7l.13.14h.681v.522h-2.538v-.522h.663l.149-.14v-4.877l-1.836,3.241h-.623l-1.765-3.161v4.8l.14.14h.672v.522h-2.377Z" transform="translate(-211.238 -120.77)" fill="#7b7979"/>
        <path id="path309" d="M269.414,170.48h-1.255c-.331,0-.421-.171-.421-.4v-.291h-.028a2.016,2.016,0,0,1-1.556.792,1.429,1.429,0,0,1-1.545-1.516,1.5,1.5,0,0,1,1.655-1.545h1.424v-.572c0-.692-.16-1.265-1.113-1.265a3.036,3.036,0,0,0-.853.152l-.141.13v.833h-.643v-1.345a5.432,5.432,0,0,1,1.887-.35,1.549,1.549,0,0,1,1.776,1.705v3.02l.139.16h.673Zm-1.726-1.225v-1.143h-1.194c-.572,0-.963.231-.963.923,0,.513.18.844.933.844a1.833,1.833,0,0,0,1.224-.623" transform="translate(-205.35 -119.645)" fill="#7b7979"/>
        <path id="path313" d="M266.371,170.48v-.491h.662l.14-.15v-3.963l-.14-.152h-.662v-.52h1.244c.331,0,.431.171.431.4v.281h.019a2.27,2.27,0,0,1,1.635-.782,1.419,1.419,0,0,1,1.546,1.6v3.131l.15.15h.662v.491h-2.467v-.491h.6l.141-.15v-2.99c0-.523-.141-1.034-.864-1.034a1.814,1.814,0,0,0-1.384.643v3.381l.15.15h.6v.491Z" transform="translate(-201.545 -119.645)" fill="#7b7979"/>
        <path id="path317" d="M273.259,170.48H272c-.331,0-.421-.171-.421-.4v-.291h-.028a2.016,2.016,0,0,1-1.556.792,1.429,1.429,0,0,1-1.545-1.516,1.5,1.5,0,0,1,1.655-1.545h1.424v-.572c0-.692-.159-1.265-1.113-1.265a3.044,3.044,0,0,0-.854.152l-.14.13v.833h-.642v-1.345a5.432,5.432,0,0,1,1.887-.35,1.549,1.549,0,0,1,1.777,1.705v3.02l.139.16h.673Zm-1.726-1.225v-1.143h-1.194c-.572,0-.963.231-.963.923,0,.513.18.844.933.844a1.834,1.834,0,0,0,1.224-.623" transform="translate(-197.048 -119.645)" fill="#7b7979"/>
        <path id="path321" d="M272.478,168.5a2.541,2.541,0,0,1-.894-.14.575.575,0,0,0-.39.491c0,.261.159.421.632.421H273.4c.954,0,1.636.431,1.636,1.245,0,1.163-1.2,1.765-2.67,1.765-1.344,0-2.157-.311-2.157-1.123a1.261,1.261,0,0,1,.834-1.135.9.9,0,0,1-.653-.851,1.2,1.2,0,0,1,.763-1.024,1.531,1.531,0,0,1-.683-1.354c0-1.165.914-1.7,2.007-1.7a3.2,3.2,0,0,1,.772.1h1.775v.522h-.883l-.019.019a1.507,1.507,0,0,1,.38,1.054c0,1.154-.943,1.705-2.026,1.705m-.894,1.6a.976.976,0,0,0-.562.883c0,.542.421.782,1.405.782s1.755-.281,1.755-1.013c0-.442-.281-.652-.963-.652Zm.894-4.5a1.2,1.2,0,0,0,0,2.4,1.2,1.2,0,0,0,0-2.4" transform="translate(-193.256 -119.646)" fill="#7b7979"/>
        <path id="path325" d="M273.353,166.533c.321,0,.411.171.411.4v4.234l.141.15h.672v.491h-2.539v-.491h.673l.14-.15v-3.962l-.14-.152h-.673v-.522Zm-.14-2.047a.505.505,0,0,1,.562.533.563.563,0,0,1-1.125,0,.5.5,0,0,1,.563-.533" transform="translate(-189.309 -120.977)" fill="#7b7979"/>
        <path id="path329" d="M273.115,170.48v-.491h.662l.141-.15v-3.963l-.141-.152h-.662v-.52h1.244c.331,0,.431.171.431.4v.281h.019a2.27,2.27,0,0,1,1.635-.782,1.419,1.419,0,0,1,1.546,1.6v3.131l.15.15h.662v.491h-2.467v-.491h.6l.14-.15v-2.99c0-.523-.14-1.034-.864-1.034a1.813,1.813,0,0,0-1.384.643v3.381l.15.15h.6v.491Z" transform="translate(-186.983 -119.645)" fill="#7b7979"/>
        <path id="path333" d="M277.427,168.5a2.541,2.541,0,0,1-.894-.14.576.576,0,0,0-.39.491c0,.261.16.421.632.421h1.575c.954,0,1.636.431,1.636,1.245,0,1.163-1.2,1.765-2.67,1.765-1.344,0-2.156-.311-2.156-1.123a1.262,1.262,0,0,1,.833-1.135.9.9,0,0,1-.652-.851,1.2,1.2,0,0,1,.762-1.024,1.533,1.533,0,0,1-.682-1.354c0-1.165.913-1.7,2.007-1.7a3.2,3.2,0,0,1,.772.1h1.775v.522h-.883l-.019.019a1.507,1.507,0,0,1,.38,1.054c0,1.154-.943,1.705-2.026,1.705m-.894,1.6a.976.976,0,0,0-.562.883c0,.542.421.782,1.405.782s1.755-.281,1.755-1.013c0-.442-.281-.652-.963-.652Zm.894-4.5a1.2,1.2,0,0,0,0,2.4,1.2,1.2,0,0,0,0-2.4" transform="translate(-182.57 -119.646)" fill="#7b7979"/>
        <path id="path337" d="M279.689,169.988h.772v.491h-2.638v-.491h.662l.141-.15v-3.962l-.141-.152h-.662V165.2h1.244c.331,0,.431.171.431.4v.311h.022a2.216,2.216,0,0,1,1.615-.812,2.889,2.889,0,0,1,.361.028v1.657h-.573v-.753l-.149-.141a1.9,1.9,0,0,0-1.235.592v3.351Z" transform="translate(-176.817 -119.646)" fill="#7b7979"/>
        <path id="path341" d="M280.586,166.533c.321,0,.411.171.411.4v4.234l.14.15h.672v.491h-2.539v-.491h.673l.14-.15v-3.962l-.14-.152h-.673v-.522Zm-.14-2.047a.505.505,0,0,1,.562.533.563.563,0,0,1-1.125,0,.5.5,0,0,1,.563-.533" transform="translate(-173.692 -120.977)" fill="#7b7979"/>
        <path id="path345" d="M282.044,170.581a5.463,5.463,0,0,1-1.646-.221v-1.254h.593v.682l.13.14a5.291,5.291,0,0,0,.963.08c.7,0,1.163-.331,1.163-.9,0-.493-.291-.742-1.234-.973-1.245-.312-1.575-.854-1.575-1.556,0-.883.732-1.474,1.986-1.474a6.3,6.3,0,0,1,1.476.169v1.245h-.592v-.672l-.122-.11a3.805,3.805,0,0,0-.8-.08c-.713,0-1.115.321-1.115.792,0,.431.18.692,1.115.923,1.244.311,1.724.753,1.724,1.556,0,1.053-.873,1.655-2.066,1.655" transform="translate(-171.258 -119.645)" fill="#7b7979"/>
        <path id="path349" d="M285.1,168.71l1.725,2.489.152.12h.542v.492h-2.459v-.492h.632l.07-.09-1.384-2.086H283.6v2.026l.141.15h.6v.492h-2.467v-.492h.662l.15-.15v-6.019l-.15-.141h-.662v-.523h1.3c.331,0,.421.171.421.392v3.793h.783l1.515-1.556-.04-.06h-.582v-.522h2.136v.522h-.621l-.172.12Z" transform="translate(-168.076 -120.977)" fill="#7b7979"/>
        <path id="path353" d="M284.6,166.484a.525.525,0,0,1,.582.552.853.853,0,0,1-.15.421l-.642,1.225c-.009,0-.421-.212-.421-.212l.4-.752-.06-.171a.537.537,0,0,1-.291-.512.52.52,0,0,1,.582-.552" transform="translate(-163.545 -116.663)" fill="#7b7979"/>
        <path id="path357" d="M289.738,168.083h-3.18c.059,1.334.7,1.9,1.735,1.9a3.333,3.333,0,0,0,1.3-.261v.523a3.234,3.234,0,0,1-1.6.34c-1.344,0-2.387-.8-2.387-2.678,0-1.907,1.024-2.8,2.258-2.8a1.965,1.965,0,0,1,2.006,2.158v.692Zm-3.18-.592h2.4V167.2c0-1.052-.461-1.525-1.1-1.525-.723,0-1.214.592-1.294,1.817" transform="translate(-159.994 -119.646)" fill="#7b7979"/>
        <path id="path361" d="M287.294,170.48v-.491h.662l.14-.15v-3.963l-.14-.152h-.662v-.52h1.244c.331,0,.431.171.431.4v.281h.019a2.27,2.27,0,0,1,1.635-.782,1.419,1.419,0,0,1,1.546,1.6v3.131l.15.15h.662v.491h-2.467v-.491h.6l.141-.15v-2.99c0-.523-.141-1.034-.864-1.034a1.813,1.813,0,0,0-1.384.643v3.381l.15.15h.6v.491Z" transform="translate(-156.368 -119.645)" fill="#7b7979"/>
        <path id="path365" d="M294.182,170.48h-1.255c-.331,0-.421-.171-.421-.4v-.291h-.028a2.016,2.016,0,0,1-1.556.792,1.429,1.429,0,0,1-1.545-1.516,1.5,1.5,0,0,1,1.655-1.545h1.424v-.572c0-.692-.16-1.265-1.113-1.265a3.045,3.045,0,0,0-.854.152l-.139.13v.833h-.643v-1.345a5.432,5.432,0,0,1,1.887-.35,1.549,1.549,0,0,1,1.777,1.705v3.02l.139.16h.673Zm-1.726-1.225v-1.143h-1.194c-.572,0-.963.231-.963.923,0,.513.18.844.933.844a1.833,1.833,0,0,0,1.224-.623" transform="translate(-151.87 -119.645)" fill="#7b7979"/>
        <path id="path369" d="M292.405,164.486c.331,0,.421.171.421.392v2.307a1.981,1.981,0,0,1,1.444-.752c1.074,0,1.957.853,1.957,2.7,0,1.785-.923,2.779-2.178,2.779a1.78,1.78,0,0,1-1.254-.531h-.019v.028c0,.231-.1.4-.422.4H291.1v-.492h.663l.15-.15v-6.019l-.15-.141H291.1v-.523Zm.421,3.291v2.94a1.583,1.583,0,0,0,1.143.592c.792.01,1.3-.682,1.3-2.167,0-1.405-.44-2.017-1.234-2.017a1.616,1.616,0,0,0-1.214.652" transform="translate(-148.147 -120.978)" fill="#7b7979"/>
        <path id="path373" d="M294.331,164.486c.331,0,.421.171.421.392v6.29l.141.15h.672v.492h-2.528v-.492h.662l.149-.15v-6.019l-.149-.141h-.662v-.523Z" transform="translate(-143.966 -120.977)" fill="#7b7979"/>
        <path id="path377" d="M295.429,166.533c.321,0,.411.171.411.4v4.234l.14.15h.672v.491h-2.539v-.491h.673l.14-.15v-3.962l-.14-.152h-.673v-.522Zm-.14-2.047a.505.505,0,0,1,.562.533.563.563,0,0,1-1.125,0,.5.5,0,0,1,.563-.533" transform="translate(-141.642 -120.977)" fill="#7b7979"/>
        <path id="path381" d="M295.19,170.48v-.491h.662l.14-.15v-3.963l-.14-.152h-.662v-.52h1.244c.331,0,.431.171.431.4v.281h.019a2.27,2.27,0,0,1,1.635-.782,1.419,1.419,0,0,1,1.546,1.6v3.131l.15.15h.662v.491H298.41v-.491h.6l.141-.15v-2.99c0-.523-.141-1.034-.864-1.034a1.813,1.813,0,0,0-1.384.643v3.381l.15.15h.6v.491Z" transform="translate(-139.318 -119.645)" fill="#7b7979"/>
        <path id="path385" d="M299.5,168.5a2.54,2.54,0,0,1-.894-.14.576.576,0,0,0-.39.491c0,.261.16.421.632.421h1.575c.954,0,1.636.431,1.636,1.245,0,1.163-1.2,1.765-2.67,1.765-1.344,0-2.156-.311-2.156-1.123a1.262,1.262,0,0,1,.832-1.135.9.9,0,0,1-.652-.851,1.2,1.2,0,0,1,.763-1.024,1.531,1.531,0,0,1-.683-1.354c0-1.165.914-1.7,2.007-1.7a3.2,3.2,0,0,1,.772.1h1.775v.522h-.883l-.019.019a1.507,1.507,0,0,1,.38,1.054c0,1.154-.943,1.705-2.026,1.705m-.894,1.6a.976.976,0,0,0-.562.883c0,.542.421.782,1.405.782s1.755-.281,1.755-1.013c0-.442-.281-.652-.963-.652Zm.894-4.5a1.2,1.2,0,0,0,0,2.4,1.2,1.2,0,0,0,0-2.4" transform="translate(-134.903 -119.646)" fill="#7b7979"/>
        <path id="path389" d="M301.522,166.644v4.114l.14.15h1.244v.493s-1,.1-1.394.1c-.592,0-.9-.231-.9-.883v-3.973h-.733v-.5h.593l.14-.141.341-1.325h.572v1.466H302.7v.5Z" transform="translate(-129.2 -120.566)" fill="#7b7979"/>
        <path id="path393" d="M302.939,169.988h.772v.491h-2.638v-.491h.662l.14-.15v-3.962l-.14-.152h-.662V165.2h1.244c.331,0,.431.171.431.4v.311h.022a2.216,2.216,0,0,1,1.615-.812,2.89,2.89,0,0,1,.361.028v1.657h-.573v-.753l-.149-.141a1.9,1.9,0,0,0-1.235.592v3.351Z" transform="translate(-126.615 -119.646)" fill="#7b7979"/>
        <path id="path397" d="M307.342,170.48h-1.255c-.331,0-.421-.171-.421-.4v-.291h-.029a2.016,2.016,0,0,1-1.556.792,1.429,1.429,0,0,1-1.545-1.516,1.5,1.5,0,0,1,1.655-1.545h1.424v-.572c0-.692-.16-1.265-1.113-1.265a3.045,3.045,0,0,0-.854.152l-.141.13v.833h-.642v-1.345a5.432,5.432,0,0,1,1.887-.35,1.548,1.548,0,0,1,1.775,1.705v3.02l.141.16h.673Zm-1.726-1.225v-1.143h-1.194c-.572,0-.963.231-.963.923,0,.513.18.844.932.844a1.833,1.833,0,0,0,1.225-.623" transform="translate(-123.455 -119.645)" fill="#7b7979"/>
        <path id="path401" d="M308.221,171.811c-.331,0-.411-.171-.411-.4v-.281h-.019a2.036,2.036,0,0,1-1.485.782c-1.083,0-1.966-.843-1.966-2.678,0-1.8.913-2.8,2.177-2.8a2.011,2.011,0,0,1,1.234.431v-1.716l-.14-.141h-.672v-.522h1.314c.321,0,.411.171.411.391v6.291l.15.15h.663v.491Zm-.471-1.234v-3.02a1.546,1.546,0,0,0-1.125-.512c-.8,0-1.323.692-1.323,2.178,0,1.394.44,2,1.234,2a1.638,1.638,0,0,0,1.214-.642" transform="translate(-119.56 -120.976)" fill="#7b7979"/>
        <path id="path405" d="M310.394,168.083h-3.181c.06,1.334.7,1.9,1.736,1.9a3.333,3.333,0,0,0,1.3-.261v.523a3.233,3.233,0,0,1-1.6.34c-1.344,0-2.387-.8-2.387-2.678,0-1.907,1.024-2.8,2.258-2.8a1.965,1.965,0,0,1,2.006,2.158v.692Zm-3.181-.592h2.4V167.2c0-1.052-.461-1.525-1.1-1.525-.723,0-1.214.592-1.3,1.817" transform="translate(-115.393 -119.646)" fill="#7b7979"/>
      </g>
    </g>
  </g>
</svg>
