<svg xmlns="http://www.w3.org/2000/svg" width="256" height="256" viewBox="0 0 256 256">
  <g id="BD" transform="translate(-16 -199)">
    <rect id="Rectangle_9" data-name="Rectangle 9" width="256" height="256" rx="50" transform="translate(16 199)" fill="#fff9f5"/>
    <g id="Group_51" data-name="Group 51" transform="translate(26.002 202.789)">
      <path id="Subtraction_2" data-name="Subtraction 2" d="M15.072,57.834c-6.628,0-9.028-.1-9.28-.113h0V9.109H0V0H27.158a25.177,25.177,0,0,1,4.93.706,22,22,0,0,1,4.439,1.569,14.943,14.943,0,0,1,4.222,2.991,12.637,12.637,0,0,1,3.436,9.377A14.556,14.556,0,0,1,42.9,20.725a11.95,11.95,0,0,1-2.747,3.751A11.535,11.535,0,0,1,36.182,26.9h0a18.774,18.774,0,0,1,5.252,3.468,15.709,15.709,0,0,1,3.506,4.72,14.666,14.666,0,0,1,1.367,7.05A14.326,14.326,0,0,1,40.055,53.7a25.888,25.888,0,0,1-10.6,4.023C24,57.8,19.158,57.834,15.072,57.834Zm1.955-25.628v16.6h9.466a9.4,9.4,0,0,0,3.842-1.124c1.774-.98,3.93-3.039,4.124-7.275A7.464,7.464,0,0,0,32.6,34.675a8.227,8.227,0,0,0-3.937-2.16,9.98,9.98,0,0,0-2.168-.309H17.027Zm0-23.012V23.5h8.6a8.973,8.973,0,0,0,3.49-.968,6.985,6.985,0,0,0,3.746-6.268,6.27,6.27,0,0,0-1.581-4.827,7.482,7.482,0,0,0-3.628-1.959,9.581,9.581,0,0,0-2.027-.28h-8.6Z" transform="translate(110.298 95.264)" fill="#003784"/>
      <path id="Subtraction_3" data-name="Subtraction 3" d="M23.74,57.982H5.9V8.92H0V0H23.74a34.821,34.821,0,0,1,4.633.558,40.419,40.419,0,0,1,10.2,3.255A26.691,26.691,0,0,1,48.808,12.14,23.929,23.929,0,0,1,52.2,18.947a30.344,30.344,0,0,1,1.321,8.965,35.191,35.191,0,0,1-1.28,9.719,26.468,26.468,0,0,1-3.374,7.362,26.889,26.889,0,0,1-10.238,8.961,38.063,38.063,0,0,1-10.238,3.458A32.341,32.341,0,0,1,23.74,57.982ZM17.409,8.777c0,.381-.142,38.15,0,40.285a25.982,25.982,0,0,0,3.606.244c6.093,0,20.308-1.972,20.709-20.243.223-10.182-4.288-15.155-8.111-17.535a19.213,19.213,0,0,0-5.789-2.354,15.778,15.778,0,0,0-2.646-.4Z" transform="translate(162.476 95.22)" fill="#003784"/>
      <g id="Group_4" data-name="Group 4" transform="translate(19.998 87.084)">
        <ellipse id="Ellipse_5" data-name="Ellipse 5" cx="37.126" cy="37.126" rx="37.126" ry="37.126" transform="translate(0 0.001)" fill="#fff"/>
        <path id="Subtraction_4" data-name="Subtraction 4" d="M37.126,74.252A37.095,37.095,0,0,1,0,37.126,37.44,37.44,0,0,1,.641,30.22L36.894,45.2,73.637,30.588h.042a37.465,37.465,0,0,1,.574,6.538A37.095,37.095,0,0,1,37.126,74.252Zm-.232-39.234h0L.863,29.131A36.83,36.83,0,0,1,5.574,17.55a37.139,37.139,0,0,1,63.09-.023A36.831,36.831,0,0,1,73.381,29.1L36.894,35.018Z" transform="translate(0 0.001)" fill="#ed6809"/>
        <path id="Intersection_1" data-name="Intersection 1" d="M0,6.965A37.33,37.33,0,0,1,.652,0L37.365,14.942,73.646.234A37.13,37.13,0,1,1,0,6.965Z" transform="translate(0.482 30.162)" fill="#003784"/>
        <path id="Intersection_2" data-name="Intersection 2" d="M0,29.207l21.136,1.5L6.414,14.757c.074-.1.147-.193.221-.289L26.519,25.83,19.112,4.079c.289-.148.577-.291.87-.432l12.4,19.638L35.488,0c.186,0,.373,0,.559,0h.261l2.717,23.283L51.676,3.44q.773.359,1.527.753L45.223,25.83,65.141,14.06q.4.506.786,1.027L50.314,30.7l21.928-1.527L35.926,35.569Z" transform="translate(1.562 0)" fill="#fff"/>
        <path id="Subtraction_5" data-name="Subtraction 5" d="M24.306,24.35a24.156,24.156,0,0,1-9.439-1.9,24.226,24.226,0,0,1-7.715-5.185A24.228,24.228,0,0,1,1.938,9.572,24.148,24.148,0,0,1,0,.148l8.515,3.92a16.284,16.284,0,0,0,15.791,12.27A16.357,16.357,0,0,0,40.259,3.364L48.612,0V.044A24.154,24.154,0,0,1,46.7,9.505a24.225,24.225,0,0,1-5.209,7.726,24.224,24.224,0,0,1-7.726,5.209A24.154,24.154,0,0,1,24.306,24.35Z" transform="translate(13.377 43.493)" fill="#fff"/>
        <ellipse id="Ellipse_4" data-name="Ellipse 4" cx="5.609" cy="5.609" rx="5.609" ry="5.609" transform="translate(32.074 49.147)" fill="#fff"/>
      </g>
    </g>
  </g>
</svg>
