<svg xmlns="http://www.w3.org/2000/svg" width="256" height="256" viewBox="0 0 256 256">
  <g id="Bird_Bird" transform="translate(2598 -1324)">
    <rect id="Rectangle_18" data-name="Rectangle 18" width="256" height="256" rx="50" transform="translate(-2598 1324)" fill="#fffef9"/>
    <g id="bird-and-bird-logo-vector" transform="translate(-2435.577 1211.952)">
      <path id="Path_26" data-name="Path 26" d="M150.108,253.564a37.545,37.545,0,0,1-3.307-3.6,14.216,14.216,0,0,0,2.043-7.588h2.821v-2.659H146.8a.632.632,0,0,0-.584.616c0,.681,0,1.946-.1,3.534a10.45,10.45,0,0,1-1.07,4.021c-2.853-3.47-6.226-7.717-8.4-10.571,3.243-1.556,7.036-4.118,7-8.2a6.079,6.079,0,0,0-6-6.161,7.5,7.5,0,0,0-6,2.14,7.378,7.378,0,0,0-2.14,5.674c.195,2.108,1.459,3.7,2.659,5.221.065.1.162.195.227.292a15.986,15.986,0,0,0-4.734,2.886,10.317,10.317,0,0,0-3.437,7.069,9.841,9.841,0,0,0,2.756,7.75,10.256,10.256,0,0,0,6.907,3.048h.519a14.047,14.047,0,0,0,10.636-4.9,34.469,34.469,0,0,0,3.372,3.6,4.42,4.42,0,0,0,3.243.746v-2.659a2.926,2.926,0,0,1-1.556-.259m-17.931-23.282a4.677,4.677,0,0,1,1.3-3.437,4.548,4.548,0,0,1,3.307-1.3,2.141,2.141,0,0,1,.454.032,3.667,3.667,0,0,1,3.729,3.729c0,2.724-3.243,4.637-5.934,5.869-.259-.324-.486-.649-.746-.94-1.038-1.394-1.978-2.562-2.108-3.956m2.043,24.287a7.748,7.748,0,0,1-7.328-8.333c.357-4.572,3.956-6.55,6.647-7.62l.195-.065a3.365,3.365,0,0,1,.324-.13c1.978,2.594,6,7.75,9.339,11.77-2.594,2.951-5.61,4.507-9.176,4.377" transform="translate(-172.923 0)" fill="#f9d616"/>
      <path id="Path_27" data-name="Path 27" d="M-100.993,226.681a3.01,3.01,0,0,1,3.048,2.983,3.1,3.1,0,0,1-3.048,2.983,3.133,3.133,0,0,1-3.113-2.983,3.026,3.026,0,0,1,3.113-2.983m117.316,0a3.006,3.006,0,0,0-3.113,2.983,3.133,3.133,0,0,0,3.113,2.983,3.1,3.1,0,0,0,3.048-2.983,3.031,3.031,0,0,0-3.048-2.983M-115.52,242.018c5.512.616,8.3,3.08,8.3,7.361,0,5.35-4.183,8.528-11.219,8.528h-13.23v-2.27h2.3a.949.949,0,0,0,1.1-.843,7.106,7.106,0,0,0,.1-1.362V232.323a10.241,10.241,0,0,0-.065-1.135c-.13-.746-.422-1.038-1.135-1.038H-131.7v-2.27h12.16c7.1,0,10.7,2.4,10.7,7.166.032,3.729-2.173,6.031-6.68,6.971m2.951,7.977c0-4.6-1.881-6.485-6.485-6.485h-4.086v9.014c0,2.886.357,3.145,4.248,3.145,4.248-.032,6.323-1.881,6.323-5.674m-7.069-8.82c3.664,0,5.739-1.913,5.739-5.285,0-4.313-1.524-5.739-6-5.739a20.685,20.685,0,0,0-3.243.227v10.83h3.5Zm38.749-6.1a10.254,10.254,0,0,0-6.031,2.594c.032-.519.032-.778.032-.778a.544.544,0,0,0-.065-.422.477.477,0,0,0-.422-.195h-7.2v2.27h1.816a.951.951,0,0,1,1.1.876v.065a7.946,7.946,0,0,1,.032.973v14.105c0,1.232-.551,1.427-1.1,1.427h-1.783v1.946h10.863v-1.946h-2.173c-.551,0-1.1-.162-1.1-1.362V240.1a6.421,6.421,0,0,1,3.145-1.783c.357,0,.584.1.811.616.389,1.005.908,1.492,2.626,1.492a2.421,2.421,0,0,0,2.5-2.594c-.032-1.719-1.135-2.756-3.048-2.756m-16.342,20.882c-.551,0-1.1-.162-1.1-1.394v-14.04c0-2.432.1-3.729.1-3.729a.471.471,0,0,0-.065-.389.486.486,0,0,0-.389-.162h-7.62v1.913h2.173a.967.967,0,0,1,1.038.713v.032a.119.119,0,0,0,.032.1v.032A8.292,8.292,0,0,1-103,240.4v14.073a.9.9,0,0,1-.032.292.292.292,0,0,1-.032.162.971.971,0,0,1-1.07.94h-1.783v1.946h10.441l.032-1.913ZM1.8,242.018c5.512.616,8.3,3.08,8.3,7.361,0,5.35-4.183,8.528-11.219,8.528h-13.23v-2.27h2.335a.965.965,0,0,0,1.1-.843,7.106,7.106,0,0,0,.1-1.362V232.323a9.758,9.758,0,0,0-.065-1.135c-.13-.746-.422-1.038-1.135-1.038h-2.335v-2.27h12.16c7.1,0,10.7,2.4,10.7,7.166,0,3.729-2.2,6.031-6.712,6.971m2.951,7.977c0-4.6-1.881-6.485-6.485-6.485H-5.824v9.014c0,2.886.357,3.145,4.248,3.145,4.248-.032,6.323-1.881,6.323-5.674m-7.069-8.82c3.664,0,5.739-1.913,5.739-5.285,0-4.313-1.524-5.739-6-5.739a20.685,20.685,0,0,0-3.243.227v10.83h3.5Zm38.781-6.1a10.254,10.254,0,0,0-6.031,2.594c.032-.519.032-.778.032-.778a.544.544,0,0,0-.065-.422.477.477,0,0,0-.422-.195h-7.2v2.27h1.816a.951.951,0,0,1,1.1.876v.065a7.949,7.949,0,0,1,.032.973v14.073c0,1.232-.551,1.427-1.1,1.427H22.84v1.946H33.7v-1.946H31.53c-.551,0-1.1-.162-1.1-1.362V240.072a6.421,6.421,0,0,1,3.145-1.783c.357,0,.584.1.811.616.389,1.005.908,1.492,2.626,1.492a2.421,2.421,0,0,0,2.5-2.594c-.032-1.686-1.167-2.724-3.048-2.724M20.084,255.961c-.551,0-1.1-.162-1.1-1.394v-14.04c0-2.432.1-3.729.1-3.729a.471.471,0,0,0-.065-.389.486.486,0,0,0-.389-.162H11v1.913h2.173a.976.976,0,0,1,1.038.681v.065a.119.119,0,0,0,.032.1v.065a7.5,7.5,0,0,1,.065,1.362V254.5a.9.9,0,0,1-.032.292v.162a.954.954,0,0,1-1.07.94H11.426v1.946H21.867l.032-1.913Zm-74.546-.389v2.27h-7.1l-.227-.389.032-1.492a13.506,13.506,0,0,1-7.458,2.464c-4.053,0-8.787-2.983-8.787-11.414,0-8.755,6.323-11.9,12.257-11.9a15.67,15.67,0,0,1,3.859.454l-.032-6.712v-.195a2.094,2.094,0,0,0-.259-1.135l-.065-.1a1.054,1.054,0,0,0-.875-.357h-2.335V224.8h7.717a.477.477,0,0,1,.422.195c.13.195.1.422.065.422,0,0-.13,1.686-.13,4.929v22.8c0,2.27.454,2.432,1.1,2.432h1.816Zm-11.576-18.029c-4.831,0-7.069,2.951-7.069,9.274,0,5.674,1.978,8.333,6.258,8.333a8.805,8.805,0,0,0,4.54-1.2c.1-.065.195-.1.292-.162V239.067a5.5,5.5,0,0,0-4.021-1.524M62.853,255.572v2.27h-7.1l-.227-.389.032-1.492a13.506,13.506,0,0,1-7.458,2.464c-4.053,0-8.787-2.983-8.787-11.414,0-8.755,6.323-11.9,12.257-11.9a15.67,15.67,0,0,1,3.859.454l-.032-6.712v-.195a2.094,2.094,0,0,0-.259-1.135l-.065-.1a1.054,1.054,0,0,0-.875-.357H51.861V224.8h7.717a.477.477,0,0,1,.422.195c.13.195.1.422.065.422,0,0-.13,1.686-.13,4.929v22.8c0,2.27.454,2.432,1.1,2.432h1.816ZM51.31,237.543c-4.831,0-7.069,2.951-7.069,9.274,0,5.674,1.978,8.333,6.258,8.333a8.8,8.8,0,0,0,4.54-1.2c.1-.065.195-.1.292-.162V239.067a5.607,5.607,0,0,0-4.021-1.524" transform="translate(0 -1.262)" fill="#343d41"/>
    </g>
  </g>
</svg>
