<svg xmlns="http://www.w3.org/2000/svg" width="256" height="256" viewBox="0 0 256 256">
  <g id="Dentons" transform="translate(2786 -1551)">
    <rect id="Rectangle_26" data-name="Rectangle 26" width="256" height="256" rx="50" transform="translate(-2786 1551)" fill="#fef8ff"/>
    <g id="Dentons_1" transform="translate(-2752 1754.143)">
      <path id="Path_1134" data-name="Path 1134" d="M.589-97.19C.074-96.454,0-94.208,0-80.069,0-64.237.037-63.721.736-63.022c.736.736,1.215.736,84.868.736,70.435,0,84.353-.074,85.347-.515,1.252-.515,16.053-14.912,16.79-16.348a2.376,2.376,0,0,0,.184-1.657c-.368-1.141-15.575-16.09-16.974-16.679-.994-.442-15.133-.515-85.494-.515H1.141Zm126.769,9.868c2.872.81,4.234,3.13,4.234,7.18,0,3.424-.552,4.75-2.614,6.333-1.215.92-1.62,1.031-4.308,1.031-3.424,0-4.823-.589-6.186-2.467-.736-1.068-.847-1.62-.847-4.9,0-3.314.11-3.829.884-4.934C120.141-87.322,123.97-88.317,127.358-87.322Zm36.083.147a2.827,2.827,0,0,1,.405,1.767c0,1.362-.074,1.473-.81,1.252-1.767-.552-5.339-.663-6.112-.258a1.3,1.3,0,0,0-.331,2.172,8.763,8.763,0,0,0,2.651.626c4.271.515,5.339,1.4,5.339,4.455a3.154,3.154,0,0,1-1.289,2.946c-1.51,1.4-3.5,1.841-6.775,1.51-3.13-.331-3.351-.479-3.351-2.172,0-1.362.074-1.473.847-1.252a15.535,15.535,0,0,0,5.56.442c1.031-.184,1.362-.479,1.546-1.215.331-1.289-.405-1.8-3.166-2.062-2.982-.331-4.271-1.031-4.786-2.688a4.372,4.372,0,0,1,2.8-5.67C157.108-87.691,162.778-87.58,163.441-87.175ZM62.7-86.77c2.136.884,3.314,2.8,3.5,5.56.221,3.093-.11,4.676-1.289,6.038-1.436,1.73-2.982,2.209-7.327,2.209H53.756V-87.322h3.829A15.464,15.464,0,0,1,62.7-86.77Zm18.667.92v1.473H73.638v2.541l3.424.11,3.387.11.11,1.362.11,1.4H73.638v2.946H81.37v2.946H70.325V-87.322H81.37ZM91.9-82.9c1.951,2.43,3.571,4.418,3.608,4.418,0,0,0-1.988-.074-4.418l-.11-4.418h3.351v14.359h-1.4c-1.362,0-1.546-.147-4.529-3.94-1.694-2.136-3.314-4.161-3.571-4.492-.368-.479-.442.221-.368,3.94l.11,4.492h-3.5V-87.322h1.473C88.329-87.322,88.44-87.212,91.9-82.9Zm22.975-2.946v1.473h-4.786v11.414h-3.314V-84.377h-4.418v-2.946h12.519Zm26.068,1.583c1.289,1.657,2.872,3.645,3.5,4.418l1.178,1.362-.147-4.418-.11-4.418h3.387v14.359h-1.4c-1.362,0-1.546-.147-4.345-3.719-4.786-6.112-4.271-6-4.124-.81l.147,4.529h-3.535V-87.322l1.583.037C138.588-87.286,138.7-87.175,140.944-84.266ZM41.053-86.144a5.846,5.846,0,0,1,.074,1.583c-.074.663.184.736,2.43.847,2.136.074,2.5.221,2.393.736-.074.479-.589.663-2.32.736a8.034,8.034,0,0,0-2.5.405c-.368.368.368,3.351.847,3.351.184,0,.442-.589.589-1.289.295-1.62.994-2.246,1.657-1.436.442.552.368,1.252-.626,4.234-.258.773,1.51,1.436,3.756,1.436,1.325,0,1.62.11,1.62.663,0,1.289-2.467,2.835-3.9,2.5A8.056,8.056,0,0,1,42.931-73.7l-1.252-1.141-1.252.773c-1.436.884-3.24.994-3.24.184,0-.295.405-.626.884-.773,1.4-.331,2.577-1.767,2.136-2.614a17.567,17.567,0,0,1-.81-2.8L38.955-82.2l-2.062.11c-1.731.074-2.1.221-2.209.81-.147.626.037.663,1.878.442,1.252-.11,2.136-.074,2.283.147.479.773.258,4.087-.331,4.971a2.394,2.394,0,0,1-3.13.92c-.957-.515-1.031-1.473-.074-1.215.92.221,1.878-.847,1.878-2.136,0-.957-.11-1.068-1.252-1.068-1.289,0-1.289.037-1.731,2.209-.295,1.62-.7,2.43-1.362,2.946-1.178.957-2.872.957-3.387.037-.295-.626-.221-.81.626-1.215a5.994,5.994,0,0,0,1.878-1.767c.81-1.178.847-1.546.626-4.087-.184-2.393-.147-2.835.368-3.056a2,2,0,0,1,1.289.147,7.71,7.71,0,0,0,2.725.368h2.062v-1.4c0-1.583.184-1.915,1.141-1.915A.968.968,0,0,1,41.053-86.144ZM18.778-85.7a3.206,3.206,0,0,1,.11,1.657c-.184.7-.037.773,1.841.773,2.946,0,4.308.331,4.308,1.1,0,.81-1.436,1.1-4.271.884l-2.172-.184,1.841,1.694a24.287,24.287,0,0,0,4.6,3.019c1.51.736,2.835,1.436,2.946,1.51.368.295-2.393,2.283-3.166,2.283-.552,0-1.767-.994-3.682-3.093l-2.872-3.093-.626,1.325a7.326,7.326,0,0,1-4.492,3.9c-2.356.773-3.792.736-4.676-.147-1.1-1.1-.92-1.4,1.031-1.657,2.909-.368,4.529-.92,5.449-1.915.957-1.031,1.694-3.056,1.252-3.535a6.659,6.659,0,0,0-2.577.074c-3.019.479-3.719.037-2.32-1.51.442-.515,1.141-.663,2.982-.663h2.393L16.5-84.487c-.258-1.62-.037-2.1,1.031-2.1A1.258,1.258,0,0,1,18.778-85.7ZM45.177-86c.295.773-.773,1.62-1.988,1.62-1.068,0-1.068-.258-.037-1.362C44.073-86.733,44.846-86.844,45.177-86Z" fill="#702082"/>
      <path id="Path_1135" data-name="Path 1135" d="M329.62-61.505c-1.1.515-1.62,1.841-1.62,4.161,0,3.424,1.068,4.6,4.087,4.6a3,3,0,0,0,2.32-.847c1.62-1.62,1.51-6.333-.184-7.732A5.519,5.519,0,0,0,329.62-61.505Z" transform="translate(-207.233 -22.798)" fill="#702082"/>
      <path id="Path_1136" data-name="Path 1136" d="M155-56.766v4.234h1.878a3.279,3.279,0,0,0,2.946-1.068c.92-.957,1.068-1.362,1.068-3.166s-.147-2.209-1.068-3.166A3.279,3.279,0,0,0,156.878-61H155Z" transform="translate(-97.93 -23.377)" fill="#702082"/>
    </g>
  </g>
</svg>
