<svg xmlns="http://www.w3.org/2000/svg" width="104.221" height="104.275" viewBox="0 0 104.221 104.275">
  <g id="Example_Company_DOD_State_00" transform="translate(-198.112 -48.935)">
    <path id="path836" d="M234.561,141.468c-1.978-.172-4.488-.523-6.286-.879a52.259,52.259,0,0,1-40.288-38.166,44.494,44.494,0,0,1-1.542-13.046,44.669,44.669,0,0,1,1.486-12.843,52.263,52.263,0,0,1,41.585-38.59,40.709,40.709,0,0,1,9.033-.683,40.923,40.923,0,0,1,9.058.685,52.238,52.238,0,0,1,42.436,42.576,41.576,41.576,0,0,1,.622,8.855,41.576,41.576,0,0,1-.622,8.855A52.237,52.237,0,0,1,243.01,141.42c-1.422.127-7.162.159-8.449.047Zm9.6-.65a51.868,51.868,0,0,0,45.284-42.033,44.038,44.038,0,0,0,.8-9.408,47.794,47.794,0,0,0-2.622-16.392,48.373,48.373,0,0,0-6.03-12.268,51.7,51.7,0,0,0-87.685,2.555,51.736,51.736,0,0,0,39.774,77.607l2.3.2a76.932,76.932,0,0,0,8.179-.258Zm-8.923-.743a50.925,50.925,0,1,1,8.915-.215,65.38,65.38,0,0,1-8.915.215Zm2.907-2.551c0-.138.039-.534.086-.879.084-.609.076-.627-.27-.627-.266,0-.356.068-.356.27,0,.474-.478.811-1.149.811h-.608v-.676c0-.464.055-.676.176-.676a.577.577,0,0,1,.5.568.233.233,0,0,0,.252.243c.2,0,.268-.138.337-.71.14-1.165.118-1.318-.186-1.318a.464.464,0,0,0-.4.338c-.223.587-.541.423-.541-.279v-.617l.642.093c.774.112.951.237,1.006.711.03.256.131.374.346.405.27.038.3-.015.306-.473a4.04,4.04,0,0,1,.081-.812c.1-.363-.109-.4-2.483-.5l-1.656-.068v.331c0,.249.072.331.29.331.279,0,.287.039.2,1.034-.048.569-.087,1.238-.087,1.487,0,.4-.043.453-.347.453-.283,0-.339.056-.3.3.041.288.12.308,1.463.379,2.809.148,2.7.153,2.7-.124Zm1.917.112c.031-.094.193-.088.494.017a2.636,2.636,0,0,0,2.031-.248,1.29,1.29,0,0,0,.419-1.536c-.2-.491-.9-.849-1.929-.995-.687-.1-.915-.343-.633-.683a1.111,1.111,0,0,1,1.424.131,1.168,1.168,0,0,1,.332.483c0,.083.137.131.3.108s.289-.089.27-.145a5.676,5.676,0,0,1-.034-.777c0-.579-.038-.676-.262-.676a.448.448,0,0,0-.341.127c-.048.078-.238.072-.492-.017a2.786,2.786,0,0,0-1.941.236,1.351,1.351,0,0,0-.489,1.452c.184.484.643.751,1.642.955q1.389.283.946.818c-.392.472-1.619.082-1.829-.581-.054-.169-.174-.229-.38-.19-.278.053-.3.12-.255.859s.072.8.361.8c.173,0,.336-.063.361-.139Zm-7.595-.6c0-.248-.072-.338-.27-.338-.317,0-.334-.189-.128-1.476.222-1.387.256-1.5.461-1.5.238,0,.361.192.472.732.06.294.163.417.349.417.214,0,.285-.136.378-.72a2.143,2.143,0,0,0,.038-.8c-.071-.071-3.9-.706-3.962-.657a6.77,6.77,0,0,0-.2,1.633c.191.191.544.036.622-.273s.67-.733.827-.576a7.68,7.68,0,0,1-.153,1.509c-.208,1.338-.245,1.438-.53,1.438s-.568.353-.418.5a22.084,22.084,0,0,0,2.347.429C232.39,137.363,232.465,137.219,232.465,137.031Zm-3.524-.762c.005-.047-.1-.116-.245-.152-.228-.06-.265-.266-.353-1.964l-.1-1.9-.468-.088a5.3,5.3,0,0,1-.635-.152c-.1-.038-.567.565-1.157,1.5-.821,1.293-1.046,1.559-1.32,1.559s-.321.061-.287.291.216.338.888.522c.465.127.845.183.845.126a1.231,1.231,0,0,1,.082-.319c.053-.138.008-.214-.127-.214-.3,0-.378-.2-.177-.469.141-.193.283-.22.739-.143.515.087.565.131.565.5,0,.332-.044.389-.254.322-.182-.058-.274,0-.327.2-.084.322-.056.338,1.227.664.825.21.918.212,1,.018a1.576,1.576,0,0,0,.1-.3Zm-2.187-1.968c-.289-.076-.289-.088-.02-.609.167-.323.244-.376.336-.23.146.23.163.938.022.917-.056-.009-.208-.043-.338-.078Zm22.812,2.182a2.129,2.129,0,0,0,.847-3.038,1.888,1.888,0,0,0-1.9-1.107,2.592,2.592,0,0,0-2.036.844,1.9,1.9,0,0,0-.453,1.708,2.152,2.152,0,0,0,1.058,1.645,1.517,1.517,0,0,0,1.2.264,4.169,4.169,0,0,0,1.283-.316Zm-1.591-.5a3.168,3.168,0,0,1-.638-1.934c0-.743.275-1.035.923-.98.624.053.967.61,1.069,1.734.06.662.029.862-.169,1.081A.949.949,0,0,1,247.974,135.983Zm5.283-.517c.834-.268.98-.359.946-.593-.03-.211-.123-.266-.4-.234-.295.034-.382-.033-.507-.392a2.72,2.72,0,0,1-.151-.616c0-.278.349-.218.558.1.119.179.266.248.41.193.205-.079.2-.16-.068-.952a2.632,2.632,0,0,0-.393-.869c-.427-.014-.466.016-.408.319.066.344-.178.6-.379.4a1.408,1.408,0,0,1-.2-.541c-.077-.387-.047-.432.382-.574.578-.191.867-.088,1.118.4.146.283.266.359.476.3.154-.04.256-.141.225-.225s-.158-.464-.284-.847l-.229-.7-1.867.619c-1.563.518-1.857.658-1.805.857a.484.484,0,0,0,.409.28c.3.036.393.179.73,1.184.443,1.32.459,1.476.173,1.685-.235.172-.125.673.126.578.083-.032.6-.2,1.137-.374Zm-29.849-.316a1.383,1.383,0,0,1,.082-.27c.054-.141.007-.214-.139-.214a.338.338,0,0,1-.3-.2,9.92,9.92,0,0,1,.92-2.711c.2-.211.534.344.488.811-.032.328.016.414.251.447s.329-.075.521-.651a1.7,1.7,0,0,0,.144-.779,27.349,27.349,0,0,0-3.712-1.308,8.376,8.376,0,0,0-.555,1.43c0,.047.116.116.257.153.174.046.349-.058.545-.322.29-.392.823-.535.818-.22a11.8,11.8,0,0,1-.442,1.386c-.393,1.087-.475,1.217-.775,1.217-.363,0-.638.293-.451.479a5.711,5.711,0,0,0,2.346.749Zm-3.933-1.9a1.313,1.313,0,0,0,.625-1.389,3.815,3.815,0,0,0-.915-1.135c-.574-.532-.8-.827-.737-.98.1-.272.4-.279.894-.021a.925.925,0,0,1,.55,1.014c0,.267.081.4.274.45.222.058.34-.058.62-.611s.31-.706.165-.8a.543.543,0,0,0-.395-.047.568.568,0,0,1-.473-.225,3.051,3.051,0,0,0-1.723-.791,1.34,1.34,0,0,0-1.173,1.3c0,.453.095.6.811,1.266.808.75,1,1.154.606,1.3-.571.219-1.534-.708-1.373-1.322a.339.339,0,0,0-.2-.4c-.317-.169-.273-.2-.636.514-.425.843-.376,1.072.215,1a.809.809,0,0,1,.451.266,3.554,3.554,0,0,0,1.723.8A1.809,1.809,0,0,0,219.475,133.252Zm40.677-.858c-.028-.143-.172-.23-.38-.23-.564,0-.517-.515.08-.867.47-.277.511-.281.752-.063s.234.253.047.459-.158.674.034.674a11.711,11.711,0,0,0,1.067-.55c.854-.471.978-.585.866-.793a.379.379,0,0,0-.439-.186c-.245.045-.572-.208-1.582-1.226l-1.273-1.283-.518.264c-.606.309-.621.416-.316,2.152.242,1.374.257,1.987.05,2.056-.092.031-.116.169-.059.347l.094.3.811-.41c.581-.293.8-.475.766-.64Zm-.969-1.937c-.139-.694-.1-.728.327-.315.38.364.394.408.177.566C259.343,130.959,259.276,130.926,259.182,130.457Zm5.594-.464a.367.367,0,0,0-.462-.388c-.251.063-.4-.076-.933-.88a4.525,4.525,0,0,1-.558-.955,13.146,13.146,0,0,1,1.218.961c1.126.948,1.146.958,1.479.74.186-.122.337-.3.337-.394a14.764,14.764,0,0,0-.473-1.578c-.26-.773-.473-1.437-.473-1.476a8.6,8.6,0,0,1,.736.986c.628.9.713,1.1.578,1.311-.121.194-.121.291,0,.412s.366.024,1.044-.418a4.577,4.577,0,0,0,.883-.662.409.409,0,0,0-.56-.356c-.3.075-.413-.036-1.119-1.1-.737-1.108-.771-1.192-.539-1.361s.229-.2.031-.4-.288-.168-1.075.36l-.892.6a10.3,10.3,0,0,0,.363,1.2,4.868,4.868,0,0,1,.318,1.172,5.2,5.2,0,0,1-.769-.577c-1.234-1.031-1.049-1-2-.359-.469.315-.869.584-.89.6s0,.128.049.252c.056.146.211.212.439.188.3-.032.458.118,1.132,1.1.685,1,.757,1.166.588,1.352a.34.34,0,0,0-.061.446c.119.212.2.188.869-.256a6.935,6.935,0,0,0,.738-.527Zm-23.861.748A41.633,41.633,0,0,0,279.8,93.635a53.111,53.111,0,0,0-.067-9.026,41.6,41.6,0,0,0-36.519-36.4,51.22,51.22,0,0,0-8.72-.073,41.607,41.607,0,0,0-37.119,36.783,52.172,52.172,0,0,0,.2,10.612,41.621,41.621,0,0,0,38.309,35.207,27.627,27.627,0,0,0,5.03.006Zm-3.718-.906A40.44,40.44,0,0,1,213.251,121a54.03,54.03,0,0,1-6.021-5.939,40.612,40.612,0,0,1-7.941-15.8,35.246,35.246,0,0,1-1.123-8.757,37.9,37.9,0,0,1,.517-8.134,40.532,40.532,0,0,1,35.792-33.273,57.364,57.364,0,0,1,8.731.065,40.479,40.479,0,0,1,35.151,32.714,42.359,42.359,0,0,1-.124,15.672A40.432,40.432,0,0,1,237.2,129.835Zm6.962-.846A40.129,40.129,0,0,0,278.25,94.5a56.963,56.963,0,0,0,.071-9.722,40.031,40.031,0,0,0-79.471-.27,49.437,49.437,0,0,0,0,9.734,40.194,40.194,0,0,0,36.184,35,52.661,52.661,0,0,0,9.125-.258Zm-3.109-3.336a7.171,7.171,0,0,1-.8-.525c-.331-.257-.455-.282-.792-.165a1.315,1.315,0,0,1-.864,0,2.065,2.065,0,0,0-1.825.441,1.094,1.094,0,0,1-1.4.128c-.525-.249-.68-.547-.439-.843.147-.181.133-.2-.1-.108a8.278,8.278,0,0,1-3.65.819,4.451,4.451,0,0,1-3.5-1.26,4.7,4.7,0,0,0-1.127-.694c-.108,0-.171-.073-.141-.162a3.535,3.535,0,0,1,1.835-.511c.618,0,.417-.238-.3-.345-.691-.1-2.247.28-2.247.554,0,.294-.4.6-.794.6-.451,0-.693-.222-.693-.635,0-.262-.071-.311-.446-.311a1.045,1.045,0,0,1-.608-.162.931.931,0,0,1-.014-1.013c.107-.107-.118-.288-.817-.655a9.3,9.3,0,0,1-2.688-2.26c-.5-.564-.7-.634-.7-.246a.684.684,0,0,1-1.207.425.577.577,0,0,0-.545-.186.755.755,0,0,1-.817-.652.525.525,0,0,0-.278-.393c-.4-.212-.321-1.076.113-1.291.527-.261.039-.466-1.205-.507a3.575,3.575,0,0,1-1.718-.344,6.993,6.993,0,0,1-2.974-3.49c-.314-.805-.478-1.665-.319-1.665a2.59,2.59,0,0,1,.657.507,6.808,6.808,0,0,0,1.137.838c.574.317.591.319.4.043-.112-.158-.617-.9-1.123-1.639-1.086-1.594-1.535-1.877-2.066-1.3a1.041,1.041,0,0,1-.492.337.892.892,0,0,1-.781-.785.637.637,0,0,0-.406-.594.7.7,0,0,1-.265-1.063c.2-.367.823-.334,1.428.076a2.443,2.443,0,0,0,.614.338c.29,0,.039-.348-.964-1.334-1.444-1.42-1.954-2.457-1.957-3.972,0-.894-.035-1.048-.23-1.048a.312.312,0,0,0-.272.3.834.834,0,0,1-.4.5c-.319.179-.393.175-.71-.032a.792.792,0,0,1-.191-1.145c.115-.115.118-.162.01-.162-.472,0-.775-.965-.415-1.325a.952.952,0,0,1,1.108.046c.229.229,1,.536,1.1.436a5.842,5.842,0,0,0-.278-1.266l-.341-1.2.077.98c.07.894.054.98-.176.98-.528,0-1.523-.962-2.031-1.964a7.342,7.342,0,0,1-.762-3.714c0-1.484.205-2.7.45-2.7.063,0,.182.271.265.6a12.359,12.359,0,0,0,.642,1.656c.27.58.666,1.481.88,2,.326.793.376.859.3.406a9.79,9.79,0,0,0-.921-2.589,6.414,6.414,0,0,1-.031-5.567,13.4,13.4,0,0,0,.546-1.418c.149-.61.393-.354.8.837a8.43,8.43,0,0,1,.256,4.682c-.4,1.973-.481,2.683-.307,2.575a.448.448,0,0,0,.146-.347c0-.6,1.051-2.7,1.354-2.7.073,0,.134.253.134.562a16.331,16.331,0,0,0,.287,2.062,9.879,9.879,0,0,1,.042,3.967c-.073.247-.037.3.193.3a.841.841,0,0,1,.643.906c-.054.178.042.3.361.446.77.359.609,1.352-.219,1.352a1.035,1.035,0,0,1-.588-.147c-.106-.106-.173-.1-.241.006-.052.084.066.363.263.621a7.522,7.522,0,0,1,1.244,2.882c.082.693.217.875.364.491.1-.268.819-.262,1.091.01a.73.73,0,0,1,.01,1c-.308.255-.242.414.115.278a.737.737,0,0,1,.705,1.283.774.774,0,0,1-.568.14c-.2-.077-.213.022-.129.948a3.152,3.152,0,0,0,.75,2.007,35.314,35.314,0,0,0,3.056,3.85,25.837,25.837,0,0,0,3.344,2.985c.065,0,.078-.259.028-.575-.165-1.051-.347-1.588-.537-1.588a.772.772,0,0,1-.613-.686.991.991,0,0,1,.8-.8c.44,0,.7.381.669.994a10.88,10.88,0,0,0,.352,2.5c.1.1.737-.457.741-.658.011-.538.865-.732,1.268-.287.282.311.283.555,0,.954-.184.262-.3.3-.71.24a1.03,1.03,0,0,0-.725.1c-.224.168-.224.187,0,.388a6.38,6.38,0,0,0,1.505.568c2.109.592,2.99,1.175,3.832,2.538a3.805,3.805,0,0,0,.448.642c.028,0,.36.122.738.271l.687.271-.367-.643a4.158,4.158,0,0,0-.749-.956,1,1,0,0,1-.382-.621.831.831,0,0,1,.839-.755c.5,0,.7.31.608.972a2.45,2.45,0,0,0,.808,1.966,2.723,2.723,0,0,0,1.531.758c.632.177,1.362.359,1.622.4l.473.082-.541-.286a8.323,8.323,0,0,1-2.5-2.529c0-.341.048-.349.465-.076a11.106,11.106,0,0,0,2.162.544,9.126,9.126,0,0,1,4.243,1.517l.9.622,1.96.106c1.078.058,2.173.12,2.433.136s.821.018,1.246,0c.6-.022.757-.071.7-.217-.132-.344,1.4-1.281,2.852-1.748a18.362,18.362,0,0,1,2.1-.438,12.331,12.331,0,0,0,1.861-.4c.565-.234.624-.242.675-.089.079.236-1.061,1.525-1.883,2.13-.945.7-.781.78.385.2,1.057-.528,2.477-1.974,2.477-2.523a1.827,1.827,0,0,1,1.11-1.514c.6-.29,1.251-.378,1.37-.185a5.46,5.46,0,0,1-1.106,2.183,1.524,1.524,0,0,1-.606.148c-.4,0-.563.183-.747.856-.126.463-.117.509.087.434,1.74-.642,1.809-.683,2.076-1.2a5.209,5.209,0,0,1,2.034-1.962,12.681,12.681,0,0,1,1.741-.607l1.111-.3.18-.6a1.566,1.566,0,0,0,.037-1.042c-.213-.653.044-1.247.858-1.986.644-.584.714-.616.874-.4a2.556,2.556,0,0,1-.012,1.858,2.465,2.465,0,0,1-1.071,1.1.863.863,0,0,0-.287.418c-.071.244-.029.279.309.259.48-.029,1.641-.948,1.641-1.3a5.479,5.479,0,0,1,.325-1.113,11.162,11.162,0,0,0,.476-1.838,4.515,4.515,0,0,1,1.7-3.061c.5-.441,1.209-1.091,1.584-1.444a3.651,3.651,0,0,1,.81-.642c.337,0-.482,2.92-1.123,4a9.4,9.4,0,0,1-2.607,2.671,1.044,1.044,0,0,0-.6.716,1.527,1.527,0,0,0-.108.552,13.484,13.484,0,0,0,1.388-1.277,28.646,28.646,0,0,0,3.543-4.215l.512-.76-.123-1.014a5.815,5.815,0,0,0-.316-1.4c-.447-.885.018-2.628.764-2.865.334-.106.3-.15.5.647.289,1.141.219,1.781-.242,2.217a1.09,1.09,0,0,0-.406,1.017,1.347,1.347,0,0,0,.123.711c.164.1.8-1.04,1.049-1.885a24.407,24.407,0,0,0,.726-3.156,7.042,7.042,0,0,1,.615-1.893,5.279,5.279,0,0,0,.459-1.1,1.231,1.231,0,0,0-.393-.576c-.555-.524-.619-.987-.277-2.009a5.022,5.022,0,0,1,.407-.984c.169-.174.506.142.831.78a2.205,2.205,0,0,1-.094,2.117c-.134.148-.2.311-.152.362.213.213.883-.881,1.164-1.9a5.343,5.343,0,0,0,.239-1.115c-.029-.029-.2.1-.37.284a1.246,1.246,0,0,1-.423.337,1.621,1.621,0,0,1-.314-.7,10.5,10.5,0,0,1,.069-4.388,6.865,6.865,0,0,0,.194-1.784c-.068-.376-.044-.443.147-.406.323.064,1.027,1.37,1.3,2.411l.23.879.008-.622a11.748,11.748,0,0,0-.26-1.893,9,9,0,0,1,.389-5.564c.267-.623.555-.85.555-.437a10.128,10.128,0,0,0,.565,1.521,6.515,6.515,0,0,1-.206,6.078,7.919,7.919,0,0,0-.762,2.445,6.564,6.564,0,0,0,.46-.987c.252-.595.676-1.568.942-2.163a5.839,5.839,0,0,0,.486-1.453c0-.23.075-.372.193-.372.47,0,.668,3.43.283,4.908a5.348,5.348,0,0,1-2.124,3.282c-.653.342-.7.282-.611-.856.09-1.22.081-1.207-.377.575a5.36,5.36,0,0,0-.259,2.2c.074.7.122.821.276.693a1.147,1.147,0,0,0,.187-.713c0-.961.931-2.109,1.71-2.112.262,0,.285.056.23.574-.173,1.615-.4,2.022-1.279,2.285a1.544,1.544,0,0,0-1.11,1.388,5.716,5.716,0,0,1-1.77,2.965,6.083,6.083,0,0,0-1.431,1.764,3.64,3.64,0,0,0,.876-.333,6.437,6.437,0,0,1,1.014-.4c.24,0,.15.73-.166,1.356a2.021,2.021,0,0,1-1.777,1.214,1.982,1.982,0,0,0-.921.242,10.8,10.8,0,0,0-1.832,2.4,7.168,7.168,0,0,0,1.905-1.353.314.314,0,0,1,.239-.212c.283,0,.014,1.23-.5,2.273a6.856,6.856,0,0,1-2.693,2.873,3.641,3.641,0,0,1-1.726.354c-1,.023-1.079.05-1.622.515l-.572.49.98-.046c.885-.042.98-.022.98.208,0,.783-1.282,1.663-2.216,1.52-.306-.047-.835-.118-1.175-.159l-.62-.074-1.205,1.2a7.914,7.914,0,0,1-1.923,1.526c-.709.326-.714.333-.426.55l.292.22-.419.353a2.259,2.259,0,0,1-2.764-.014c-.2-.226-.279-.217-1.5.181-1.376.449-1.673.608-1.135.608a3.812,3.812,0,0,1,1.87.47c0,.089-.14.226-.31.3a10.879,10.879,0,0,0-1.22.83c-1.7,1.286-3.367,1.424-6.024.5a7.487,7.487,0,0,0-1.468-.424c-.115.115.5.873.787.963.151.048.251.158.223.245-.081.245-1.067.246-1.518,0Zm-7.476-1.016.531-.159-.854-.325c-2.6-.99-3.023-1.11-3.9-1.1-1.6.011-2.479.31-1.622.553a40.1,40.1,0,0,0,5.122,1.179A2.993,2.993,0,0,0,233.574,124.637Zm13.086-.349c.706-.189,1.589-.411,1.96-.494a4.44,4.44,0,0,0,.946-.309l.27-.158-.27-.11a9.288,9.288,0,0,0-1.757-.11,4.769,4.769,0,0,0-2.788.568c-.715.312-1.476.612-1.69.666l-.389.1.406.178q.788.346,3.312-.328Zm-5.91.29c.121-.121-.739-1.245-1.028-1.344-.332-.113-.48.059-.221.255a4.589,4.589,0,0,1,.59.665c.381.5.5.582.658.424Zm-3.65-.27c.121-.121-.738-1.245-1.028-1.344-.449-.154-.4.052.186.744s.684.759.842.6Zm1.661-.067a.179.179,0,0,0-.027-.237,4.7,4.7,0,0,1-.5-.593c-.319-.428-.77-.683-.77-.436a6.8,6.8,0,0,0,1.1,1.416.3.3,0,0,0,.191-.15Zm-3.5-.276c.347-.142.26-.172-.971-.331-2.037-.262-2.128-.24-.864.215a2.3,2.3,0,0,0,1.836.116Zm8.356-.124a2.385,2.385,0,0,0,.841-.345,5.431,5.431,0,0,0-1.2.076c-.622.077-1.344.16-1.6.183-.468.042-.47.044-.135.2A2.854,2.854,0,0,0,243.617,123.841Zm-8.742-.883c-.164-.164-.328-.191-.671-.11l-.454.107.406.094a5.135,5.135,0,0,0,.671.11C235.07,123.173,235.074,123.156,234.875,122.957Zm8.087-.026a.468.468,0,0,0-.382.078c-.085.085,0,.1.251.053C243.114,123,243.148,122.971,242.962,122.931Zm-16.718-.917q.135-.135-.472-.36c-.334-.124-.607-.167-.607-.1s-.152.129-.338.129c-.232,0-.338.074-.338.237,0,.2.127.236.81.231A2.269,2.269,0,0,0,226.243,122.014Zm8.385.143a2.977,2.977,0,0,0-.642-.478,10.218,10.218,0,0,0-3.414-1.136c-.409-.051-.865-.122-1.014-.158-.235-.056-.226-.027.067.227a9.558,9.558,0,0,0,2.772,1.359A5,5,0,0,0,234.628,122.157Zm9.807-.134a11.04,11.04,0,0,0,3.036-1.42l.338-.277-.541.086a10.967,10.967,0,0,0-4.732,1.594c-.256.2-.234.214.411.218a7.153,7.153,0,0,0,1.487-.2Zm9.044-.062c.191-.073.347-.188.347-.256,0-.235-.413-.282-1.095-.124-.569.131-.7.125-.8-.036-.089-.143-.159-.154-.272-.041s-.072.209.16.371a2.116,2.116,0,0,0,1.662.087Zm-3.73-.475a.484.484,0,0,0,.135-.4c-.037-.18-.146-.123-.52.27-.444.466-.452.491-.135.4A1.512,1.512,0,0,0,249.749,121.486Zm-25.575-1.249a4.663,4.663,0,0,0-2.9-2.124c-1.07-.35-1.117-.2-.156.5a36.485,36.485,0,0,0,3.344,2.189A1.892,1.892,0,0,0,224.174,120.236Zm32.275-2.049c.319-.354.239-.354-.862-.007a4.7,4.7,0,0,0-2.55,1.825,4.048,4.048,0,0,0-.428.746,30.59,30.59,0,0,0,3.84-2.564Zm-5.128,1.473c.369-.14,1.131-1.516.885-1.6-.262-.089-1.127.443-1.371.843-.472.773-.293,1.051.486.756Zm9.412-1.932a1.293,1.293,0,0,0,.507-.559c.043-.224-.028-.243-.707-.187-.807.067-1.3.372-1.3.805,0,.372.913.336,1.5-.06Zm-1.868-.089c.06-.228.035-.241-.187-.1-.3.188-.334.365-.069.365C258.711,117.9,258.826,117.784,258.864,117.639Zm-40.766-.225a.272.272,0,0,0-.259-.011c-.108.043-.076.075.082.082.142.006.222-.026.177-.071Zm40.558-1.98c.358-.387.652-1.432.457-1.627s-1.232.855-1.232,1.228C257.881,115.765,258.2,115.928,258.656,115.434Zm-43.454-.52a11.687,11.687,0,0,0-3.069-2.737l-1.046-.635.246.442a11.666,11.666,0,0,0,3.152,2.983C215.438,115.424,215.5,115.419,215.2,114.914Zm47.71-.135c.908-.46,3.341-3.1,2.851-3.095a13.7,13.7,0,0,0-1.455.913,9.335,9.335,0,0,0-1.994,1.716,5.47,5.47,0,0,0-.648.909c0,.123.437-.032,1.246-.442Zm-.815-3.029c1.267-1.871,1.795-2.771,1.626-2.771a6.171,6.171,0,0,0-1.076.874,4.292,4.292,0,0,0-1.595,2.844c-.053.372-.067.646-.03.608s.52-.737,1.074-1.555Zm4.975-3.286c0-.2-.02-.2-.133-.026-.171.265-.171.444,0,.338a.4.4,0,0,0,.133-.312Zm1.461-.091c.39-.328.808-1.093.671-1.229s-1.2.387-1.457.72C267.13,108.648,267.738,109.042,268.533,108.373Zm-58.374-1.363c0-.116-.062-.173-.137-.126a.156.156,0,0,0-.06.211C210.078,107.283,210.159,107.248,210.159,107.011Zm56.152-.773c.248-.332.254-.413.088-1.107a2.067,2.067,0,0,0-.264-.748c-.129,0-.5.7-.605,1.136s.147,1.2.371,1.125A1.459,1.459,0,0,0,266.311,106.238Zm-56.388-.565c-.06-.29-.184-.552-.275-.582-.23-.077-.206.267.068.945C209.977,106.681,210.091,106.48,209.923,105.673Zm-.785-.378c-.094-.465-.235-1.232-.313-1.706a6.4,6.4,0,0,0-1.558-3.195c-.624-.662-.636-.668-.573-.27a35.168,35.168,0,0,0,1.531,4.722,3.512,3.512,0,0,0,1.07,1.289C209.3,106.138,209.231,105.76,209.137,105.3Zm59.759-.606a15.532,15.532,0,0,0,.684-1.908c.184-.644.467-1.55.628-2.013a2.124,2.124,0,0,0,.193-.943c-.118-.118-.895.746-1.366,1.52a7.472,7.472,0,0,0-.951,3.049c-.108.718-.237,1.42-.287,1.56C267.6,106.509,268.556,105.408,268.9,104.689Zm3.391-4.133a1.526,1.526,0,0,0,.477-1.04,2.908,2.908,0,0,0,.063-.781c-.029-.029-.206.049-.395.173a2.2,2.2,0,0,0-.81,1.656c.1.382.213.381.665-.007ZM205.9,99.844c-.307-.232-.764-.208-.847.043-.039.118.121.168.53.165.551,0,.57-.016.316-.208Zm63.308-.356a2.216,2.216,0,0,0-.059-1.766l-.221-.427-.245.6c-.293.722-.317,1.123-.092,1.484C268.785,99.689,268.977,99.722,269.21,99.489Zm-62.243-1.134c-.064-.614-.155-.854-.391-1.032l-.308-.232.264.908c.359,1.236.38,1.294.454,1.22a3.021,3.021,0,0,0-.019-.864Zm.827.62c.046-.074.019-.135-.06-.135a.14.14,0,0,0-.143.135c0,.074.027.135.06.135S207.747,99.049,207.793,98.975Zm-2.56-1.656a12.284,12.284,0,0,0-.487-2.024c-.462-1.386-1.331-3.152-1.341-2.726a16.067,16.067,0,0,0,.713,3.473,6.911,6.911,0,0,0,1.129,2.121,2.284,2.284,0,0,0-.014-.845Zm67.047.166a12.34,12.34,0,0,0,1.255-3.985,6.5,6.5,0,0,0,.078-1.137,16.228,16.228,0,0,0-1.394,3.168,6.391,6.391,0,0,0-.368,2.5,1.923,1.923,0,0,0,.428-.544Zm-65.028-2.336a11.335,11.335,0,0,0-.2-2.393l-.2-.744-.163.676a8.837,8.837,0,0,0,.034,3.615c.34,1.211.521.81.521-1.154Zm63.139.973a6.914,6.914,0,0,0,.2-1.462,6.833,6.833,0,0,0-.4-2.444,10.239,10.239,0,0,0-.492,3.491C269.886,97.305,270.051,97.4,270.392,96.122Zm-64.943-4.987a9.387,9.387,0,0,0,.212-2.569c-.07-1.2-.447-2.691-.628-2.486a29.632,29.632,0,0,0-.417,4.888,4.5,4.5,0,0,0,.227,1.757c.213.474.229.483.277.165.028-.186.176-.976.33-1.756Zm66.984.6a41.951,41.951,0,0,0-.3-5.443c-.094-.473-.262-.257-.528.678a9.532,9.532,0,0,0,.068,4.532c.3,1.5.347,1.626.5,1.332a4.2,4.2,0,0,0,.261-1.1Zm-20.886,23.207-2.753-.9-.383-.759-.383-.759L243.39,111c-2.551-.84-4.729-1.518-4.84-1.507s-2.652.861-5.646,1.888l-5.444,1.868.34.32a1.3,1.3,0,0,1,.34.419,17.807,17.807,0,0,1-3.894.31c-1.352.048-1.656.025-1.622-.124a33.221,33.221,0,0,1,4.407-3.172c.127,0,.151.13.087.473-.049.26-.046.473.007.473.1,0,8.086-2.718,8.158-2.778.024-.02-2.606-.044-5.845-.054l-5.89-.017.275.466c.151.256.224.5.161.536a33.9,33.9,0,0,1-5.273-1.637c-.047-.141.417-.3,3.759-1.307,1.6-.481,1.846-.461,1.408.118a1,1,0,0,0-.2.372,25.1,25.1,0,0,0,3.3.109h3.3l-.357-.674-.357-.674-2-.671-2-.671.092.547c.073.434.053.537-.1.5a33.7,33.7,0,0,1-4.431-3.21c0-.155.222-.173,1.235-.1.681.048,1.928.088,2.771.088,1.669,0,1.892.122,1.174.645l-.36.262,1.838.614c1.523.509,1.851.58,1.915.414.111-.29.106-.3-.215-.212-.257.067-.279.037-.188-.249a7.945,7.945,0,0,0,.172-1.238l.069-.913h-.556c-.663,0-.694-.145-.161-.752a10.1,10.1,0,0,0,.959-1.534,10.365,10.365,0,0,1,1.081-1.672c.463-.526.493-.6.287-.731a2.042,2.042,0,0,0-.923-.077A1.4,1.4,0,0,1,229.2,97.3a2.006,2.006,0,0,0-1.036-.219,1.2,1.2,0,0,1-1.11-.386,1.789,1.789,0,0,0-.9-.468,1.535,1.535,0,0,1-1.259-1.308,1.138,1.138,0,0,0-.478-.843,1.578,1.578,0,0,1-.56-.982,1.584,1.584,0,0,0-.536-.965,1.4,1.4,0,0,1-.454-.683c0-.183-.2-.343-.673-.543a1.854,1.854,0,0,1-.96-.77c-.158-.267-.36-.486-.449-.486a.57.57,0,0,1-.328-.165c-.109-.109-.506-.151-1.164-.124-.977.041-1.461-.086-1.767-.462a2.724,2.724,0,0,0-1.149-.226,4.265,4.265,0,0,1-2.729-1.03,1.834,1.834,0,0,0-.669-.426,3.151,3.151,0,0,1-2.348-1.487c-.156-.3-.308-.38-.861-.445a4.748,4.748,0,0,1-1.325-.412,4.379,4.379,0,0,1-1.742-1.6,2.369,2.369,0,0,0-.97-.676c-1.578-.746-2.691-2.11-2.156-2.645.178-.178.249-.184.428-.036a4.426,4.426,0,0,0,2.425.145c.147-.122.266-.124.48-.01a22.281,22.281,0,0,0,4.657.405c1.052,0,1.394-.045,1.584-.218.225-.2.281-.2.754.031.428.211.913.26,2.978.3,2.209.044,2.467.026,2.467-.171,0-.311.329-.4.7-.188.24.137,1.217.182,4.1.189,4.435.011,4.675.054,5.587,1a5.354,5.354,0,0,0,1.047.862,3.3,3.3,0,0,1,1.251,1.7,3.445,3.445,0,0,1-.749,3.287l-.351.367.368.14c.465.177.756.178.756,0,0-.074.323-.135.717-.135a1.161,1.161,0,0,0,1.135-.439,5.233,5.233,0,0,0,1.215-2.535,4.139,4.139,0,0,1,.456-1.252c.24-.328.254-.436.116-.9-.148-.493-.194-.528-.782-.6-.433-.05-.691-.013-.839.119-.552.494-.926.028-.931-1.161-.007-1.6.514-2.125,1.961-1.959.6.069.728.037,1.082-.275s.479-.344,1.076-.273c.372.044,1.144.13,1.716.191,1.075.115,1.586.344,1.925.864a5.389,5.389,0,0,1,.555,2.145,2.833,2.833,0,0,0,.194.921,2.9,2.9,0,0,1,.125,1.09,2.066,2.066,0,0,0,.125.985,1.794,1.794,0,0,1,.247.637,1.746,1.746,0,0,0,.477.8,1.566,1.566,0,0,1,.489.959l.1.608.909.04c.5.022.909.1.909.169,0,.17.491.165.817-.009.244-.131.233-.171-.2-.741a3.378,3.378,0,0,1-.611-2.791,3.441,3.441,0,0,1,1.426-2.012,5.089,5.089,0,0,0,1.01-.832c.9-.931,1.2-.986,5.307-.956,2.812.02,3.606-.014,4.092-.179.639-.217.868-.173.868.166,0,.181.324.2,2.535.155,2.169-.045,2.61-.09,3.053-.314.487-.245.526-.247.649-.028.112.2.348.233,1.645.229a19.437,19.437,0,0,0,4.623-.426c.3-.138.4-.14.44-.008.082.247,1.761.216,2.255-.041.511-.267.752-.166.752.313,0,.739-1.207,1.9-2.485,2.4a1.744,1.744,0,0,0-.913.8,4.547,4.547,0,0,1-3.2,1.838c-.286,0-.445.133-.72.587a3.2,3.2,0,0,1-2.151,1.3,1.061,1.061,0,0,0-.683.351,4.039,4.039,0,0,1-2.739,1.108c-.9.054-1.11.114-1.393.4-.308.308-.417.33-1.441.294a2.454,2.454,0,0,0-1.547.223c-.241.144-.439.332-.439.417,0,.255-.9.962-1.343,1.06-.319.07-.416.164-.416.406a1.044,1.044,0,0,1-.406.656,1.118,1.118,0,0,0-.409.587,2.671,2.671,0,0,1-.8,1.523.554.554,0,0,0-.282.43,1.687,1.687,0,0,1-1.552,1.6.476.476,0,0,0-.429.208c-.126.33-.791.6-1.465.6a2.1,2.1,0,0,0-.949.216,1.737,1.737,0,0,1-.975.185c-1.259-.059-1.406.076-.8.735a10,10,0,0,1,1.053,1.61,10.429,10.429,0,0,0,1.03,1.6c.575.642.557.8-.093.8a1.042,1.042,0,0,0-.609.124,7.191,7.191,0,0,0,.266,2.073c.072.18.026.237-.191.237-.172,0-.285.086-.285.217s.076.19.169.157l1.055-.368c.835-.29.908-.35,1.284-1.058l.4-.75,2.694-.928a16.412,16.412,0,0,1,2.8-.82,2.389,2.389,0,0,1-.169,1.03,4.909,4.909,0,0,0-.233.956l.834.61c.435.317.739.623.676.681s-1.319.517-2.792,1.021l-2.678.916-.771-.368-.771-.368-1.166.422c-1.123.406-1.179.447-1.513,1.091-.343.66-.343.669-.062.669a1.438,1.438,0,0,0,.748-.541l.463-.541h3.031a20.959,20.959,0,0,1,3.031.111,4.443,4.443,0,0,1-.541.836,5.177,5.177,0,0,0-.541.814,5.585,5.585,0,0,0,.541.844,6.15,6.15,0,0,1,.541.833,29.375,29.375,0,0,1-3.014.078h-3.014l-.534-.548-.534-.548-2.624.034-2.624.034,3.215,1.072,3.215,1.072.778-.372.778-.372,2.721.907a14.806,14.806,0,0,1,2.719,1.065,2.384,2.384,0,0,1-.744.673c-.408.283-.742.593-.742.689a5.973,5.973,0,0,0,.272.964,1.853,1.853,0,0,1,.169.885,19.043,19.043,0,0,1-2.856-.8Zm2.415.34a4.522,4.522,0,0,0-.146-.465c-.139-.4-.263-.457-2.6-1.237-1.351-.45-2.5-.819-2.556-.819s0,.211.125.47c.215.451.318.5,2.6,1.274C253.767,115.315,253.961,115.373,253.961,115.286Zm-.387-1.861c-.047-.046-2.806-.975-6.131-2.064s-6.144-2.019-6.264-2.065c-.17-.065-.209-.013-.173.236.042.3.524.477,6.264,2.365,5.3,1.742,6.232,2.013,6.3,1.828a.324.324,0,0,0,0-.3Zm-27-1.091a1.871,1.871,0,0,0,.039-.6,30.679,30.679,0,0,0-2.934,2.046,11.941,11.941,0,0,0,1.4-.423l1.4-.47Zm9.574-2.708c-.035-.133-.107-.242-.16-.242-.218,0-8.874,3.009-9.032,3.139a.189.189,0,0,0-.036.3c.1.122,1.258-.221,4.713-1.4C235.574,110.085,236.2,109.835,236.148,109.626Zm17.543.227a1.716,1.716,0,0,0-.218-.406l-.218-.333h-5.427l.389.406.389.406h2.543A22.543,22.543,0,0,0,253.691,109.853Zm-16.143-.416c.392-.1.422-.266.064-.359-.168-.044-.372.054-.575.276-.262.288-.272.33-.064.255C237.111,109.559,237.369,109.482,237.548,109.437Zm2.3-.292c-.151-.291-.4-.442-1.128-.676-1.13-.364-1.253-.37-1.253-.059,0,.217.623.487,2.538,1.1a1.265,1.265,0,0,0-.157-.363Zm-2.848-.62a1.6,1.6,0,0,0-.126-.811c-.246-.589-.574-.684-.414-.121a4.933,4.933,0,0,1,.139.777c.042.5.029.473.187.473C236.862,108.844,236.958,108.7,237,108.525Zm3.475-.256a4.291,4.291,0,0,1,.167-.811c.067-.164.034-.237-.107-.237-.328,0-.669,1.274-.411,1.532.193.193.283.068.351-.484Zm-7.471.169c-.117-.219-.283-.27-.872-.27-.459,0-.75.062-.789.169-.049.135-.118.135-.347,0-.441-.261-7.669-.241-7.769.021a.293.293,0,0,0,.008.27c.044.044,2.293.081,5,.081,4.875,0,4.915,0,4.772-.27Zm2.9.154c-.3-.275-1.818-.582-1.818-.367,0,.385.216.484,1.055.484C235.653,108.709,235.98,108.659,235.907,108.592Zm6.969-.171c0-.25-.059-.279-.44-.217a4.639,4.639,0,0,0-.913.277l-.472.206.913.011c.845.01.913-.01.913-.277Zm10,.018c0-.263-.09-.27-3.238-.27a16.929,16.929,0,0,0-3.606.167c-.292.133-.379.133-.423,0-.051-.152-1.52-.259-1.52-.111a1.381,1.381,0,0,1-.082.27c-.074.192.368.214,4.394.214,4.386,0,4.476-.005,4.476-.27Zm-29.828-.507c.178-.279.276-.525.219-.547a34.286,34.286,0,0,0-3.5,1.006,10.245,10.245,0,0,0,1.451.048h1.508Zm10.562-.41a2.974,2.974,0,0,1,.122-.874c.081-.172.053-.237-.1-.237-.438,0-.661,1.055-.346,1.643.206.384.312.21.325-.532Zm10.276.24c.112-.51-.156-1.351-.431-1.351-.149,0-.176.066-.1.237a2.954,2.954,0,0,1,.132.845c.027.8.036.84.182.75A.982.982,0,0,0,243.89,107.761Zm-8.3-.029a1.041,1.041,0,0,0-.532-.472c-.377-.154-.436-.145-.56.086s-.066.284.435.461c.768.272.784.27.657-.076Zm6.5.142c.364-.109.514-.224.484-.372-.094-.45-1.183-.063-1.183.421,0,.144.073.139.7-.049Zm-9.382-.27c-.047-.142-.365-.284-1.288-.575-.27-.085-.3-.05-.3.319v.415h.822c.567,0,.806-.049.77-.158Zm6.863.014a1.771,1.771,0,0,0,.086-.642,1.356,1.356,0,0,1,.99-1.377c.49-.21.615-.342.734-.769a3.908,3.908,0,0,0,.139-.651c-.007-.229-.39.525-.4.777-.006.317-.2.3-.428-.039-.177-.263-.217-.233-.861.642-.372.5-.786,1.12-.921,1.367-.2.367-.28.42-.439.288a.519.519,0,0,1-.195-.285,5.7,5.7,0,0,0-.675-1,5.615,5.615,0,0,1-.758-1.212c-.112-.447-.268-.416-.443.087-.186.534-.422.453-.645-.223l-.175-.533.076.54c.1.7.117.724.778,1.008.736.315.908.544.957,1.27a2.583,2.583,0,0,0,.133.751,3.684,3.684,0,0,0,2.042.005Zm6.392-.308c.048-.42.091-.419-1.05-.025-.791.273-.684.5.215.45C245.884,107.7,245.919,107.678,245.961,107.311Zm-.219-.75c.053-.047.043-.17-.021-.274-.1-.159-.216-.161-.738-.015s-.621.23-.621.486c0,.312,0,.312.642.1a4.132,4.132,0,0,0,.738-.3Zm-13.006.138c0-.184-.164-.3-.6-.42-.953-.267-1.25.156-.341.484C232.478,107.008,232.736,106.991,232.736,106.7Zm3.912-.018c.154,0,.279-.051.279-.114,0-.192-.452-.52-.843-.613-.53-.126-.786-.608-.922-1.734-.214-1.773-.252-1.906-.483-1.714a2.958,2.958,0,0,0-.483.72,5.728,5.728,0,0,1-.65.976,2.908,2.908,0,0,0-.433.608c-.049.146-.126.15-.387.021a3.048,3.048,0,0,0-.8-.22,4.249,4.249,0,0,1-.912-.241c-.384-.159-.467-.154-.661.041s-.188.237.259.424a1.463,1.463,0,0,1,.635.488c.128.24.234.273.653.2a5.5,5.5,0,0,0,.863-.221c.422-.16.759-.031.527.2-.253.253-.163.363.3.363a1.522,1.522,0,0,1,.744.21c.288.2.3.2.3-.146,0-.489.271-.363.457.212.1.323.245.48.455.51.167.024.3.1.3.174s.1.077.262-.009a1.365,1.365,0,0,1,.541-.14Zm-6.075-.327a2.483,2.483,0,0,1,.082-.676c.052-.136.009-.214-.121-.214-.25,0-.367.284-.367.89,0,.321.062.462.2.462s.2-.141.2-.462Zm11.255.041a1.043,1.043,0,0,0,.237-.54.234.234,0,0,1,.2-.255c.129,0,.2.13.2.359,0,.339.014.347.247.135a1.169,1.169,0,0,1,.678-.224c.4,0,.425-.027.342-.357s-.068-.352.3-.265c1.569.372,1.553.372,1.844,0a1.7,1.7,0,0,1,.593-.469c.176-.067.32-.18.32-.251,0-.246-.529-.3-.933-.087a2.473,2.473,0,0,1-.953.21c-.3,0-.547.061-.547.135,0,.231-.409.148-.5-.1a3.255,3.255,0,0,0-.435-.665,12.24,12.24,0,0,1-.741-1.062c-.352-.57-.407-.609-.537-.383a5.3,5.3,0,0,0-.232,1.339c-.1,1.288-.369,1.885-.9,2.016a1.885,1.885,0,0,0-.692.388l-.316.294.384.09a1.481,1.481,0,0,0,1.431-.308Zm5.079-.038a1.237,1.237,0,0,0-.175-.7c-.253-.386-.554-.315-.342.08a1.748,1.748,0,0,1,.136.679C246.525,106.942,246.843,106.9,246.907,106.357Zm-7.56-.86a6.213,6.213,0,0,0,.77-1.188,1.966,1.966,0,0,0-.393-1.043c-.4-.658-.493-.744-.68-.6-.168.126-.227.455-.255,1.437-.05,1.7-.3,1.755-.328.069-.017-1.085-.06-1.323-.27-1.482-.365-.277-.4-.259-.788.443a1.5,1.5,0,0,0-.279,1.066,7.661,7.661,0,0,0,1.44,2.207,5.64,5.64,0,0,0,.783-.906Zm5.286.425c0-.029-.091-.053-.2-.053s-.2.059-.2.131.091.1.2.053S244.632,105.952,244.632,105.923Zm-15.031-.211c-.037-.248-.343-.393-1.989-.943a11.886,11.886,0,0,0-2.062-.578c-.388.24.03.489,1.878,1.115,1.1.372,2.044.681,2.1.687S229.626,105.873,229.6,105.712Zm21.655-.99c1.822-.621,3.412-1.168,3.534-1.216.3-.118.167-.647-.137-.544-6.266,2.12-7.115,2.447-7.16,2.762-.038.262,0,.3.2.223.137-.053,1.739-.6,3.561-1.225Zm2.434.4c2.756-.936,2.693-.9,2.135-1.2l-.446-.235-2.493.869-2.493.869.4.215a1.985,1.985,0,0,0,.547.221C251.421,105.867,252.479,105.533,253.69,105.122Zm-21.36-1.069c0-.3-.214-.366-.6-.189-.254.116-.3.191-.179.27.286.182.781.13.781-.081Zm4.446-.726a5.928,5.928,0,0,0,.551-1.048c0-.07-.243-.292-.534-.493-.514-.356-.531-.358-.616-.091a3.916,3.916,0,0,0-.041,1c.026.412-.013.746-.089.767s-.151-.456-.174-1.192c-.037-1.164-.06-1.25-.439-1.614l-.4-.384v.532a5.022,5.022,0,0,0,.146,1.073,15.258,15.258,0,0,0,1.007,2.366c.018,0,.282-.414.588-.921Zm4.947-1.017c.339-1.01.443-1.848.23-1.848a1.223,1.223,0,0,0-.429.338c-.278.3-.319.477-.328,1.453-.012,1.33-.274,1.6-.294.3a3.386,3.386,0,0,0-.1-.965c-.046-.046-.3.081-.567.284-.565.431-.55.569.182,1.67l.48.723.241-.47A14.278,14.278,0,0,0,241.723,102.31Zm3.789,1.8c.046-.074-.076-.2-.271-.27-.455-.173-.429-.18-.512.135-.058.224,0,.27.314.27a.668.668,0,0,0,.469-.135Zm-20.027-.386.37-.386-.634-.087a17.064,17.064,0,0,0-1.866-.076l-1.232.011,1.284.452a12.9,12.9,0,0,0,1.5.463,1.152,1.152,0,0,0,.581-.376Zm8.434-.973c.652-.845.71-.978.71-1.639v-.72l-.541.879a5.558,5.558,0,0,0-.623,1.318c-.08.428-.233.558-.379.323a1.042,1.042,0,0,1,.05-.541c.139-.484.142-.481-.341-.261-.335.152-.354.209-.284.807a3.428,3.428,0,0,0,.239.948c.155.29.17.292.311.054.081-.138.467-.664.858-1.17Zm10.562.626c.223-.886.191-1.1-.193-1.273-.465-.212-.45-.227-.369.384s-.163.76-.3.169a7.426,7.426,0,0,0-.6-1.3l-.521-.931-.054.661c-.052.636-.02.7.829,1.831a5.627,5.627,0,0,0,.968,1.118,2.139,2.139,0,0,0,.237-.656Zm-12.657-.011c.151-.061.237-.241.237-.5,0-.353-.036-.389-.3-.305a2.613,2.613,0,0,0-.7.422c-.615.514-.768.16-.161-.372a3.637,3.637,0,0,0,.62-.667c.11-.206.028-.2-.715.071l-.84.3-.04.81-.04.81.851-.24c.468-.132.957-.283,1.088-.336Zm15.312-.321c-.09-.774-.114-.816-.521-.9a3.932,3.932,0,0,1-.8-.282c-.536-.274-.464,0,.169.628.84.84.719,1.092-.193.4-.664-.5-.753-.5-.753.008,0,.265.083.442.237.5a12.893,12.893,0,0,0,1.907.493,3.749,3.749,0,0,0-.046-.847Zm-8.307-.7c.252-.135.262-.339.262-5.483V91.523l-.507.042-.507.042-.035,5.256c-.033,4.885-.019,5.269.2,5.437.292.222.267.22.585.049Zm-5.94-.788c1.117-.709,1.662-1.763,1.242-2.4l-.215-.328-.235.695a2.629,2.629,0,0,1-.918,1.448c-.228.076-.2-.309.037-.505a4.889,4.889,0,0,0,.749-1.907,2.538,2.538,0,0,0-.28-.819c-.268-.526-.29-.539-.536-.316a2,2,0,0,0-.418.722,16.5,16.5,0,0,0-.111,3.8A4.5,4.5,0,0,0,232.888,101.562Zm11.954-3.06a3.136,3.136,0,0,0-.356-.866l-.281-.461-.327.576a2.478,2.478,0,0,0-.327.876,3.541,3.541,0,0,0,.684,1.775.771.771,0,0,1,.262.419c0,.59-.889-.41-1.114-1.254-.181-.678-.259-.72-.5-.269-.343.641.432,1.853,1.547,2.42l.406.206.04-1.509a15.57,15.57,0,0,0-.034-1.914Zm-13.854,2.94c.7-.354.736-.4.776-.946.023-.316.007-.575-.036-.575a4.058,4.058,0,0,0-.661.608,2.157,2.157,0,0,1-.809.608c-.309,0-.285-.23.043-.4a4.935,4.935,0,0,0,1.489-2.167c.054-.3.053-.537,0-.537A5.887,5.887,0,0,0,230.235,100c-.278.512-.621,1.1-.76,1.3a1.94,1.94,0,0,0-.254.439c0,.217,1.125.027,1.767-.3Zm16.629-.068c-.158-.242-.5-.844-.767-1.34a5.934,5.934,0,0,0-1.544-2.006c-.064,0-.08.228-.037.507a3.921,3.921,0,0,0,1.328,2.027c.516.412.585.576.24.576a2.509,2.509,0,0,1-.879-.675l-.651-.675v.587a1.055,1.055,0,0,0,.246.809,3.4,3.4,0,0,0,1.829.621l.52.01-.286-.439Zm-10.555-4.833v-5H235.98v9.167l.507.414c.279.228.522.416.541.419s.034-2.246.034-5Zm3.6,4.522.452-.345v-9.2l-.507.042-.507.042-.035,4.9c-.02,2.7.005,4.9.055,4.9a2.34,2.34,0,0,0,.542-.345Zm-5.632-5.536V91.54h-1.081v6.686l.439.645a2.453,2.453,0,0,0,.541.645,39.532,39.532,0,0,0,.1-3.988Zm7.68,3.376.432-.612V91.523l-.507.042-.507.042-.036,3.954a35.407,35.407,0,0,0,.075,3.954,2.181,2.181,0,0,0,.543-.612Zm-10.263-1.923c.281-.232.282-.249.057-.946-.2-.62-.448-.945-.448-.588a3.855,3.855,0,0,1-.457.8c-.327.486-.415.72-.311.825a1.027,1.027,0,0,0,1.159-.091Zm13.469.1a.309.309,0,0,0-.062-.321,8.742,8.742,0,0,1-.531-.878l-.382-.7-.291.783-.291.783.285.237C244.959,97.24,245.781,97.3,245.92,97.076Zm-15.084-.5a4.989,4.989,0,0,0,1.045-2.118c.073-.45.054-.484-.267-.484a.925.925,0,0,1-.571-.225c-.19-.19-.243-.2-.346-.034a1.254,1.254,0,0,0-.123.546,3.625,3.625,0,0,1-.871,1.921c-.428.561-.452.635-.242.757a.994.994,0,0,0,1.375-.363Zm16.873.35c.12-.12.041-.316-.331-.822a3.732,3.732,0,0,1-.848-2.1c-.007-.487-.084-.525-.471-.232a1.148,1.148,0,0,1-.591.2c-.3,0-.321.04-.242.439a5.7,5.7,0,0,0,1.167,2.231C246.827,97.1,247.408,97.226,247.71,96.925Zm-18.592-.755a3.726,3.726,0,0,0,1.046-2.163c0-.71-.431-.579-1.019.308a6.443,6.443,0,0,1-1.123,1.244c-.345.273-.687.549-.762.614-.217.188.332.5.877.5A1.2,1.2,0,0,0,229.118,96.17Zm20.626.293.305-.214-.512-.373a7.811,7.811,0,0,1-1.821-1.971.506.506,0,0,0-.488-.338c-.31,0-.329.038-.264.522a3.924,3.924,0,0,0,1,2.033c.4.464.557.555.975.555A1.659,1.659,0,0,0,249.744,96.463Zm-16.738-2.625v-2.3h-.473c-.458,0-.473.016-.473.516a15.071,15.071,0,0,0,.9,4.081c.026,0,.048-1.034.048-2.3Zm11.622.879A14.774,14.774,0,0,0,245,92.577l.084-1.058-.46.044-.46.044-.037,2.227c-.024,1.419.01,2.179.092,2.1a5.674,5.674,0,0,0,.414-1.213Zm-17.5.934a5.9,5.9,0,0,0,1.942-2.059c.355-.7.355-.7-.064-.7a1.533,1.533,0,0,1-.608-.14c-.218-.117-.332-.059-.69.349a4.5,4.5,0,0,1-2.106,1.277c-.344,0-.4.318-.154.86.275.6.936.767,1.68.414Zm24.056.08c.361-.137.825-.979.675-1.224a.457.457,0,0,0-.348-.129,3.758,3.758,0,0,1-1.957-1.167c-.5-.514-.628-.584-.855-.463a1.379,1.379,0,0,1-.546.143c-.448,0-.339.435.333,1.328a4.4,4.4,0,0,0,2.106,1.646,2.106,2.106,0,0,0,.592-.134Zm-25.035-1.976a5.353,5.353,0,0,0,1.007-.772c.479-.462.575-.64.575-1.071,0-.3-.074-.545-.178-.585a2.348,2.348,0,0,0-.972.41,6.1,6.1,0,0,1-1.579.64c-.615.127-.785.216-.785.412a1.713,1.713,0,0,0,.572,1.092,1.874,1.874,0,0,0,1.361-.127Zm26.475-.188a1.676,1.676,0,0,0,.284-.662c.032-.286-.044-.344-.64-.488a5.256,5.256,0,0,1-1.99-.833c-.631-.434-.916-.344-.916.289a1.391,1.391,0,0,0,.479,1.007C250.8,93.941,252.115,94.266,252.627,93.567Zm-20.837-.491v-.491l-.279.355c-.289.367-.254.628.084.628.134,0,.195-.154.195-.491Zm14.015.277a.556.556,0,0,0-.207-.5l-.289-.289v.5c0,.362.058.5.207.5A.344.344,0,0,0,245.8,93.353Zm-14.9-.485a2.2,2.2,0,0,0,.745-1.73c0-.491-.033-.545-.338-.545-.215,0-.338.076-.338.209a3.1,3.1,0,0,1-.844,1.505c-.461.486-.427.854.078.854A1.394,1.394,0,0,0,230.909,92.869Zm16.472.1c.041-.107-.147-.421-.428-.717a3.55,3.55,0,0,1-.689-1.094c-.149-.451-.252-.567-.5-.567-.272,0-.316.067-.316.478a2.534,2.534,0,0,0,.756,1.753C246.6,93.193,247.263,93.277,247.38,92.972Zm-17.64-.849a2.28,2.28,0,0,0,.763-1.944c-.108-.637-.245-.673-.472-.125a2.686,2.686,0,0,1-1.5,1.306c-.426.085-.515.382-.225.747.327.413.8.418,1.432.016Zm18.948.093c.383-.383.347-.763-.082-.87a2.117,2.117,0,0,1-1.356-1.109c-.377-.643-.524-.657-.655-.061a2.423,2.423,0,0,0,1.214,2.182c.424.175.588.149.879-.141Zm-22.906-.544c.952-.408,1.144-.615,1.047-1.127a4.477,4.477,0,0,0-.1-.451,12.22,12.22,0,0,0-1.163.435,10.5,10.5,0,0,1-1.719.549c-.672.1-.732.318-.2.736C224.087,92.163,224.735,92.12,225.782,91.671Zm27.687.129c.546-.429.447-.613-.421-.784a8.538,8.538,0,0,1-1.641-.562,5.5,5.5,0,0,0-.885-.372,1.755,1.755,0,0,0-.271.928,6.248,6.248,0,0,0,1.675.873,1.443,1.443,0,0,0,1.544-.084Zm-24.215-1.467c.6-.636.63-.857.161-1.07a.6.6,0,0,0-.642.006,3.168,3.168,0,0,1-.9.237c-.587.071-.61.091-.65.568-.089,1.072,1.127,1.227,2.035.259Zm20.454.334c.368-.368.4-.509.192-.894-.1-.182-.284-.261-.615-.261a2.244,2.244,0,0,1-.867-.2.692.692,0,0,0-.737-.046c-.19.086-.344.193-.344.237a2.726,2.726,0,0,0,.978,1.23c.586.358.991.339,1.393-.062Zm-24.679-.393a8.307,8.307,0,0,0,1.291-.551l.331-.217-.42-.375-.42-.375-.627.31a9.248,9.248,0,0,1-3.027.713c-.559,0-.629.12-.268.447.647.585,1.552.6,3.139.047Zm29.744.236a1.581,1.581,0,0,0,.683-.473c.122-.228.083-.254-.376-.256a9.887,9.887,0,0,1-3.023-.682l-.618-.286-.505.343-.505.343.583.3a10.787,10.787,0,0,0,2.845.925,3,3,0,0,0,.916-.213Zm-23.058-.491a8.51,8.51,0,0,0,.121-.946c.062-.7.042-.777-.185-.777a1.118,1.118,0,0,1-1.029-.632c-.06-.237.038-.446.392-.838a2.629,2.629,0,0,0,.739-2.134,3.133,3.133,0,0,0-1.308-2.1,4.559,4.559,0,0,1-1.011-.831c-.823-.9-1.132-.948-5.568-.958l-3.8-.008.19.291c.566.865,2.128,1.4,4.214,1.44,1.11.022,1.384-.014,1.6-.21.37-.332.649-.3.985.132a.868.868,0,0,1,.2.821c-.106.565.1.838.638.838.367,0,.4.032.316.351-.1.4.111.731.473.731.315,0,.471.25.277.444a.886.886,0,0,0,.05,1.041c.177.147.177.2,0,.452-.276.394-.251.733.07.933a.568.568,0,0,1,.27.4c0,.3.242.441.706.405.265-.02.376.035.376.185s.078.189.259.132c.326-.1.471.116.294.446-.094.175-.087.3.021.408.207.207.638.2.7-.013Zm14.458-.169a2.89,2.89,0,0,0-.068-.473c-.039-.15.043-.193.319-.164s.372-.021.372-.185.079-.2.3-.146a.482.482,0,0,0,.649-.436.563.563,0,0,1,.27-.39.664.664,0,0,0,.111-.965c-.129-.206-.114-.3.078-.491a.524.524,0,0,0,.159-.487L248.2,85.6c-.064-.208.021-.306.406-.466.485-.2.608-.4.352-.555-.286-.177-.133-.473.243-.473.525,0,.7-.229.7-.906a1.127,1.127,0,0,1,.27-.852c.332-.332.511-.339.85-.034.375.337,2.786.282,4.02-.093.785-.238,2.025-1.057,2.025-1.337a65.612,65.612,0,0,0-8.224.1,3.337,3.337,0,0,0-1.3.869c-.4.386-.931.869-1.19,1.073a2.748,2.748,0,0,0-.062,4.117c.4.42.4.443.185.776a1.026,1.026,0,0,1-.753.428c-.517.083-.526.095-.464.576.183,1.41.175,1.39.564,1.345.266-.031.36-.115.35-.312Zm-22.724-.693c1.264-.285,2.122-.687,2.122-.993,0-.192-.159-.251-.836-.313a2.132,2.132,0,0,0-1.453.234,9.868,9.868,0,0,1-1.36.529,5.238,5.238,0,0,0-.946.355c-.18.121-.18.151,0,.27a4.663,4.663,0,0,0,2.474-.083Zm32.641.135c.521-.14.342-.286-.811-.662a11.553,11.553,0,0,1-1.554-.614c-.574-.327-2.236-.227-2.17.132C251.675,88.8,254.888,89.613,256.09,89.291ZM228.551,88.9c.473-.245.476-.257.129-.6a.943.943,0,0,1-.27-.55c0-.229-.055-.262-.3-.182a5.656,5.656,0,0,1-1.138.11,3.064,3.064,0,0,0-.919.1c-.189.189.124.834.52,1.076A2.311,2.311,0,0,0,228.551,88.9Zm22.184-.2a.937.937,0,0,0,.361-.71c-.04-.279-.118-.306-.922-.318a5.987,5.987,0,0,1-1.183-.11c-.259-.083-.3-.049-.3.233a.729.729,0,0,1-.2.5c-.508.421.029.781,1.193.8a1.127,1.127,0,0,0,1.057-.394Zm-30.256.017a7.8,7.8,0,0,1,1.323-.547c1.746-.6,1.618-.507,1.356-.967-.3-.532-.742-.515-1.808.069a12.532,12.532,0,0,1-2.134.83c-.706.2-1.315.391-1.352.424s.054.152.2.264A3.966,3.966,0,0,0,220.48,88.718Zm38.492.113c.144-.077.262-.191.262-.253a4.655,4.655,0,0,0-1.3-.472,7.41,7.41,0,0,1-2.69-1.16.916.916,0,0,0-.584-.137c-.409,0-.529.067-.668.365-.093.2-.119.414-.058.475a7.986,7.986,0,0,0,1.251.5c.627.215,1.383.484,1.68.6A3.446,3.446,0,0,0,258.971,88.831Zm-41.35-.686a11.857,11.857,0,0,1,1.479-.471,9.13,9.13,0,0,0,2.4-.949c.03-.027-.107-.176-.3-.331a.913.913,0,0,1-.359-.475c0-.214-.213-.261-.329-.073a13.507,13.507,0,0,1-3.649,1.293c-1.542.388-1.788.418-2.1.257a1.606,1.606,0,0,0-.619-.178c-.235,0-.218.048.135.34a4.122,4.122,0,0,0,3.34.586Zm44.359-.123a3.141,3.141,0,0,0,.985-.558l.255-.284-.473.1a1.837,1.837,0,0,0-.578.2,21.076,21.076,0,0,1-4.929-1.324c-.462-.233-.865-.424-.9-.424s-.094.148-.139.329a.651.651,0,0,1-.379.423l-.3.094.312.253a7.885,7.885,0,0,0,1.683.669c.754.229,1.554.5,1.777.6A4.2,4.2,0,0,0,261.981,88.022Zm-19.241-.747c0-.46-.364-1.142-.609-1.142-.108,0-.321.243-.472.541-.262.513-.509.662-.73.441a1.441,1.441,0,0,0-1.123-.011.288.288,0,0,1-.3.047c-.086-.053,0-.268.231-.552.426-.534.574-.582.574-.187,0,.153.061.241.135.195a.451.451,0,0,0,.135-.346c0-.4.191-.313.389.177l.177.439.341-.724c.279-.592.314-.783.193-1.048-.182-.4-.383-.409-.783-.034l-.309.29-.132-.347c-.1-.261-.2-.329-.41-.274-.158.041-.278.007-.278-.078,0-.259-.217-.166-.4.17a.545.545,0,0,0-.007.63c.147.274.179.284.291.085.139-.248.383-.3.383-.086,0,.244-.7,1.212-.828,1.136A1.03,1.03,0,0,1,239.09,86c0-.295-.074-.548-.169-.583-.121-.044-.059-.276.219-.822.415-.814.535-.9.746-.525.107.189.167.2.3.068.25-.247.347-.21.443.169.1.418.271.429.545.037a2.33,2.33,0,0,0,.092-1.643c-.093-.237-.114-.238-.326-.027a2.614,2.614,0,0,0-.356.456c-.12.212-.146.209-.337-.04-.288-.378-.272-.645.033-.548.358.114.732-.367.751-.965.013-.425-.043-.534-.359-.688-.375-.183-.389-.436-.023-.436.241,0,.241-.034,0-.6-.25-.6-.609-.774-1.837-.9-.558-.056-1.227-.141-1.487-.189a.9.9,0,0,0-.742.113c-.265.2-.265.2-.01.486a1.325,1.325,0,0,1,.269.744.737.737,0,0,0,.247.606c.212.133.237.086.237-.461,0-.452-.052-.609-.2-.609-.112,0-.2-.061-.2-.135s.359-.135.805-.135a2.037,2.037,0,0,1,1.318.335c.714.466.986.753.986,1.041,0,.349-.249.306-.422-.072a1.391,1.391,0,0,0-.592-.532c-.423-.2-.45-.2-.515.049a.416.416,0,0,1-.759.025c-.114-.2-.141-.154-.158.237a3.252,3.252,0,0,0,.016.608c.191.714.156.876-.224,1.021a1.811,1.811,0,0,1-.826.064c-.534-.1-.571.09-.171.874.149.293.214.562.145.605a.155.155,0,0,1-.21-.06c-.153-.248-.295-.145-.512.37a2.081,2.081,0,0,0-.232,1.59c.162.426.054.685-.2.476-.132-.109-.215-.043-.348.277a6.031,6.031,0,0,1-.486.881l-.312.46h8.509ZM235.927,87c-.133-.346-.094-1.273.053-1.273.074,0,.135.152.135.338,0,.385.038.4.4.174.438-.274.469-.009.056.487C236.127,87.261,236.041,87.3,235.927,87Zm.676-1.622c-.133-.346-.094-1.273.053-1.273.074,0,.135.153.135.341,0,.3.044.329.338.256.208-.052.338-.027.338.065a.145.145,0,0,1-.139.15c-.076,0-.2.152-.267.338C236.915,85.639,236.723,85.691,236.6,85.377Zm1.5-.834a3.007,3.007,0,0,1-.149-.485c-.077-.32-.125-.356-.292-.217-.292.243-.412.038-.148-.254a.846.846,0,0,0,.224-.406c0-.352.378-.129.457.27l.086.428.325-.306a1.6,1.6,0,0,0,.407-.631c.1-.411.347-.425.346-.021a2.164,2.164,0,0,1-.473.9,3.09,3.09,0,0,0-.472.71c0,.143-.233.154-.311.015ZM225.474,87.4c.046-.046,0-.171-.11-.277a2.177,2.177,0,0,1-.3-.378c-.086-.152-.245-.156-.9-.025-.627.126-.756.192-.608.314a2.783,2.783,0,0,0,1.915.366Zm27.928-.274.353-.232-.337-.09c-.185-.049-.555-.13-.821-.18-.5-.093-.522-.074-.915.779C251.588,87.607,253.02,87.376,253.4,87.126Zm-25.19-.053c.23-.085.267-.194.221-.668-.048-.506-.085-.558-.343-.481a11.19,11.19,0,0,1-1.416.167c-1.183.084-1.476.267-1.074.669a2.757,2.757,0,0,0,2.612.313Zm23.045-.122a.962.962,0,0,0,.379-.509c.037-.248-.057-.278-1.082-.351a11.053,11.053,0,0,1-1.426-.17c-.25-.074-.3-.038-.3.2a1.374,1.374,0,0,1-.134.546c-.114.213-.068.272.3.388a2.414,2.414,0,0,0,2.264-.108Zm-34.2-.327c1.674-.415,3.515-1.156,3.515-1.414a2.891,2.891,0,0,0-1.048-.246c-.9-.121-1.112-.108-1.521.092a18.119,18.119,0,0,1-3.894.951c-1.088.153-1.133.149-1.449-.148a1.686,1.686,0,0,0-1.03-.374l-.7-.068.291.408c.428.6,1.144.884,2.492.983a5.682,5.682,0,0,1,1.273.178c.127.127.046.141,2.074-.363Zm46.438.2c1.467-.125,2.145-.433,2.528-1.149.128-.24.092-.252-.558-.19a1.678,1.678,0,0,0-1.021.373c-.317.3-.359.3-1.449.146a18.557,18.557,0,0,1-3.85-.952,1.462,1.462,0,0,0-1.082-.128,5.292,5.292,0,0,1-.948.123c-1.493.011.4.957,3.406,1.7a6.064,6.064,0,0,0,1.487.239c.149-.035.818-.11,1.487-.167ZM224.3,86.25c.6-.152.6-.154.3-.364a2.106,2.106,0,0,1-.38-.313c-.039-.056-.313-.044-.608.027a6.767,6.767,0,0,1-1.348.117c-1.085-.015-1.071-.019-.878.213C221.744,86.369,223.2,86.528,224.3,86.25Zm30.935-.028c.9-.271.768-.5-.283-.5a6.571,6.571,0,0,1-1.369-.127.87.87,0,0,0-.917.194l-.473.321.58.13a5.5,5.5,0,0,0,2.462-.022Zm-40.005-.852c1.537-.292,2.831-.747,2.88-1.013.07-.379-.578-.422-1.567-.1a10.885,10.885,0,0,1-3.279.358l-2.371.066-.363-.475a3.418,3.418,0,0,0-2.547-1.14L207,82.979l.31.435c.679.954,1.8,1.427,3.708,1.57a3.145,3.145,0,0,1,1.747.408c.475.338.566.337,2.463-.023Zm12.527.158c.209-.085.209-.121,0-.521-.124-.236-.243-.458-.266-.494a13.8,13.8,0,0,0-3.047.128c-.19.185.043.667.428.887a2.827,2.827,0,0,0,1.512.149,8.021,8.021,0,0,0,1.374-.149Zm24.7-.127a.9.9,0,0,0,.284-.562c0-.294-.051-.307-1.453-.356-1.659-.059-1.791-.036-1.791.3a.759.759,0,0,1-.208.455c-.188.188-.171.217.169.292a5.266,5.266,0,0,1,.513.135,7.571,7.571,0,0,0,1.169.022c.8-.023,1.1-.089,1.318-.287Zm11.769.039a4.344,4.344,0,0,1,2.012-.465,7.231,7.231,0,0,0,2.209-.471,4.619,4.619,0,0,0,1.6-1.373c0-.182-1.129-.119-1.885.105a3.435,3.435,0,0,0-1.375.828l-.658.615-2.334-.064a9.825,9.825,0,0,1-3.17-.353c-.882-.305-1.665-.276-1.665.061s2.012.963,4.02,1.257c.429.063.8.121.818.131a1.918,1.918,0,0,0,.427-.27Zm-40.787-.261c.549-.153.71-.586.269-.726a7.264,7.264,0,0,0-2.6.639,2.824,2.824,0,0,0,1.217.218,4.744,4.744,0,0,0,1.115-.131Zm32.57-.1c.095-.095-.047-.17-.447-.237a8.177,8.177,0,0,1-1.124-.289c-.669-.236-1.291-.125-1.291.231q0,.256.439.391a5.32,5.32,0,0,0,2.422-.1Zm-34.192-.73c.353-.074.64-.176.638-.225s-.149-.2-.327-.325c-.3-.217-.366-.219-.908-.022a7.736,7.736,0,0,1-1.532.3c-.52.049-.934.151-.918.225.07.331,1.583.353,3.047.045Zm36.6.023c.286-.161.063-.227-1.074-.321a7.119,7.119,0,0,1-1.414-.259c-.469-.164-.581-.161-.912.027-.207.118-.377.252-.378.3a7.39,7.39,0,0,0,1.892.444,4.99,4.99,0,0,0,1.885-.188Zm-42.318-.43.6-.186-.328-.214a7.4,7.4,0,0,0-2.626-.311c-2.142-.091-2.321-.118-2.636-.409-.533-.492-.838-.6-2.086-.742-1.305-.148-2.066-.49-2.418-1.086-.21-.356-.285-.379-1.407-.442a7.773,7.773,0,0,0-1.244-.015c-.147.129,1.086,1.193,1.816,1.568a4.5,4.5,0,0,0,2.062.513,4.011,4.011,0,0,1,3,1.223l.315.427,2.18-.071a16.323,16.323,0,0,0,2.778-.257Zm50.4-.258a3.81,3.81,0,0,1,2.817-1.058,4.994,4.994,0,0,0,3.4-1.452c.671-.671.751-.917.235-.721a4.932,4.932,0,0,1-1.251.133c-.864,0-.914.019-1.137.41a3.163,3.163,0,0,1-2.16,1.075,3.489,3.489,0,0,0-2.251.678c-.383.383-.389.384-2.669.471-2.093.08-2.893.215-2.893.487,0,.089.33.175,1.69.443.149.029,1.024.06,1.945.069l1.675.016Zm-39.7-.23c.091-.684-.135-.994-.5-.689a11.354,11.354,0,0,1-3.88.005c-.61-.168-.66.043-.133.569.548.548,1.4.75,3.022.719l1.419-.027.077-.578Zm27.029.43a2.659,2.659,0,0,0,1.11-.627c.211-.226.362-.433.335-.46a16.539,16.539,0,0,0-1.823.109c-1.57.14-1.839.132-2.34-.064a1.435,1.435,0,0,0-.682-.15,2.2,2.2,0,0,0-.026,1.318,10.28,10.28,0,0,0,3.426-.125Zm-33.1-.411c.712-.2.786-.255.786-.589V82.52l-2.6.065c-1.431.036-2.633.093-2.67.127-.129.119.693.715.988.717a1.1,1.1,0,0,1,.5.133A6.867,6.867,0,0,0,220.729,83.478Zm39.163-.043c.711-.26,1.259-.721.921-.776-.088-.014-1.265-.05-2.616-.079l-2.456-.053-.061.321a.376.376,0,0,0,.183.451A6.542,6.542,0,0,0,259.891,83.435Zm-44.146-.745a1.671,1.671,0,0,0-.712-.364,2.72,2.72,0,0,1-1.623-1.116c-.184-.345-.208-.349-1.753-.352-.861,0-2.262-.06-3.114-.13a10.833,10.833,0,0,0-1.608-.069c-.111.111.26.446.753.68a6.409,6.409,0,0,0,1.559.352,3.6,3.6,0,0,1,2.2.8,2,2,0,0,0,1.217.3,9.734,9.734,0,0,0,3.084-.1Zm50.112-.271c.534-.489.84-.6,2.078-.739a3,3,0,0,0,2.079-.726c.433-.395.378-.49-.2-.35-.279.067-1.728.161-3.22.209l-2.713.088-.219.382a2.77,2.77,0,0,1-1.688,1.083c-.357.092-.575.225-.575.352,0,.177.271.191,2.062.107,1.888-.089,2.09-.123,2.4-.406Zm-45.469-.312c.108-.069.015-.256-.293-.592l-.451-.492-2.749-.058a24.084,24.084,0,0,1-3.019-.176c-.259-.113-.261-.1-.052.213a3.009,3.009,0,0,0,1.8,1.019A22.465,22.465,0,0,0,220.388,82.107Zm41.7-.221c.574-.209,1.467-.942,1.324-1.085a1.456,1.456,0,0,0-.6.063,23.535,23.535,0,0,1-2.89.128l-2.353,0-.5.537c-.279.3-.433.567-.351.605a23.6,23.6,0,0,0,2.443.022,10.278,10.278,0,0,0,2.921-.273ZM236.619,81.5a1.727,1.727,0,0,0-.946-.314,5.311,5.311,0,0,1-.943-.122c-.285-.077-.372-.052-.372.1,0,.234.379.359,1.149.381a3.951,3.951,0,0,1,.879.124c.564.181.627.134.233-.171Zm-2.554-.392c.242-.484.176-.472,1.66-.3.6.071.627.059.7-.31a.86.86,0,0,0-.614-1.1c-.418-.048-.476.121-.152.445.12.12.178.259.129.309-.15.15-.539-.175-.624-.521-.067-.276-.156-.323-.589-.309a1.269,1.269,0,0,0-.723.23,3.288,3.288,0,0,0-.25,1.931c.1.27.168.218.464-.376Zm3.131.241a1.381,1.381,0,0,0-.372-.278l-.372-.226.319.278C237.084,81.394,237.2,81.454,237.2,81.348Zm-22.036,32.217a7.154,7.154,0,0,1-2.111-2.761,8.443,8.443,0,0,1-.8-3.28c.054-.054.26.091.459.322a9.641,9.641,0,0,0,1.173,1.033c1.8,1.359,2.386,2.358,2.476,4.19C216.424,114.515,216.343,114.548,215.161,113.565Zm.816-1.045a6.147,6.147,0,0,0-.466-1.355,6.856,6.856,0,0,0-2-2.068c-.246-.132-.248-.121-.032.312a43.359,43.359,0,0,0,2.59,3.848,3,3,0,0,0-.088-.737Zm49.67-33.7a.216.216,0,0,1,.026-.258c.192-.183,6.7-2.7,6.976-2.7.169,0,.242.079.214.228s-1.048.623-3.412,1.555c-1.852.73-3.446,1.327-3.541,1.327a.346.346,0,0,1-.264-.147Zm-58.259-1.254c-2.213-.884-3.121-1.308-3.153-1.475s.04-.234.2-.233c.136,0,1.676.566,3.423,1.256,2.25.889,3.189,1.322,3.221,1.486C211.158,79.006,210.612,78.853,207.389,77.566Zm6.453-3.162c-4.757-2.975-6.648-4.227-6.652-4.4s.076-.232.242-.2c.136.024,3.208,1.9,6.825,4.166,4.584,2.874,6.578,4.195,6.58,4.36,0,.13-.077.237-.173.237s-3.166-1.871-6.822-4.157Zm42.306,3.934c.052-.263,13.029-8.462,13.428-8.483.152-.008.27.071.27.181,0,.228-13.124,8.514-13.5,8.52-.158,0-.231-.076-.2-.219Zm-4.58-.948c-.056-.147.033-.322.257-.507.189-.155,3.309-3.02,6.934-6.366s6.685-6.084,6.8-6.084a.282.282,0,0,1,.261.156c.055.164-13.8,13.025-14.031,13.025-.074,0-.173-.1-.221-.224Zm-33.433-6.22c-3.755-3.467-6.827-6.4-6.827-6.52a.2.2,0,0,1,.219-.2c.3.022,13.933,12.616,13.869,12.809a.325.325,0,0,1-.242.184c-.105.017-3.264-2.806-7.019-6.273Zm-9.463,4.89a2.354,2.354,0,0,0-.795-.608,3.528,3.528,0,0,0-.912.4c-.9.51-1.017.357-.516-.692l.382-.8-.634-.644a2.775,2.775,0,0,1-.634-.82c0-.174.132-.169,1.559.069.388.065.431.025.8-.752.566-1.184.735-1.109.956.425l.092.637.794.09a3.1,3.1,0,0,1,1.006.245c.178.13.069.231-.677.625-.722.381-.878.521-.826.74a3.859,3.859,0,0,1,.124,1.69A3.02,3.02,0,0,1,208.672,76.06Zm.267-.879c-.125-.66-.126-.659.7-1.139.279-.161.372-.274.247-.3l-.7-.117c-.453-.074-.51-.13-.585-.584-.152-.915-.2-.94-.546-.272l-.326.636-.71-.079-.71-.079.5.524.5.524-.27.52a1.255,1.255,0,0,0-.205.584,1.4,1.4,0,0,0,.617-.218l.553-.282.507.465a3.749,3.749,0,0,0,.53.442A4.108,4.108,0,0,0,208.938,75.182Zm58.739.481.094-1.007-.822-.415a2.45,2.45,0,0,1-.822-.542c0-.07.228-.167.507-.216,1.573-.276,1.439-.18,1.589-1.135a1.857,1.857,0,0,1,.3-.916c.09-.03.347.311.577.766a2.916,2.916,0,0,0,.513.819c.055,0,.458-.059.9-.131a2.75,2.75,0,0,1,.926-.051c.071.044-.186.4-.571.789l-.7.709.421.835a2.446,2.446,0,0,1,.344.961c-.043.069-.471-.068-.951-.3l-.873-.431-.647.637a3.657,3.657,0,0,1-.76.637,2.3,2.3,0,0,1-.018-1.007Zm2.024-.426a1.814,1.814,0,0,0,.618.292,5.317,5.317,0,0,0-.3-.681l-.3-.612.466-.491.466-.491-.682.086-.682.086-.324-.643-.324-.643-.126.7c-.133.739-.273.85-1.072.854-.532,0-.459.192.184.482l.556.251-.088.748-.088.748.536-.524.536-.524Zm-41.919.375c-.245-.16-11.444-15.221-11.512-15.482-.05-.191,0-.238.215-.2.19.031,2.113,2.5,5.967,7.657,3.128,4.186,5.687,7.7,5.687,7.8,0,.238-.173.349-.357.229Zm21.1-.076c-.041-.108,2.357-3.438,5.7-7.909,4.221-5.652,5.839-7.722,6.034-7.722.161,0,.25.076.223.193-.076.336-11.527,15.61-11.708,15.618a.28.28,0,0,1-.245-.179Zm-2.947-1.277c-.118-.191,8.646-17.937,8.858-17.937a.249.249,0,0,1,.221.206c.059.3-8.57,17.767-8.8,17.815a.276.276,0,0,1-.276-.085Zm-19.675-8.893c-3.174-6.456-4.32-8.91-4.212-9.018s.2-.1.344.048c.215.217,8.725,17.484,8.725,17.7,0,.075-.112.136-.248.136-.194,0-1.2-1.936-4.609-8.869Zm7.309,7.754c-.061-.167-1.287-4.518-2.725-9.669-2.007-7.192-2.577-9.4-2.455-9.524.1-.1.205-.113.292-.027.153.153,5.41,18.874,5.41,19.265,0,.359-.388.326-.523-.045Zm9.392.192c-.1-.158,5.237-19.185,5.434-19.382.114-.114.2-.119.3-.019s-.585,2.752-2.306,8.916c-3.1,11.117-2.948,10.6-3.174,10.6a.333.333,0,0,1-.259-.112Zm-6.3-.393c0-.055-.4-4.6-.884-10.094-.863-9.767-.9-10.571-.468-10.139.1.1,1.892,19.185,1.892,20.163,0,.093-.122.169-.27.169s-.27-.045-.27-.1Zm3.248-.408c.007-.912,1.713-19.776,1.8-19.859a.342.342,0,0,1,.3,0c.17.065.2.2.144.591-.042.279-.446,4.765-.9,9.97s-.846,9.539-.877,9.632a.289.289,0,0,1-.264.169C239.958,73.019,239.9,72.878,239.9,72.512Zm-28.339-1.734c-.56-.814-.489-.795-1.706-.453a1.46,1.46,0,0,1-.73.087c-.051-.051.084-.34.3-.642l.562-.79c.146-.205.092-.349-.372-1a6.169,6.169,0,0,1-.542-.835c0-.158.549-.071,1.217.192.377.149.707.27.732.27a6.632,6.632,0,0,0,.608-.744,2.914,2.914,0,0,1,.692-.744c.072,0,.131.439.131.981v.981l.885.317c.487.175.863.385.835.467a2.263,2.263,0,0,1-.875.414c-.919.294-.975.383-.978,1.536,0,.39-.055.71-.121.71a2.888,2.888,0,0,1-.638-.754Zm1.1-1.682a1.407,1.407,0,0,0,.6-.257,1.4,1.4,0,0,0-.575-.287c-.562-.194-.575-.213-.617-.871l-.042-.672-.441.525c-.471.561-.438.559-1.5.13-.258-.1-.26-.094-.054.223.617.949.607.878.2,1.41-.431.565-.4.677.114.48.639-.243.867-.165,1.259.427l.374.566.04-.753.04-.753Zm52.064,2.345a3.327,3.327,0,0,1-.09-1v-.906L263.8,69.3a9.329,9.329,0,0,1-.953-.3c-.222-.133.2-.41.985-.649l.813-.246v-.993a2.185,2.185,0,0,1,.119-.993,3.059,3.059,0,0,1,.675.737l.556.737.766-.263c1.3-.447,1.4-.337.656.683a4.238,4.238,0,0,0-.473.734,5.365,5.365,0,0,0,.56.83c.308.408.519.782.469.832A2.508,2.508,0,0,1,267,70.27a3.357,3.357,0,0,0-.982-.171,5.6,5.6,0,0,0-.569.748c-.471.692-.551.758-.714.595Zm1.554-1.743a4.685,4.685,0,0,1,.744.17c.239.091.239.082.01-.236-.555-.77-.57-.895-.185-1.477a2.459,2.459,0,0,0,.315-.544c-.025,0-.334.1-.688.219-.611.208-.651.206-.82-.034-.1-.139-.3-.4-.459-.591l-.282-.338,0,.767c0,.766-.005.767-.511.93-.783.252-.788.284-.084.518l.659.218.042.739.042.739.364-.578c.343-.545.392-.574.859-.5ZM215.4,66.1l-.373-.826-.937.087a2.28,2.28,0,0,1-1.013-.036c-.042-.067.228-.4.6-.731a3.065,3.065,0,0,0,.676-.74,5.351,5.351,0,0,0-.352-.9,1.91,1.91,0,0,1-.261-.86,2.393,2.393,0,0,1,.961.374l.87.465.674-.664c.833-.821,1.013-.722.743.408-.106.445-.2.852-.2.905a3.005,3.005,0,0,0,.8.541,2.24,2.24,0,0,1,.811.6c0,.093-.374.193-.94.25-.708.071-.957.15-1,.318-.033.123-.133.543-.221.933s-.23.708-.316.705-.323-.376-.529-.83Zm1.489-1.4.71-.136-.617-.373c-.442-.267-.6-.439-.551-.607.036-.129.109-.446.161-.7l.095-.468-.5.435c-.583.512-.609.515-1.3.161-.294-.15-.535-.239-.535-.2a4.248,4.248,0,0,0,.286.637l.286.561-.591.514-.591.514.763-.084.763-.084.3.659.3.659.152-.676.152-.676Zm44.042,2.063c-.03-.093-.123-.511-.2-.929l-.149-.76-.94-.093c-.614-.06-.94-.151-.94-.262,0-.093.356-.37.791-.614l.791-.445-.178-.831c-.3-1.416-.26-1.45.73-.56a5.2,5.2,0,0,0,.752.608,5.62,5.62,0,0,0,.763-.406c.719-.424,1.159-.524,1.041-.237-.038.093-.226.517-.416.942l-.347.773.672.567c.953.8.9.946-.312.843L262,65.278l-.357.828C261.3,66.9,261.046,67.131,260.926,66.766Zm1.586-1.812.688.082-.5-.514-.5-.514.271-.631c.3-.7.259-.75-.328-.361-.551.365-.724.342-1.249-.166l-.451-.437.087.742.087.742-.589.333-.589.333.673.114c.76.129.817.187.945.961l.092.556.339-.66.339-.66ZM220.327,63.06a5.942,5.942,0,0,1-.3-.959c-.183-.781-.236-.814-1.413-.876-.366-.019-.686-.1-.712-.176s.319-.351.765-.608a2.536,2.536,0,0,0,.811-.6,7.557,7.557,0,0,0-.2-.879c-.11-.409-.2-.789-.2-.845,0-.234.359-.068.96.439a3.436,3.436,0,0,0,.752.537,5.006,5.006,0,0,0,.848-.473c.405-.258.788-.418.85-.356a1.953,1.953,0,0,1-.256.965l-.369.852.7.623a3.524,3.524,0,0,1,.7.734,2.277,2.277,0,0,1-.983.079l-.98-.032-.348.832c-.418,1-.472,1.065-.637.746Zm1.429-1.935.714,0-.478-.42c-.536-.47-.57-.631-.265-1.222.277-.536.19-.6-.366-.259-.611.372-.768.353-1.311-.161l-.464-.439.092.388c.272,1.145.278,1.114-.308,1.443-.3.17-.517.36-.479.422a1.25,1.25,0,0,0,.657.113h.587l.173.71.173.71.28-.639.28-.639.714,0Zm34.452,1.46c-.173-.4-.343-.806-.376-.911-.046-.146-.293-.184-1.034-.16-.573.019-.973-.023-.973-.1a2.938,2.938,0,0,1,.677-.726l.677-.592-.348-.856a2.018,2.018,0,0,1-.238-.966c.06-.06.445.1.854.353a5.768,5.768,0,0,0,.837.466,3.7,3.7,0,0,0,.718-.538,2.543,2.543,0,0,1,.819-.541c.107,0,.194.015.193.034s-.091.368-.2.777a6.562,6.562,0,0,0-.2.949c0,.113.333.405.742.65,1.021.611.986.835-.13.835-.989,0-1.012.021-1.285,1.183a2.179,2.179,0,0,1-.291.787c-.069.042-.267-.247-.44-.643Zm1.2-1.569c.927-.066.983-.149.351-.525-.559-.333-.58-.369-.5-.86a4.987,4.987,0,0,1,.177-.759c.066-.173-.064-.116-.436.191-.626.516-.71.525-1.34.154-.553-.326-.557-.319-.255.438l.226.566-.531.449-.531.449.715,0,.715,0,.284.642.284.642.151-.676c.148-.663.161-.677.691-.714Zm-32.032-1.659a1.978,1.978,0,0,0-.254-1c-.088-.028-.51-.148-.937-.266s-.777-.27-.777-.335a2.617,2.617,0,0,1,.913-.468l.913-.348-.044-1.015c-.026-.59.01-1.015.085-1.015s.3.221.518.491c.9,1.143.7,1.063,1.673.668.514-.209.911-.3.984-.228s-.074.414-.364.844a4.326,4.326,0,0,0-.486.84,3.488,3.488,0,0,0,.541.764c.817.976.737,1.105-.461.742a5.2,5.2,0,0,0-.837-.2c-.1,0-.374.333-.621.74a2.164,2.164,0,0,1-.6.744C225.532,60.309,225.432,59.919,225.376,59.357Zm1.018-.717c.192-.238.277-.25.807-.116a1.8,1.8,0,0,0,.648.094c.031-.031-.136-.275-.37-.542s-.385-.557-.334-.647.211-.332.356-.54.237-.406.2-.438a1.64,1.64,0,0,0-.64.17l-.582.229-.422-.528-.422-.528-.068.721c-.067.709-.077.724-.676.959l-.608.238.676.2.676.2.046.73c.046.727.047.729.27.4.124-.182.321-.45.44-.6Zm24.457.927a2.374,2.374,0,0,0-.608-.741,7.737,7.737,0,0,0-.879.2c-.409.11-.789.2-.845.2-.217,0-.082-.333.348-.863.682-.843.681-.832.165-1.6-.418-.621-.594-1.053-.428-1.053.028,0,.462.154.964.343a5.541,5.541,0,0,0,.935.3,5.191,5.191,0,0,1,1.319-1.376c.083.051.1.434.043,1l-.092.912.851.341c.845.338,1.118.587.772.705-.1.034-.53.16-.958.28l-.777.219v.937c0,1.164-.167,1.2-.811.193Zm1.283-1.669.674-.19-.607-.236c-.606-.236-.607-.237-.685-1.031-.043-.437-.091-.734-.107-.659a2.688,2.688,0,0,1-.418.591l-.39.456-.643-.219c-.354-.12-.665-.219-.691-.219a1.994,1.994,0,0,0,.294.5,2.286,2.286,0,0,1,.343.645,2.317,2.317,0,0,1-.435.668c-.424.514-.426.525-.1.431,1.045-.3,1.135-.282,1.557.34l.4.588.068-.74.068-.74Zm-21.089-.122c.046-.353.112-.779.146-.946.054-.261-.062-.366-.82-.739-.486-.239-.862-.5-.836-.575a2.052,2.052,0,0,1,.9-.292c.9-.162,1.083-.309,1.086-.878,0-.6.164-1.2.323-1.2.084,0,.335.35.558.777.439.841.4.825,1.656.642.909-.132.933.062.112.868l-.6.587.422.856a2.218,2.218,0,0,1,.326.952,2.021,2.021,0,0,1-.908-.292l-.812-.388-.644.634c-.839.827-1.014.825-.906-.008Zm1-.643.431-.474.55.281a1.367,1.367,0,0,0,.615.215,1.366,1.366,0,0,0-.249-.612L233.074,56l.54-.562c.394-.41.467-.543.27-.491-.149.039-.5.109-.772.156-.49.083-.509.07-.832-.563l-.33-.647-.09.541c-.049.3-.1.63-.116.74s-.253.238-.618.3a2.747,2.747,0,0,0-.654.163c-.034.034.193.192.5.351.562.287.566.293.52.956a1.439,1.439,0,0,0,.033.667,2.413,2.413,0,0,0,.511-.474Zm13.105.654-.631-.631-.8.361c-.81.364-1.108.436-1.108.27a5.429,5.429,0,0,1,.406-.809,3.725,3.725,0,0,0,.406-.9,2.479,2.479,0,0,0-.608-.774,3,3,0,0,1-.608-.723,3.78,3.78,0,0,1,1.708.126c.243.067.359-.05.741-.744.249-.453.523-.823.61-.823s.195.367.252.939l.094.939.7.135c.383.074.813.153.956.176.526.083.334.347-.531.729l-.889.393.082.744a8.906,8.906,0,0,0,.15.98c.123.424-.273.255-.922-.394Zm.376-.861-.09-.681.625-.276c.344-.152.6-.3.565-.337a2.8,2.8,0,0,0-.653-.161c-.592-.1-.594-.1-.741-.841l-.148-.741-.323.651c-.313.63-.338.649-.8.567-.262-.046-.6-.12-.746-.164-.2-.06-.143.061.238.483l.508.563-.281.552a1.4,1.4,0,0,0-.218.616,1.321,1.321,0,0,0,.6-.209l.534-.273.452.466a3.2,3.2,0,0,0,.51.466,2.012,2.012,0,0,0-.032-.681Zm-8.732.572a8.732,8.732,0,0,1,.288-.961c.167-.494.235-.889.163-.939-1.027-.708-1.4-1-1.4-1.1a2.117,2.117,0,0,1,.98-.162l.98-.04.322-.918c.177-.5.387-.9.467-.869a2.5,2.5,0,0,1,.422.918l.276.869.98.04a2.2,2.2,0,0,1,.98.157c0,.1-.4.412-1.468,1.173a3.806,3.806,0,0,0,.237.88,8.6,8.6,0,0,1,.285.954q0,.329-.964-.364a3.409,3.409,0,0,0-.793-.473,3.408,3.408,0,0,0-.793.473q-.965.693-.964.364Zm1.318-1.08.439-.33.439.33c.753.565.767.56.53-.181l-.222-.695.329-.218c.181-.12.454-.322.606-.45.269-.225.254-.232-.482-.237l-.76,0-.172-.616c-.189-.675-.289-.655-.533.109-.162.506-.163.507-.929.511-.84,0-.847-.039.108.668l.334.247-.221.69C237.342,56.978,237.357,56.983,238.109,56.417Zm-24.364,72.917a3.031,3.031,0,0,0,.679-.958c.332-.679.354-.808.215-1.272-.176-.586-.878-1.287-2.164-2.161-.786-.534-.876-.564-1.074-.366s-.2.232.035.4c.288.211.309.164-.7,1.61-.623.894-.767,1.028-.978.915a.285.285,0,0,0-.418.073c-.2.237-.219.214.953,1.029C212.06,129.835,212.758,129.982,213.745,129.335Zm-2.235-.662c-.186-.1-.33-.273-.321-.393a6.569,6.569,0,0,1,.785-1.308c.766-1.087.769-1.089,1.1-.873.461.3.545.771.254,1.416-.25.554-1.023,1.338-1.316,1.335a1.592,1.592,0,0,1-.5-.177Zm-2.229-3.053c-.162-.163-.237-.158-.53.034-.469.307-.725.282-1.322-.132l-.513-.355.37-.446a1.4,1.4,0,0,1,.543-.456c.253-.014.357.367.163.6-.133.16-.132.243,0,.407.152.184.2.18.437-.034a7.982,7.982,0,0,0,.675-.756c.31-.391.371-.554.252-.673s-.22-.117-.419.007c-.249.155-.679.1-.677-.083a2.024,2.024,0,0,1,.328-.492l.327-.406.493.473a.992.992,0,0,1,.277,1.385.213.213,0,0,0,.14.328c.178.068.38-.063.768-.5l.527-.593-.406-.343c-.224-.189-.928-.791-1.566-1.339-.982-.843-1.191-.969-1.367-.824-.144.119-.164.215-.066.313.273.273.123.57-.794,1.57-.824.9-.95.99-1.151.823s-.256-.158-.432.019-.042.35,1.387,1.594l1.594,1.388.573-.659c.491-.564.546-.687.385-.849Zm61.231.015a12.515,12.515,0,0,0,1.428-1.368,3.1,3.1,0,0,0-.523-.7c-.453-.511-.552-.565-.74-.409s-.2.218-.011.579c.253.49.176.763-.362,1.274l-.416.4-.393-.468a2.418,2.418,0,0,1-.393-.56c0-.211.462-.247.676-.053s.25.187.4.006.1-.295-.246-.726c-.62-.782-.791-.9-1.027-.7-.157.13-.164.215-.036.42s.118.3-.052.469c-.193.193-.245.169-.573-.261l-.361-.473.453-.346a1.048,1.048,0,0,1,1.306-.179c.217.135.3.129.461-.034s.129-.276-.325-.8l-.52-.6-1.576,1.393c-1.416,1.251-1.555,1.414-1.369,1.6s.241.179.428.024.325-.069,1.083.755c.934,1.016,1.109,1.33.888,1.6-.147.177.068.534.276.458.054-.02.74-.6,1.526-1.291Zm3.119-2.969a3.884,3.884,0,0,0,.738-.951c.007-.258-.374-.355-.613-.157-.176.146-.276.107-.632-.25-.415-.415-.418-.429-.174-.7.338-.374.563-.348,1.107.13.58.509.908.511,1.409.01.468-.468.5-.792.111-1.282-.228-.29-.322-.33-.477-.2s-.16.2.035.411c.391.432.1.425-.5-.012-.369-.267-.667-.389-.829-.337-.213.068-.24.028-.168-.256a.931.931,0,0,0-1.309-1.03,9.563,9.563,0,0,0-2.5,2.766c.093.242.377.26.6.039.17-.17.272-.1,1.68,1.232.487.459.6.643.492.778-.166.2-.063.585.156.585a3.862,3.862,0,0,0,.878-.777Zm-1.87-2.578-.365-.381.332-.312c.424-.4,1.025-.3,1.018.163,0,.26-.408.91-.566.91A2.333,2.333,0,0,1,271.762,120.09Zm-67.453,2.932c.113-.113.112-.218-.006-.406-.138-.221-.029-.382.873-1.284.59-.59,1.1-.991,1.182-.938.213.131.187.641-.05.979-.173.246-.174.308-.009.445.233.193.529.054,1.046-.49l.364-.383-1.387-1.48-1.387-1.48-.63.526c-.587.491-.615.543-.413.766s.247.219.5.041c.354-.248.685-.254.883-.015.12.145-.076.389-.935,1.165-1.025.925-1.1.969-1.333.76s-.262-.2-.42-.012c-.187.225-.157.271.938,1.453.516.557.561.577.784.354Zm-2.662-3.03c.131-.158.135-.246.017-.365a.524.524,0,0,1-.156-.248,7.778,7.778,0,0,1,1.092-.936c1-.774,1.119-.831,1.407-.677.354.19.666.07.557-.214a7.6,7.6,0,0,0-1.527-1.811c-.253,0-.338.239-.185.525.145.271-.16.584-1.651,1.7-.479.357-.525.367-.758.156s-.266-.2-.419-.018-.056.358.548,1.153a5.812,5.812,0,0,0,.811.946.585.585,0,0,0,.265-.209Zm75.6-1.618c.706-.956.735-1.038.441-1.282-.163-.135-.217-.126-.285.051-.133.347-.349.266-1.417-.533-1.29-.964-1.282-.956-1.081-1.2s.087-.485-.2-.485a7.3,7.3,0,0,0-1.551,1.9c0,.188.439.27.624.117.245-.2.413-.125,1.539.716.811.606.947.764.881,1.027-.088.352.006.571.243.563a3.335,3.335,0,0,0,.8-.874Zm-76.321-2.39a8.548,8.548,0,0,1,1.067-.65c.051,0,.161.093.244.207.129.177.189.18.4.023.24-.176.228-.22-.257-.951a7.465,7.465,0,0,0-.547-.767c-.288,0-.444.21-.386.519s-.024.418-.711.86a3.806,3.806,0,0,1-.822.456,9.082,9.082,0,0,1,.638-1.3,9.954,9.954,0,0,0,.681-1.4,10.7,10.7,0,0,0-1.031-1.687c-.134-.161-.444.325-.377.591s-.082.405-1.111,1.061c-1.1.7-1.2.741-1.427.54-.191-.173-.279-.184-.439-.051s-.13.271.3.931c.273.421.5.783.515.8s.122,0,.248-.051c.166-.064.208-.186.153-.443-.068-.316.015-.414.758-.9,1.122-.727,1.141-.728.757-.05-.184.325-.552.989-.817,1.476l-.483.885.36.56.36.56.476-.288c.262-.158.914-.58,1.45-.938Zm77.866-.237a2.565,2.565,0,0,0,1.35-1.857,1.225,1.225,0,0,0-.254-.99c-.349-.513-.609-.6-.822-.258-.1.161-.055.324.18.643.259.351.293.494.186.8a1.136,1.136,0,0,1-.512.554c-.329.158-.463.152-.971-.042-.7-.266-1.413-1.026-1.413-1.5a1.036,1.036,0,0,1,.286-.619c.229-.229.4-.273.858-.222s.6.012.722-.176c.129-.207.056-.3-.52-.671-.7-.449-1.125-.456-1.051-.017.025.151-.127.394-.381.608a2.057,2.057,0,0,0-.6,2.613,2.148,2.148,0,0,0,1.463,1.2,1.448,1.448,0,0,0,1.477-.07Zm2.875-4.575c.01-.281-.4-.355-.579-.105-.156.213-.184.211-.4-.034s-.226-.287,0-.752c.161-.339.323-.49.524-.49.39,0,.487.122.331.414-.1.192-.071.262.15.333.341.108.263.2.851-.977.447-.892.468-.985.253-1.106a.353.353,0,0,0-.467.078c-.21.19-.378.189-1.758-.014-.839-.123-1.651-.251-1.8-.283-.22-.047-.339.065-.563.526l-.284.585,1.34,1.335c.942.939,1.318,1.4,1.267,1.565a.315.315,0,0,0,.17.366c.207.117.3.034.608-.565a4.109,4.109,0,0,0,.372-.875Zm-2.152-1.259c-.45-.377-.455-.392-.135-.379a3.08,3.08,0,0,1,.627.1c.256.076.273.126.135.379l-.159.291Zm-81.643,1.5c1.237-.6,1.4-.634,1.571-.337.1.172.153.176.359.025.233-.17.224-.221-.179-1.018-.367-.726-.457-.821-.673-.706a.375.375,0,0,0-.19.444c.052.274-.085.381-1.179.917l-1.238.607-.333-.388c-.537-.624-.393-.889.83-1.534s1.386-.677,1.627-.348c.141.193.2.2.382.055s.162-.278-.272-1.144c-.582-1.163-.51-1.078-.829-.977-.183.058-.244.173-.2.387.05.263-.076.368-.923.774-1.424.682-1.742.982-1.742,1.645,0,1,.827,2.138,1.555,2.138a5.993,5.993,0,0,0,1.436-.541Zm-1.8-7.7a1.786,1.786,0,0,0-.821-1.523c-.527-.417-.537-.441-.478-1.147.065-.79-.058-.9-.556-.484a1.669,1.669,0,0,0-.408.905c-.143.779-.442,1.059-1.06.99-.345-.039-.439,0-.439.184a.857.857,0,0,0,.584.678c.088.011.637.026,1.22.034.98.013,1.083.041,1.352.377.339.422.543.417.607-.014Zm85.461-.029c.42-.42.435-.424,1.437-.339.951.08,1.033.065,1.343-.245.472-.472.44-.764-.073-.661s-1.083-.248-1.083-.679a1.778,1.778,0,0,0-.546-1.3c-.453-.243-.526-.157-.445.525.077.648.068.668-.615,1.354-.554.557-.693.786-.693,1.145,0,.384.084.629.215.629a4.323,4.323,0,0,0,.459-.425Zm-90.846-7.826c0-.225.076-.437.169-.469s1.018-.121,2.055-.2c2.019-.147,2.1-.129,2.1.5,0,.266.052.295.374.218a2.682,2.682,0,0,0,.41-.12,29.7,29.7,0,0,0-.462-4.525,2.4,2.4,0,0,0-2.894-2c-1.323.077-1.871.392-2.351,1.355-.382.766-.435,1.663-.259,4.328l.087,1.318h.385C190.645,96.271,190.692,96.222,190.692,95.861Zm-.135-2.938c0-1.246.737-1.722,2.527-1.632.913.046,1.05.09,1.341.427a1.32,1.32,0,0,1,.323.961v.585l-.98.079c-.539.044-1.482.118-2.1.165l-1.115.086Zm96.718,1.962a52.828,52.828,0,0,0,.285-5.369.563.563,0,0,0-.417-.14c-.274,0-.33.067-.33.391,0,.215-.076.417-.169.449a32.867,32.867,0,0,1-3.853-.233c-.093-.032-.169-.242-.169-.468,0-.363-.045-.41-.395-.41-.323,0-.408.067-.466.372-.1.517-.4,5.574-.341,5.632a9.981,9.981,0,0,0,1.245.144l1.192.1-.043-.445c-.036-.372-.114-.463-.474-.555-.7-.18-.989-.675-.989-1.7v-.876l.874.056a3.32,3.32,0,0,1,.968.15c.052.052.025.247-.06.433a.516.516,0,0,1-.563.339c-.36,0-.408.046-.408.391,0,.467.166.525,1.622.571l1.014.032.042-.429c.034-.344-.008-.429-.21-.429a.58.58,0,0,1-.576-.635c0-.339.062-.353.991-.226l.623.085-.08.827c-.1,1.079-.32,1.411-.985,1.517-.418.067-.546.155-.614.426-.119.476.007.552,1.011.608.483.027.95.06,1.038.075s.189-.248.235-.684Zm-91.58-9.837c.171-1.637.283-3,.248-3.039a7.5,7.5,0,0,0-1.237-.153l-1.174-.09v.415c0,.347.064.429.387.5.761.167.965.512.965,1.635v1.012l-.913-.09a5.559,5.559,0,0,1-.977-.147c-.167-.148.373-.789.7-.827a.456.456,0,0,0,.442-.388.891.891,0,0,0,.047-.379c-.048-.04-2.6-.324-2.632-.293a2.569,2.569,0,0,0-.112.376c-.077.308-.034.374.327.5s.416.216.416.575c0,.409-.02.425-.422.345a4.759,4.759,0,0,0-.762-.084c-.336,0-.339-.009-.267-.908.061-.766.129-.956.432-1.217a1.357,1.357,0,0,1,.742-.309c.3,0,.4-.076.473-.358a.612.612,0,0,0-.019-.461,4.485,4.485,0,0,0-1.157-.2c-.841-.077-1.049-.059-1.055.089,0,.1-.148,1.432-.319,2.956a19.93,19.93,0,0,0-.211,2.884c.2.229.739.031.785-.29a.508.508,0,0,1,.209-.376,25.773,25.773,0,0,1,3.868.416.692.692,0,0,1,.137.483c0,.347.049.4.385.4h.386Zm88.6,2.661c.465-.3.774-1.078.954-2.384.186-1.355.249-1.491.687-1.491s.605.36.605,1.218a1.132,1.132,0,0,1-.377,1.057,4.7,4.7,0,0,1-.6.5c-.161.1-.2.245-.145.522.073.359.113.381.567.306a8.036,8.036,0,0,1,1.063-.082c.546,0,.575-.021.575-.4a.636.636,0,0,0-.215-.519c-.181-.1-.192-.2-.068-.649a3.294,3.294,0,0,0-.066-2.081c-.392-1.32-1.424-1.906-2.459-1.4-.684.337-.935.849-1.164,2.374a10.2,10.2,0,0,1-.283,1.449c-.153.247-.724.15-.941-.161a2.173,2.173,0,0,1,.017-1.867,2.055,2.055,0,0,1,.682-.629c.356-.192.446-.318.415-.583-.048-.407-.337-.47-1.553-.34-.826.088-.852.1-.852.477,0,.26.084.412.256.467.241.077.244.118.058.719-.408,1.313.1,3.053,1.038,3.57a1.853,1.853,0,0,0,1.81-.071Zm.276-7.871c.976-.285,1.249-.256,1.35.145.073.29.139.327.454.251a4.007,4.007,0,0,0,.4-.107c.015-.01-.133-.613-.328-1.34-.339-1.263-.37-1.319-.7-1.28-.3.035-.348.106-.348.507,0,.465,0,.468-1.014.756-2,.57-1.982.641-.243-1.114l1.583-1.6-.393-1.4c-.216-.771-.417-1.426-.448-1.456s-.2,0-.371.062c-.243.09-.318.222-.324.568l-.007.451-1.622.44c-.892.242-1.762.477-1.932.521-.256.066-.335.008-.456-.34-.127-.366-.192-.408-.5-.331a2.2,2.2,0,0,0-.385.119c-.023.023.637,2.629.694,2.741a1.76,1.76,0,0,0,.395-.052c.351-.067.376-.111.3-.517-.081-.431-.065-.449.563-.651a13.894,13.894,0,0,1,2.414-.594,19.37,19.37,0,0,1-1.57,1.662,13.122,13.122,0,0,0-1.618,1.787,7.188,7.188,0,0,0,.221.968l.221.795,1.5-.4c.827-.22,1.8-.487,2.169-.594Zm-88.287.65c.848-2.908.91-3.186.736-3.3-.273-.173-.652-.139-.652.059a.944.944,0,0,1-.184.428c-.169.231-.239.237-.845.074a3.785,3.785,0,0,1-.754-.259,2.728,2.728,0,0,1,.169-1.025c.331-1.192.33-1.648-.009-2.2a1.583,1.583,0,0,0-2.781.259,48.106,48.106,0,0,0-1.375,4.649,3.093,3.093,0,0,0,.4.115c.264.063.372.037.372-.09a.915.915,0,0,1,.177-.422c.2-.267-.112-.327,3.05.6l1,.291-.074.455c-.057.352-.022.468.153.515C196.106,80.749,196.216,80.723,196.285,80.488ZM192.7,77c-.621-.191-.63-.2-.512-.616.288-1,.8-1.307,1.452-.853.309.217.363.527.216,1.26-.1.478-.213.5-1.156.209Zm5.631-3.155c.376-.88.447-1.163.313-1.248-.3-.193-.626-.123-.714.156-.113.357-.359.342-.722-.045l-.3-.316.342-.774c.324-.734.365-.772.78-.732.4.038.437.083.437.5,0,.354.07.483.311.573.289.107.347.037.819-1,.676-1.483.877-1.99.814-2.053A1.638,1.638,0,0,0,200,68.76c-.289-.072-.376-.035-.448.192-.11.346-.42.353-3.181.079-1.078-.107-2.028-.2-2.111-.2s-.32.373-.526.833l-.376.837,1.925,1.833c1.778,1.693,1.917,1.861,1.83,2.2-.079.31-.042.391.224.493.175.067.36.083.412.035a10.525,10.525,0,0,0,.579-1.226Zm-2.773-2.652-.6-.613.81.091a6.312,6.312,0,0,1,.857.13,2.277,2.277,0,0,1-.383,1.005A4.172,4.172,0,0,1,195.553,71.189Zm84.266,1.882c.537-.269,1-.509,1.027-.534a.746.746,0,0,0-.034-.38c-.08-.318-.121-.331-.829-.258-.612.063-.8.031-1.028-.179a4.847,4.847,0,0,1-.9-1.6,10.579,10.579,0,0,1,1.413-.666c.235-.073.306-.02.382.284s.027.426-.269.663-.341.33-.208.577c.085.158.212.288.282.288.1,0,1.991-.867,2.284-1.046.031-.019-.014-.188-.1-.376-.127-.278-.22-.325-.5-.255-.339.085-.875-.23-.875-.513a1.87,1.87,0,0,1,.709-.449l.709-.329.309.7c.509,1.154.509,1.24-.009,1.816-.377.419-.446.579-.354.824.063.167.168.3.235.3a6.507,6.507,0,0,0,1.916-.954c0-.125-2.381-5.258-2.49-5.366a.816.816,0,0,0-.39.113c-.3.135-.328.2-.22.487a2.027,2.027,0,0,1,.125.435,11.93,11.93,0,0,1-1.84.966c-1.747.817-1.849.848-2.023.611a1.98,1.98,0,0,1-.228-.385c-.027-.082-.184-.061-.4.053l-.354.188,1.294,2.738c.712,1.506,1.317,2.738,1.344,2.738s.489-.22,1.026-.489ZM201.7,67.057a5.326,5.326,0,0,0,.835-1.558.393.393,0,0,0-.729-.075c-.107.162-.253.294-.323.294a8.976,8.976,0,0,1-1.437-.888c-.082-.062.585-1,.76-1.068a2.94,2.94,0,0,1,1.09.429c.858.468.94.488,1.348.319A1.893,1.893,0,0,0,204.3,63.1c.064-.392,0-.537-.406-.981-.456-.5-.493-.51-.717-.288s-.223.249.06.549.395.636.219.636a7.236,7.236,0,0,1-.869-.439c-.683-.379-.844-.419-1.173-.295l-.381.144v-.6c0-1.089-1.045-1.585-2.042-.969a11.243,11.243,0,0,0-1.819,2.308c-1.284,1.905-1.353,2.041-1.119,2.218.341.259.493.243.69-.073.093-.149.224-.27.291-.27a34.909,34.909,0,0,1,3.39,2.222,2.471,2.471,0,0,1-.164.422c-.141.31-.129.385.093.547a1.049,1.049,0,0,0,.346.188,10.3,10.3,0,0,0,1-1.365Zm-3.062-3.144a2.778,2.778,0,0,1-.642-.509,3.651,3.651,0,0,1,.528-.676c.518-.578.539-.587.9-.389.711.391.737.9.087,1.71l-.232.29Zm76.084,1.205c.223-.166.237-.236.093-.471a1.145,1.145,0,0,1-.169-.455A3.417,3.417,0,0,1,276,63.15c.233,0,.139.658-.13.909-.253.236-.254.254-.017.567l.244.324.456-.315c1.754-1.211,1.751-1.208,1.529-1.548-.184-.28-.25-.3-.6-.164-.325.123-.438.111-.612-.063-.194-.194-.162-.251.364-.638a3.068,3.068,0,0,1,.689-.425,3.675,3.675,0,0,1,.917,1.509,1.619,1.619,0,0,1-.406.7c-.457.521-.474.6-.208.947.18.237.239.216,1.144-.406a4.521,4.521,0,0,0,.955-.769c0-.142-3.092-4.608-3.219-4.648a.69.69,0,0,0-.36.172c-.225.17-.241.243-.1.467.254.407.2.581-.275.9-.241.161-.985.667-1.654,1.124l-1.216.832-.295-.343c-.288-.335-.3-.337-.6-.1l-.3.245.99,1.441a11.756,11.756,0,0,0,1.078,1.441,1.074,1.074,0,0,0,.351-.195Zm-67.8-4.957,1.261-1.366-.329-.248c-.32-.242-.337-.241-.608.014a.976.976,0,0,1-.406.261,14.526,14.526,0,0,1-1.612-1.4l-1.486-1.4.449-.232c.431-.223.471-.221,1.01.046.56.277.562.277.83.009s.267-.27-.466-1.013a3.619,3.619,0,0,0-.894-.744,20.8,20.8,0,0,0-2.127,2.129l-1.967,2.129.8.805.8.805.338-.318.338-.318-.334-.4a.948.948,0,0,1-.151-1.25c.229-.313.274-.284,1.992,1.314l1.272,1.184-.241.423c-.226.4-.227.439-.013.675a1.733,1.733,0,0,0,.256.252c.015,0,.6-.615,1.289-1.366Zm65.624.294.672-.687-.282-.282-.282-.282-.559.285c-.717.366-1.048.278-1.786-.474l-.587-.6.6-.608a3.272,3.272,0,0,1,.707-.608c.06,0,.178.15.261.332a.583.583,0,0,1-.084.692c-.225.344-.225.371.015.605s.282.216,1.264-.684l1.014-.929-.288-.293c-.274-.279-.3-.282-.631-.068-.289.189-.387.2-.625.049-.392-.245-.357-.388.236-.967l.518-.506.631.675c.7.746.768,1.067.4,1.835-.22.462-.219.492.038.748s.27.264,1.07-.544l.8-.811-.67-.71c-.368-.391-1.3-1.36-2.079-2.154-1.384-1.418-1.414-1.439-1.709-1.217s-.294.234-.054.539a.666.666,0,0,1,.176.5,14.679,14.679,0,0,1-1.465,1.476l-1.395,1.293-.335-.264c-.333-.262-.337-.262-.578,0-.294.325-.38.213,2.154,2.792,1.355,1.379,1.8,1.757,1.965,1.666a7.2,7.2,0,0,0,.884-.8Zm-61.034-4.732a.976.976,0,0,0-.18-.339c-.147-.2-.232-.218-.464-.093a1.566,1.566,0,0,1-.35.152,18.48,18.48,0,0,1-1.181-1.521,7.808,7.808,0,0,1-.924-1.374c.106.081,1,.739,1.98,1.463l1.788,1.316.476-.363a1.654,1.654,0,0,0,.476-.467c0-.057-.335-1.047-.744-2.2s-.744-2.138-.744-2.189c0-.084,1.825,2.322,2.087,2.752.077.126.021.259-.17.406-.279.214-.28.224-.033.549l.252.331,1.3-.976c1.294-.973,1.3-.977,1.082-1.306-.2-.312-.233-.319-.542-.116-.269.176-.363.183-.537.039a22.553,22.553,0,0,1-2.221-3.1.723.723,0,0,1,.266-.388c.262-.222.262-.229.006-.536l-.26-.311-1.284.965-1.284.965.585,1.679a10.95,10.95,0,0,1,.512,1.679,15.558,15.558,0,0,1-1.3-.92c-.676-.506-1.307-.968-1.4-1.026-.113-.068-.627.234-1.454.856-1.267.952-1.277.965-1.067,1.285s.224.317.6.1c.214-.123.413-.194.444-.158s.552.728,1.158,1.539c1.016,1.358,1.316,1.973.963,1.973-.26,0-.3.414-.066.674s.259.238,1.233-.495a6.31,6.31,0,0,0,1-.845Zm55.773-.75a4.045,4.045,0,0,0,1.554-2.124c.334-1.242-.361-2.252-2.74-3.983l-1.71-1.244-.219.335c-.208.318-.2.348.092.59.372.3.405.234-1.07,2.265L262.186,52.2l-.379-.2c-.342-.177-.4-.172-.6.046a.977.977,0,0,0-.219.318,26.077,26.077,0,0,0,3.9,2.685,2.639,2.639,0,0,0,2.4-.076Zm-3.15-1.286c-.242-.147-.439-.33-.439-.406a29.458,29.458,0,0,1,2.43-3.381,2.814,2.814,0,0,1,.586.458c.4.368.5.555.5.952a3.3,3.3,0,0,1-1.087,2.111c-.434.434-.631.535-1.042.535a2.156,2.156,0,0,1-.946-.268Zm-44.22-3.139c1.438-.685,2.631-1.253,2.651-1.264s-.9-2.116-.976-2.195a.9.9,0,0,0-.385.119c-.319.146-.341.209-.272.795a1.886,1.886,0,0,1-.081.929,3.853,3.853,0,0,1-1.619.968,2.012,2.012,0,0,1-.481-.767c-.273-.6-.313-.792-.179-.877a.583.583,0,0,1,.859.222c.188.286.262.313.51.184a3.306,3.306,0,0,0,.342-.2,6.532,6.532,0,0,0-.467-1.2c-.5-1.118-.7-1.3-1.1-1.048a.747.747,0,0,0-.135.552.632.632,0,0,1-.281.657c-.3.2-.313.187-.63-.52l-.326-.726.765-.371c.994-.482,1.275-.469,1.8.086.377.4.478.439.747.316.171-.078.311-.187.311-.243a19.309,19.309,0,0,0-.869-1.987c-.046-.046-5.216,2.388-5.39,2.538-.059.051-.035.252.053.446.129.283.209.327.4.223.5-.267.63-.119,1.457,1.628s.927,2.027.722,2.027a.94.94,0,0,0-.355.18c-.2.149-.219.23-.089.473.086.161.21.293.275.293s1.295-.56,2.733-1.245Zm34.177-1.721c.189-.354.176-.55-.037-.55a.892.892,0,0,1-.413-.172c-.223-.163-.219-.216.063-.952.366-.958.707-1.013.771-.125.027.378.108.58.237.594l.351.034a3.167,3.167,0,0,0,.6-1.178l.441-1.191-.341-.155c-.3-.138-.371-.115-.608.211-.29.4-.352.422-.635.243-.158-.1-.148-.229.06-.809a1.822,1.822,0,0,1,.345-.69,4.252,4.252,0,0,1,1.453.721,1.439,1.439,0,0,1,.133.9c-.044.639-.025.686.33.81.339.118.391.095.519-.235.551-1.424.674-1.816.6-1.895-.049-.049-1.257-.524-2.683-1.054l-2.593-.964-.154.35c-.14.317-.118.373.235.587l.39.237-.485,1.321c-.267.727-.578,1.585-.691,1.907-.2.57-.22.584-.673.5s-.524-.033-.639.586c-.009.05,3.022,1.215,3.2,1.228.053,0,.16-.11.237-.254Zm-28.878-.473a11.946,11.946,0,0,0,1.252-.386c.031-.031,0-.2-.06-.374-.09-.244-.222-.318-.574-.324l-.457-.007-.426-1.52-.426-1.52,1.436,1.337c.79.735,1.579,1.491,1.754,1.679s.388.32.473.293.5-.143.912-.259l.757-.21-.639-2.334a18.6,18.6,0,0,1-.575-2.444.931.931,0,0,1,.372-.227c.24-.091.293-.194.241-.465-.037-.191-.136-.348-.221-.348a23.06,23.06,0,0,0-2.6.715c-.031.031,0,.2.06.374.09.243.222.318.572.324.448.007.458.021.743,1.021.569,2,.641,1.983-1.136.217l-1.618-1.608-1.4.378c-.769.208-1.416.392-1.438.409a.976.976,0,0,0,.052.4c.079.316.145.357.468.292a.551.551,0,0,1,.5.088,22.778,22.778,0,0,1,.979,3.594.462.462,0,0,1-.352.427c-.24.091-.326.2-.27.346a1.227,1.227,0,0,1,.081.336c0,.186.225.156,1.535-.2Zm23.413-1.412a2.76,2.76,0,0,0,1.5-1.87c.678-2.332-.9-4.1-3.655-4.092a2.9,2.9,0,0,0-2.846,1.8,4.266,4.266,0,0,0-.074,2.446,3.606,3.606,0,0,0,1.993,1.741A5.269,5.269,0,0,0,248.626,46.943Zm-2.608-.78c-.61-.3-.8-.966-.607-2.13.287-1.731.886-2.389,1.922-2.11.728.2.949.559.949,1.561a3.473,3.473,0,0,1-.824,2.553,1.107,1.107,0,0,1-1.44.126ZM235,46.442l1.251-.094v-.386c0-.351-.043-.386-.471-.386-.555,0-.543.035-.742-2.085-.194-2.056-.19-2.106.14-2.106.485,0,.788.258.954.813.161.539.39.662.776.418.145-.092.164-.352.088-1.2l-.1-1.087-.7.069-2.995.293-2.3.224.027.338c.138,1.763.178,1.893.574,1.893.336,0,.388-.06.463-.531a1.261,1.261,0,0,1,.441-.811c.7-.552.727-.483.944,2.607l.092,1.3-.426.085c-.364.073-.426.144-.426.492,0,.4.008.406.575.328.316-.043,1.137-.121,1.825-.173Z" transform="translate(11.668 11.674)" fill="#707070"/>
  </g>
</svg>
