<svg xmlns="http://www.w3.org/2000/svg" width="256" height="256" viewBox="0 0 256 256">
  <g id="England_Rugby" data-name="England Rugby" transform="translate(1902 -473)">
    <rect id="Rectangle_11" data-name="Rectangle 11" width="256" height="256" rx="50" transform="translate(-1902 473)" fill="#fff8f9"/>
    <g id="atoms_Logos_Brand_England-Rugby-Logo" data-name="atoms/Logos/Brand/England-Rugby-Logo" transform="translate(-1871.216 551.618)">
      <g id="England-Rugby-Logo" transform="translate(0 0.061)">
        <path id="Fill-1" d="M49.452,31.049h2.3V17.089h-2.3V14H64.531v5.756H61.214V17.058H55.226v5.389h6.112v2.939H55.226v5.7h6.019V28.386h3.317v5.756H49.452Z" transform="translate(39.527 11.077)" fill-rule="evenodd"/>
        <g id="Group-73">
          <path id="Fill-2" d="M64.4,19.455c1.287-1.252,2.726-2.383,4.685-2.383a3.912,3.912,0,0,1,3.459,1.711,5.09,5.09,0,0,1,.7,2.749v6.415h1.991V30.7H68.076v-2.75h1.837V22.357a2.977,2.977,0,0,0-.275-1.376,1.713,1.713,0,0,0-1.653-.886,5.819,5.819,0,0,0-3.46,1.558v6.293h1.838V30.7H59.2v-2.75h1.991v-7.82H59.2V17.316H64.4Z" transform="translate(47.315 13.536)" fill-rule="evenodd"/>
          <path id="Fill-4" d="M81.959,30.727A6.226,6.226,0,0,1,80.7,34.759a6.226,6.226,0,0,1-5.022,2.047,7.824,7.824,0,0,1-5.266-1.68,2.359,2.359,0,0,1-.735-1.742,1.818,1.818,0,0,1,1.806-1.863,1.773,1.773,0,0,1,1.869,1.741,2.669,2.669,0,0,1-.061.519,6.135,6.135,0,0,0,1.991.337,3.184,3.184,0,0,0,2.724-1.162,3.882,3.882,0,0,0,.612-2.321V28.71a5.035,5.035,0,0,1-3.857,1.711c-3.4,0-6.125-2.6-6.125-6.568a6.483,6.483,0,0,1,6.276-6.782,5.68,5.68,0,0,1,3.828,1.436V17.316h5.205v2.811H81.959Zm-9.89-6.9c0,2.443,1.5,3.788,3.552,3.788a4.424,4.424,0,0,0,3-1.313V20.982a4.874,4.874,0,0,0-3-1.039c-2.052,0-3.552,1.344-3.552,3.88Z" transform="translate(54.863 13.536)" fill-rule="evenodd"/>
          <path id="Fill-6" d="M77.009,31.828h2.082v-16.8H77.009V12.216h5.42V31.828H84.42v2.75H77.009Z" transform="translate(61.553 9.655)" fill-rule="evenodd"/>
          <path id="Fill-8" d="M81.774,27.183c0-2.506,2.205-4.033,5.389-4.033a15.287,15.287,0,0,1,3.4.366V22.448a2.9,2.9,0,0,0-.521-1.832,3.119,3.119,0,0,0-2.632-.978,3.562,3.562,0,0,0-1.317.213,2.612,2.612,0,0,1,.122.672,1.738,1.738,0,0,1-1.806,1.742,1.71,1.71,0,0,1-1.777-1.8c0-1.65,1.685-3.391,5.328-3.391,2.3,0,3.858.641,4.808,1.8a5.2,5.2,0,0,1,1.04,3.361v5.713H95.8V30.7H90.623V29.23a7.106,7.106,0,0,1-4.5,1.71c-2.3,0-4.348-1.252-4.348-3.757m8.788.153V25.228a12.044,12.044,0,0,0-2.755-.306c-1.623,0-2.6.733-2.6,1.956,0,1.069.8,1.649,1.99,1.649a5.8,5.8,0,0,0,3.369-1.191" transform="translate(65.361 13.536)" fill-rule="evenodd"/>
          <path id="Fill-10" d="M95.539,19.455c1.286-1.252,2.725-2.383,4.685-2.383a3.915,3.915,0,0,1,3.46,1.711,5.089,5.089,0,0,1,.7,2.749v6.415h1.991V30.7H99.214v-2.75h1.837V22.357a2.975,2.975,0,0,0-.275-1.376,1.713,1.713,0,0,0-1.653-.886,5.814,5.814,0,0,0-3.459,1.558v6.293H97.5V30.7H90.334v-2.75h1.991v-7.82H90.334V17.316h5.2Z" transform="translate(72.203 13.536)" fill-rule="evenodd"/>
          <path id="Fill-12" d="M99.525,27.949c0-3.88,2.817-7,6.428-7a5.748,5.748,0,0,1,3.735,1.284v-7.21H107.67v-2.81h5.358V31.827h1.99v2.75h-5.33V33.111a5.521,5.521,0,0,1-3.949,1.711c-3.55,0-6.214-2.84-6.214-6.873m10.163,2.657V24.863a5.5,5.5,0,0,0-3.183-1.039c-1.868,0-3.552,1.436-3.552,4.094,0,2.567,1.592,4.032,3.552,4.032a4.771,4.771,0,0,0,3.183-1.344" transform="translate(79.55 9.655)" fill-rule="evenodd"/>
          <path id="Fill-14" d="M49.749,45.229h2.3V31.3h-2.3V28.215h7.807c4.624,0,7.93,1.985,7.93,6.079a5.822,5.822,0,0,1-3.8,5.468l3.092,5.467h2.3v3.086H62.425l-4.042-7.637c-.427.031-.826.061-1.225.061-.643,0-1.224,0-1.653-.03v4.52h2.511v3.086H49.749ZM61.9,34.416c0-2.108-1.745-3.116-4.532-3.116H55.505v6.445c.367.032.857.061,1.959.061,2.6,0,4.44-1.283,4.44-3.39Z" transform="translate(39.764 22.443)" fill-rule="evenodd"/>
          <path id="Fill-16" d="M62.149,43.8a5.145,5.145,0,0,1-.673-2.689V34.76h-1.99V31.95h5.328v8.339a2.958,2.958,0,0,0,.275,1.375,1.713,1.713,0,0,0,1.653.886A5.818,5.818,0,0,0,70.2,40.992V34.76H68.12V31.95h5.419v10.63h1.991V45.33H70.324V43.192c-1.286,1.252-2.725,2.382-4.684,2.382A3.871,3.871,0,0,1,62.149,43.8" transform="translate(47.546 25.428)" fill-rule="evenodd"/>
          <path id="Fill-18" d="M81.943,45.469a5.66,5.66,0,0,1-6.277,6.079A7.814,7.814,0,0,1,70.4,49.867a2.352,2.352,0,0,1-.736-1.741,1.819,1.819,0,0,1,1.807-1.863A1.773,1.773,0,0,1,73.338,48a2.67,2.67,0,0,1-.061.519,6.13,6.13,0,0,0,1.991.337A3.184,3.184,0,0,0,77.993,47.7a3.875,3.875,0,0,0,.612-2.321V43.454a5.038,5.038,0,0,1-3.857,1.71c-3.4,0-6.125-2.6-6.125-6.568a6.483,6.483,0,0,1,6.277-6.78,5.679,5.679,0,0,1,3.827,1.435V32.059h5.206v2.81h-1.99Zm-9.89-6.9c0,2.444,1.5,3.787,3.552,3.787a4.428,4.428,0,0,0,3-1.312V35.724a4.874,4.874,0,0,0-3-1.039c-2.052,0-3.552,1.344-3.552,3.88Z" transform="translate(54.85 25.32)" fill-rule="evenodd"/>
          <path id="Fill-20" d="M82.02,48.036l-.735,1.345H79.019V29.769H77V26.958h5.358V37.405A5.528,5.528,0,0,1,86.306,35.7c3.552,0,6.217,2.84,6.217,6.872,0,3.881-2.818,7-6.43,7a6.122,6.122,0,0,1-4.072-1.528M89.092,42.6c0-2.566-1.592-4.032-3.552-4.032a4.775,4.775,0,0,0-3.184,1.345v5.743a5.514,5.514,0,0,0,3.184,1.037c1.868,0,3.552-1.434,3.552-4.093" transform="translate(61.544 21.438)" fill-rule="evenodd"/>
          <path id="Fill-22" d="M89.444,51.409c-1.776,0-2.878-1.038-2.878-2.107a1.589,1.589,0,0,1,1.653-1.711A1.532,1.532,0,0,1,89.689,48.6,1.984,1.984,0,0,0,90.76,47.8a6.138,6.138,0,0,0,.613-1.039l1.011-2.107-4.777-9.9H85.953V31.95h6.921v2.657H90.914l3.092,7.057,3.124-7.057H95.047V31.95h6.889v2.81h-1.623L94.037,48.048A7.767,7.767,0,0,1,93,49.668a4.653,4.653,0,0,1-3.552,1.741" transform="translate(68.701 25.428)" fill-rule="evenodd"/>
          <g id="Group-26">
            <path id="Clip-25" d="M0,.061H77.908V98.7H0Z" transform="translate(0 -0.061)" fill="none" fill-rule="evenodd"/>
            <path id="Fill-24" d="M8,24.759a11.74,11.74,0,0,0-2.966,5.506c-.268,1.618-.307,6.07,2.972,7.622a9.044,9.044,0,0,0,4.707.763A10.975,10.975,0,0,0,8,42.108c-1.547,2.343-1.3,5.7-.422,6.93.059.085-.069-.1,0,0-.5-.4-1.979-.781-2.192-.231-.779,2.013,1.364,5.621,1.364,5.621-.535.174-.709.817-.525,1.46a19.426,19.426,0,0,0,1.16,2.556c-.738-.073-.917.838-.878,1.431A6.348,6.348,0,0,0,8.416,63.78c.317.366-.5.256-.729.982-.348,1.084,2.749,3.131,3.046,3.3a14.7,14.7,0,0,0,4.415,1.768c3.447.684,5.862-.23,7.623-.171.976.035.512.6.512.6-.273.109-4.945,3.108-5.615,3.305-.694.206-.847-.134-1.15-.329a7.693,7.693,0,0,1-1.191-1.081c-.512-.444-.957-.792-1.638-.5-1.134.491-.8,2.859-.966,3.436-.257.948-1.418,1.5-3.5,2.211a10.446,10.446,0,0,1-6.037.494C1.11,77.508-.03,77.747,0,78.884c.039,1.351,3.347,2.5,4.919,3.518a26.367,26.367,0,0,1,3.332,2.639,2.48,2.48,0,0,0,3.66-.1c2.9-3.284,3.841-4.18,5.1-5.1-.412.307,1.984-1.507,2.6-1.4.993.179.572,1.551.572,1.551a14.482,14.482,0,0,1-1.136,2.717,7.478,7.478,0,0,0-.272,4.925c.208.685.893-.045,1.11-.2.2-.144.154.96.178,1.222a7.774,7.774,0,0,0,2.381,4.82c.431.368.428.143.665-.146a2.262,2.262,0,0,0,.283-.718,21.2,21.2,0,0,0,1.983,2.724A8.8,8.8,0,0,1,26.6,97.8c.2.626.218,1.009.665.879.734-.223,2.475-3.507,2.475-3.507.455.464.966.9,1.334.531,2.212-2.206,2.762-6.965,2.762-7.442s.109-.736.428-.585.585.205.674-.156a9.561,9.561,0,0,0,.183-3.267l.651,1.667c.4.99,1.2,1.993,2.187,1.708a3.245,3.245,0,0,0,1.007-.587,8.088,8.088,0,0,0,1.617,1.923c.561.451,1.359.925,1.751.814.456-.13.62-.95.62-.95a12.015,12.015,0,0,0,5.366,4.291c1.191.552,5.224,1.619,4.924.242-.079-.384-1.74-1.614-2.6-3.478-.388-.856-.814-2.3-.555-2.739.217-.373.923-.084,1.358-.559.307-.344.377-1.121-.064-3.1-.194-.893-1.384-2.8-.968-2.673,1.013.3,1.662-.029,1.037-1.787a8.021,8.021,0,0,0-1.95-3.092c-.624-.664-1.9-1.167-1.216-1.264.671-.094,1.454.163,1.037-1.394-.242-.927-2.087-3.372-4.964-4.648a12.293,12.293,0,0,0-6-.97,18.465,18.465,0,0,1,3.464-.816,8.312,8.312,0,0,1,7.024,1.993c2.093,1.729,3.019,6.932,3.754,8.931.966,2.653,2.4,2.041,2.4,2.041.476-.16.809-1.1.809-1.1a15.515,15.515,0,0,0,5.2,3.508,7.6,7.6,0,0,0,3.264.757c.842-.261.208-1.618.208-1.618a5.421,5.421,0,0,1,3.335,1.156,7.133,7.133,0,0,1,2.692,4.745c.879,3.888,2.109-.687,2.32-2.685.492-4.7-.867-6.833-.867-6.833a2.5,2.5,0,0,0,1.121.421,1.043,1.043,0,0,0,.883-1.175c-.144-2.642-2.564-5.8-2.564-5.8a2.4,2.4,0,0,0,1.206.183c.991-.388.485-1.394.183-1.813A18.5,18.5,0,0,0,63.6,62.881a4.281,4.281,0,0,0,2.074-1.161c.878-.872,1.3-3.373,2.167-4.082,1.21-1,3.895-1.65,4.748-2.9a5.208,5.208,0,0,0,.42-4.514,3.853,3.853,0,0,1,.238-3.443c.522-1.052,3.735-3.427,4.454-6.319.3-1.193.621-4.067-1.786-5.69-2.465-1.661-6.894-.924-6.894-.924s4.018-1.1,4.657-4.706c.452-2.525-2.415-4.092-2.6-5.477-.213-1.527,2.241-3.558,1.191-6.1-.839-2.021-2.457-2.65-4.911-3.346s-3.337-.855-4.556-2.431c-1.236-1.569-1.4-4.2-2.441-5.432a4.841,4.841,0,0,0-4.224-2.119,5.957,5.957,0,0,0-4.547,2.18,8.2,8.2,0,0,0-1.92,3.28s.77-3.93-.189-6.477A4.705,4.705,0,0,0,44.732.061,12.029,12.029,0,0,0,39.262,1.8c-1.885.953-2.694,1.979-7.28.532-4.9-1.541-8.546-.891-9.966.708a5.217,5.217,0,0,0-1.1,4.546,8.709,8.709,0,0,0,1.177,2.752s-5.022-2.253-8.528-1.553-6.229,2.688-6.68,5.632a7.3,7.3,0,0,0,1.23,5.253c.794,1.16,1.358,2.78,1.006,3.482A7.661,7.661,0,0,1,8,24.759M31.112,62.845a11.43,11.43,0,0,1-4.18,4.9,7.845,7.845,0,0,1,.038-2.51,13.08,13.08,0,0,0-.268-4.646,7.581,7.581,0,0,0,4.409,2.26m-4.329,13.34a6.37,6.37,0,0,1-2.982-.68c3.061-2.046,5.085-3.146,5.957-3.654a4.955,4.955,0,0,1,3.209-.658A2.4,2.4,0,0,1,34.947,72.7c.2.9-.689,1.965-1.484,3.854a4.878,4.878,0,0,0-.108,2.641c-1.3-1.932-2.962-2.862-6.572-3.013" transform="translate(0 -0.061)" fill="#fff" fill-rule="evenodd"/>
          </g>
          <path id="Fill-27" d="M34.958,49.244a5.777,5.777,0,0,1-.749,4.047,6.474,6.474,0,0,0-.351,4.445.6.6,0,0,0,.311.393,5.766,5.766,0,0,0,.819.161c-.263,2.723,1.945,5.537,2.261,5.847s.624.241,1,.082.525-.236.525-.236a6.962,6.962,0,0,0,2.47,2.147c.523.216.576.134.894-.072s.628-.476.628-.476a12.877,12.877,0,0,0,7.673,4.668c.581.1.739-.316.373-.787a5.462,5.462,0,0,1-1.286-2.587c-.492-2.465,0-3.348.411-3.46.434-.106.481-.314.434-.942a13.262,13.262,0,0,0-1.163-4.4c-.261-.527,0-.58.422-.527.615.08.624.031.521-.577-.338-2.051-2.311-3.933-3-4.51s-.476-.635.213-.733c.659-.1.679-.213.437-.925A8.271,8.271,0,0,0,43.34,46.59c-3.037-1.347-8.005-.709-8.005-.709a25.058,25.058,0,0,1,5.808-2.288A8.744,8.744,0,0,1,48.29,44.91c2.163,1.6,3.213,6.632,3.928,8.612.957,2.615,2.48,2.671,2.48,2.671.476-.156.679-.85.679-.85a15.8,15.8,0,0,0,7.363,3.774c.517.089.849.113.849-.353,0-.424.059-.488.059-.488a9.18,9.18,0,0,1,3.923,1.193,6.157,6.157,0,0,1,3.16,3.357c.278.838.838.483.907-.073a19.459,19.459,0,0,0-.718-8.146s.718.09,1.141.09.49-.266.417-.683a18.41,18.41,0,0,0-2.307-5.882c.589.028.893.087,1-.083.143-.224-.238-.93-.4-1.126a17.143,17.143,0,0,0-14.212-6.691,34.816,34.816,0,0,0-7.921,1.117c-3.085.7-4.548.184-5.818-.563a6.022,6.022,0,0,1-2.216-3.268,7.923,7.923,0,0,1-7.866,2.9A31.055,31.055,0,0,1,26.5,46.385a7.336,7.336,0,0,1-.352-3.773,12.261,12.261,0,0,0-.427-4.263c-.606-2.307-2.922-4.55-4.246-5.448a19.452,19.452,0,0,0-8.021-2.476,14.623,14.623,0,0,1-4.076-.831,6.238,6.238,0,0,1-2.589-1.667c-.416-.423-1.052-.137-.977.349a14.253,14.253,0,0,0,1.647,4.2c-.417-.16-.734.311-.63.728a9.245,9.245,0,0,0,1.26,3.043c-.735-.154-.839.579-.839.842a5.806,5.806,0,0,0,1.9,4.092c.361.312.207.421-.055.521-.774.311-.641.792-.422,1.051a16.991,16.991,0,0,0,4.206,3.042c3.234,1.476,7.153,1.263,8.893,1.1a5.2,5.2,0,0,1,2.99.627c-.258.1-6.155,3.933-6.785,4.255a1.571,1.571,0,0,1-1.473-.054,9.7,9.7,0,0,1-2.207-1.835c-.421-.42-.788-.21-.788.257s-.1,2.522-.05,3.042a.789.789,0,0,1-.531.836c-6.263,3.133-9.672,1.949-10.612,1.839-.959-.1-1.688-.1-1.9.474s.342,1.072,2.529,1.954a33.868,33.868,0,0,1,5.828,3.29,1.518,1.518,0,0,0,2.208-.312,40.3,40.3,0,0,1,8.015-6.137.874.874,0,0,1,.569-.065,2.228,2.228,0,0,1,1.1,1.114c.338,1.1-.293,1.743-.957,3.095a6.687,6.687,0,0,0-.879,4.1.577.577,0,0,0,.964.326c.2-.153.341-.058.348.2a7.676,7.676,0,0,0,2.1,5.338c.421.368.476.368.739.1a3.753,3.753,0,0,0,.525-.784,11.639,11.639,0,0,0,1.782,2.992,7.291,7.291,0,0,1,1.577,3.307c.173.7.317.785.69.154s1.969-3.841,1.969-3.841c.734.522.867.639,1.229.274,2.188-2.175,2.346-6.546,2.346-7.02s0-.522.317-.362.551,0,.571-.365a9.526,9.526,0,0,0-.832-5.456c-1.6-3.375-4.213-3.775-7.678-3.936C21.421,54.117,21.5,53.4,21.5,53.4c3-1.888,9.3-5.5,9.879-5.771a1.6,1.6,0,0,1,1.737-.1,2.966,2.966,0,0,1,1.84,1.722" transform="translate(0.297 22.048)" fill="#007934" fill-rule="evenodd"/>
          <path id="Fill-29" d="M27.949,35.986a20.737,20.737,0,0,1,11.805,5.969,39.339,39.339,0,0,1,7,9.416A110.383,110.383,0,0,0,38,41.6a23.666,23.666,0,0,0-10.046-5.618" transform="translate(22.339 28.654)" fill="#fff" fill-rule="evenodd"/>
          <path id="Fill-31" d="M12.3,42.654s3.755.625,5.4,7.689a21.876,21.876,0,0,1,.287,9.34,41.708,41.708,0,0,0-.487-7.268c-1.805-7.478-5.2-9.761-5.2-9.761" transform="translate(9.833 33.983)" fill="#fff" fill-rule="evenodd"/>
          <path id="Fill-33" d="M4.289,28.775a26.422,26.422,0,0,0,6.739,7.584c4.128,3,1.053.948,6.677,4.827a37.3,37.3,0,0,1,4.5,3.409L18.8,42.539s-3.572-2.086-7.186-4.724a25.552,25.552,0,0,1-7.321-9.041" transform="translate(3.428 22.89)" fill="#fff" fill-rule="evenodd"/>
          <path id="Fill-35" d="M19.872,38.518s3.338,1.81,5.148,9.144a26.006,26.006,0,0,0,6.148,10.766,15.778,15.778,0,0,1-4.075-3.968c-2.3-2.957-3.283-8.784-3.963-10.73a14.745,14.745,0,0,0-3.258-5.212" transform="translate(15.884 30.677)" fill="#fff" fill-rule="evenodd"/>
          <path id="Fill-37" d="M36.121,1.237c2.467.984,3.637,3.091,3.576,5.876a9.923,9.923,0,0,1-2.048,5.925c-.526.524-1.161.473-2.053.159a9.979,9.979,0,0,0-3.681-.837,5.919,5.919,0,0,0-4.1,1.622,11.812,11.812,0,0,0-3.992.523,13.4,13.4,0,0,0-2.629,1.263,9.453,9.453,0,0,1-3.262-.841c-1.8-.878-5.73-3.568-5.73-7.5a5.225,5.225,0,0,1,5.51-5.27,20.026,20.026,0,0,1,4.523.8,10.38,10.38,0,0,0,3.323.374,7.5,7.5,0,0,0,3.572-1.148A8.751,8.751,0,0,1,32.754.811a7.623,7.623,0,0,1,3.366.425" transform="translate(9.751 0.512)" fill="#800326" fill-rule="evenodd"/>
          <path id="Fill-39" d="M33.166,3.306c2.846,0,4.333,1.339,5.317,4.148.417,1.2.777,3.377,3.519,3.985,3.394.742,5.283,1.812,6.366,3.463a6.172,6.172,0,0,1,.465,4.661c-.363,1.262-.631,2.048.421,3.2a4.465,4.465,0,0,1,.739,4.772C49.209,29.69,47.09,31.57,43,31.79c-1.945.1-4.736-.286-4.572-1.26.055-.311.236-.569.977-1.4a4.642,4.642,0,0,0,.972-2.322,4.927,4.927,0,0,0-1.554-3.87,2.047,2.047,0,0,1-.392-2.368,8.846,8.846,0,0,0,.468-3.2,4.817,4.817,0,0,0-2.991-4.444,7.026,7.026,0,0,0-6.844,1.4A4.742,4.742,0,0,1,27.278,10.6c0-2.468,2.575-7.293,5.887-7.293" transform="translate(21.803 2.533)" fill="#800326" fill-rule="evenodd"/>
          <path id="Fill-41" d="M49.681,22.309c1.062,1.63,1.15,5.192-.576,8.028A7.228,7.228,0,0,1,42.612,34.1c-.415,5.927-5.542,7.094-8.339,7.094-7.357,0-7.541-5.783-7.541-6.411s-.372-.737-.628-.53a8.564,8.564,0,0,0-2.733,6.092,8.433,8.433,0,0,0,.739,4.3C25.251,46.6,27,47.737,30.835,46.8a26.752,26.752,0,0,1,10.439-.8c3.215.477,4.725-.505,5.287-2.188a6.426,6.426,0,0,1,3.279-3.612c4.572-2.41,3.764-5.987,3.451-7.563-.317-1.538.655-2.294,1.31-3.039,2.568-2.961,3.106-6.773,1.414-8.918s-4.822-1.637-6.512-1.364a9.571,9.571,0,0,0-2.475.837,4.85,4.85,0,0,1,2.654,2.163" transform="translate(18.668 15.118)" fill="#a71930" fill-rule="evenodd"/>
          <path id="Fill-43" d="M38.081,33.281c-.08,2.018-.922,7.9-4.206,9.8a9.414,9.414,0,0,1-7.415.117,12.516,12.516,0,0,1-5.209-4.042A12.448,12.448,0,0,0,12.84,34.7c-4.638-.707-8.719-2.659-8-7.712.609-4.373,4.874-5.4,7.236-5.329a1.823,1.823,0,0,1,1.185.6,12.606,12.606,0,0,0,3.427,3.709,13.079,13.079,0,0,0,6.935,1.76s1.116,4.829,4.94,6.45a10.652,10.652,0,0,0,9.522-.894" transform="translate(3.8 17.196)" fill="#a71930" fill-rule="evenodd"/>
          <path id="Fill-45" d="M13.047,5.142c3.039,0,7.47,1.785,8.2,6.186,0,0-3.027-1.345-4.682.735-1.468,1.843-.481,4.149-.109,5.356a5.966,5.966,0,0,1,.367,3.355c-.342,1.167-.917,1.9-2.947,3.148a5.191,5.191,0,0,0-2.306,4.147,6.771,6.771,0,0,0,2.257,5.867,8.068,8.068,0,0,1-5.416-.1,7.4,7.4,0,0,1-4.836-7.185A7.918,7.918,0,0,1,6.1,20.878,4.613,4.613,0,0,0,7.418,18a5.378,5.378,0,0,0-.893-2.522,7.009,7.009,0,0,1-.557-4.914,7.316,7.316,0,0,1,7.079-5.418" transform="translate(2.86 4.001)" fill="#a71930" fill-rule="evenodd"/>
          <path id="Fill-47" d="M13.931,11.623a4.248,4.248,0,0,0,.268,3.515A3.409,3.409,0,0,1,13.038,19.6c-2.053,1.677-4.078,2.947-3.918,6.256s2.51,7.752,5.7,9.472a9.7,9.7,0,0,0,6.05,1.261s1.608,4.613,5.337,6.2a9.709,9.709,0,0,0,10.228-1.477,8.6,8.6,0,0,0,2.495-6.543A24.291,24.291,0,0,1,30.1,33.611c-4.415-1.52-8.884-4.822-10.3-8.81s-1.92-10.08,2.44-14.648a9.841,9.841,0,0,0-3.624-1.157,4.553,4.553,0,0,0-4.683,2.628" transform="translate(7.282 7.068)" fill="#a71930" fill-rule="evenodd"/>
          <path id="Fill-49" d="M37.617,13.046c-1.184-2.3-3.705-5.464-7.994-5.246a6.028,6.028,0,0,0-3.68,1.678,14.54,14.54,0,0,0-3.527.369,8.525,8.525,0,0,0-5.283,4.1,12.237,12.237,0,0,0,3.13,16.359c.527.364.661-.094.551-.985a14.018,14.018,0,0,1,1-8.028,15,15,0,0,1,9.091-7.708,17.321,17.321,0,0,1,6.71-.539" transform="translate(12.204 6.117)" fill="#800326" fill-rule="evenodd"/>
          <path id="Fill-51" d="M27.161,11.818c-3.313,1.524-7.906,5.819-8.2,11.281-.258,4.82,1.895,7.759,8.362,8.022s12.887-4.249,13.144-4.406.214-.527-.527-.367a48.172,48.172,0,0,1-7.89.633c-2.678-.11-5.664-.947-6.988-3-1.45-2.241-1.945-6.031,2.1-12.168" transform="translate(15.136 9.337)" fill="#a71930" fill-rule="evenodd"/>
          <path id="Fill-53" d="M33.984,13.482c1.825,2.088,1.571,4.91-.213,8.059s-4.3,3.881-5.921,3.776a7.356,7.356,0,0,1-3.025-.661A7.622,7.622,0,0,0,29.6,22.311a4.121,4.121,0,0,0,.353-4.759,5.423,5.423,0,0,0-1.757-1.712,6.832,6.832,0,0,0-4.948-.627A7.384,7.384,0,0,1,29.291,11.7a5.865,5.865,0,0,1,4.693,1.78" transform="translate(18.581 9.244)" fill="#a71930" fill-rule="evenodd"/>
          <path id="Fill-55" d="M24.012,13.945a5.281,5.281,0,0,0-1.636,3.416,3.619,3.619,0,0,0,1.631,3.563,4.359,4.359,0,0,0,4.444-.512A3.2,3.2,0,0,0,29.5,17.775a1.251,1.251,0,0,0-1.558-1.167,4.193,4.193,0,0,1-1.811.026c-.51-.116-1.74-.519-2.122-2.689" transform="translate(17.874 11.036)" fill="#a71930" fill-rule="evenodd"/>
          <path id="Fill-57" d="M35.478,9.506c1.839.964,2.158,2.832,1.588,4.927s-.9,2.94.471,4.724a4.8,4.8,0,0,1,0,5.351,7.732,7.732,0,0,1-5.732,3.2c-3.312.317-3.948-.16-3.948-.16A13.376,13.376,0,0,0,31.874,23.2a8.2,8.2,0,0,0,1.137-6.079c-.76-2.984-3.9-3.835-5.208-3.835a5.632,5.632,0,0,1,2.53-3.51,6.167,6.167,0,0,1,5.145-.265" transform="translate(22.222 7.137)" fill="#800326" fill-rule="evenodd"/>
          <path id="Fill-59" d="M26.445,25.118A5.827,5.827,0,0,1,26.386,30c-.86,1.945-1.158,5.354,1.269,7.654s6.343,1.765,7.964.955c1.892-.945,2.627-2.776,3.023-4.835.193-1.012.725-1.385,1.942-1.417a6.223,6.223,0,0,0,5.285-2.98c1.265-2.042,1.791-5.031.5-7.089-1.444-2.307-5.318-2.9-6.945-2.73a3.844,3.844,0,0,0-2.365.948,18.454,18.454,0,0,1-10.616,4.614" transform="translate(20.59 15.499)" fill="#a71930" fill-rule="evenodd"/>
          <path id="Fill-61" d="M27.134,36.033c.4-.057.833-.138,1.3-.241a34.817,34.817,0,0,1,7.922-1.117,17.142,17.142,0,0,1,14.211,6.691c.159.2.54.9.4,1.125-.108.17-.411.11-1,.083a18.378,18.378,0,0,1,2.307,5.882c.073.417,0,.684-.417.684s-1.141-.092-1.141-.092a19.461,19.461,0,0,1,.718,8.146.6.6,0,0,1-.41.564,43.1,43.1,0,0,0-2.431-5.341,39.855,39.855,0,0,0-7-9.415,20.74,20.74,0,0,0-11.807-5.97c-.759-.166-4.128-.913-4.128-.913a9.939,9.939,0,0,0,1.479-.087" transform="translate(20.505 27.606)" fill="#284e36" fill-rule="evenodd"/>
          <path id="Fill-63" d="M18.159,60.213a23.723,23.723,0,0,0-.426-9.871c-1.846-6.732-5.263-7.159-5.263-7.159s-.525-.256-.337-1.192c0,0-.08.721,3.968.907,3.467.16,6.081.56,7.678,3.936a9.513,9.513,0,0,1,.832,5.455c-.019.365-.256.523-.57.365s-.317-.107-.317.363-.16,4.843-2.347,7.018c-.362.365-.5.249-1.229-.274,0,0-1.6,3.21-1.969,3.841-.253.438-.4.531-.527.323,0,0,.185-2.149.507-3.713" transform="translate(9.665 33.454)" fill="#284e36" fill-rule="evenodd"/>
          <path id="Fill-65" d="M3.506,27.806a.644.644,0,0,1,.773.118,6.124,6.124,0,0,0,2.59,1.666,14.592,14.592,0,0,0,4.076.832A19.448,19.448,0,0,1,18.966,32.9c1.324.9,3.64,3.141,4.245,5.448a12.256,12.256,0,0,1,.427,4.263,7.336,7.336,0,0,0,.352,3.773l-1.157-.949a39.973,39.973,0,0,0-4.5-3.407c-5.015-3.483-3.293-2.292-6.676-4.828a25.063,25.063,0,0,1-6.74-7.583,7.054,7.054,0,0,0-1.408-1.809" transform="translate(2.803 22.051)" fill="#284e36" fill-rule="evenodd"/>
          <path id="Fill-67" d="M19.941,37.881s4.968-.638,8.005.71A8.271,8.271,0,0,1,32.41,42.8c.242.712.222.827-.437.925-.689.1-.9.157-.213.733s2.658,2.459,3,4.51c.1.607.094.656-.522.577-.422-.053-.683,0-.422.527a13.24,13.24,0,0,1,1.163,4.4c.047.628,0,.837-.434.943-.411.112-.9.994-.411,3.459a5.462,5.462,0,0,0,1.286,2.587c.232.309.251.586.084.719a13.461,13.461,0,0,1-4.138-3.124s-4.695-4.8-6.147-10.766c-1.782-7.335-5.148-9.144-5.148-9.144-.408-.4-.67-1.008-.125-1.266" transform="translate(15.691 30.048)" fill="#284e36" fill-rule="evenodd"/>
          <path id="Fill-69" d="M30.978,50.084a3.051,3.051,0,1,1,3.053,3.032,3.028,3.028,0,0,1-3.053-3.032m.5,0a2.556,2.556,0,1,0,2.557-2.549,2.541,2.541,0,0,0-2.557,2.549" transform="translate(24.76 37.492)" fill-rule="evenodd"/>
          <path id="Fill-71" d="M31.977,50.451h.36V48.273h-.36v-.483H33.2c.724,0,1.241.31,1.241.951a.911.911,0,0,1-.593.855l.483.855h.36v.483H33.96l-.632-1.2c-.068.005-.13.01-.193.01-.1,0-.191,0-.258,0v.707h.393v.483H31.977Zm1.9-1.692c0-.329-.273-.486-.709-.486h-.292v1.008c.057,0,.133.01.306.01.407,0,.694-.2.694-.532Z" transform="translate(25.559 38.088)" fill-rule="evenodd"/>
        </g>
      </g>
    </g>
  </g>
</svg>
