<svg xmlns="http://www.w3.org/2000/svg" width="256" height="256" viewBox="0 0 256 256">
  <g id="Ericsson" transform="translate(1922 -473)">
    <rect id="Rectangle_12" data-name="Rectangle 12" width="256" height="256" rx="50" transform="translate(-1922 473)" fill="#f5f9ff"/>
    <path id="Union_8" data-name="Union 8" d="M-1148.986,237.942a3.845,3.845,0,0,1,2.3-4.927l23.054-8.4a3.842,3.842,0,0,1,4.925,2.3,3.844,3.844,0,0,1-2.3,4.927l-23.054,8.4a3.831,3.831,0,0,1-1.313.233A3.844,3.844,0,0,1-1148.986,237.942Zm-53.493-1.357A10.871,10.871,0,0,1-1206.2,234a11.042,11.042,0,0,1-2.293-3.806,13.607,13.607,0,0,1-.782-4.641,13.605,13.605,0,0,1,.782-4.64,11.042,11.042,0,0,1,2.293-3.806,10.871,10.871,0,0,1,3.717-2.589,12.5,12.5,0,0,1,5.02-.956,12.374,12.374,0,0,1,5,.956,10.92,10.92,0,0,1,3.7,2.589,11.269,11.269,0,0,1,2.31,3.806,13.325,13.325,0,0,1,.8,4.64,13.326,13.326,0,0,1-.8,4.641,11.269,11.269,0,0,1-2.31,3.806,10.919,10.919,0,0,1-3.7,2.589,12.388,12.388,0,0,1-5,.956A12.515,12.515,0,0,1-1202.479,236.585Zm2.362-17.951a5.5,5.5,0,0,0-1.91,1.546,6.637,6.637,0,0,0-1.164,2.363,11.2,11.2,0,0,0-.382,3.006,11.209,11.209,0,0,0,.382,3.007,6.637,6.637,0,0,0,1.164,2.363,5.5,5.5,0,0,0,1.91,1.546,5.943,5.943,0,0,0,2.658.557,5.969,5.969,0,0,0,2.64-.557,5.453,5.453,0,0,0,1.928-1.546,6.636,6.636,0,0,0,1.163-2.363,11.17,11.17,0,0,0,.382-3.007,11.164,11.164,0,0,0-.382-3.006,6.636,6.636,0,0,0-1.163-2.363,5.453,5.453,0,0,0-1.928-1.546,5.969,5.969,0,0,0-2.64-.557A5.942,5.942,0,0,0-1200.117,218.634Zm-23.986,18.49a15.584,15.584,0,0,1-3.544-1.217l1.147-4.344a16.816,16.816,0,0,0,2.744,1.025,12.016,12.016,0,0,0,3.3.435,4.774,4.774,0,0,0,2.4-.539,1.868,1.868,0,0,0,.938-1.755,2.076,2.076,0,0,0-.817-1.581,10.21,10.21,0,0,0-2.97-1.513,13.26,13.26,0,0,1-4.968-2.937,5.893,5.893,0,0,1-1.563-4.222,6.211,6.211,0,0,1,2.206-5.144,9.482,9.482,0,0,1,6.1-1.772,16.134,16.134,0,0,1,3.786.435,12.091,12.091,0,0,1,3.056,1.129l-.972,4.275a13.826,13.826,0,0,0-2.658-.955,12.051,12.051,0,0,0-2.97-.365,4.242,4.242,0,0,0-2.066.435,1.55,1.55,0,0,0-.782,1.477,2.241,2.241,0,0,0,.139.834,1.731,1.731,0,0,0,.5.66,4.645,4.645,0,0,0,1.024.626q.661.313,1.668.73,1.459.59,2.744,1.251a9.925,9.925,0,0,1,2.223,1.53,6.614,6.614,0,0,1,1.477,1.981,5.932,5.932,0,0,1,.538,2.607,6.849,6.849,0,0,1-.609,2.867,6.721,6.721,0,0,1-1.753,2.328,8.523,8.523,0,0,1-2.779,1.564,11.181,11.181,0,0,1-3.717.574A17.877,17.877,0,0,1-1224.1,237.124Zm-18.411,0a15.582,15.582,0,0,1-3.544-1.217l1.147-4.344a16.824,16.824,0,0,0,2.744,1.025,12.016,12.016,0,0,0,3.3.435,4.774,4.774,0,0,0,2.4-.539,1.867,1.867,0,0,0,.938-1.755,2.076,2.076,0,0,0-.816-1.581,10.216,10.216,0,0,0-2.97-1.513,13.258,13.258,0,0,1-4.968-2.937,5.891,5.891,0,0,1-1.562-4.222,6.211,6.211,0,0,1,2.205-5.144,9.483,9.483,0,0,1,6.1-1.772,16.141,16.141,0,0,1,3.787.435,12.111,12.111,0,0,1,3.057,1.129l-.973,4.275a13.824,13.824,0,0,0-2.658-.955,12.047,12.047,0,0,0-2.97-.365,4.246,4.246,0,0,0-2.067.435,1.551,1.551,0,0,0-.781,1.477,2.246,2.246,0,0,0,.139.834,1.734,1.734,0,0,0,.5.66,4.642,4.642,0,0,0,1.024.626q.661.313,1.668.73,1.459.59,2.744,1.251a9.921,9.921,0,0,1,2.223,1.53,6.579,6.579,0,0,1,1.476,1.981,5.918,5.918,0,0,1,.539,2.607,6.86,6.86,0,0,1-.608,2.867,6.741,6.741,0,0,1-1.754,2.328,8.524,8.524,0,0,1-2.78,1.564,11.18,11.18,0,0,1-3.717.574A17.877,17.877,0,0,1-1242.514,237.124Zm-18.307-.487a10.829,10.829,0,0,1-3.89-2.5,10.5,10.5,0,0,1-2.363-3.788,13.911,13.911,0,0,1-.8-4.8,13.91,13.91,0,0,1,.8-4.8,10.5,10.5,0,0,1,2.363-3.788,10.829,10.829,0,0,1,3.89-2.5,14.81,14.81,0,0,1,5.385-.9,19.356,19.356,0,0,1,3.629.347,12.042,12.042,0,0,1,3.144,1.008l-.833,4.205a15.374,15.374,0,0,0-2.38-.713,12.268,12.268,0,0,0-2.657-.295,8.059,8.059,0,0,0-5.593,1.842q-2.049,1.842-2.049,5.6t2.049,5.6a8.059,8.059,0,0,0,5.593,1.842,12.268,12.268,0,0,0,2.657-.295,15.373,15.373,0,0,0,2.38-.713l.833,4.205a12.074,12.074,0,0,1-3.144,1.008,19.357,19.357,0,0,1-3.629.347A14.81,14.81,0,0,1-1260.822,236.637Zm93.654.487-9.553-13.8v13.8h-5.489V213.976h5.489l9.553,13.8v-13.8h5.489v23.148Zm-110.015,0V213.976h5.7v23.148Zm-9.275,0-6.358-8.029h-1.042v8.029h-5.7V213.976h7.365a16.748,16.748,0,0,1,3.995.452,10.018,10.018,0,0,1,3.2,1.356,6.522,6.522,0,0,1,2.118,2.277,6.57,6.57,0,0,1,.765,3.25,6.593,6.593,0,0,1-1.3,4.066,8.034,8.034,0,0,1-3.63,2.641l7.607,9.106Zm-7.4-12.269h1.39a6.138,6.138,0,0,0,3.577-.9,2.924,2.924,0,0,0,1.286-2.537,2.521,2.521,0,0,0-1.216-2.311,6.505,6.505,0,0,0-3.4-.748h-1.633ZM-1318,237.124V213.976h14.416v4.518h-8.719v4.658h8.3v4.518h-8.3v4.935h8.823v4.519Zm169.014-11.307a3.844,3.844,0,0,1,2.3-4.927l23.054-8.4a3.842,3.842,0,0,1,4.925,2.3,3.845,3.845,0,0,1-2.3,4.927l-23.054,8.4a3.831,3.831,0,0,1-1.313.233A3.844,3.844,0,0,1-1148.986,225.817Zm0-12.127a3.845,3.845,0,0,1,2.3-4.927l23.054-8.395a3.842,3.842,0,0,1,4.925,2.3,3.845,3.845,0,0,1-2.3,4.928l-23.054,8.395a3.831,3.831,0,0,1-1.313.233A3.844,3.844,0,0,1-1148.986,213.691Z" transform="translate(-575.761 380.695)" fill="#193066" stroke="rgba(0,0,0,0)" stroke-miterlimit="10" stroke-width="1"/>
  </g>
</svg>
