<svg xmlns="http://www.w3.org/2000/svg" width="256" height="256" viewBox="0 0 256 256">
  <g id="Esp" transform="translate(2031 -1551)">
    <rect id="Rectangle_28" data-name="Rectangle 28" width="256" height="256" rx="50" transform="translate(-2031 1551)" fill="#fffaf6"/>
    <g id="ESP_adobe_express" transform="translate(-1997.98 1633.432)">
      <path id="Path_1197" data-name="Path 1197" d="M1,45.172C11.655,45,22.31,45,33.081,45V55.859a24.561,24.561,0,0,1-3.7-.06c-.486-.076-1.038-.741-1.269-1.266-1.1-2.487-2.171-5.034-5.367-5.229-2.631-.16-5.28-.033-8.045-.033v14.92c6.386.4,6.646,1.009,8.669-4.361h3.909V73.175H23.313c-1.631-4.459-2.893-5.1-8.636-4.322v16.8a76.988,76.988,0,0,0,8.217-.066c2.5-.269,3.925-2.286,4.813-4.453,1.547-3.774,1.467-3.807,5.946-3.408L33.1,90H1.182a8.506,8.506,0,0,1-.027-2.931C3.554,86.6,4.1,86.046,4.1,83.875q.015-16.328,0-32.656c0-2.216-.8-3-3.1-3.116Z" transform="translate(0 -26.932)" fill="#e47411"/>
      <path id="Path_1200" data-name="Path 1200" d="M297.647,1c.129,26.257.129,52.515.129,78.954-.172.182-.345.182-.647.182C297,53.878,297,27.621,297,1.182,297.172,1,297.345,1,297.647,1Z" transform="translate(-181.176)" fill="#1d1d1b"/>
      <path id="Path_1201" data-name="Path 1201" d="M195.49,71.291H189.3c0,4.508-.122,8.852.059,13.183.073,1.76.527,1.882,3.379,2.985v2.355H175.1c-.284-1.558-.359-2.673,1.61-3.238.8-.228,1.663-1.889,1.675-2.907q.18-16.277,0-32.556c-.012-1.01-.913-2.667-1.708-2.881-1.914-.514-1.8-1.638-1.612-3.321h1.79c5.879,0,11.763-.159,17.633.062,3.316.125,6.659.364,9.835,1.8,3.711,1.676,5.911,4.456,6.252,8.338.536,6.111-.548,10.354-6.157,14.01a15.789,15.789,0,0,1-8.93,2.17m4.289-8.927a75.722,75.722,0,0,0-.061-8.307,5.107,5.107,0,0,0-4.054-4.354,46.149,46.149,0,0,0-6.613-.675V66.864C195.445,67.591,197.564,66.743,199.779,62.365Z" transform="translate(-106.474 -26.844)" fill="#e47411"/>
      <path id="Path_1202" data-name="Path 1202" d="M112.188,48.807c-1.921-.144-3.835-.594-5.51-.147a5.394,5.394,0,0,0-2.369,9.209c2.194,2.034,5.017,3.384,7.519,5.1,2.037,1.393,4.119,2.748,6,4.333,5.125,4.313,5.146,14.712-.731,19.187a14.661,14.661,0,0,1-9,3.134c-4.964-.059-9.925-.673-14.877-1.142a1.7,1.7,0,0,1-1.174-1.153c-.1-3.147-.054-6.3-.054-9.542h4.855c.309.893.638,1.829.957,2.769a7.489,7.489,0,0,0,12.406,2.773c2.607-2.706,1.674-7.935-1.874-10.255-3.12-2.041-6.429-3.793-9.556-5.823-6.072-3.943-7.9-11.313-4.04-17.492,1.813-2.9,4.8-4.233,8.029-5.042,5.454-1.365,10.885-.816,16.312.164.614.111,1.224.249,1.916.391v9.78h-4.809C115.68,52.535,114.794,50.207,112.188,48.807Z" transform="translate(-55.69 -26.253)" fill="#e47411"/>
      <g id="ESP-2" data-name="ESP" transform="translate(128.198 18.438)">
        <path id="Path_1173" data-name="Path 1173" d="M329.888-158.3c.543.582.659,1.552.659,5.121s-.116,4.539-.659,5.121c-.582.659-.466.7,3.259.7,4.19,0,4.383-.078,4.383-2.172,0-1.241-.621-1.164-1.241.116-.427.931-.776,1.086-2.366,1.2l-1.823.116v-5.082h1.164a1.637,1.637,0,0,1,1.552.776c.621,1.164,1.164.582,1.164-1.2,0-1.086-.155-1.513-.582-1.513a.6.6,0,0,0-.582.582c0,.388-.427.582-1.358.582H332.1v-4.267h1.746c1.4,0,1.823.194,2.366.97.776,1.164,1.319.931,1.319-.621V-159h-4.151C329.422-159,329.306-158.961,329.888-158.3Z" transform="translate(-329.345 159.003)"/>
        <path id="Path_1174" data-name="Path 1174" d="M414.263-158.423a.929.929,0,0,0,.853,1.358c.31,0,.543-.388.543-.97C415.66-159.082,414.612-159.393,414.263-158.423Z" transform="translate(-381.096 159.008)"/>
        <path id="Path_1175" data-name="Path 1175" d="M442.149-158.147c.194,1.319,1.474,1.435,1.474.155,0-.776-.194-1.009-.815-1.009C442.227-159,442.033-158.806,442.149-158.147Z" transform="translate(-398.198 159.003)"/>
        <path id="Path_1176" data-name="Path 1176" d="M352.783-149.573c.543.31.659.931.659,3.569,0,1.978-.194,3.414-.465,3.685-.349.349-.078.465,1.241.465s1.59-.116,1.241-.465a6.475,6.475,0,0,1-.466-3.026c0-2.017.155-2.754.7-3.22.97-.853,1.9-.815,2.405.078.659,1.241.465,5.121-.272,5.935-.582.659-.543.7,1.241.7,1.474,0,1.784-.116,1.435-.465a6.475,6.475,0,0,1-.466-3.026c0-2.134.155-2.715.815-3.336.582-.543.931-.621,1.435-.31.815.543,1.164,5.7.427,6.595-.388.465-.116.543,1.435.543,1.474-.039,1.746-.116,1.241-.427-.582-.31-.7-.931-.7-3.3a13.84,13.84,0,0,0-.388-3.685c-.5-.892-2.366-.97-3.646-.155-.815.543-.931.543-1.4,0-.621-.737-2.289-.737-3.414.039-.776.543-.853.543-.853,0,0-.465-.388-.621-1.435-.621C352.357-149.961,352.2-149.884,352.783-149.573Z" transform="translate(-343.318 153.494)"/>
        <path id="Path_1177" data-name="Path 1177" d="M388.78-149.573c.582.349.659,1.047.659,5.392,0,2.909-.155,5.082-.388,5.237-.853.5-.31.97,1.164.97.853,0,1.552-.194,1.552-.388a.367.367,0,0,0-.388-.388c-.194,0-.388-.7-.388-1.552v-1.552h1.746a3.283,3.283,0,0,0,2.793-1.009c.892-.892.97-1.2.815-3.53-.116-1.9-.349-2.677-.892-3.065-.97-.7-3.065-.7-3.685.039a1.664,1.664,0,0,1-.853.582c-.233,0-.31-.272-.155-.582.155-.465-.116-.582-1.241-.582C388.354-149.961,388.2-149.884,388.78-149.573Zm5.47,1.2c.892,1.28.815,4.383-.155,5.353-.892.892-1.28.931-2.366.388-.621-.349-.737-.853-.737-2.793,0-1.668.194-2.6.659-3.1A1.511,1.511,0,0,1,394.25-148.371Z" transform="translate(-365.35 153.494)"/>
        <path id="Path_1178" data-name="Path 1178" d="M412.532-149.534c.621.621.621,6.595,0,7.215-.349.349-.039.465,1.435.465,1.784,0,1.823-.039,1.241-.7-.5-.543-.659-1.513-.659-4.073V-150h-1.241C412.338-150,412.182-149.884,412.532-149.534Z" transform="translate(-379.985 153.494)"/>
        <path id="Path_1179" data-name="Path 1179" d="M423.532-149.534c.621.621.621,6.595,0,7.215-.349.349-.039.465,1.474.465,1.474-.039,1.746-.116,1.241-.427-1.086-.621-.97-5.121.116-6.207.737-.737.853-.737,1.474-.194.97.892,1.59.776,1.59-.349,0-.815-.194-.97-1.086-.97a3.826,3.826,0,0,0-1.94.621c-.776.543-.853.543-.853,0,0-.427-.388-.621-1.241-.621C423.338-150,423.182-149.884,423.532-149.534Z" transform="translate(-386.718 153.494)"/>
        <path id="Path_1180" data-name="Path 1180" d="M440.532-149.534c.621.621.621,6.595,0,7.215-.349.349-.039.465,1.474.465,1.474-.039,1.746-.116,1.241-.427-.582-.31-.7-.97-.7-4.034V-150h-1.241C440.338-150,440.182-149.884,440.532-149.534Z" transform="translate(-397.123 153.494)"/>
        <path id="Path_1181" data-name="Path 1181" d="M452.318-148.991c-1.241,1.319-1.358,5.043-.194,6.323.892.97,3.142,1.086,4.422.194,1.241-.853,1.047-1.435-.31-.737-1.474.776-1.784.737-2.715-.194-1.435-1.435-.815-5.508.892-6.052.543-.194,1.009,0,1.474.582.892,1.086,1.513,1.047,1.513-.155,0-.931-.116-.97-2.056-.97C453.6-150,453.094-149.845,452.318-148.991Z" transform="translate(-403.828 153.494)"/>
        <path id="Path_1182" data-name="Path 1182" d="M391.232-116.3a3.493,3.493,0,0,1,.659,2.134c0,1.358-.039,1.4-1.28,1.164-2.909-.466-5,2.172-4.383,5.508.5,2.715,2.638,3.685,4.655,2.095l1.009-.776v.776c0,.659.233.815,1.164.815.659,0,1.164-.194,1.164-.388a.367.367,0,0,0-.388-.388c-.233,0-.388-2.211-.388-5.819V-117h-1.435C390.688-117,390.65-116.961,391.232-116.3Zm.272,4.694c.621,1.2.466,4.345-.272,5.159a1.936,1.936,0,0,1-2.754.194c-.776-.931-.931-3.181-.31-4.655.466-1.2.776-1.435,1.746-1.435A1.716,1.716,0,0,1,391.5-111.608Z" transform="translate(-363.922 133.296)"/>
        <path id="Path_1183" data-name="Path 1183" d="M330.746-115.514c-2.754,1.474-2.095,4.383,1.4,6.168a4.189,4.189,0,0,1,1.94,1.784,2.11,2.11,0,0,1-3.763,1.862c-.853-1.28-1.319-1.241-1.319.155,0,1.009.155,1.164,1.552,1.4,2.793.466,4.81-.465,5.082-2.328a3.567,3.567,0,0,0-1.862-3.724c-2.211-1.319-3.22-2.328-3.22-3.259,0-1.9,2.6-2.444,3.724-.776.349.543.776.97.97.97.621,0,.388-2.25-.272-2.483A7.123,7.123,0,0,0,330.746-115.514Z" transform="translate(-328.961 132.663)"/>
        <path id="Path_1184" data-name="Path 1184" d="M349.2-110.811c-.194.621-.582,1.164-.776,1.164a.4.4,0,0,0-.427.388c0,.194.272.388.582.388.466,0,.582.582.582,2.909,0,2.405.155,3.065.776,3.685a2.04,2.04,0,0,0,2.754.388c1.047-.582.892-1.086-.272-.853-1.4.272-1.707-.388-1.707-3.53v-2.6h1.358c.931,0,1.358-.194,1.358-.582s-.427-.582-1.358-.582c-1.2,0-1.358-.116-1.358-.97C350.715-112.362,349.707-112.246,349.2-110.811Z" transform="translate(-340.591 130.21)"/>
        <path id="Path_1185" data-name="Path 1185" d="M453.2-110.811c-.194.621-.582,1.164-.776,1.164a.4.4,0,0,0-.427.388c0,.194.272.388.582.388.466,0,.582.582.582,2.909,0,2.405.155,3.065.776,3.685a2.04,2.04,0,0,0,2.754.388c1.047-.582.892-1.086-.272-.853-1.4.272-1.707-.388-1.707-3.53v-2.6h1.358c.931,0,1.358-.194,1.358-.582s-.427-.582-1.358-.582c-1.2,0-1.358-.116-1.358-.97C454.715-112.362,453.707-112.246,453.2-110.811Z" transform="translate(-404.247 130.21)"/>
        <path id="Path_1186" data-name="Path 1186" d="M363-106.651a.906.906,0,0,0,.388.621c.233.116.388,1.59.388,3.259,0,2.444.155,3.142.7,3.646.97.892,2.095.815,3.336-.155l1.009-.776v.776c0,.659.233.815,1.164.815,1.241,0,1.552-.543.582-.931-.466-.155-.582-.97-.582-3.918V-107h-1.164c-1.319,0-1.435.194-.582,1.009.815.815.776,4.383-.039,5.508a1.592,1.592,0,0,1-1.629.776c-1.047-.116-1.047-.194-1.241-3.608-.194-3.452-.194-3.491-1.241-3.608C363.466-107,363-106.884,363-106.651Z" transform="translate(-349.772 127.175)"/>
        <path id="Path_1187" data-name="Path 1187" d="M411.125-105.875c-.97.97-1.125,1.435-1.125,3.259,0,2.909.853,3.957,3.259,3.957a3.214,3.214,0,0,0,2.638-.892c.737-.7.776-.853.233-.853a1.08,1.08,0,0,0-.892.388c-.388.621-2.405.465-3.065-.233a2.341,2.341,0,0,1-.621-1.552c0-.892.116-.931,2.521-.931h2.521V-103.9a3.276,3.276,0,0,0-3.1-3.1A3.3,3.3,0,0,0,411.125-105.875Zm3.452.116a2.119,2.119,0,0,1,.466,1.358c0,.815-.194.892-1.746.892-1.862,0-2.172-.427-1.358-1.978A1.819,1.819,0,0,1,414.577-105.759Z" transform="translate(-378.54 127.175)"/>
        <path id="Path_1188" data-name="Path 1188" d="M429.972-106.651a.832.832,0,0,0,.388.621c.233.116.388,1.629.388,3.3s-.155,3.181-.388,3.3c-.853.5-.31.97,1.164.97s2.017-.466,1.164-.97c-.659-.388-.465-5.082.233-5.78a1.651,1.651,0,0,1,2.405-.155c.582.582.621,5.586.078,5.935-.853.5-.31.97,1.164.97.853,0,1.552-.194,1.552-.388a.366.366,0,0,0-.388-.388c-.233,0-.388-1.164-.388-2.677a13.517,13.517,0,0,0-.388-3.685c-.466-1.28-1.9-1.629-3.452-.853-1.047.582-1.2.582-1.2.039q0-.582-1.164-.582C430.515-107,429.972-106.845,429.972-106.651Z" transform="translate(-390.753 127.175)"/>
        <path id="Path_1189" data-name="Path 1189" d="M329.482-74.147c.931,1.28.892,9.077-.039,10.086-.582.659-.543.7,1.474.7,1.629-.039,1.94-.116,1.435-.427-.543-.272-.7-.892-.7-2.444v-2.056l2.017-.194c2.444-.233,3.414-1.241,3.414-3.414,0-2.328-1.28-3.1-5.121-3.1H328.9Zm5.276.7a2.476,2.476,0,0,1-1.784,4.267h-1.319v-5.043h1.164A3.1,3.1,0,0,1,334.758-73.448Z" transform="translate(-328.9 107.588)"/>
        <path id="Path_1190" data-name="Path 1190" d="M442.037-70.263c0,.97-.7,1.4-2.056,1.241a4.353,4.353,0,0,0-2.056.5c-.815.582-.931.582-.931.039,0-.427-.388-.582-1.435-.582-1.2.039-1.358.116-.776.427.543.31.659.931.659,3.569,0,1.978-.194,3.414-.465,3.685-.349.349-.039.466,1.435.466,1.629,0,1.784-.078,1.2-.5-.543-.388-.621-.97-.543-3.142.116-3.065.815-3.957,2.328-2.987.737.465.892.427,1.28-.116,1.009-1.358,1.358-.659,1.358,2.6,0,1.978.194,3.414.466,3.685a2.977,2.977,0,0,0,3.452-.194c.5-.582.427-.621-.427-.388-1.668.427-2.017-.155-2.095-3.259l-.039-2.871,1.59-.116,1.59-.116,1.4,3.8c1.241,3.452,1.28,3.879.815,4.849-.7,1.319-1.28,1.668-1.823,1.125-.7-.7-1.047-.5-1.047.543,0,.7.194.97.737.97,1.474,0,2.677-1.59,4.694-6.09a47.177,47.177,0,0,1,2.638-5.276c.543-.621.466-.659-1.086-.659-1.319,0-1.59.116-1.241.465.659.659.582,1.164-.543,3.685l-1.009,2.25-.931-2.715c-.892-2.521-.892-2.754-.272-3.181.543-.427.116-.5-2.521-.5-3.142,0-3.181,0-3.181-.97,0-.621-.233-.97-.582-.97A.7.7,0,0,0,442.037-70.263Z" transform="translate(-393.509 105.14)"/>
        <path id="Path_1191" data-name="Path 1191" d="M352.734-65.3c.97,1.047.931,6.478,0,7.021-.543.31-.272.388,1.2.427,1.59,0,1.823-.078,1.435-.543a6.624,6.624,0,0,1-.349-3.181c.116-2.948.815-3.84,2.25-2.948,1.047.659,1.164.621,1.164-.5,0-.815-.194-.97-1.125-.97a2.38,2.38,0,0,0-1.59.582,1.664,1.664,0,0,1-.853.582c-.233,0-.31-.272-.155-.582.155-.466-.116-.582-1.2-.582C352.191-66,352.153-65.961,352.734-65.3Z" transform="translate(-343.269 102.079)"/>
        <path id="Path_1192" data-name="Path 1192" d="M370-64.759c-.931,1.086-1.047,1.474-.892,3.375.155,1.59.388,2.289,1.086,2.832a5.792,5.792,0,0,0,4.461.465c.97-.388,1.746-2.25,1.746-4.228,0-2.444-1.2-3.685-3.646-3.685A2.771,2.771,0,0,0,370-64.759Zm3.53-.543c1.474.97,1.823,5,.543,6.284-1.047,1.047-1.707.97-2.677-.233-1.59-2.017-.659-6.362,1.319-6.362A1.77,1.77,0,0,1,373.532-65.3Z" transform="translate(-353.476 102.079)"/>
        <path id="Path_1193" data-name="Path 1193" d="M390.783-65.573c.582.349.659,1.047.659,5.586,0,3.22-.155,5.237-.388,5.237a.389.389,0,0,0-.388.388c0,.194.7.388,1.552.388,1.474,0,2.017-.466,1.164-.97a2.561,2.561,0,0,1-.388-1.59v-1.319h1.862c2.638,0,3.724-1.164,3.724-4,.039-2.715-.853-4.151-2.6-4.151a4.18,4.18,0,0,0-2.134.621c-.776.543-.853.543-.853,0,0-.465-.388-.621-1.435-.621C390.357-65.961,390.2-65.884,390.783-65.573Zm5.082.582c.776.31,1.474,2.909,1.164,4.306-.543,2.211-2.172,3.1-3.414,1.823-.427-.388-.621-1.319-.621-2.871,0-1.9.155-2.366.853-2.871C394.818-65.3,395.012-65.341,395.865-64.991Z" transform="translate(-366.577 102.079)"/>
        <path id="Path_1194" data-name="Path 1194" d="M416.629-65.669c-.815.31-1.629,2.328-1.629,4.112,0,2.483,1.086,3.763,3.259,3.763,1.629,0,3.53-.931,3.142-1.552-.116-.194-.737-.039-1.358.31-1.047.582-1.241.621-2.211.078a2.109,2.109,0,0,1-1.2-1.862l-.116-1.241h5.082v-1.164a2.658,2.658,0,0,0-2.987-2.677A7.135,7.135,0,0,0,416.629-65.669Zm2.793.737a2.1,2.1,0,0,1,.621,1.358c0,.621-.272.737-1.746.737-1.978,0-2.289-.621-.97-1.94C418.259-65.708,418.646-65.746,419.422-64.932Z" transform="translate(-381.6 102.02)"/>
      </g>
    </g>
  </g>
</svg>
