<svg xmlns="http://www.w3.org/2000/svg" xmlns:xlink="http://www.w3.org/1999/xlink" width="256" height="256" viewBox="0 0 256 256">
  <defs>
    <clipPath id="clip-path">
      <path id="path386" d="M106.85-734.294H303.6v-45.042H106.85Z" transform="translate(-106.85 779.336)"/>
    </clipPath>
  </defs>
  <g id="Goldsmiths" transform="translate(908 -473)">
    <rect id="Rectangle_15" data-name="Rectangle 15" width="256" height="256" rx="50" transform="translate(-908 473)" fill="#fffcf8"/>
    <g id="g10" transform="translate(-825.566 894.727)">
      <g id="g380" transform="translate(-52.807 -316.248)">
        <g id="g382" transform="translate(0 0)" clip-path="url(#clip-path)">
          <g id="g388" transform="translate(0 0)">
            <path id="path390" d="M-13.267-13.086A18.28,18.28,0,0,1-24.4-9.464c-8.122,0-14.147-5.834-14.147-14.183,0-7.435,4.957-14.374,14.489-14.374,4.881,0,8.083,1.562,10.067,3.507L-16.7-30.968A11.762,11.762,0,0,0-24.134-33.6c-5.719,0-9.378,4.409-9.378,9.877,0,6.731,4.536,9.989,9.264,9.989A11.429,11.429,0,0,0-17.8-15.526v-5.147H-24.63v-4.079h11.363Z" transform="translate(38.547 38.022)" fill="#cba569"/>
          </g>
          <g id="g392" transform="translate(28.178 7.588)">
            <path id="path394" d="M-8.844-5.522V-5.6A6.157,6.157,0,0,0-15.021-12c-3.7,0-6.062,2.823-6.062,6.33V-5.6A6.139,6.139,0,0,0-14.945.769a5.976,5.976,0,0,0,6.1-6.291M-4.23-5.6A10.433,10.433,0,0,1-15.021,4.773,10.319,10.319,0,0,1-25.7-5.522V-5.6A10.461,10.461,0,0,1-14.945-16.044,10.367,10.367,0,0,1-4.23-5.674V-5.6Z" transform="translate(25.697 16.044)" fill="#cba569"/>
          </g>
          <path id="path396" d="M191.581-751.1h-4.614V-778.93h4.614Z" transform="translate(-134.424 779.196)" fill="#cba569"/>
          <g id="g398" transform="translate(60.053 0.265)">
            <path id="path400" d="M-8.665-9.325c0-4.385-3.126-6.406-5.949-6.406-2.745,0-5.908,1.906-5.908,6.367,0,3.449,2.21,6.445,5.986,6.445,3.64,0,5.871-2.63,5.871-6.406M-4.128.74H-8.513V-1.929C-9.694-.1-12.4,1.16-15.222,1.16c-5.3,0-9.952-3.774-9.952-10.446V-9.4c0-4.881,2.9-10.41,10.143-10.41,2.821,0,5.3,1.183,6.291,2.708v-9.991h4.612V.74Z" transform="translate(25.175 27.094)" fill="#cba569"/>
          </g>
          <g id="g402" transform="translate(83.692 7.547)">
            <path id="path404" d="M-8.364-7.724c0,4.043-3.278,6.215-7.472,6.215A14.025,14.025,0,0,1-24.3-4.1l1.984-3.28a11.6,11.6,0,0,0,6.482,2.136c1.906,0,2.782-.838,2.782-2.212,0-1.486-1.75-1.95-4.116-2.821-3.126-1.15-6.215-2.173-6.215-5.91v-.076c0-3.813,3.241-6.179,7.244-6.179a13.879,13.879,0,0,1,7.435,2.1l-1.755,3.393a11.4,11.4,0,0,0-5.49-1.755c-1.755,0-2.823.726-2.823,2.021,0,1.679,2.747,2.322,4.233,2.86,2.938,1.064,6.176,2.327,6.176,6.1" transform="translate(24.303 22.443)" fill="#cba569"/>
          </g>
          <path id="path406" d="M320.477-772.712h-4.614v-4.461h4.614Z" transform="translate(-178.788 778.591)" fill="#cba569"/>
          <path id="path408" d="M320.477-747.041h-4.614v-20.133h4.614Z" transform="translate(-178.788 775.15)" fill="#cba569"/>
          <g id="g410" transform="translate(144.358 1.419)">
            <path id="path412" d="M-7.5-13.467a9.1,9.1,0,0,1-5.108,1.374c-4,0-6.254-1.945-6.254-6.291V-28.909H-21.8V-32.57h2.974v-6.558h4.575v6.558h5.8v3.661h-5.8v9.762a3.075,3.075,0,0,0,.687,2.4,2.588,2.588,0,0,0,1.906.687,6.62,6.62,0,0,0,2.782-.648Z" transform="translate(21.802 39.128)" fill="#cba569"/>
          </g>
          <g id="g414" transform="translate(161.096 0.275)">
            <path id="path416" d="M-9.165-14.607h-4.614V-25.322c0-3.317-.57-5.719-3.926-5.719-4.006,0-4.309,3.718-4.309,6.291v10.143h-4.614V-42.441h4.614v9.762a6.6,6.6,0,0,1,5.338-2.478,7.354,7.354,0,0,1,5.565,1.982c1.976,1.974,1.945,5.184,1.945,6.367Z" transform="translate(26.628 42.441)" fill="#cba569"/>
          </g>
          <g id="g418" transform="translate(180.808 7.557)">
            <path id="path420" d="M-8.364-7.724c0,4.043-3.28,6.215-7.474,6.215A14.022,14.022,0,0,1-24.3-4.1l1.982-3.28a11.6,11.6,0,0,0,6.482,2.136c1.906,0,2.784-.838,2.784-2.212,0-1.486-1.75-1.95-4.118-2.821-3.124-1.15-6.213-2.173-6.213-5.91v-.076c0-3.813,3.241-6.179,7.244-6.179a13.879,13.879,0,0,1,7.435,2.1l-1.755,3.393a11.409,11.409,0,0,0-5.49-1.755c-1.755,0-2.823.726-2.823,2.021,0,1.677,2.747,2.322,4.233,2.86,2.938,1.064,6.176,2.327,6.176,6.1" transform="translate(24.303 22.443)" fill="#cba569"/>
          </g>
          <g id="g422" transform="translate(102.755 7.517)">
            <path id="path424" d="M-15.908-10.806h-4.614V-21.518c0-3.319-.572-5.719-3.926-5.719-4.006,0-4.309,3.718-4.309,6.291v10.141h-4.614V-21.518c0-3.319-.687-5.719-4.04-5.719-3.622,0-4.194,3.237-4.194,5.719v10.713H-46.22V-30.938h4.385V-28.5a6.73,6.73,0,0,1,5.719-2.9c3.07,0,4.911,1.224,6.025,3.356a8.029,8.029,0,0,1,6.673-3.317,7.351,7.351,0,0,1,5.565,1.982c1.976,1.976,1.945,5.186,1.945,6.367Z" transform="translate(46.22 31.395)" fill="#cba569"/>
          </g>
          <g id="g426" transform="translate(52.541 37.935)">
            <path id="path428" d="M-3.211-1.987c0,1.012-.084,3.3-3.078,3.3A2.819,2.819,0,0,1-9.329-1.8V-5.774h1.653v4.017c0,1.1.5,1.633,1.406,1.633a1.344,1.344,0,0,0,1.4-1.584V-5.774h1.655Z" transform="translate(9.329 5.774)" fill="#cba569"/>
          </g>
          <g id="g430" transform="translate(60.951 37.935)">
            <path id="path432" d="M-3.206-3.661H-4.5l-3.258-4.3v4.3H-9.315v-6.976H-7.9l3.18,4.2v-4.2h1.514Z" transform="translate(9.315 10.637)" fill="#cba569"/>
          </g>
          <path id="path434" d="M214.4-714.515h-1.655v-6.976H214.4Z" transform="translate(-143.298 759.427)" fill="#cba569"/>
          <g id="g436" transform="translate(72.781 37.935)">
            <path id="path438" d="M-3.671,0-6.423,6.976H-7.907L-10.667,0h1.794l1.744,4.773L-5.365,0Z" transform="translate(10.667)" fill="#cba569"/>
          </g>
          <g id="g440" transform="translate(81.45 37.935)">
            <path id="path442" d="M-2.683-3.661H-7.8v-6.976h5.033v1.326H-6.152v1.473h2.97v1.317h-2.97v1.514h3.468Z" transform="translate(7.796 10.637)" fill="#cba569"/>
          </g>
          <g id="g444" transform="translate(88.804 37.935)">
            <path id="path446" d="M-2.1-1.2c0-.925-.858-1-1.484-1H-4.45V-.206h.8c.635,0,1.555-.015,1.555-1M-.024,3.481H-1.89L-3.5,1.02H-4.45V3.481H-6.095V-3.495H-3.4a3.166,3.166,0,0,1,2.223.637A2.158,2.158,0,0,1-.544-1.222,1.928,1.928,0,0,1-1.909.73Z" transform="translate(6.095 3.495)" fill="#cba569"/>
          </g>
          <g id="g448" transform="translate(96.169 37.816)">
            <path id="path450" d="M-2.814-2.651c0,1.425-1.092,2.173-2.591,2.173a4.8,4.8,0,0,1-2.771-.789l.639-1.166A4.679,4.679,0,0,0-5.4-1.815c.752,0,1.027-.295,1.027-.737,0-.613-.763-.711-1.326-.886C-6.625-3.728-8-4.146-8-5.641-8-6.906-6.984-7.7-5.435-7.7a4.6,4.6,0,0,1,2.422.667L-3.561-5.86a4.621,4.621,0,0,0-1.893-.509c-.678,0-.986.225-.986.678,0,.494.665.676,1.454.908,1.051.308,2.173.737,2.173,2.132" transform="translate(8.176 7.703)" fill="#cba569"/>
          </g>
          <path id="path452" d="M266.508-714.515h-1.655v-6.976h1.655Z" transform="translate(-161.231 759.427)" fill="#cba569"/>
          <g id="g454" transform="translate(107.011 37.935)">
            <path id="path456" d="M-3.138-.7H-5.3v5.65H-6.955V-.7H-9.117V-2.022h5.979Z" transform="translate(9.117 2.022)" fill="#cba569"/>
          </g>
          <g id="g458" transform="translate(114.187 37.935)">
            <path id="path460" d="M-3.6,0-6.194,4.2V6.976H-7.849V4.2L-10.468,0h1.932l1.564,2.652L-5.327,0Z" transform="translate(10.468)" fill="#cba569"/>
          </g>
          <g id="g462" transform="translate(126.791 37.816)">
            <path id="path464" d="M-3-1.9v-.019A2.018,2.018,0,0,0-5.025-4.076a1.975,1.975,0,0,0-2,2.132v.022A2.021,2.021,0,0,0-5.005.229,1.981,1.981,0,0,0-3-1.9m1.694-.019A3.607,3.607,0,0,1-5.025,1.684,3.574,3.574,0,0,1-8.721-1.9v-.019A3.605,3.605,0,0,1-5.005-5.53a3.573,3.573,0,0,1,3.7,3.585v.022Z" transform="translate(8.721 5.53)" fill="#cba569"/>
          </g>
          <g id="g466" transform="translate(136.118 37.935)">
            <path id="path468" d="M-2.579-.7H-5.837V.9h2.81V2.214h-2.81V4.954H-7.492V-2.022h4.913Z" transform="translate(7.492 2.022)" fill="#cba569"/>
          </g>
          <g id="g470" transform="translate(147.187 37.935)">
            <path id="path472" d="M-2.631-3.661H-7.644v-6.976h1.655v5.63h3.358Z" transform="translate(7.644 10.637)" fill="#cba569"/>
          </g>
          <g id="g474" transform="translate(153.396 37.816)">
            <path id="path476" d="M-3-1.9v-.019A2.018,2.018,0,0,0-5.025-4.076a1.975,1.975,0,0,0-2,2.132v.022A2.021,2.021,0,0,0-5.005.229,1.979,1.979,0,0,0-3-1.9m1.694-.019A3.607,3.607,0,0,1-5.025,1.684,3.574,3.574,0,0,1-8.721-1.9v-.019A3.605,3.605,0,0,1-5.005-5.53a3.573,3.573,0,0,1,3.7,3.585v.022Z" transform="translate(8.721 5.53)" fill="#cba569"/>
          </g>
          <g id="g478" transform="translate(162.723 37.935)">
            <path id="path480" d="M-3.206-3.661H-4.5l-3.258-4.3v4.3H-9.315v-6.976H-7.9l3.18,4.2v-4.2h1.514Z" transform="translate(9.315 10.637)" fill="#cba569"/>
          </g>
          <g id="g482" transform="translate(171.22 37.935)">
            <path id="path484" d="M-2.542-1.846a2.283,2.283,0,0,0-.578-1.625A2.175,2.175,0,0,0-4.774-4.05h-.968V.285h.9A2.267,2.267,0,0,0-3.11-.282a2.145,2.145,0,0,0,.568-1.564m1.733-.03A3.432,3.432,0,0,1-1.756.576,4.137,4.137,0,0,1-4.934,1.611H-7.386V-5.365h2.87a3.7,3.7,0,0,1,2.721,1A3.491,3.491,0,0,1-.809-1.877" transform="translate(7.386 5.365)" fill="#cba569"/>
          </g>
          <g id="g486" transform="translate(179.354 37.816)">
            <path id="path488" d="M-3-1.9v-.019A2.018,2.018,0,0,0-5.025-4.076a1.975,1.975,0,0,0-2,2.132v.022A2.021,2.021,0,0,0-5.005.229,1.981,1.981,0,0,0-3-1.9m1.694-.019A3.607,3.607,0,0,1-5.025,1.684,3.574,3.574,0,0,1-8.721-1.9v-.019A3.605,3.605,0,0,1-5.005-5.53a3.573,3.573,0,0,1,3.7,3.585v.022Z" transform="translate(8.721 5.53)" fill="#cba569"/>
          </g>
          <g id="g490" transform="translate(188.68 37.935)">
            <path id="path492" d="M-3.206-3.661H-4.5l-3.258-4.3v4.3H-9.315v-6.976H-7.9l3.18,4.2v-4.2h1.514Z" transform="translate(9.315 10.637)" fill="#cba569"/>
          </g>
        </g>
      </g>
    </g>
  </g>
</svg>
