<svg xmlns="http://www.w3.org/2000/svg" width="256" height="256" viewBox="0 0 256 256">
  <g id="Grasshopper" transform="translate(2434 -1551)">
    <rect id="Rectangle_27" data-name="Rectangle 27" width="256" height="256" rx="50" transform="translate(-2434 1551)" fill="#f9f9f9"/>
    <g id="Group_72" data-name="Group 72" transform="translate(-2763 1411.671)">
      <g id="_2070042" data-name="2070042" transform="translate(363 223.734)">
        <path id="Path_1146" data-name="Path 1146" d="M1654.4-1072.568a5.532,5.532,0,0,1,2.2,1.255,5.54,5.54,0,0,1,1.6,3.932,7.124,7.124,0,0,1-.459,2.94c-.6,2.322-.936,3.857-1.18,5.262l-.169.964.58,5.215c1.124,9.943,1.4,12.283,1.46,12.283a.813.813,0,0,0,.159-.356,3.612,3.612,0,0,1,1.348-1.732c.552-.4.627-.487.59-.7-.028-.14-.112-.843-.187-1.563s-.4-3.548-.712-6.273-.562-5.2-.562-5.477a40.836,40.836,0,0,1,1.236-6.057c.552-2.172.571-2.247.515-3.089-.262-3.857-1.77-5.552-5.851-6.591C1653.634-1072.9,1653.494-1072.9,1654.4-1072.568Z" transform="translate(-1501.969 1072.813)"/>
        <path id="Path_1147" data-name="Path 1147" d="M1131.854-1053.685c-.478.215-.759.861-1.77,4.073a8,8,0,0,1-1.077,2.6c-3.033,4.391-9.222,8.229-17.7,10.982-1.058.337-2.191.721-2.528.842-1.189.421-6.151,2.462-7.143,2.94a21.31,21.31,0,0,0-8.117,6.188,27.748,27.748,0,0,0-3.979,6.965,11.6,11.6,0,0,0-.618,4.222,20.81,20.81,0,0,0,.618,5.14,24.877,24.877,0,0,1,.618,5.112,13.307,13.307,0,0,1-.534,3.932,25.584,25.584,0,0,1-1.18,3.876,1.834,1.834,0,0,0-.225,1.17,2.205,2.205,0,0,0,1.479,1.985c.674.178,1.227.084,3.829-.674.917-.262,1.273-.74,2.05-2.706.421-1.067.5-1.18,1.086-1.451l1.021-.477a16.4,16.4,0,0,0,1.685-1.021c4.073-2.724,7.64-6.741,10.841-12.246.627-1.058.8-1.283.945-1.264.178.028.2.094.187.609a2.788,2.788,0,0,1-.4,1.395c-1.47,3.061-6.048,8.548-13.1,15.691-2.266,2.294-2.556,2.621-2.528,2.855.066.609-.281.571,14.221,1.751a14.3,14.3,0,0,0,1.807.084c.318-.066.581-.4.758-.983.29-1,1.208-5.308,2.032-9.615a1.433,1.433,0,0,1,.328-.74c.206-.2.29-.225.74-.187a1.008,1.008,0,0,1,.815.346c.29.29.3.318.356,1.395a75.306,75.306,0,0,1-.14,7.574,4.61,4.61,0,0,0-.038,1.76c.225.487.384.515,3.473.515,3.773,0,3.567.15,3.661-2.668.075-2.172.084-19.342.009-20.672-.122-2.228-.15-2.49-.337-2.724-.253-.318-.712-.431-1.769-.431-1.376,0-1.863.084-2.032.337a13,13,0,0,0-.412,2.256c-.646,4.878-1.039,7.574-1.17,8.014-.075.234-.524.44-.974.44a.9.9,0,0,1-.936-.908c0-.2.253-1.582.552-3.08a27.5,27.5,0,0,0,.843-6.31c-.047-1.386-.094-1.451-1.049-1.526-.805-.056-1.685-.328-1.62-.5.112-.3,3.071-4.335,4.962-6.778,4.878-6.282,8.651-10.467,10.823-12,3.23-2.294,4.868-2.013,5.655.955.674,2.556,2.846,15.485,4.831,28.789,1.694,11.347,1.788,12,1.732,12.452a3.3,3.3,0,0,1-.487,1.554c-.131.112-.094.14.356.178l.505.047.356,2.481c.309,2.069.346,2.528.253,2.781-.056.169-.459,1.039-.89,1.919a14.367,14.367,0,0,0-1.413,3.754c-.113,1.049.59,1.713,2.05,1.938a17.572,17.572,0,0,0,4.513-.187,15.288,15.288,0,0,1,4.915-.1c2.425.309,4.363.224,5.262-.234a1.535,1.535,0,0,0,.58-2.565c-.908-1-2.912-1.329-8.117-1.348l-2.7-.009-.178-.58c-.206-.683-.88-5.252-1.17-7.977-.019-.187-.206-1.7-.421-3.38-.421-3.323-.431-3.9-.094-5.14.478-1.695,1.386-2.893,3.614-4.7a4.218,4.218,0,0,0,1.854-2.547,15.008,15.008,0,0,0,.337-6.619c-.356-2.444-.627-3.3-1.273-4.016a2.943,2.943,0,0,0-2.322-1.021,4.793,4.793,0,0,0-2.771.627,9.884,9.884,0,0,1-1.9.946c-.094,0-.159-.262-.234-.964-.056-.524-.487-4.241-.945-8.257-1.414-12.3-1.376-11.965-1.236-12.976.159-1.2.674-3.6,1.236-5.786.477-1.872.524-2.266.365-3.089a1.939,1.939,0,0,0-.74-1.376c-.73-.478-2.49-.936-5.533-1.451A20.215,20.215,0,0,0,1131.854-1053.685Zm2.387,1.18a29.249,29.249,0,0,1,6.329,1.255c.833.356.964,1.067.524,2.724a53.045,53.045,0,0,0-1.526,7.49c0,.534.777,7.536,2.069,18.621.206,1.769.375,3.239.375,3.249a3.66,3.66,0,0,1-1.741.2,9.307,9.307,0,0,1-.243-1.208c-1.4-8.707-2.5-14.9-2.977-16.73-.552-2.088-1.526-3.211-3-3.427-1.826-.262-4.878,1.545-7.686,4.55A149.015,149.015,0,0,0,1109.245-1013a38.767,38.767,0,0,1-8.061,10.1,19.988,19.988,0,0,1-4.7,3.136,3.168,3.168,0,0,0-1.5,1.1c-.122.2-.412.843-.665,1.442-.627,1.535-.721,1.629-1.975,1.966-1.7.459-1.957.505-2.3.4-.253-.075-.346-.178-.487-.515l-.178-.421.337-.917a35.136,35.136,0,0,0,1.554-5.907,22.886,22.886,0,0,0-.037-4.372c-.075-.6-.309-1.994-.515-3.09a18.592,18.592,0,0,1-.58-4.878,10.269,10.269,0,0,1,1.226-5.355,26.847,26.847,0,0,1,4.531-6.563c2.341-2.341,4.709-3.745,9.811-5.786,1.461-.59,2.865-1.152,3.118-1.264s1.442-.5,2.621-.88a47.205,47.205,0,0,0,14.043-6.891,23.736,23.736,0,0,0,4.962-5.29,22.707,22.707,0,0,0,.833-2.35c.328-1.086.7-2.238.833-2.575C1132.407-1052.683,1132.332-1052.665,1134.241-1052.505Zm12.255,36.128a4.4,4.4,0,0,1,1.386,3.38l.047.936-1.741,1.732a20.612,20.612,0,0,1-1.741,1.638c0-.15-.646-5.683-.7-6.02-.047-.271,0-.365.44-.833C1145.158-1016.574,1145.8-1016.808,1146.5-1016.377Zm-1.4,22.937c0,.271.693,5.589.88,6.7.318,1.966.777,2.818,1.507,2.809.206,0,1.264-.019,2.34-.037a28.651,28.651,0,0,1,6.872.487c.487.15,1.039.552,1.039.758,0,.178-.477.421-1.067.543a13.762,13.762,0,0,1-4.035-.075,15.4,15.4,0,0,0-5.009.112,15.285,15.285,0,0,1-4.9.066.974.974,0,0,1-.412-.309,10.617,10.617,0,0,1,1.189-3.277c.375-.777.815-1.7.983-2.078l.3-.674-.356-2.462c-.2-1.357-.365-2.537-.365-2.631,0-.131.084-.159.515-.159C1145.064-993.664,1145.1-993.646,1145.1-993.44Z" transform="translate(-989.298 1055.531)"/>
        <path id="Path_1148" data-name="Path 1148" d="M1169.652-1013.711a7.847,7.847,0,0,0-2.518,2.509,31.152,31.152,0,0,1-5.57,6.141c-1.648,1.3-3.473,2.359-7.958,4.606a68.834,68.834,0,0,1-7.49,3.249c-5.14,2.041-6.2,2.593-8.52,4.428a40.465,40.465,0,0,0-6.235,5.833,16.687,16.687,0,0,0-2.341,3.689,6.793,6.793,0,0,0-1.02,3.745,27.933,27.933,0,0,0,.646,5.243,35.71,35.71,0,0,1,.8,6.6c.028,1.61.075,1.854.459,2.266a2.361,2.361,0,0,0,3.08.047,42.758,42.758,0,0,0,4.569-4.325,51.88,51.88,0,0,0,8.707-12.264,51.026,51.026,0,0,1,12.5-16.1c3.164-2.687,10.514-8.529,11.235-8.941a8.137,8.137,0,0,0,2.369-2.4,4.188,4.188,0,0,0,.431-3.118A2.082,2.082,0,0,0,1169.652-1013.711Zm1.91,1.4a1.6,1.6,0,0,1,.131.955,4.458,4.458,0,0,1-2.359,3.323c-.936.552-9.7,7.583-12.124,9.718a62.5,62.5,0,0,0-5.1,5.233,56.283,56.283,0,0,0-7.068,10.813,43.7,43.7,0,0,1-3.735,6.132,58.1,58.1,0,0,1-7.733,8.688c-1.236,1.133-1.9,1.526-2.387,1.423s-.543-.318-.552-1.826a33.83,33.83,0,0,0-.749-6.413,29.7,29.7,0,0,1-.665-5.29,5.407,5.407,0,0,1,.805-2.977c1.517-3.183,3.436-5.346,7.967-8.978,2.612-2.106,3.679-2.659,9.531-4.943a67.178,67.178,0,0,0,7.443-3.314c5.214-2.659,6.834-3.7,9.025-5.814a33.721,33.721,0,0,0,3.8-4.447,9.982,9.982,0,0,1,2.341-2.575C1170.776-1012.953,1171.291-1012.849,1171.562-1012.316Z" transform="translate(-1025.374 1019.516)"/>
        <path id="Path_1149" data-name="Path 1149" d="M1187.187-796.626c-3.867,1.564-4.55,1.938-6.647,3.642a43.433,43.433,0,0,0-4.166,3.726,15.561,15.561,0,0,0-2.9,4.044l-.571,1.161v.955a33.114,33.114,0,0,0,.758,5.477c.206,1.152.374,2.181.374,2.294,0,.15.141.056.665-.459.365-.365.833-.852,1.039-1.1l.374-.44-.243-1.432c-.534-3.1-.524-3.455.169-4.84,1.273-2.547,2.827-4.213,7.246-7.761a14.286,14.286,0,0,1,2.874-1.835c.309-.122.487-.318.983-1.058.328-.5.992-1.432,1.479-2.069s.852-1.17.843-1.18S1188.423-797.122,1187.187-796.626Z" transform="translate(-1066.07 823.281)"/>
        <path id="Path_1151" data-name="Path 1151" d="M39.029-1006.947a2.4,2.4,0,0,1-.6.094,18.154,18.154,0,0,0-5.907,1.8c-.815.618-.927,1.461-.346,2.584a1.911,1.911,0,0,0,1.695,1.283c.618.047,1.133-.112,3.389-1.049a8.938,8.938,0,0,1,3.979-.946,4.358,4.358,0,0,1,1.732.215c1.779.618,3.2,2.041,4.456,4.475a2.018,2.018,0,0,1,.384,1.442,10.286,10.286,0,0,1-.384,1.751,43.083,43.083,0,0,0-1.975,11.965c-.094,5.748,1.3,10.074,4.25,13.182a12.23,12.23,0,0,0,5.3,3.3,2.21,2.21,0,0,1,1.517.946,14.5,14.5,0,0,1,1.17,1.507c.272.431,1,1.554,1.62,2.49,4.5,6.844,8.594,10.28,12.723,10.7a4.635,4.635,0,0,0,1.46-.112c.843-.168.871-.168.974,0,.843,1.414,2.013,2.228,2.94,2.06.646-.122,1.2-1.02,1.367-2.237.506-3.735-.627-17.966-1.732-21.692-.122-.431-.253-.665-.384-.74-.824-.44-5.589,1.1-8.314,2.706-1.835,1.067-2.444,1.872-2.453,3.249a1.762,1.762,0,0,0,2.575,1.826c.571-.215.758-.393.852-.8a1.876,1.876,0,0,1,.805-1.17c.262-.1.318-.1.543.056a15.1,15.1,0,0,1,1.966,2.94,14.764,14.764,0,0,1,1.414,4.353c.431,2.313.449,2.6.2,2.855s-.712.206-1.638-.215a23.665,23.665,0,0,1-5.5-4.541,15.469,15.469,0,0,1-3.53-6.226l-.272-.955.309-.515c2.8-4.578,3.1-10.851.852-17.414a26.736,26.736,0,0,0-2-4.194c-.346-.534-.449-.768-.346-.768.019,0,.768-.141,1.666-.318a9.267,9.267,0,0,1,3.4-.328c1.6.225,2.322,1.1,2.621,3.164.159,1.1.271,2.94.477,7.714a6.844,6.844,0,0,0,.159,1.535,6.805,6.805,0,0,0,1.161.047c1.835-.028,3.108-.318,3.651-.824.374-.356.374-.421.169-2.668-.384-4.007-.974-8.52-1.4-10.682-.627-3.174-2.116-5.149-4.316-5.739-.889-.243-2.378-.215-5.374.1a60.766,60.766,0,0,0-7.349,1.348c-1.854.412-3.445.749-3.539.749a3.86,3.86,0,0,1-1.376-.712,21.191,21.191,0,0,1-1.386-1.666c-2.64-3.445-5-5.1-8.154-5.739A21.542,21.542,0,0,0,39.029-1006.947Zm2.846,1.329a10.179,10.179,0,0,1,4.924,2.172,15.022,15.022,0,0,1,2.8,3.061c.6.777,1.283,1.582,1.507,1.807A9.083,9.083,0,0,0,54.158-997a14.374,14.374,0,0,1,3.408,1.62c3.941,2.649,6.553,7.93,7.125,14.39a22.617,22.617,0,0,1-.094,4.166,18.989,18.989,0,0,1-1.47,4.821c-1.545,3.071-4.026,4.587-6.816,4.166-3.717-.562-7.134-3.707-8.594-7.92-1.648-4.765-1.395-11.2.73-18.668.824-2.855.805-3.267-.2-5.1q-2.907-5.336-7.855-4.821a14.717,14.717,0,0,0-4.2,1.226c-1.863.777-2.294.871-2.631.552a1.9,1.9,0,0,1-.5-1.227c.037-.262.477-.5,1.854-.974A14.418,14.418,0,0,1,41.875-1005.618Z" transform="translate(-31.811 1013.137)"/>
        <path id="Path_1152" data-name="Path 1152" d="M221.337-866.76a1.886,1.886,0,0,0-1.123.824,2.668,2.668,0,0,0-.5,1.423l-.009.384-.524-.009c-.927-.019-1.442.59-1.723,2.013a67.849,67.849,0,0,0-.169,8.51c.421,5.365,1.844,8.594,4.381,9.858,4.007,2.013,7.059.6,8.585-3.96a20.91,20.91,0,0,0,.805-8.323c-.309-2.621-.412-2.921-1.18-3.286a1.95,1.95,0,0,0-1.217-.169l-.786.038.178-.187a2.089,2.089,0,0,0,.524-1.657,2.5,2.5,0,0,0-.365-1.535,9.137,9.137,0,0,0-4.99-3.923A3.238,3.238,0,0,0,221.337-866.76Zm2.06,1.339a10.6,10.6,0,0,1,2.846,1.938,3.121,3.121,0,0,1,1.152,2.294,1.391,1.391,0,0,1-.833,1.208,1.871,1.871,0,0,1-1.114.225c-1.273-.019-1.835-.346-3.174-1.854-1.067-1.208-1.2-1.442-1.311-2.228a1.5,1.5,0,0,1,.58-1.676A2.313,2.313,0,0,1,223.4-865.421Zm-3.427,6.1a14.719,14.719,0,0,0,5.954,2.93c.524.1,2.79.309,3.7.337a4.592,4.592,0,0,1,.169.468,15.319,15.319,0,0,1,.056,4.073c-.459,3.689-1.695,6.282-3.408,7.115a4.664,4.664,0,0,1-4.082-.384c-1.638-.824-2.565-2.294-3.277-5.2a22.459,22.459,0,0,1-.609-6.076c0-1.367.028-2.593.075-2.734a1.86,1.86,0,0,1,.356-.59C219.24-859.757,219.38-859.747,219.97-859.317Z" transform="translate(-199.871 886.178)"/>
        <path id="Path_1158" data-name="Path 1158" d="M697.143-946.325a1.078,1.078,0,0,0-.88.477,4.512,4.512,0,0,0-.131,1.461c-.009.665-.075,1.676-.15,2.247-1.077,7.967-1.217,9.2-1.32,11.375-.028.646-.075,1.357-.094,1.592a104.063,104.063,0,0,0-.094,11.047,50.128,50.128,0,0,0,1.47,9.69,32.623,32.623,0,0,0,2.06,5.9,8.025,8.025,0,0,0,1.741.094c.908,0,1.919.037,2.238.084a1.667,1.667,0,0,0,.871-.037c.44-.178.412-.449-.2-2.172-1.432-4.063-2.069-7.012-1.685-7.752.309-.58.88-.983,1.264-.88.562.14.871.815.992,2.125a24.381,24.381,0,0,0,2.069,6.825,50.821,50.821,0,0,0,2.4,4.906c.58.936.674,1.386.384,1.882a2.363,2.363,0,0,0,0,2.013,5.224,5.224,0,0,0,1.7,1.816,2.818,2.818,0,0,1,1.067,1.152,20.85,20.85,0,0,1,1.367,2.668c1.058,2.49,1.1,4,.14,4.943-1.086,1.077-1.32,2.93-.421,3.4a4.812,4.812,0,0,0,2.715-.094c3.258-.768,4.653-.7,6.02.253.234.169.506.206,2.106.281a24.322,24.322,0,0,0,6.656-.384l.431-.159v-.515c-.009-1.32-1.292-2.771-3-3.37-1.264-.44-2.481-.6-6.085-.786-2.069-.112-3.3-.477-3.689-1.114-.169-.271-1.975-6.956-1.975-7.293a2.9,2.9,0,0,1,.3-.74,2.5,2.5,0,0,0,.14-2.284,6.423,6.423,0,0,0-1.769-1.807c-.871-.627-1.554-1.657-2.93-4.41a14.2,14.2,0,0,1-1.535-3.839,27.743,27.743,0,0,1-.712-9.877c.215-2.5.225-2.584.328-4.26.2-3.015.262-5.14.225-8-.009-1.6-.047-3.136-.075-3.417s-.094-1.039-.15-1.685c-.309-3.651-1.2-6.928-2.378-8.688a4.511,4.511,0,0,0-3.043-2.172A48.688,48.688,0,0,0,697.143-946.325Zm4.962,6.778A8.961,8.961,0,0,1,703.453-936a54.071,54.071,0,0,1,.468,15c-.243,2.406-.3,2.556-1.142,2.949a2.483,2.483,0,0,1-1.348.253c-.768,0-.824-.009-1.1-.271-.534-.515-.627-.974-.768-3.661-.131-2.743-.169-9.231-.056-10.72.112-1.545.253-2.781.4-3.642a6.771,6.771,0,0,1,.6-2.116c.028.019.14-.178.234-.44.215-.6.646-1.1.946-1.1A.668.668,0,0,1,702.1-939.547Zm9.643,43.187,2,1.358.665,2.593c1.414,5.5,1.573,5.851,3.005,6.544.721.346.974.59.974.955,0,.552-.786.843-2.846,1.058l-1.123.112-.262-.3a.941.941,0,0,1-.262-.8,2.609,2.609,0,0,1,.2-.964,2.068,2.068,0,0,0,.15-1.2,16.8,16.8,0,0,0-2.425-6.16,14.154,14.154,0,0,0-1.049-1.189c-1.283-1.339-1.685-2.266-1.32-3.033.084-.187.187-.337.225-.337S710.643-897.109,711.748-896.36Zm11.141,11.8a22.89,22.89,0,0,1,2.556.15c.693.187.927.768.44,1.133a7.346,7.346,0,0,1-1.357.468,7.559,7.559,0,0,1-2.387.3c-1.4,0-1.676-.066-2.3-.618-.44-.393-.627-.824-.506-1.152.112-.3.384-.4.936-.365C720.5-884.629,721.681-884.591,722.888-884.563Z" transform="translate(-632.339 958.179)"/>
        <path id="Path_1159" data-name="Path 1159" d="M477.193-942.348a18.665,18.665,0,0,0-5,1.461c-1.208.506-4.166,1.957-4.475,2.2-.15.112-.131.215.206,1.526a129.417,129.417,0,0,1,2.621,14.324c.1.824.206,1.62.234,1.779.169,1.17.758,6.825,1.03,9.83.356,3.97.337,3.792.609,7.256.374,4.812.431,5.233.683,5.252a27.837,27.837,0,0,0,4.625-.393c.122-.047.225-.131.225-.2s.019-1.3.028-2.743a27.339,27.339,0,0,1,.094-2.79c.29-.59.871.262,2.818,4.147,1.283,2.556,1.545,3.2,1.545,3.848a7.122,7.122,0,0,1-.337,1.357,6.336,6.336,0,0,0-.4,2.06l-.056,1.039-1.554,1.517a35.284,35.284,0,0,0-5.056,5.73c-.243.5-.833.74-1.985.843-2.781.243-6.048,1.133-7.331,1.994-1.357.917-1.7,2.088-.833,2.855.8.693,2.088.627,4.85-.272a10.648,10.648,0,0,1,4.559-.627,7.364,7.364,0,0,1,3.192.581c1.339.571,3,.524,3.707-.094a.744.744,0,0,0,.356-.758,3.347,3.347,0,0,0-.534-1.535c-.8-1.6-.852-2.069-.337-3a23.614,23.614,0,0,1,5.027-5.271,16.022,16.022,0,0,1,1.975-1.236c1.4-.7,1.863-1.189,2.106-2.247a3.692,3.692,0,0,0-1.208-3.576,6.7,6.7,0,0,1-1.4-2.088c-2.181-4.063-5.421-9.9-5.8-10.439-.159-.225-.2-.421-.2-1.03,0-.73.009-.777.627-2.013a45.378,45.378,0,0,0,3.623-10.813c1.386-7.471.169-12.948-3.745-16.814A4.955,4.955,0,0,0,477.193-942.348Zm.337,6.039c.74.187.871.337,1.526,1.732a20.086,20.086,0,0,1,1.592,11.693c-.468,2.79-1.592,5.636-2.678,6.844-.777.861-1.432.562-1.432-.646a104.515,104.515,0,0,0-1.358-10.832c-.281-1.592-1.264-6.778-1.4-7.415-.037-.14.028-.253.206-.384a12.761,12.761,0,0,1,2.818-1.133A4.175,4.175,0,0,1,477.53-936.31Zm9.016,39.883c1.526.468,1.891.768,1.957,1.62a2.71,2.71,0,0,1-.609,1.975c-.412.459-.964.646-2.163.721l-.88.056-.215.346a1.551,1.551,0,0,1-.955.749,1.711,1.711,0,0,0-.524.178l-.356.178.243-.318a5.7,5.7,0,0,0,.88-2.2c.375-1.423.393-1.47.889-1.947.346-.346.412-.459.365-.674-.037-.187.019-.337.215-.59a2.017,2.017,0,0,1,.309-.337C485.731-896.671,486.106-896.558,486.546-896.427Zm-7.836,13.519c.581.945.712,1.414.515,1.723-.262.4-.936.431-2.425.094-.7-.159-1.1-.421-1.1-.721a2.487,2.487,0,0,1,.936-1.367,2.97,2.97,0,0,0,.7-.618l.346-.431.3.309A7.009,7.009,0,0,1,478.71-882.908Z" transform="translate(-423.905 954.605)"/>
        <path id="Path_1161" data-name="Path 1161" d="M1911.4-925.712a10.99,10.99,0,0,0-6.038,3.033,5.809,5.809,0,0,0-1.357,1.723,3.346,3.346,0,0,0,.356.683,88.873,88.873,0,0,1,4.747,9.39,36.878,36.878,0,0,1,1.863,5.617c.141.618.272,1.217.29,1.33a.246.246,0,0,0,.216.215.567.567,0,0,0,.356-.215,23.94,23.94,0,0,0,1.751-2.781,1.611,1.611,0,0,0,.309-1.264c-.187-1.713-.187-1.676.038-1.872.178-.159.337-.187,1.133-.187h.927l.384-1.152a11.377,11.377,0,0,0,.356-1.189,8.023,8.023,0,0,0-.889.253c-1,.337-1.47.309-1.648-.075-.131-.29-.056-.59.581-2.378a19.5,19.5,0,0,0,1.311-6.525c-.01-2.724-.88-4.166-2.771-4.569A4.447,4.447,0,0,0,1911.4-925.712Zm1.039,4.606a1.917,1.917,0,0,1,.543.655,2.327,2.327,0,0,1,.215,1.311,4.594,4.594,0,0,1-1.208,3.342c-.8.74-1.264.449-1.723-1.067-.15-.524-.449-1.451-.655-2.069s-.365-1.17-.365-1.236a4.866,4.866,0,0,1,1.582-.974A1.776,1.776,0,0,1,1912.435-921.106Z" transform="translate(-1728.724 939.56)"/>
        <path id="Path_1162" data-name="Path 1162" d="M867.313-922.731a3.53,3.53,0,0,0-1.779.955c-.7.777-.871,1.348-1.152,4.035a131.8,131.8,0,0,0-.927,13.3c-.009,3.417.131,4.5.749,6.048a9.277,9.277,0,0,0,4.194,4.709,3.817,3.817,0,0,1,1.685,1.489,10.032,10.032,0,0,1,.318,3.567c-.037,1.882-.1,2.107-.674,2.387a.817.817,0,0,1-1.217-.356,14.389,14.389,0,0,1-.871-4.906l-.056-1.432-.253-.131a17.57,17.57,0,0,0-1.779-.506,8.393,8.393,0,0,1-1.6-.487c-.112-.187-.534.15-.627.506a41.2,41.2,0,0,0-.019,5.261c.225,3.146.683,4.438,2.1,5.917a6.989,6.989,0,0,0,3.108,2.013,6.094,6.094,0,0,0,3.174.037c2.153-.824,2.874-2.818,2.874-7.967-.009-2.247-.318-5.28-.571-5.477-.028-.028-.215-.375-.421-.768a7.123,7.123,0,0,0-2.837-3c-1.2-.674-1.788-1.938-2.088-4.475-.14-1.133-.2-6.207-.084-7.864a20.868,20.868,0,0,1,.562-4.269,2.652,2.652,0,0,1,2.294-1.751c.945-.075,1.526.431,1.414,1.236a1.757,1.757,0,0,1-1.077,1.311c-.852.44-1.236.946-1.236,1.657a.827.827,0,0,0,.674.8,16.6,16.6,0,0,0,2.649-.159c2.715-.328,3.455-.58,4.073-1.357.468-.59.655-1.1,1.067-2.949.73-3.239.44-3.838-2.509-5.271a22.006,22.006,0,0,0-6.095-2.153A10.267,10.267,0,0,0,867.313-922.731Z" transform="translate(-785.395 936.907)"/>
        <path id="Path_1163" data-name="Path 1163" d="M1432.4-861.362c-1.61,1.058-3.427,2.921-7.012,7.227-1.8,2.163-6.17,7.78-6.095,7.827.009,0,.318-.028.674-.066a16.18,16.18,0,0,1,2.949.047c.1.037.318-.187.749-.758a118.258,118.258,0,0,1,9.381-11.019l.712-.665-.271-1.311C1433.081-862,1433.194-861.877,1432.4-861.362Z" transform="translate(-1289.393 881.454)"/>
        <path id="Path_1164" data-name="Path 1164" d="M1832.488-859.811c-2.631,2.518-4.475,4.344-4.569,4.513-.243.459-.122.73.693,1.591,3.136,3.314,5.056,9.353,5.271,16.627.056,1.882.066,1.966.272,2.172a.663.663,0,0,0,.852.094,65.208,65.208,0,0,0,5.468-6.526c.889-1.245.927-1.47.534-2.893a17.716,17.716,0,0,0-1.358-3.352c-.206-.159-.44-.019-.964.562a1.72,1.72,0,0,1-1.376.721c-1.292,0-1.179-1.526.234-3.258.347-.421.4-.562.365-.805a4.09,4.09,0,0,0-.73-1.657c-.3-.318-.412-.328-1.367-.047-.889.253-1.526-.019-1.526-.655s.375-1.255,1.395-2.312c.852-.88.852-.88-.346-3.436-.861-1.826-1.283-2.528-1.526-2.528A13.386,13.386,0,0,0,1832.488-859.811Z" transform="translate(-1659.664 880.83)"/>
        <path id="Path_1166" data-name="Path 1166" d="M973.69-820.127l-.674.047-.946.918a8.443,8.443,0,0,1-2.247,1.741,8.724,8.724,0,0,1-2.827.8c-1.311.178-1.376.2-1.479.468a28.364,28.364,0,0,0-.337,5.336c-.066,3.043-.019,3.473.543,4.616a7.46,7.46,0,0,0,2.509,2.687c2.668,1.844,3.923,3.455,4.419,5.7a15.708,15.708,0,0,1,.2,3.52c.019,2.884-.028,3.221-.459,3.745-.5.58-1.077.2-1.142-.758a8.226,8.226,0,0,1,.693-3.267c.562-1.769.693-2.444.515-2.659a13.565,13.565,0,0,0-3.595-1.414c-.375-.056-.44-.037-.571.159a33.006,33.006,0,0,0-1.32,7.752,9.312,9.312,0,0,0,1.638,4.391c.505.515,1.123.665,3.005.73,2.416.084,3.473-.131,4.054-.824.992-1.17,1.507-3.548,1.5-6.825a21.81,21.81,0,0,0-.562-5.29c-.131-.618-.337-1.676-.449-2.341a8.675,8.675,0,0,0-.384-1.545,14.431,14.431,0,0,0-2.06-2.678c-1.919-2.116-2.809-3.445-3.192-4.765a5.142,5.142,0,0,1,.534-3.988,1.8,1.8,0,0,1,3.127.421,3.127,3.127,0,0,1-.047,2.041,7,7,0,0,1-1.1,1.872c-.225.234-.234.281-.122.534.112.281.515.683,1.489,1.489a6.677,6.677,0,0,1,.861.918,2.458,2.458,0,0,0,.711.674c.309.15.337.15.449-.009a2.179,2.179,0,0,0,.178-.721,9.661,9.661,0,0,1,2.406-5.027,5.548,5.548,0,0,0,1.6-4.007c-.019-1.573-.187-2.078-.927-2.781A9.107,9.107,0,0,0,973.69-820.127Z" transform="translate(-877.777 843.805)"/>
        <path id="Path_1167" data-name="Path 1167" d="M1741.354-779.577a10.38,10.38,0,0,0-1.264.992,29.808,29.808,0,0,1-4.353,3.108,9.2,9.2,0,0,0-1.5,1.039c-.168.253-.244.159.805.955,1.713,1.3,3.108,4.9,3.576,9.212a44.888,44.888,0,0,1,.047,5.009c-.112,1.049-.243,2.041-.421,3.071a2.735,2.735,0,0,1-.5,1.451,4.618,4.618,0,0,0-.805,1.844,3.2,3.2,0,0,0,.122,1.47c.271.271,4.8-1.517,5.327-2.107.168-.178.168-.206.009-.646a12.688,12.688,0,0,1,0-4.1,31.7,31.7,0,0,1,.73-3.735,4.516,4.516,0,0,1,.833-.805c2.3-1.863,2.94-3.09,2.93-5.664a24.231,24.231,0,0,0-1.217-6.806,7.5,7.5,0,0,0-2.93-4.091A1.991,1.991,0,0,0,1741.354-779.577Zm.983,5.327c.449.281.824,1.161,1.1,2.6a11.409,11.409,0,0,1,.346,3.651c-.225.871-1.086,1.723-1.5,1.46a.89.89,0,0,1-.253-.412c-.337-.992-.889-2.444-1.367-3.586-.73-1.732-.73-2.387-.009-3.239C1741.2-774.419,1741.775-774.587,1742.337-774.25Z" transform="translate(-1574.766 807.084)"/>
        <path id="Path_1168" data-name="Path 1168" d="M1483.112-667.526a3.338,3.338,0,0,0-1.929,1.751c-.618,1.226-.683,2.6-.683,13.809,0,6.535.019,7.115.168,7.668a3.678,3.678,0,0,0,1.872,2.537c.449.2.609.215,2.284.2.992,0,1.938-.028,2.106-.047s.749-.066,1.292-.1a25,25,0,0,0,5.29-.8,5.749,5.749,0,0,0,2.612-2.387c.524-1.011.449-1.938-.88-11.281a82.016,82.016,0,0,0-1.694-9.737,1.9,1.9,0,0,0-1.957-1.442c-.384-.028-1.882-.075-3.323-.112-2.781-.065-3.342-.084-4.166-.178A1.984,1.984,0,0,0,1483.112-667.526Zm5.159,5.533a2.121,2.121,0,0,1,.983,1,15.032,15.032,0,0,1,.234,2.706c.028.618.094,1.882.14,2.809s.112,2.144.141,2.715c.066,1.414.131,2.668.2,3.567a2.1,2.1,0,0,1-.562,1.957,2.171,2.171,0,0,1-1.667.609,2.434,2.434,0,0,1-1.7-.618c-.637-.618-.646-.683-.571-3.8.028-1.526.075-2.977.094-3.23s.056-1.226.094-2.181a25.261,25.261,0,0,1,.346-4.587A1.7,1.7,0,0,1,1488.271-661.993Z" transform="translate(-1344.872 705.594)"/>
        <path id="Path_1169" data-name="Path 1169" d="M179-617.9a.178.178,0,0,0,.094.15c.056.028.066-.009.037-.084C179.066-618,179-618.028,179-617.9Z" transform="translate(-165.22 660.561)"/>
        <path id="Path_1171" data-name="Path 1171" d="M1728.963-536.1c-1,.983-.955.786-.683,2.893.14,1.077.178,1.208.187.74a7.381,7.381,0,0,1,.908-3.09C1730.123-537.04,1730.039-537.152,1728.963-536.1Z" transform="translate(-1569.302 586.978)"/>
      </g>
    </g>
  </g>
</svg>
