<svg xmlns="http://www.w3.org/2000/svg" width="256" height="256" viewBox="0 0 256 256">
  <g id="Highgate" transform="translate(1246 -473)">
    <rect id="Rectangle_14" data-name="Rectangle 14" width="256" height="256" rx="50" transform="translate(-1246 473)" fill="#e5f0ff"/>
    <g id="Group_57" data-name="Group 57" transform="translate(-1236.568 474.965)">
      <rect id="Rectangle_2" data-name="Rectangle 2" width="198" height="41" transform="translate(19.568 106.035)" fill="#053776"/>
      <path id="Union_2" data-name="Union 2" d="M82.824,22.826a10.363,10.363,0,0,1-2.5-.939,10.218,10.218,0,0,1-4.036-4.015,11.806,11.806,0,0,1-1.421-5.806,13.189,13.189,0,0,1,.847-4.832,10.619,10.619,0,0,1,2.56-3.807A9.62,9.62,0,0,1,81.613,1.34a12.058,12.058,0,0,1,4.2-.7,11.789,11.789,0,0,1,5.3,1.121,9.548,9.548,0,0,1,3.735,3.386l.092.141L92.559,7.21l-.107-.182a7.556,7.556,0,0,0-2.741-2.81A7.615,7.615,0,0,0,85.9,3.283,7.484,7.484,0,0,0,80.127,5.7a9.1,9.1,0,0,0-2.217,6.362,8.492,8.492,0,0,0,2.251,6.071A7.6,7.6,0,0,0,85.9,20.5,7.268,7.268,0,0,0,91,18.624a7.071,7.071,0,0,0,2.241-4.688H87.295V11.318H96.27v.891a11.056,11.056,0,0,1-2.846,8,10.343,10.343,0,0,1-7.756,2.939A12.325,12.325,0,0,1,82.824,22.826Zm-46.014,0a10.366,10.366,0,0,1-2.5-.939,10.221,10.221,0,0,1-4.036-4.015,11.813,11.813,0,0,1-1.42-5.806A13.207,13.207,0,0,1,29.7,7.233a10.637,10.637,0,0,1,2.56-3.807A9.628,9.628,0,0,1,35.6,1.34a12.061,12.061,0,0,1,4.2-.7,11.793,11.793,0,0,1,5.3,1.121,9.547,9.547,0,0,1,3.735,3.386l.092.141L46.545,7.21l-.107-.182A7.543,7.543,0,0,0,43.7,4.218a7.611,7.611,0,0,0-3.816-.935A7.483,7.483,0,0,0,34.114,5.7,9.1,9.1,0,0,0,31.9,12.066a8.492,8.492,0,0,0,2.252,6.071A7.6,7.6,0,0,0,39.882,20.5a7.27,7.27,0,0,0,5.1-1.877,7.072,7.072,0,0,0,2.24-4.688H41.281V11.318h8.975v.891a11.056,11.056,0,0,1-2.846,8,10.346,10.346,0,0,1-7.757,2.939A12.333,12.333,0,0,1,36.81,22.826Zm97.567-.24V1.113h11.37V3.774h-8.524V9.459h8.524v2.7h-8.524v7.718h8.524v2.7Zm-11.731,0V3.875h-5.9V1.113h14.649V3.875H125.52V22.585Zm-9.018,0-2.709-6.473h-7.912L100.3,22.585H97.2L106.949,0l9.773,22.585ZM103.9,13.6h6.088l-3.044-7.12ZM67.724,22.585V11.991H57V22.585H54.153V1.113H57V9.229H67.724V1.113h2.888V22.585Zm-46.028,0V1.113h2.845V22.585Zm-8.125,0V11.991H2.845V22.585H0V1.113H2.845V9.229H13.571V1.113h2.888V22.585Z" transform="translate(45.694 114.505)" fill="#fff"/>
    </g>
  </g>
</svg>
