<svg xmlns="http://www.w3.org/2000/svg" width="256" height="256" viewBox="0 0 256 256">
  <g id="Ikon" transform="translate(375 -483)">
    <rect id="Rectangle_16" data-name="Rectangle 16" width="256" height="256" rx="50" transform="translate(-375 483)" fill="#f9f9f9"/>
    <path id="Union_9" data-name="Union 9" d="M102.81,49a20.748,20.748,0,0,1-7.478-5.465,23.57,23.57,0,0,1-4.53-8.105A31.492,31.492,0,0,1,89.28,25.5a30.712,30.712,0,0,1,1.573-9.926,23.834,23.834,0,0,1,4.613-8.105C99.759,2.583,105.883,0,113.179,0s13.42,2.583,17.712,7.469a23.834,23.834,0,0,1,4.613,8.105,30.712,30.712,0,0,1,1.573,9.926,31.492,31.492,0,0,1-1.523,9.926,23.57,23.57,0,0,1-4.53,8.105A20.748,20.748,0,0,1,123.547,49a27.823,27.823,0,0,1-20.737,0Zm4.214-33.344c-1.049,2.275-1.56,5.5-1.56,9.848,0,4.4.493,7.617,1.507,9.848a6.317,6.317,0,0,0,6.207,4.08,6.252,6.252,0,0,0,6.166-4.079c1-2.242,1.466-5.371,1.466-9.849,0-4.372-.5-7.593-1.519-9.849a6.248,6.248,0,0,0-6.114-4.079A6.314,6.314,0,0,0,107.024,15.652Zm47.287,34.265.157-48.7h14.509l15.694,25.451-.465-25.451h12.88L197,49.917H184.672l-18.4-29.768s.467,29.309.467,29.768a10.641,10.641,0,0,1-3.221.2C159.833,50.121,154.311,49.917,154.311,49.917Zm-91.456,0L54.073,30.531l-5.044,7.258V49.917H34.83V1.038h14.2V20.975L62.388,1.038H76.307L63.883,18.862,79.764,49.917ZM0,49.917V.835H15.715V49.917Z" transform="translate(-345.544 585.5)" fill="#3a3436"/>
  </g>
</svg>
