<svg xmlns="http://www.w3.org/2000/svg" width="256" height="256" viewBox="0 0 256 256">
  <g id="Motability" transform="translate(2342 -1351)">
    <rect id="Rectangle_20" data-name="Rectangle 20" width="256" height="256" rx="50" transform="translate(-2342 1351)" fill="#f6faff"/>
    <g id="Group_64" data-name="Group 64" transform="translate(-2332.472 1353.016)">
      <path id="Path_31" data-name="Path 31" d="M73.06,103.206l-.839-9.292q-.216-2.335-.323-4.679h-.064c-.646,1.451-1.645,3.452-2.323,4.775l-4.774,9.356H63.574l-4.839-9.356c-.71-1.355-1.581-3.194-2.292-4.711h-.064c-.064,1.581-.226,3.388-.322,4.614l-.807,9.292H52.475L54.25,82.621h1.936L61.671,93.2c.838,1.613,1.9,3.71,2.58,5.291h.064c.646-1.58,1.645-3.581,2.517-5.291l5.42-10.583h1.936l1.839,20.585Zm14.486.356a7.663,7.663,0,1,1,7.744-7.647A7.494,7.494,0,0,1,87.546,103.562Zm0-12.745a5.091,5.091,0,1,0,4.775,5.1,4.851,4.851,0,0,0-4.775-5.1Zm20.746.129h-4.646v8.131a1.91,1.91,0,0,0,2.162,1.838,4.855,4.855,0,0,0,1.613-.226l-.579,2.614a4.782,4.782,0,0,1-1.324.129c-2.644,0-4.774-1.549-4.774-4.453V90.946H97.871V88.59h2.872V85.622l2.9-1.516V88.59h5.163l-.517,2.356Zm14.13,12.616a2.984,2.984,0,0,1-2.129-1.873,4.9,4.9,0,0,1-4.1,1.873,4.49,4.49,0,0,1-4.71-4.484c0-2.841,2.323-4.453,4.808-4.679l3.421-.322v-.936c0-1.322-.775-2.387-2.839-2.387a7.586,7.586,0,0,0-4.035,1.161l-.579-2.419a8.663,8.663,0,0,1,4.775-1.258c3.258,0,5.613,1.839,5.613,5.291v5.9a2.064,2.064,0,0,0,1.647,2.258l-1.873,1.871Zm-2.708-7.067-2.9.258a2.457,2.457,0,0,0-2.518,2.355,2.012,2.012,0,0,0,2.034,1.968,3.548,3.548,0,0,0,3.388-3.292V96.495Zm13.55,7.067a9.708,9.708,0,0,1-5.1-1.356V80.233H131.1v8.486a6.043,6.043,0,0,1,2.548-.485c4.163,0,7.97,2.968,7.97,7.549C141.62,100.626,138.2,103.562,133.264,103.562Zm.387-12.745a5.06,5.06,0,0,0-2.548.645v9.132a5.251,5.251,0,0,0,2.161.387c3.388,0,5.388-2.064,5.388-5.194a4.97,4.97,0,0,0-5-4.969Zm14.165-5.033a2.71,2.71,0,0,1-1.776-1.775,2.69,2.69,0,0,1,1.776-1.806,2.673,2.673,0,0,1,1.806,1.806A2.7,2.7,0,0,1,147.816,85.784Zm-1.485,2.806H149.3v14.616h-2.969Zm11.872,15.2a3.9,3.9,0,0,1-2.9-4.033V80.233h2.937V99.367a2.492,2.492,0,0,0,1.968,2.42Zm8.229-18a2.71,2.71,0,0,1-1.776-1.775,1.791,1.791,0,1,1,3.582,0A2.7,2.7,0,0,1,166.433,85.784Zm-1.485,2.806h2.967v14.616h-2.967Zm17.26,2.356h-4.645v8.131a1.91,1.91,0,0,0,2.162,1.838,4.873,4.873,0,0,0,1.613-.226l-.579,2.614a4.792,4.792,0,0,1-1.324.129c-2.646,0-4.775-1.549-4.775-4.453V90.946h-2.872V88.59h2.872V85.622l2.9-1.516V88.59h5.162l-.517,2.356Zm11.325,10.841c-2.195,5.389-4.582,7.744-7.454,9.034l-1.776-1.807c2.678-1,4.516-2.9,6.228-7.1L185.079,88.59h3.033l2.71,6.647c.389.936.84,2.1,1.259,3.291h.063c.389-1.129.84-2.226,1.227-3.194l2.744-6.743h2.806l-5.389,13.2Zm-139.632,9H52.517v-.561h3.405v.561H54.539v3.891H53.9Zm2.6-.894h.6v2h.013a1.192,1.192,0,0,1,1.046-.541c.841,0,1.218.523,1.218,1.4v1.933h-.6v-1.685c0-.759-.166-1.129-.689-1.16-.682,0-.989.548-.989,1.339v1.5h-.6Zm6.391,4.651a2.509,2.509,0,0,1-1.027.209,1.557,1.557,0,0,1-1.685-1.76,1.511,1.511,0,0,1,1.525-1.645c1.085,0,1.436.791,1.436,1.836H60.822a1.066,1.066,0,0,0,1.071,1.086,1.918,1.918,0,0,0,1-.326Zm-.39-1.806a.82.82,0,0,0-.81-.9.9.9,0,0,0-.875.9ZM65.8,109.89h.6v4.784h-.6Zm4.19,4.651a2.5,2.5,0,0,1-1.027.209,1.556,1.556,0,0,1-1.684-1.76,1.511,1.511,0,0,1,1.525-1.645c1.085,0,1.435.791,1.435,1.836H67.913a1.065,1.065,0,0,0,1.071,1.086,1.922,1.922,0,0,0,1-.326Zm-.388-1.806a.82.82,0,0,0-.81-.9.9.9,0,0,0-.874.9Zm1.594-1.085a2.079,2.079,0,0,1,1.071-.306c.931,0,1.308.459,1.308,1.346v1.346a5.636,5.636,0,0,0,.024.638h-.561v-.421h-.012a1.208,1.208,0,0,1-1.008.5c-.7,0-1.192-.306-1.192-1.014,0-.816.893-1.072,1.511-1.072.236,0,.4,0,.638.013,0-.561-.2-.848-.8-.848a1.529,1.529,0,0,0-.945.331l-.031-.51Zm1.78,1.472c-.128,0-.256-.012-.382-.012-.326,0-1.129.051-1.129.625a.573.573,0,0,0,.606.53.822.822,0,0,0,.906-.856Zm3.916,1.092h-.012a1.308,1.308,0,0,1-1.11.535c-.982,0-1.4-.874-1.4-1.76a1.453,1.453,0,0,1,1.4-1.645,1.161,1.161,0,0,1,1.078.523h.012v-1.977h.6v4.784h-.575Zm-.982.05c.676,0,.957-.671.957-1.212,0-.607-.312-1.225-.964-1.225s-.906.611-.892,1.2C74.994,113.545,75.261,114.265,75.906,114.265Zm2.615-4.249H79.2v.676h-.676Zm.039,1.4h.6v3.254h-.6Zm1.7,0h.58v.518h.012a1.17,1.17,0,0,1,1.065-.593c.842,0,1.219.523,1.219,1.4v1.933h-.6v-1.685c0-.759-.167-1.129-.69-1.16-.681,0-.988.548-.988,1.339v1.5h-.6V111.42Zm6.773,3.113c0,.99-.51,1.556-1.677,1.556a3.286,3.286,0,0,1-1.168-.223l.064-.553a2.482,2.482,0,0,0,1.174.293.984.984,0,0,0,1.008-1.117v-.318h-.013a1.358,1.358,0,0,1-1.091.5,1.43,1.43,0,0,1-1.39-1.6,1.561,1.561,0,0,1,1.455-1.728,1.069,1.069,0,0,1,1.072.561h.012v-.486h.556v3.113h0Zm-.6-1.448c0-.675-.313-1.256-.95-1.256-.606,0-.906.657-.906,1.211,0,.612.345,1.148.906,1.148A1.014,1.014,0,0,0,86.43,113.085Zm5.459-1.116a1.738,1.738,0,0,0-.65-.14,1.113,1.113,0,0,0-1.046,1.219,1.1,1.1,0,0,0,1.085,1.218,1.251,1.251,0,0,0,.643-.186l.046.536a1.815,1.815,0,0,1-.752.133,1.644,1.644,0,0,1-1.658-1.7,1.605,1.605,0,0,1,1.658-1.7,2.241,2.241,0,0,1,.727.128Zm.92-.319a2.078,2.078,0,0,1,1.07-.306c.931,0,1.308.459,1.308,1.346v1.346a5.015,5.015,0,0,0,.026.638h-.561v-.421h-.013a1.2,1.2,0,0,1-1.008.5c-.7,0-1.192-.306-1.192-1.014,0-.816.894-1.072,1.511-1.072.236,0,.4,0,.638.013,0-.561-.2-.848-.8-.848a1.531,1.531,0,0,0-.945.331l-.03-.51Zm1.779,1.472c-.128,0-.254-.012-.383-.012-.326,0-1.129.051-1.129.625a.573.573,0,0,0,.606.53.822.822,0,0,0,.906-.856v-.287Zm1.614-1.7h.561v.5h.012a.991.991,0,0,1,.849-.58,1.69,1.69,0,0,1,.4.044v.536a.9.9,0,0,0-.332-.058c-.536,0-.887.51-.887,1.326v1.48h-.6Zm4.011,2.615a1.6,1.6,0,0,0,.747.23c.274,0,.612-.116.612-.466,0-.593-1.409-.542-1.409-1.455,0-.676.5-1,1.148-1a2.506,2.506,0,0,1,.746.128l-.05.522a1.778,1.778,0,0,0-.632-.164c-.306,0-.575.127-.575.395,0,.663,1.41.472,1.41,1.511a1.023,1.023,0,0,1-1.136,1.014,1.873,1.873,0,0,1-.893-.178l.032-.536ZM105,111.969a1.744,1.744,0,0,0-.651-.14,1.114,1.114,0,0,0-1.046,1.219,1.1,1.1,0,0,0,1.086,1.218,1.258,1.258,0,0,0,.645-.186l.043.536a1.82,1.82,0,0,1-.753.133,1.645,1.645,0,0,1-1.658-1.7,1.606,1.606,0,0,1,1.658-1.7,2.261,2.261,0,0,1,.729.128Zm.765-2.079h.6v2h.013a1.187,1.187,0,0,1,1.044-.541c.842,0,1.22.523,1.22,1.4v1.933h-.6v-1.685c0-.759-.167-1.129-.69-1.16-.681,0-.988.548-.988,1.339v1.5h-.6Zm6.392,4.651a2.5,2.5,0,0,1-1.027.209,1.557,1.557,0,0,1-1.685-1.76,1.51,1.51,0,0,1,1.524-1.645c1.086,0,1.437.791,1.437,1.836h-2.323a1.065,1.065,0,0,0,1.07,1.086,1.922,1.922,0,0,0,1-.326v.6Zm-.389-1.806a.822.822,0,0,0-.811-.9.9.9,0,0,0-.872.9h1.684Zm1.435-1.315h.56v.473h.013a1.1,1.1,0,0,1,1.034-.549.958.958,0,0,1,.925.631,1.16,1.16,0,0,1,1.009-.631c.829,0,1.129.536,1.129,1.244v2.086h-.6v-1.939c0-.4-.1-.9-.581-.9-.612,0-.856.6-.856,1.2v1.64h-.6v-1.939c0-.4-.1-.9-.579-.9-.612,0-.856.6-.856,1.2v1.64h-.6V111.42h0Zm8.17,3.121a2.5,2.5,0,0,1-1.027.209,1.557,1.557,0,0,1-1.685-1.76,1.51,1.51,0,0,1,1.524-1.645c1.086,0,1.437.791,1.437,1.836H119.3a1.065,1.065,0,0,0,1.072,1.086,1.921,1.921,0,0,0,1-.326v.6Zm-.389-1.806a.82.82,0,0,0-.81-.9.9.9,0,0,0-.875.9Zm3.6-.83h-.766v-.486h.766v-.3c0-.791.2-1.307,1.091-1.307a2.629,2.629,0,0,1,.4.037l-.026.486a.974.974,0,0,0-.287-.038c-.517,0-.581.332-.581.771v.35h.861v.486h-.861v2.768h-.6V111.9Zm3.534-.56a1.6,1.6,0,0,1,1.651,1.7,1.655,1.655,0,1,1-3.31,0A1.606,1.606,0,0,1,128.124,111.344Zm0,2.921a1.09,1.09,0,0,0,1.014-1.218,1.034,1.034,0,1,0-2.034,0A1.091,1.091,0,0,0,128.124,114.265Zm2.457-2.845h.56v.5h.013a.989.989,0,0,1,.849-.58,1.687,1.687,0,0,1,.395.044v.536a.9.9,0,0,0-.332-.058c-.536,0-.886.51-.886,1.326v1.48h-.6Zm6.555,2.795h-.013a1.3,1.3,0,0,1-1.109.535c-.981,0-1.4-.874-1.4-1.76a1.454,1.454,0,0,1,1.4-1.645,1.165,1.165,0,0,1,1.079.523h.011v-1.977h.6v4.784h-.576v-.46Zm-.981.05c.675,0,.955-.671.955-1.212,0-.607-.312-1.225-.961-1.225s-.9.611-.895,1.2C135.244,113.545,135.51,114.265,136.155,114.265Zm2.616-4.249h.675v.676h-.675Zm.037,1.4h.6v3.254h-.6Zm1.455,2.615a1.607,1.607,0,0,0,.747.23c.273,0,.612-.116.612-.466,0-.593-1.409-.542-1.409-1.455,0-.676.5-1,1.148-1a2.52,2.52,0,0,1,.747.128l-.052.522a1.76,1.76,0,0,0-.631-.164c-.306,0-.576.127-.576.395,0,.663,1.411.472,1.411,1.511a1.023,1.023,0,0,1-1.135,1.014,1.88,1.88,0,0,1-.895-.178l.032-.536Zm2.876-2.385a2.083,2.083,0,0,1,1.072-.306c.931,0,1.307.459,1.307,1.346v1.346a5.255,5.255,0,0,0,.026.638h-.56v-.421h-.013a1.209,1.209,0,0,1-1.007.5c-.7,0-1.194-.306-1.194-1.014,0-.816.892-1.072,1.512-1.072.234,0,.4,0,.636.013,0-.561-.2-.848-.8-.848a1.529,1.529,0,0,0-.945.331l-.031-.51Zm1.779,1.472c-.126,0-.254-.012-.382-.012-.326,0-1.129.051-1.129.625a.574.574,0,0,0,.606.53.822.822,0,0,0,.9-.856v-.287Zm1.615-3.233h.6v1.977h.013a1.159,1.159,0,0,1,1.077-.523,1.454,1.454,0,0,1,1.4,1.645c0,.893-.415,1.76-1.4,1.76a1.31,1.31,0,0,1-1.109-.535h-.013v.459h-.573Zm1.564,1.939c-.651,0-.964.618-.964,1.225,0,.541.28,1.212.957,1.212.642,0,.911-.72.9-1.231C149,112.447,148.747,111.829,148.1,111.829Zm2.409-1.939h.6v4.784h-.6Zm4.191,4.651a2.5,2.5,0,0,1-1.027.209,1.557,1.557,0,0,1-1.685-1.76,1.511,1.511,0,0,1,1.526-1.645c1.084,0,1.435.791,1.435,1.836h-2.323a1.065,1.065,0,0,0,1.072,1.086,1.921,1.921,0,0,0,1-.326v.6Zm-.389-1.806a.82.82,0,0,0-.81-.9.9.9,0,0,0-.875.9Zm3.745,1.48h-.013a1.305,1.305,0,0,1-1.109.535c-.984,0-1.4-.874-1.4-1.76a1.454,1.454,0,0,1,1.4-1.645,1.159,1.159,0,0,1,1.077.523h.013v-1.977h.6v4.784h-.573Zm-.984.05c.677,0,.957-.671.957-1.212,0-.607-.312-1.225-.964-1.225s-.9.611-.892,1.2C156.156,113.545,156.424,114.265,157.069,114.265Zm4.35-2.845h.576v.46h.013a1.3,1.3,0,0,1,1.1-.536,1.454,1.454,0,0,1,1.4,1.645c0,.894-.415,1.76-1.4,1.76a1.165,1.165,0,0,1-1.086-.523h-.011v1.786h-.6V111.42Zm1.563.409c-.649,0-.961.618-.961,1.225,0,.541.28,1.212.955,1.212.645,0,.914-.72.9-1.231C163.889,112.447,163.632,111.829,162.981,111.829Zm4.83,2.712a2.513,2.513,0,0,1-1.027.209,1.557,1.557,0,0,1-1.685-1.76,1.51,1.51,0,0,1,1.524-1.645c1.086,0,1.437.791,1.437,1.836h-2.323a1.065,1.065,0,0,0,1.072,1.086,1.921,1.921,0,0,0,1-.326v.6Zm-.389-1.806a.822.822,0,0,0-.81-.9.9.9,0,0,0-.875.9Zm2.883-1.39a1.6,1.6,0,0,1,1.651,1.7,1.655,1.655,0,1,1-3.309,0A1.6,1.6,0,0,1,170.3,111.344Zm0,2.921a1.09,1.09,0,0,0,1.014-1.218,1.034,1.034,0,1,0-2.034,0A1.091,1.091,0,0,0,170.3,114.265Zm2.455-2.845h.576v.46h.011a1.3,1.3,0,0,1,1.1-.536c.945,0,1.4.771,1.4,1.645,0,.894-.415,1.76-1.4,1.76a1.163,1.163,0,0,1-1.086-.523h-.013v1.786h-.6V111.42Zm1.563.409c-.651,0-.964.618-.964,1.225,0,.541.282,1.212.957,1.212.645,0,.911-.72.9-1.231C175.228,112.447,174.973,111.829,174.322,111.829Zm2.412-1.939h.6v4.784h-.6Zm4.192,4.651a2.517,2.517,0,0,1-1.029.209,1.555,1.555,0,0,1-1.683-1.76,1.51,1.51,0,0,1,1.524-1.645c1.086,0,1.435.791,1.435,1.836h-2.32a1.064,1.064,0,0,0,1.07,1.086,1.93,1.93,0,0,0,1-.326v.6Zm-.391-1.806a.82.82,0,0,0-.81-.9.9.9,0,0,0-.872.9Z" transform="translate(17.585 28.187)" fill="#234b8d" fill-rule="evenodd"/>
      <path id="Path_32" data-name="Path 32" d="M27.794,94.694s-8.249-8.177-9.207-11.517c-.942-3.285,1.541-3.611,2.709-1.5C22.31,83.511,21.875,84.832,27.794,94.694Zm-.9.469S16.866,89.294,15.108,86.3c-1.73-2.947.595-3.881,2.25-2.126C18.8,85.695,18.7,87.084,26.89,95.163Zm-.759.679s-11.17-3.192-13.617-5.655c-2.408-2.425-.389-3.906,1.651-2.619C15.936,88.684,16.192,90.053,26.131,95.842Zm-.567.848s-11.612-.313-14.6-2.093c-2.936-1.749-1.348-3.686.949-2.947C13.91,92.292,14.5,93.554,25.564,96.69Zm-.339.961s-11.324,2.584-14.657,1.6c-3.279-.964-2.223-3.236.186-3.091C12.844,96.29,13.727,97.366,25.225,97.652Zm-.088,1.015s-10.326,5.319-13.8,5.2c-3.416-.119-2.958-2.58-.589-3.039C12.8,100.426,13.928,101.249,25.137,98.666Zm.167,1s-8.679,7.72-12.071,8.467c-3.338.733-3.507-1.765-1.327-2.8,1.891-.9,3.184-.379,13.4-5.669Zm.411.934s-6.487,9.636-9.587,11.2c-3.051,1.542-3.835-.837-1.98-2.38,1.609-1.338,2.989-1.159,11.568-8.822Zm.63.8s-3.887,10.946-6.5,13.235c-2.572,2.25-3.923.143-2.512-1.814C18.56,111.13,19.942,110.961,26.345,101.406Zm.81.619s-1.042,11.569-3,14.436c-1.93,2.819-3.765,1.114-2.883-1.132C22.033,113.379,23.33,112.871,27.155,102.025Zm.938.4s1.867,11.464.68,14.729c-1.168,3.212-3.368,2.015-3.073-.38C25.956,114.695,27.085,113.88,28.093,102.422Zm1.008.152s4.661,10.641,4.322,14.1c-.332,3.4-2.762,2.791-3.071.4C30.084,114.992,30.975,113.923,29.1,102.575Zm1.014-.1s7.16,9.147,7.691,12.579c.523,3.377-1.981,3.39-2.876,1.149C34.154,114.256,34.752,113,30.115,102.471Zm.957-.351s9.209,7.079,10.579,10.271c1.347,3.142-1.077,3.775-2.5,1.828-1.236-1.691-.969-3.058-8.078-12.1Zm.838-.58s10.681,4.566,12.8,7.319c2.085,2.707-.1,3.923-1.967,2.392C41.127,109.92,41.045,108.53,31.91,101.54Zm.669-.768s11.481,1.767,14.218,3.9c2.693,2.1.876,3.827-1.31,2.806C43.589,106.6,43.164,105.27,32.579,100.772Zm.457-.912s11.559-1.144,14.744.246c3.131,1.368,1.8,3.491-.572,3.044-2.058-.386-2.8-1.565-14.171-3.289Zm.214-1s10.912-3.983,14.34-3.428c3.374.546,2.612,2.933.2,3.091-2.088.137-3.1-.82-14.544.338Zm-.039-1.019s9.578-6.572,13.038-6.887c3.4-.31,3.257,2.19.966,2.942-1.99.653-3.207-.021-14,3.945Zm-.291-.976s7.643-8.747,10.915-9.913c3.218-1.147,3.7,1.311,1.667,2.61C43.737,90.692,42.39,90.341,32.92,96.869Zm-.526-.875S37.623,85.622,40.5,83.678c2.833-1.911,3.91.35,2.264,2.114C41.337,87.323,39.943,87.317,32.394,95.995Zm-.726-.715s2.485-11.347,4.791-13.945c2.268-2.556,3.874-.633,2.718,1.484-1,1.837-2.355,2.178-7.509,12.461Zm-.88-.513s-.416-11.609,1.171-14.7c1.561-3.039,3.594-1.577,3,.761-.516,2.03-1.738,2.7-4.173,13.937Zm-.981-.277s-3.288-11.141-2.52-14.528c.757-3.333,3.091-2.422,3.1-.009.006,2.094-1.014,3.044-.577,14.537Zm-1.026-.024s-5.957-9.973-6.054-13.445c-.1-3.415,2.39-3.114,3-.778C26.251,82.269,25.5,83.442,28.781,94.465Z" transform="translate(12.69 27.915)" fill="#e9b040" fill-rule="evenodd"/>
    </g>
  </g>
</svg>
