<svg xmlns="http://www.w3.org/2000/svg" width="256" height="256" viewBox="0 0 256 256">
  <g id="Nokia" transform="translate(1584 -465)">
    <rect id="Rectangle_13" data-name="Rectangle 13" width="256" height="256" rx="50" transform="translate(-1584 465)" fill="#f0f5ff"/>
    <path id="nokia-logo" d="M9.329,32.256H0V.528H16.135L34.646,24.215V.528h9.329V32.256H28.167L9.329,8.164V32.256m79.282-9.811c0,4.41-.78,5.931-2.071,7.389-1.979,2.17-4.858,2.824-10.407,2.824H60.2c-5.549,0-8.433-.654-10.41-2.824-1.291-1.458-2.071-2.979-2.071-7.389V10.213c0-4.408.78-5.927,2.071-7.387C51.774.654,54.656,0,60.2,0H76.134c5.549,0,8.428.654,10.407,2.826,1.291,1.46,2.071,2.979,2.071,7.387V22.444m-12.87,2.175c2.131,0,2.882-.126,3.393-.591.477-.434.688-.993.688-2.858V11.487c0-1.865-.211-2.42-.688-2.855-.511-.467-1.262-.591-3.393-.591H60.595c-2.131,0-2.882.124-3.391.591-.48.436-.69.991-.69,2.855V21.17c0,1.865.211,2.424.69,2.858.509.465,1.259.591,3.391.591H75.742M102.17.528V32.256H92.422V.528h9.748m16.469,0h12.87l-17.37,14.839L133.73,32.256H119.959L102.17,15.709,118.639.528m16.888,0h9.751V32.256h-9.751m46.92,0-2.885-5.527H160.7l-2.851,5.524h-10.77L164.358.528h12.119l17.278,31.728H182.448M164.087,19.838h12.122L170.147,8.351l-6.06,11.487" transform="translate(-1552.878 576.671)" fill="#1c4598"/>
  </g>
</svg>
