<svg xmlns="http://www.w3.org/2000/svg" width="256" height="256" viewBox="0 0 256 256">
  <g id="HM_Prison" data-name="HM Prison" transform="translate(1584 -1351)">
    <rect id="Rectangle_24" data-name="Rectangle 24" width="256" height="256" rx="50" transform="translate(-1584 1351)" fill="#f9f9f9"/>
    <g id="_332371953_3403045913348840_6678686052470318257_n" data-name="332371953_3403045913348840_6678686052470318257_n" transform="translate(-2325.273 2496.042)">
      <path id="Subtraction_13" data-name="Subtraction 13" d="M117.46,87.921a14.62,14.62,0,0,1-2.934-.239,7.863,7.863,0,0,1-1.917-.809,5.915,5.915,0,0,1-1.443-1.2,5.3,5.3,0,0,1-.933-1.548,5.969,5.969,0,0,1-.389-1.858l-.03-.5,1.1-.03,1.113-.03.12.712a4.147,4.147,0,0,0,.552,1.5,3.741,3.741,0,0,0,1.057,1.107,4.836,4.836,0,0,0,1.524.684,7.609,7.609,0,0,0,1.95.234,7.161,7.161,0,0,0,2.186-.3,3.508,3.508,0,0,0,1.494-.894,2.725,2.725,0,0,0,.652-2.647c-.32-1.092-1.412-1.784-3.65-2.316a31.671,31.671,0,0,1-5.094-1.434,5.5,5.5,0,0,1-1.086-.677,3.777,3.777,0,0,1-.766-.836,3.485,3.485,0,0,1-.454-1.007,4.511,4.511,0,0,1-.15-1.19,4.848,4.848,0,0,1,.308-1.8,4.567,4.567,0,0,1,.985-1.49,6.079,6.079,0,0,1,3.319-1.724,9.034,9.034,0,0,1,1.678-.117c.481,0,.982.019,1.412.053a5.371,5.371,0,0,1,2.208.578,5.969,5.969,0,0,1,.994.606,5.227,5.227,0,0,1,.813.761,4.423,4.423,0,0,1,.6.886,6.615,6.615,0,0,1,.431,1.2,5.093,5.093,0,0,1,.19,1.177v.331l-1.123-.03h-.014a6.555,6.555,0,0,1-.977-.058c-.149-.036-.157-.1-.171-.223a7.9,7.9,0,0,0-.231-.883,3.53,3.53,0,0,0-.648-1.1,3.2,3.2,0,0,0-.956-.793,4.808,4.808,0,0,0-1.2-.395,6.97,6.97,0,0,0-1.365-.132,6.716,6.716,0,0,0-1.309.124,4.348,4.348,0,0,0-1.121.372,2.479,2.479,0,0,0-.982.917,2.906,2.906,0,0,0-.421,1.257,2.426,2.426,0,0,0,.12,1.037,1.734,1.734,0,0,0,.582.81,4.286,4.286,0,0,0,1.355.708c.643.22,1.585.448,2.9.746,1,.229,1.743.418,2.329.6a9.159,9.159,0,0,1,1.471.567,4.845,4.845,0,0,1,1.213.895,4.712,4.712,0,0,1,.882,1.181,3.227,3.227,0,0,1,.361,1.735,4.561,4.561,0,0,1-.181,1.775,4.2,4.2,0,0,1-.65,1.282,5.009,5.009,0,0,1-1.077,1.055,6.643,6.643,0,0,1-1.457.794,8.956,8.956,0,0,1-1.789.5A9.075,9.075,0,0,1,117.46,87.921Zm-73.026-.073a6.241,6.241,0,0,1-2.147-.374,4.31,4.31,0,0,1-1.657-1.056l-.451-.481v1.694H38.073V69.885h2.106v6.537l.331-.441a3.865,3.865,0,0,1,1.8-1.243,7.957,7.957,0,0,1,2.072-.222,6.883,6.883,0,0,1,1.5.132,4.8,4.8,0,0,1,1.34.554,5.359,5.359,0,0,1,1.15.939,6.319,6.319,0,0,1,.915,1.275,7.566,7.566,0,0,1,.636,1.564,10.84,10.84,0,0,1,0,4.472,7.153,7.153,0,0,1-.612,1.538,5.826,5.826,0,0,1-.9,1.239,5.1,5.1,0,0,1-2.532,1.454A6.316,6.316,0,0,1,44.433,87.849Zm-.442-11.474a5.249,5.249,0,0,0-.614.037,3.686,3.686,0,0,0-3.068,3.028,6.631,6.631,0,0,0-.16,1.725,8.687,8.687,0,0,0,.08,1.242,5.13,5.13,0,0,0,.25,1.03,3.835,3.835,0,0,0,.436.859,4.053,4.053,0,0,0,.638.729,3.268,3.268,0,0,0,1.122.7,4.113,4.113,0,0,0,1.415.208,3.292,3.292,0,0,0,2.156-.612,3.6,3.6,0,0,0,1.278-1.808,7.232,7.232,0,0,0,.346-2.794C47.723,78,46.273,76.375,43.992,76.375ZM169.361,87.832a6.171,6.171,0,0,1-3.516-.955,5.357,5.357,0,0,1-2.049-2.8,7.123,7.123,0,0,1-.291-1.189,10.079,10.079,0,0,1-.121-1.331,10.91,10.91,0,0,1,.05-1.367,9.062,9.062,0,0,1,.222-1.3,6.435,6.435,0,0,1,.593-1.506,5.921,5.921,0,0,1,.915-1.248,5.478,5.478,0,0,1,1.184-.934,5.218,5.218,0,0,1,1.4-.564,8.321,8.321,0,0,1,1.658-.128,9.7,9.7,0,0,1,1.741.128,4.931,4.931,0,0,1,2.271,1.115,4.49,4.49,0,0,1,1.308,2.093l.017.055.009.031.019.061,0,.006h0c.138.445.207.669.121.785s-.3.122-.77.122H172.73l-.06-.281a3.464,3.464,0,0,0-.953-1.564,2.685,2.685,0,0,0-.935-.517,4.067,4.067,0,0,0-1.233-.165h-.067a3.466,3.466,0,0,0-2.721,1.14,5.489,5.489,0,0,0-1.119,3.291,6.91,6.91,0,0,0,.254,2.4,4.293,4.293,0,0,0,1,1.787,3.089,3.089,0,0,0,1.1.714,3.792,3.792,0,0,0,1.37.243,4.706,4.706,0,0,0,.64-.045,3.139,3.139,0,0,0,2.737-2.527l.11-.461,1.053-.03c.153-.005.307-.008.458-.008a2.7,2.7,0,0,1,.635.038,2.668,2.668,0,0,1-.189.93,8.764,8.764,0,0,1-.482,1.276,5.146,5.146,0,0,1-4.963,2.7Zm-113.721,0a6.258,6.258,0,0,1-2.069-.291,3.319,3.319,0,0,1-1.4-.922,3.157,3.157,0,0,1-.8-2.4,4.46,4.46,0,0,1,.119-1.163,3.13,3.13,0,0,1,1.142-1.64,4.546,4.546,0,0,1,1.059-.558,10.682,10.682,0,0,1,1.531-.441c.587-.129,1.279-.25,2.115-.368a5,5,0,0,0,2.306-.7.949.949,0,0,0,.252-.42,1.809,1.809,0,0,0,.079-.571,2.046,2.046,0,0,0-.361-1.164,1.949,1.949,0,0,0-.991-.62,4.881,4.881,0,0,0-1.45-.2,5.312,5.312,0,0,0-1.663.254,2.025,2.025,0,0,0-1.1.749,3.133,3.133,0,0,0-.341.872l-.11.511-.993.03-.272,0a3.048,3.048,0,0,1-.79-.053c-.06-.06-.051-.336.025-.719a5.21,5.21,0,0,1,.326-1.065A3.857,3.857,0,0,1,53.314,75.6a4.489,4.489,0,0,1,1.6-.839,5.739,5.739,0,0,1,.788-.177,6.98,6.98,0,0,1,.948-.046c.255,0,.58,0,1.021.012A5.972,5.972,0,0,1,59.9,74.8a3.76,3.76,0,0,1,1.835,1.494,3.52,3.52,0,0,1,.332,1.475c.058.784.069,2.031.069,3.919a31.455,31.455,0,0,0,.1,4.051c.082.14.156.186.432.186.055,0,.119,0,.2-.005l.522-.03v1.675l-.351.13a3.11,3.11,0,0,1-.97.133,2.791,2.791,0,0,1-1.136-.193,1.526,1.526,0,0,1-.566-.55,1.468,1.468,0,0,1-.236-.753c0-.155-.029-.3-.06-.3a2.971,2.971,0,0,0-.541.441,4.792,4.792,0,0,1-1.708,1.013A6.586,6.586,0,0,1,55.64,87.832Zm4.155-6.744a.022.022,0,0,0-.014.006,6.693,6.693,0,0,1-2.477.572,12.42,12.42,0,0,0-2.148.441,2.642,2.642,0,0,0-.584.278,2.324,2.324,0,0,0-.436.374,1.966,1.966,0,0,0-.451.789,1.836,1.836,0,0,0-.044.842,1.748,1.748,0,0,0,.957,1.257,3.042,3.042,0,0,0,1.624.231,6.786,6.786,0,0,0,1.08-.046,2.757,2.757,0,0,0,.734-.265,4.31,4.31,0,0,0,1.064-.693,2.535,2.535,0,0,0,.62-.851,3.525,3.525,0,0,0,.19-1.765C59.892,81.46,59.855,81.089,59.795,81.089Zm122.539,6.742a8.791,8.791,0,0,1-1.773-.149,5.308,5.308,0,0,1-1.85-.827,5.411,5.411,0,0,1-1.391-1.447,6.791,6.791,0,0,1-.876-1.985,9.4,9.4,0,0,1-.3-2.439,7.412,7.412,0,0,1,.322-2.18,6.668,6.668,0,0,1,.906-1.868,5.977,5.977,0,0,1,1.4-1.428,5.581,5.581,0,0,1,1.811-.86,7.387,7.387,0,0,1,1.628-.141,7.485,7.485,0,0,1,1.37.1,4.426,4.426,0,0,1,2.4,1.384,6.155,6.155,0,0,1,1.389,2.08,8.962,8.962,0,0,1,.576,2.8l.06.943h-4.783c-3.98,0-4.794.022-4.833.13a2.156,2.156,0,0,0,.08.894,5.42,5.42,0,0,0,.381,1.142,3.308,3.308,0,0,0,1.114,1.3,3.848,3.848,0,0,0,1.693.624,4.9,4.9,0,0,0,.685.048,4.262,4.262,0,0,0,1.1-.14,3.4,3.4,0,0,0,.932-.4,2.459,2.459,0,0,0,1.109-1.454l.12-.441h2.166l-.06.271a5.768,5.768,0,0,1-.56,1.453,4.977,4.977,0,0,1-.891,1.165,4.879,4.879,0,0,1-1.188.843,5.487,5.487,0,0,1-1.451.489A7.534,7.534,0,0,1,182.333,87.831Zm-.379-11.465a3.629,3.629,0,0,0-.582.046,3.255,3.255,0,0,0-1.04.362,3.827,3.827,0,0,0-.9.7,3.4,3.4,0,0,0-.643.871,6.389,6.389,0,0,0-.38,1.285l-.06.281h7.35l-.07-.431a4.187,4.187,0,0,0-.31-.941,4.585,4.585,0,0,0-.513-.9,3.094,3.094,0,0,0-1.225-.926A4.045,4.045,0,0,0,181.955,76.366ZM30.011,87.828a10.453,10.453,0,0,1-1.315-.082,4.956,4.956,0,0,1-1.06-.235,5.779,5.779,0,0,1-2.982-2.36,7.511,7.511,0,0,1-1.019-4.037,8.494,8.494,0,0,1,.18-1.762,7.1,7.1,0,0,1,.523-1.563,5.972,5.972,0,0,1,.841-1.31,5.269,5.269,0,0,1,1.133-1,5.415,5.415,0,0,1,1.513-.752,6.441,6.441,0,0,1,1.814-.2c.128,0,.279,0,.463.005a5.189,5.189,0,0,1,2.055.281,5.667,5.667,0,0,1,2.2,1.446,6.428,6.428,0,0,1,1.376,2.394,5.992,5.992,0,0,1,.271,2.456,6.57,6.57,0,0,1-.221,2.406,7.054,7.054,0,0,1-.671,1.513,5.9,5.9,0,0,1-.959,1.215,5.522,5.522,0,0,1-1.222.894,5.913,5.913,0,0,1-1.46.549A6.732,6.732,0,0,1,30.011,87.828Zm-.177-11.452a4.122,4.122,0,0,0-.544.036,3.485,3.485,0,0,0-2,1,4.662,4.662,0,0,0-1.2,2.167,6.8,6.8,0,0,0-.147,1.591,7.433,7.433,0,0,0,.147,1.6,5.357,5.357,0,0,0,.415,1.131,3.868,3.868,0,0,0,.648.875,3.738,3.738,0,0,0,2.731,1.176,3.787,3.787,0,0,0,1.913-.515,3.64,3.64,0,0,0,.8-.632,3.689,3.689,0,0,0,.614-.871,6.734,6.734,0,0,0,.01-5.515,3.714,3.714,0,0,0-1.4-1.5A3.863,3.863,0,0,0,29.834,76.376ZM82.322,87.827a8.139,8.139,0,0,1-1.877-.2,5.828,5.828,0,0,1-1.473-.593,5.469,5.469,0,0,1-1.215-.951,5.912,5.912,0,0,1-.931-1.282A7.2,7.2,0,0,1,76.2,83.22,8.565,8.565,0,0,1,76.02,81.1a8.988,8.988,0,0,1,.244-2.146,6.845,6.845,0,0,1,1.108-2.271,5.614,5.614,0,0,1,3.042-2.024A6.352,6.352,0,0,1,81.9,74.53c.159,0,.337,0,.542.007a5.382,5.382,0,0,1,2.075.281,5.9,5.9,0,0,1,1.294.679,5.731,5.731,0,0,1,1.066.964,5.99,5.99,0,0,1,.808,1.218,6.656,6.656,0,0,1,.522,1.44,9.3,9.3,0,0,1,.2,1.949,9.846,9.846,0,0,1-.152,1.971,6.186,6.186,0,0,1-1.543,3,5.683,5.683,0,0,1-2.829,1.644A7.4,7.4,0,0,1,82.322,87.827Zm-.113-11.473a4.963,4.963,0,0,0-.6.048,3.994,3.994,0,0,0-2.817,2.146,5.3,5.3,0,0,0-.4,1.326,7.736,7.736,0,0,0-.106,1.5,7.274,7.274,0,0,0,.18,1.468,4.363,4.363,0,0,0,.462,1.218,3.851,3.851,0,0,0,.635.812,3.763,3.763,0,0,0,.792.591,3.825,3.825,0,0,0,3.131.265,3.892,3.892,0,0,0,1.177-.666,4.62,4.62,0,0,0,1.424-2.943,6.375,6.375,0,0,0-.5-3.6,4.156,4.156,0,0,0-1.128-1.394,3.109,3.109,0,0,0-1.489-.672c-.239-.04-.522-.08-.632-.09A.811.811,0,0,0,82.209,76.354ZM131.7,87.816c-.182,0-.373,0-.584-.014a5.139,5.139,0,0,1-3.85-1.474,5.308,5.308,0,0,1-1-1.3,7.305,7.305,0,0,1-.672-1.707,9.841,9.841,0,0,1-.236-2.162,8.118,8.118,0,0,1,.185-2.049,6.78,6.78,0,0,1,1.579-2.854,5.6,5.6,0,0,1,2.6-1.6,7.094,7.094,0,0,1,1.641-.152,7.431,7.431,0,0,1,1.608.142,4.815,4.815,0,0,1,1.846.994,5.824,5.824,0,0,1,1.4,1.753,8.18,8.18,0,0,1,.882,3.389l.06,1.033h-4.773c-2.492,0-4.791.038-4.823.08a2.265,2.265,0,0,0,.061.835,5.472,5.472,0,0,0,.28,1.06,3.654,3.654,0,0,0,3.64,2.156,4.8,4.8,0,0,0,1.053-.114,3.045,3.045,0,0,0,.85-.33,2.551,2.551,0,0,0,.658-.552,3.123,3.123,0,0,0,.477-.779l.281-.652H135.9a3.039,3.039,0,0,1,1.033.09,6.874,6.874,0,0,1-.251.822,5.548,5.548,0,0,1-.4.908,4.574,4.574,0,0,1-.532.769,4.3,4.3,0,0,1-.669.63,4.659,4.659,0,0,1-.809.491,5.517,5.517,0,0,1-1.221.453A5.877,5.877,0,0,1,131.7,87.816Zm-.511-11.448a4.156,4.156,0,0,0-.665.054,3.05,3.05,0,0,0-1.029.366,3.8,3.8,0,0,0-.889.7,3.877,3.877,0,0,0-.654.928,3.193,3.193,0,0,0-.325,1.054l-.05.441h7.279l-.06-.441a5.1,5.1,0,0,0-.3-.983,3.561,3.561,0,0,0-1.33-1.557A3.661,3.661,0,0,0,131.193,76.368ZM70.158,87.662h0l-1.424-.06a15.875,15.875,0,0,1-1.8-.17,2.026,2.026,0,0,1-1.223-1.1c-.2-.434-.211-.622-.241-5.043l-.03-4.582h-2.1V74.7h2.106V72.863a13.74,13.74,0,0,1,.07-1.915,2.575,2.575,0,0,1,.7-.044c.121,0,.246,0,.374,0l1.013.03.03,1.875.02,1.885h2.507v2.015l-1.253-.03-1.253-.03v8.482l.251.241c.222.232.316.251,1.253.251h1v2.035Zm3.81-.02h0l-1.022-.03-1.033-.03-.03-6.317c-.011-3.729,0-6.38.03-6.447s.365-.12,1.053-.12h1V87.642Zm-72.091,0h0V69.875l4.642.03c2.117.02,3.25.035,3.96.065a4.3,4.3,0,0,1,1.223.155,4.97,4.97,0,0,1,2.067,1.226A4.563,4.563,0,0,1,14.882,73.4a7.457,7.457,0,0,1,.172,1.755,6.538,6.538,0,0,1-.182,1.695,4.446,4.446,0,0,1-3.329,3.3,19.55,19.55,0,0,1-3.94.16H4.284l-.02,3.63-.03,3.64-1.173.03ZM4.284,71.87v6.447l3.038-.03c2.816-.03,3.05-.047,3.579-.261a2.669,2.669,0,0,0,.9-.579,2.933,2.933,0,0,0,.627-.895,3,3,0,0,0,.231-1.454A2.808,2.808,0,0,0,10.8,72.171a2.511,2.511,0,0,0-.911-.2c-.461-.034-1.18-.047-2.618-.063ZM161.3,87.632h-2.106v-6.4c0-3.6.031-6.437.07-6.467a4.3,4.3,0,0,1,1.053-.07h.983V87.632Zm-8.142,0h-1.083c-.751,0-1.113-.04-1.173-.13a8.649,8.649,0,0,1-.481-1.173c-.22-.607-1-2.725-1.724-4.662-1.4-3.734-2.537-6.841-2.537-6.928a1.677,1.677,0,0,1,.626-.049,8.723,8.723,0,0,1,1.74.119c.032.063.864,2.512,1.755,5.174.917,2.74,1.734,5.133,1.785,5.224a.017.017,0,0,0,.014.009,15.907,15.907,0,0,0,1.149-3.157c.6-1.859,1.378-4.243,1.735-5.3l.672-2.005,1.083-.03c.2,0,.352-.007.479-.007.45,0,.594.029.594.117s-.534,1.587-1.063,3.038l-1.375,3.773-.054.149-.025.068-.015.04-.169.463-.037.1-.026.071,0,.007-.026.071-.038.1,0,.01-.05.137-.083.227-.142.389-.162.445-.2.555-.02.055-.012.033-.007.019c-.448,1.23-.955,2.624-1.012,2.766l-.11.281Zm-12.212,0H138.84l.02-6.447.03-6.437.973-.03.973-.03.03,1.334.03,1.333.261-.451a5.154,5.154,0,0,1,1.671-1.77,4.057,4.057,0,0,1,2.159-.627l.672-.01v2.176l-.912.11a4.015,4.015,0,0,0-2.641,1.222,5.063,5.063,0,0,0-1.1,2.959c-.02.275-.05,1.9-.05,3.58Zm-40.006,0h-2.1l-.03-4.793v-.1c-.015-2.3-.022-3.455-.054-4.112a1.79,1.79,0,0,0-.2-.976,2.243,2.243,0,0,0-.9-.969,2.941,2.941,0,0,0-1.434-.294h-.049a3.387,3.387,0,0,0-2.958,1.364l-.015.022c-.627.907-.627.907-.684,5.343l0,.2-.05,4.261H90.362V74.748h1.975v1l-.01,1,.2-.251a6.286,6.286,0,0,1,1.079-1.169,3.89,3.89,0,0,1,1.207-.605,3.133,3.133,0,0,1,1.3-.212c.154,0,.352,0,.662.011a6.741,6.741,0,0,1,1.755.211,3.783,3.783,0,0,1,1.775,1.454,3.583,3.583,0,0,1,.348.716,4.411,4.411,0,0,1,.189,1c.081.851.094,2.155.094,4.947Zm-82.217,0H16.617l.02-6.447.03-6.437.983-.03.973-.03v2.767L18.893,77a5.418,5.418,0,0,1,1.7-1.87,3.984,3.984,0,0,1,2.172-.637h.672V76.7l-.321.01A3.957,3.957,0,0,0,18.923,80.1a23.556,23.556,0,0,0-.2,4.542ZM161.3,72.492h-2.106V69.885H161.3v2.607Zm-87.331,0H71.863V69.885h2.106v2.607Zm5.3-10.638a9.393,9.393,0,0,1-1.775-.163,5.965,5.965,0,0,1-1.52-.488,3.8,3.8,0,0,1-1.31-1.045,4.166,4.166,0,0,1-.746-1.572l-.006-.024,0-.013,0-.018-.005-.02-.005-.019h0c-.122-.459-.183-.689-.09-.809s.347-.125.826-.125h1.226l.12.511a2.068,2.068,0,0,0,.481.912,2.638,2.638,0,0,0,1.169.767,5.747,5.747,0,0,0,1.808.226c1.907-.01,2.958-.672,2.958-1.865a1.507,1.507,0,0,0-.712-1.253,3.955,3.955,0,0,0-1.054-.5c-.473-.158-1.125-.33-2.114-.557a8.1,8.1,0,0,1-3.289-1.233,2.783,2.783,0,0,1-.9-1.028,3.252,3.252,0,0,1-.249-1.419,3.362,3.362,0,0,1,.3-1.443,3.119,3.119,0,0,1,.893-1.111,4.672,4.672,0,0,1,1.45-.754,8.43,8.43,0,0,1,1.974-.372c.086,0,.621.039,1.2.1a7.962,7.962,0,0,1,1.584.3,3.816,3.816,0,0,1,1.75,1.191,3.99,3.99,0,0,1,.817,1.988l.07.531-1.083-.03-1.083-.03-.09-.441a2.254,2.254,0,0,0-1.474-1.464,5.165,5.165,0,0,0-1.466-.179,5.629,5.629,0,0,0-1.221.119,2.1,2.1,0,0,0-.942.484,1.379,1.379,0,0,0-.429.749,1.167,1.167,0,0,0,.084.7,1.518,1.518,0,0,0,.536.619,3.907,3.907,0,0,0,1.037.49,18.941,18.941,0,0,0,1.871.483,9.6,9.6,0,0,1,3.429,1.183,3.276,3.276,0,0,1,.662.6,3.128,3.128,0,0,1,.449.714,3.325,3.325,0,0,1,.279,1.618,3.636,3.636,0,0,1-.607,1.749,3.724,3.724,0,0,1-.647.735,3.88,3.88,0,0,1-.868.572,6.11,6.11,0,0,1-1.523.482A9.448,9.448,0,0,1,79.268,61.854ZM92,61.842c-.132,0-.262,0-.386-.009a7.4,7.4,0,0,1-1.563-.23,5.654,5.654,0,0,1-1.341-.541,5.3,5.3,0,0,1-1.124-.855,6.216,6.216,0,0,1-.915-1.172,6.377,6.377,0,0,1-.706-1.727,8.36,8.36,0,0,1-.252-1.966,8.811,8.811,0,0,1,.2-2.007,7.466,7.466,0,0,1,.664-1.851,5.525,5.525,0,0,1,1.4-1.667,6.012,6.012,0,0,1,1.953-1.08,6.778,6.778,0,0,1,1.973-.255,7.941,7.941,0,0,1,1.857.2,5.749,5.749,0,0,1,4.031,3.9,6.339,6.339,0,0,1,.321,2.256,6.916,6.916,0,0,1-.692,3.81,5.5,5.5,0,0,1-2.159,2.37A6.347,6.347,0,0,1,92,61.842Zm-.1-11.459a3.737,3.737,0,0,0-.613.05,3.583,3.583,0,0,0-2.044,1.151,4.824,4.824,0,0,0-1.134,2.339,6.983,6.983,0,0,0-.07,1.654,7.131,7.131,0,0,0,.2,1.36,4.727,4.727,0,0,0,.436,1.119,3.734,3.734,0,0,0,.674.882,3.869,3.869,0,0,0,.916.649,2.937,2.937,0,0,0,1.5.351c.175.007.309.01.423.01a2.58,2.58,0,0,0,1.061-.191,3.787,3.787,0,0,0,1.151-.689A3.741,3.741,0,0,0,95.235,58a5.75,5.75,0,0,0,.61-1.9,6.552,6.552,0,0,0-.019-1.986,5.987,5.987,0,0,0-.23-.935,5.137,5.137,0,0,0-.37-.848,3.7,3.7,0,0,0-1.133-1.29A3.958,3.958,0,0,0,91.9,50.383Zm32.956,11.449a7.272,7.272,0,0,1-2.005-.239,5.527,5.527,0,0,1-1.707-.9,4.144,4.144,0,0,1-1.151-1.323,5.206,5.206,0,0,1-.474-1.8,5.435,5.435,0,0,1,.113-1.881,6.272,6.272,0,0,1,3-3.449c.486-.293.872-.552.872-.561s-.333-.524-.742-1.123a7.517,7.517,0,0,1-.881-1.568,4.162,4.162,0,0,1,.508-3.655,3.486,3.486,0,0,1,1.908-1.275,5.386,5.386,0,0,1,1.315-.13,6.2,6.2,0,0,1,1.432.141,3.754,3.754,0,0,1,2.547,1.945,2.669,2.669,0,0,1,.281,1.564,2.85,2.85,0,0,1-.311,1.655A6.657,6.657,0,0,1,127.41,51.6a3.579,3.579,0,0,0-.7.541c0,.041.728.947,1.45,1.826s1.482,1.788,1.548,1.834a.031.031,0,0,0,.015,0,3.9,3.9,0,0,0,.516-1.789l.11-.772h2.035l-.08.722a7.851,7.851,0,0,1-.7,2.677c-.339.808-.372.952-.251,1.1.073.094.914,1.065,1.715,1.985l1.574,1.835h-2.807l-.882-1.033c-.479-.558-.882-1.043-.892-1.063h0a5.385,5.385,0,0,0-.63.612,5.317,5.317,0,0,1-2.517,1.5A7.356,7.356,0,0,1,124.853,61.832Zm-.151-8.682a3.333,3.333,0,0,0-.832.451,7.181,7.181,0,0,0-.829.628,4.368,4.368,0,0,0-.609.657,3.475,3.475,0,0,0-.414.719,3.924,3.924,0,0,0-.243.814,2.794,2.794,0,0,0,.147,1.6,3.193,3.193,0,0,0,1.057,1.311,2.919,2.919,0,0,0,.933.468,4.082,4.082,0,0,0,1.169.151c.1,0,.207,0,.314-.008a3.741,3.741,0,0,0,1.46-.327,4.7,4.7,0,0,0,1.287-.966l.682-.682-.983-1.193L127,55.756l-.011-.013c-.378-.457-.808-.977-1.134-1.369A7.038,7.038,0,0,0,124.7,53.151Zm1.124-7.327a2.459,2.459,0,0,0-1.124.269,1.665,1.665,0,0,0-.7.61,1.8,1.8,0,0,0-.2.934,2.116,2.116,0,0,0,.3,1.143,8.5,8.5,0,0,0,1.394,1.855,3.319,3.319,0,0,0,.727-.481,6.521,6.521,0,0,0,.817-.722,2.916,2.916,0,0,0,.716-1.515,1.928,1.928,0,0,0-.375-1.4A1.889,1.889,0,0,0,125.827,45.824ZM110.666,61.563H108.56v-4.6c0-2.5,0-3.729-.069-4.453a1.967,1.967,0,0,0-.452-1.272,2.54,2.54,0,0,0-2.065-.832,3.349,3.349,0,0,0-3.169,1.624,3.417,3.417,0,0,0-.48,1.524c-.073.715-.081,1.827-.081,4.021v3.991h-2.206l.02-6.4.03-6.387h2.005v1.975l.2-.281a4.754,4.754,0,0,1,3.008-1.935,6.776,6.776,0,0,1,.951-.09,7.237,7.237,0,0,1,.974.09,3.539,3.539,0,0,1,3.289,2.868,34.2,34.2,0,0,1,.15,5.364v4.793Zm-38.8,0H69.657V55.216c0-3.565.031-6.388.07-6.427a2.563,2.563,0,0,1,.7-.044l.374,0,1.013.03.03,6.387.02,6.4Zm-35.093,0H34.464v-7.3l-.01-7.289-.842,2.256c-.436,1.175-1.657,4.45-2.727,7.3L29,61.563l-1.043-.02-1.053-.03-.712-1.9c-.364-.981-1.558-4.152-2.717-7.219l-2-5.314-.03,7.239-.02,7.249H19.123V43.916H22.4L24.086,48.4c.923,2.478,2.234,5.976,2.754,7.365l.013.035c.768,2.065,1.024,2.708,1.128,2.708.018,0,.032-.016.045-.051q.04-.111.435-1.157l0-.008.013-.033.024-.065c.182-.482.424-1.121.677-1.795.817-2.162,1.745-4.625,2.839-7.529l.154-.408.011-.029.807-2.141.521-1.374H36.77V61.563Zm-20.855,0H13.508V53.542H4.284v8.021H1.878V43.916H4.284v7.52h9.224v-7.52h2.406V61.563Zm48.027,0H61.736V48.729h2.005v1.3a4.9,4.9,0,0,0,.08,1.3,1.318,1.318,0,0,0,.311-.451,4.534,4.534,0,0,1,.717-.989,4.794,4.794,0,0,1,.94-.764,4.576,4.576,0,0,1,1.084-.493,3.98,3.98,0,0,1,1.148-.175c.063,0,.124,0,.181,0l.3.01.03,1.123.03,1.133h-.381a5.229,5.229,0,0,0-1.126.164,5.486,5.486,0,0,0-1.08.367,3.163,3.163,0,0,0-1.171,1.054,4.922,4.922,0,0,0-.7,1.693,22.49,22.49,0,0,0-.16,4.131Zm-14.538,0H47V43.916h4.442c2,0,3.148,0,3.87.031a5.936,5.936,0,0,1,1.344.159,4.064,4.064,0,0,1,1.985,1,4.219,4.219,0,0,1,.782.91,5.027,5.027,0,0,1,.541,1.135,9.058,9.058,0,0,1,0,3.951,4.979,4.979,0,0,1-.369.845,4.762,4.762,0,0,1-.507.745,4.394,4.394,0,0,1-.626.619,3.987,3.987,0,0,1-.724.468c-.986.5-1.5.561-5.043.561H49.4v7.219Zm0-15.651h0v6.437l3.038-.03c3.4-.04,3.606-.077,4.412-.792a2.516,2.516,0,0,0,.667-.878,3.485,3.485,0,0,0,.276-1.187,3.542,3.542,0,0,0-.379-2.03,2.752,2.752,0,0,0-1.446-1.218A2.6,2.6,0,0,0,55.035,46c-.476-.036-1.274-.046-2.643-.06l-2.988-.03Zm22.459.622h0L70.79,46.5l-1.083-.03-.03-1.283-.03-1.273h2.216v2.617ZM21.025,35.554c-.512,0-1.013-.017-1.491-.05a15.3,15.3,0,0,1-2.737-.386,3.662,3.662,0,0,1-1.534-.747,1.844,1.844,0,0,1-.652-1.2,7.721,7.721,0,0,0-.451-1.283c-.581-1.161-.563-1.672.08-2.376l.411-.441-.3.06a13.322,13.322,0,0,0-3.178,1.685,11.678,11.678,0,0,1-2.717,1.564,2.88,2.88,0,0,1-1.015.2,1.657,1.657,0,0,1-.87-.225c-.38-.225-.959-.635-1.374-.943a5.092,5.092,0,0,1-.863-.716.007.007,0,0,1,0-.006,1.473,1.473,0,0,1,.444-.034c.069,0,.153,0,.248,0,.056,0,.114,0,.172,0a4.052,4.052,0,0,0,1.764-.437,22.088,22.088,0,0,0,2.786-1.652,23.488,23.488,0,0,1,2.678-1.614,4.058,4.058,0,0,1,.846-.3,3.645,3.645,0,0,1,.8-.078c.066,0,.135,0,.212,0a3.736,3.736,0,0,1,.749.075,1.446,1.446,0,0,1,.494.256c.334.236.55.541,1.1,1.554a6.266,6.266,0,0,1,.692,1.564.771.771,0,0,1-.249.554,3.261,3.261,0,0,1-.843.569c-.506.273-.731.415-.723.531.006.092.157.166.432.271a13.53,13.53,0,0,0,2.988.632,16.238,16.238,0,0,0,1.735.074c.652,0,1.364-.022,2-.063a15.194,15.194,0,0,0,1.626-.172,5.711,5.711,0,0,0,2.186-.7,1.7,1.7,0,0,0-.592-.431,3.842,3.842,0,0,1-.762-.519,1.136,1.136,0,0,1-.348-.53,1.523,1.523,0,0,1,.309-1.167c.192-.314.48-.84.642-1.173a2.465,2.465,0,0,1,.835-1.034,1.748,1.748,0,0,1,.556-.228,3.116,3.116,0,0,1,.709-.07c.092,0,.2,0,.317.009a4.086,4.086,0,0,1,1.573.439,21.591,21.591,0,0,1,2.468,1.476,22.691,22.691,0,0,0,2.841,1.683,4.293,4.293,0,0,0,1.835.479c.068,0,.134,0,.2-.006.08,0,.151-.006.21-.006.237,0,.362.03.362.086a2.258,2.258,0,0,1-.622.551c-.276.19-.681.478-.922.65l-.007,0,0,0-.014.01h0l0,0,0,0,0,0,0,0-.071.05-.163.116a2.589,2.589,0,0,1-.536.324,1.514,1.514,0,0,1-.551.069l-.2,0c-.928,0-1.4-.215-3.57-1.644a11.623,11.623,0,0,0-3.309-1.755l-.351-.07.5.511a2.42,2.42,0,0,1,.424.515.972.972,0,0,1,.078.478,3.094,3.094,0,0,1-.371,1.223,8.567,8.567,0,0,0-.481,1.3,2.6,2.6,0,0,1-.45,1.09,2.428,2.428,0,0,1-.954.654,8.282,8.282,0,0,1-2.118.53A21.058,21.058,0,0,1,21.025,35.554Zm0-3.268A.585.585,0,0,1,20.5,31.8a.713.713,0,0,0-.251-.381,1.164,1.164,0,0,1-.331-.6c-.077-.287-.15-.433-.218-.433-.039,0-.077.048-.113.142s-.077.134-.128.134c-.073,0-.157-.094-.223-.251a1.569,1.569,0,0,1-.11-.586.771.771,0,0,1,.224-.515.7.7,0,0,1,.488-.237c.169,0,.19-.085.19-.762v-.772l.431.08c.176.031.5.078.973.14l.551.06.03.662c.018.513.045.63.145.63a.208.208,0,0,0,.055-.009.25.25,0,0,1,.056-.006.959.959,0,0,1,.706.628.969.969,0,0,1-.1.6c-.1.226-.2.341-.274.341-.05,0-.092-.047-.127-.14s-.077-.143-.121-.143c-.074,0-.152.143-.22.4a1.532,1.532,0,0,1-.361.642.751.751,0,0,0-.241.351.672.672,0,0,1-.5.5Zm-.046-.887c-.041,0-.075.042-.144.125h0a.33.33,0,0,0-.029.337.192.192,0,0,0,.169.124.362.362,0,0,0,.241-.14c.09-.11.081-.18-.04-.3h0C21.076,31.446,21.025,31.4,20.982,31.4Zm.057-.988a.133.133,0,0,1,.1.046.466.466,0,0,1,.069.346.406.406,0,0,0,.14.411.279.279,0,0,0,.153.054.3.3,0,0,0,.234-.162,1.744,1.744,0,0,0,.194-.483c.1-.352.22-.523.366-.523a.3.3,0,0,1,.185.082.147.147,0,0,0,.091.04c.042,0,.077-.029.1-.084a.526.526,0,0,0,.028-.271.545.545,0,0,0-.121-.286.494.494,0,0,0-.359-.183c-.23,0-.434.212-.533.554-.039.127-.138.231-.221.231a.186.186,0,0,1-.182-.1.489.489,0,0,1,.131-.463.943.943,0,0,0,.211-.451c0-.178-.459-.792-.592-.792a1.349,1.349,0,0,0-.341.281c-.325.345-.337.547-.06.983.129.212.172.378.122.468a.17.17,0,0,1-.162.074c-.069,0-.207-.164-.321-.381a1,1,0,0,0-.228-.3.387.387,0,0,0-.248-.1.432.432,0,0,0-.316.169.6.6,0,0,0-.106.57c.024.055.059.084.1.084a.153.153,0,0,0,.1-.042.3.3,0,0,1,.185-.085c.134,0,.243.16.366.536.143.421.3.635.46.635a.3.3,0,0,0,.2-.1.247.247,0,0,0,.05-.361c-.08-.15-.07-.231.04-.321A.266.266,0,0,1,21.039,30.41Zm15.64-.519c-.072,0-.11-.015-.11-.043,0-.006.034-.12.064-.221l0-.014v0l0-.012v-.017l0-.01h0l.006-.022.012-.039.052-.174a1.488,1.488,0,0,0,.11-.512.008.008,0,0,0-.007,0c-.031,0-.119.166-.244.456-.148.356-.267.5-.411.5-.115,0-.2-.032-.2-.06A2.2,2.2,0,0,1,36.354,29a5.038,5.038,0,0,1,.657-.8,1.771,1.771,0,0,0,.605-.748,4.144,4.144,0,0,0,.086-1.267,4.987,4.987,0,0,0-.093-1.3.306.306,0,0,0-.172-.188,1.278,1.278,0,0,0-.326-.067,2.446,2.446,0,0,1-1.153-.521,4.6,4.6,0,0,1-1.184-1.106,2,2,0,0,1-.41-1.15c0-.39-.01-.4-.351-.4a1.231,1.231,0,0,0-.623.14.959.959,0,0,0-.39.441,1.241,1.241,0,0,0-.108.679,1.379,1.379,0,0,0,.268.664l.2.271-.221.15c-.135.084-1.09.493-1.975.862l-1.735.712-.291-.271a.673.673,0,0,0-.387-.228.111.111,0,0,0-.1.046.4.4,0,0,0,.022.333.481.481,0,0,1-.009.435c-.112.183-.392.3-.854.347-.155.015-.257.021-.333.021-.126,0-.191-.018-.21-.058-.029-.06.045-.172.172-.334a.956.956,0,0,0,.2-.391c0-.016-.006-.025-.018-.025-.044,0-.162.119-.293.3-.231.311-.38.421-.571.421-.086,0-.134-.005-.146-.032-.024-.057.117-.206.527-.63a6.044,6.044,0,0,1,.9-.782,6.131,6.131,0,0,1,1.283-.3,11.4,11.4,0,0,0,1.5-.343,2.551,2.551,0,0,0,.85-.389.511.511,0,0,0,.174-.362,1.086,1.086,0,0,0-.335-.741,2.529,2.529,0,0,1-.457-.655,1.784,1.784,0,0,1-.1-.708,1.81,1.81,0,0,1,.151-.756,1.536,1.536,0,0,1,.456-.57,2.436,2.436,0,0,1,.764-.386,5.1,5.1,0,0,1,1.076-.2,2.491,2.491,0,0,0,.642-.11.057.057,0,0,0,.013-.048,1.829,1.829,0,0,0-.675-.754,5.459,5.459,0,0,0-.963-.451,2.438,2.438,0,0,1-1.434-1.033c-.073-.146-.13-.22-.168-.22-.018,0-.032.017-.042.049a.7.7,0,0,1-.256.37.715.715,0,0,1-.422.128,1.153,1.153,0,0,1-.536-.147c-.319-.16-.411-.331-.411-.762,0-.238.067-.329.341-.461a.876.876,0,0,1,.337-.107,1.019,1.019,0,0,1,.425.157l.411.2-.03-.211a.2.2,0,0,0-.163-.2,3.734,3.734,0,0,0-.719-.093c-.485-.031-1.045-.092-1.263-.13a1.481,1.481,0,0,0-.268-.033c-.111,0-.17.03-.2.1a1.575,1.575,0,0,0,.315.775c.187.3.432.613.558.629.081.014.137.035.167.1a.681.681,0,0,1,.024.315.654.654,0,0,0,.05.361.028.028,0,0,0,.02.01.1.1,0,0,0,.1-.1c0-.058.169-.1.4-.1.346,0,.418.045.7.441a2.805,2.805,0,0,1,.3.541c0,.018-.023.027-.066.027a1.213,1.213,0,0,1-.345-.077,1.718,1.718,0,0,0-.413-.1c-.026,0-.041,0-.043.014,0,.026.094.083.265.153.216.093.3.194.3.361,0,.087,0,.14-.068.14a3.494,3.494,0,0,1-.845-.391l-.912-.491-.692-1.3a10.293,10.293,0,0,1-.692-1.484,1.032,1.032,0,0,1,.2-.441c.19-.26.252-.281.832-.281l.138,0a1.954,1.954,0,0,0,.614-.062.044.044,0,0,0,.021-.033c.013-.087-.135-.309-.452-.678-.284-.343-.62-.761-.712-.9-.107-.172-.172-.233-.326-.233a1.424,1.424,0,0,0-.215.022,1.206,1.206,0,0,1-.2.02.493.493,0,0,1-.394-.2l-.221-.231.391-.321a1.137,1.137,0,0,1,.677-.3,1.416,1.416,0,0,1,.856.445,1.46,1.46,0,0,0,.653.4.109.109,0,0,0,.039-.007,1.128,1.128,0,0,1,.4-.11.5.5,0,0,1,.348.17.745.745,0,0,1,.251.551.745.745,0,0,0,.251.552.778.778,0,0,0,.268.2.014.014,0,0,0,.013-.006,3.175,3.175,0,0,0,.161-.491,5.022,5.022,0,0,1,.451-1,7.118,7.118,0,0,0,.561-1.354,4.8,4.8,0,0,1,.3-.882c.015-.019.054-.028.115-.028a1.4,1.4,0,0,1,.347.058l.012,0,.009,0h0l.035.011h0a.745.745,0,0,0,.224.048c.2,0,.468-.17,1.451-.8h0l.078-.05.04-.026L34.4,9.2l.043-.028.121-.078c.788-.509,1.073-.942.922-1.4-.033-.116-.067-.189-.089-.189s-.018.017-.021.048a1.129,1.129,0,0,1-.2.525,1.218,1.218,0,0,1-.411.4,1.175,1.175,0,0,1-.542.142,1.141,1.141,0,0,1-.6-.182A.675.675,0,0,0,33.3,8.3c-.132,0-.207.122-.288.467-.075.292-.188.445-.261.445-.027,0-.049-.02-.064-.057a.489.489,0,0,1-.025-.178c0-.128-.029-.21-.073-.21a.049.049,0,0,0-.027.01.387.387,0,0,0-.1.281.833.833,0,0,1-.154.436,1.077,1.077,0,0,1-.357.346.359.359,0,0,1-.133.053.031.031,0,0,1-.026-.011c-.023-.029-.011-.113.028-.3s.045-.284.016-.319a.054.054,0,0,0-.044-.017.414.414,0,0,0-.112.025.321.321,0,0,1-.108.019.436.436,0,0,1-.3-.149.9.9,0,0,1-.211-.261,2.478,2.478,0,0,1,.491-.3,2.2,2.2,0,0,0,.562-.351c.017-.028.021-.05.012-.066s-.044-.032-.1-.032a2.134,2.134,0,0,0-.767.248,2.876,2.876,0,0,1-.592.251c-.05,0-.12-.181-.161-.411a.6.6,0,0,1,.2-.692,5.206,5.206,0,0,1,.892-.642,2.271,2.271,0,0,0,.742-.6.908.908,0,0,1,.511-.361,1.512,1.512,0,0,0,.471-.211,7.189,7.189,0,0,0-.832-1.163C30.323,1.83,29.7,1.026,29.752.92a.027.027,0,0,1,.026-.013.191.191,0,0,1,.063.016c.047.009.958.879,2.216,2.116,1.166,1.136,2.125,2.026,2.184,2.026h0a1.007,1.007,0,0,0,.07-.451c0-.225.031-.4.07-.4.088,0,.293.178.456.345a2.376,2.376,0,0,1,.426.548.475.475,0,0,0,.175.252.858.858,0,0,0,.356.109,3.612,3.612,0,0,1,.822.281,5.326,5.326,0,0,0,.642.271l.241.06-.21.2-.221.2.351.171a1.974,1.974,0,0,1,.7.712,1.9,1.9,0,0,0,.551.611c.1.031.156.079.148.129s-.109.122-.308.122c-.108,0-.168,0-.186.029s.017.115.1.288h0a3.92,3.92,0,0,1,.241,1.284,7.282,7.282,0,0,0,.14,1.123c.037.078.048.127.032.152a.047.047,0,0,1-.043.018,1.119,1.119,0,0,1-.41-.191l-.341-.211.02.281c.009.137.021.59.01,1-.01.663-.03.732-.211.732a.475.475,0,0,1-.341-.281l-.14-.271-.07.281a.457.457,0,0,0,.05.411c.091.112.084.225-.025.39a4.941,4.941,0,0,1-.747.773,6.347,6.347,0,0,0-.748.771,1.249,1.249,0,0,0-.286.635,1.313,1.313,0,0,0,.156.692,6.883,6.883,0,0,0,.578.94l.4.581.13-.291a.693.693,0,0,1,.254-.317.642.642,0,0,1,.355-.1.824.824,0,0,1,.454.145,1.115,1.115,0,0,1,.37.427.831.831,0,0,1,.1.4.691.691,0,0,1-.1.346.564.564,0,0,1-.491.278.666.666,0,0,1-.1-.008.956.956,0,0,0-.141-.014c-.051,0-.082.009-.091.026s0,.028.012.047c.025.05.187.29.481.712a12.076,12.076,0,0,1,.682,1.123,3.553,3.553,0,0,0,.615.868,1.015,1.015,0,0,0,.608.365,1.049,1.049,0,0,0,.441-.1,1.144,1.144,0,0,0,.364-.264,1.271,1.271,0,0,0,.338-.872,1.9,1.9,0,0,0-.291-1.088,7.741,7.741,0,0,0-1.223-1.389,6.554,6.554,0,0,1-1.434-1.7,2.762,2.762,0,0,1-.229-.752,2.87,2.87,0,0,1-.019-.765,2.307,2.307,0,0,1,.18-.686,1.478,1.478,0,0,1,.369-.515,2,2,0,0,1,1.281-.49,1.283,1.283,0,0,1,.7.19.859.859,0,0,0,.349.157.057.057,0,0,0,.032-.007.141.141,0,0,1,.068-.012,1.412,1.412,0,0,1,.363.072.766.766,0,0,1,.461.354,2.8,2.8,0,0,1,.281.85c.12.57.339.9.6.912.052,0,.08.006.082.016s-.04.036-.122.064a.6.6,0,0,1-.218.038.983.983,0,0,1-.445-.118,1.337,1.337,0,0,1-.41-.331c-.125-.14-.223-.224-.263-.224-.012,0-.018.008-.018.024,0,.2.609.821,1,1.023a2.936,2.936,0,0,1,.749.515.749.749,0,0,1,.253.508v.311l-.191-.251a3.737,3.737,0,0,0-1.143-.612,3.315,3.315,0,0,1-1.875-1.363,1.361,1.361,0,0,1-.076-.532,5.41,5.41,0,0,1,.1-.832.2.2,0,0,0-.024-.154c-.035-.043-.107-.065-.247-.077l-.073,0a.994.994,0,0,0-.462.124,1.524,1.524,0,0,0-.411.325,1.5,1.5,0,0,0-.407.978,1.839,1.839,0,0,0,.248,1.059,8.7,8.7,0,0,0,1.226,1.4,9.028,9.028,0,0,1,1.4,1.619,2.393,2.393,0,0,1,.286,1.318,3.329,3.329,0,0,1-.044.679.966.966,0,0,1-.187.394c-.1.139-.146.241-.123.287a.052.052,0,0,0,.052.025.74.74,0,0,0,.332-.162.492.492,0,0,1,.182-.1c.028,0,.039.024.039.085,0,.22-.449.651-.762.732a.8.8,0,0,1-.2.027,2.253,2.253,0,0,1-.767-.237.293.293,0,0,0-.1-.026c-.052,0-.077.032-.077.1a.6.6,0,0,0,.206.327,1.933,1.933,0,0,0,.446.335c.079.042.131.071.13.1s-.073.062-.22.122a.941.941,0,0,1-.329.058,1.417,1.417,0,0,1-1.335-1.341,2.9,2.9,0,0,0-.315-.733,2.008,2.008,0,0,0-.4-.59,1.054,1.054,0,0,0-.12.471,5.027,5.027,0,0,1-.311,1.1,3.623,3.623,0,0,0-.261.882,1.539,1.539,0,0,0,.491,1,.42.42,0,0,0,.278.137.683.683,0,0,0,.233-.057.907.907,0,0,1,.282-.064.09.09,0,0,1,.059.014,1.932,1.932,0,0,1,.06.612c0,.312.031.8.06,1.083l.07.521.251-.191a1.015,1.015,0,0,1,1.1-.057.438.438,0,0,1,.223.367.873.873,0,0,1-.158.489,1.027,1.027,0,0,1-.414.353.972.972,0,0,1-.412.12,1.228,1.228,0,0,1-.45-.12.32.32,0,0,0-.1-.03.037.037,0,0,0-.031.012c-.019.025-.009.09.014.188a1.633,1.633,0,0,1-.044.643.947.947,0,0,1-.217.5.141.141,0,0,1-.065.014.227.227,0,0,1-.156-.064.556.556,0,0,0-.341-.11.214.214,0,0,0-.206.088c-.05.093,0,.253.136.463a.418.418,0,0,1,.081.348c-.044.173-.221.338-.542.5A2.265,2.265,0,0,1,36.679,29.892Zm2.969-3.821a.574.574,0,0,0-.552.66.223.223,0,0,0,.161.16.53.53,0,0,0,.139.018.687.687,0,0,0,.362-.112A.645.645,0,0,0,40,26.538a.3.3,0,0,0-.029-.329A.4.4,0,0,0,39.648,26.071Zm-3.763-4.208a.476.476,0,0,0-.348.176.735.735,0,0,0-.147.608.244.244,0,0,0,.137.184.333.333,0,0,0,.117.02A.63.63,0,0,0,36,22.719a.58.58,0,0,0,.227-.31A.47.47,0,0,0,36.162,22a.349.349,0,0,0-.277-.135Zm1.27-2a.461.461,0,0,0-.325.153.663.663,0,0,0-.146.564.273.273,0,0,0,.146.218.3.3,0,0,0,.106.019.543.543,0,0,0,.306-.112.633.633,0,0,0,.219-.277.444.444,0,0,0-.024-.416A.336.336,0,0,0,37.155,19.86Zm.248-2.61c-.092,0-.159.057-.232.2a.457.457,0,0,0,.038.455.6.6,0,0,0,.476.31.359.359,0,0,0,.128-.023.323.323,0,0,0,.213-.293.525.525,0,0,0-.083-.3.7.7,0,0,0-.271-.249A.6.6,0,0,0,37.4,17.25Zm-7.645-1.308a.328.328,0,0,0-.237.07.265.265,0,0,0-.053.308.706.706,0,0,0,.612.4A.5.5,0,0,0,30.2,16.7a.3.3,0,0,0,.241-.211.408.408,0,0,0-.17-.381A.836.836,0,0,0,29.758,15.942Zm2.62-5.715c-.13,0-.229.164-.391.652l-.211.642,1.023.592c2.218,1.3,3.346,1.925,3.449,1.925a2.139,2.139,0,0,0,.5-.456,2.246,2.246,0,0,0,.42-.546c0-.043-.076-.1-.15-.14a.164.164,0,0,0-.06-.013c-.06,0-.09.052-.09.154,0,.117-.049.2-.12.2a.168.168,0,0,1-.131-.1.111.111,0,0,0-.1-.058.163.163,0,0,0-.153.169c0,.051.07.09.16.09s.125.026.128.071c0,.08-.128.191-.3.21l-.031,0a.842.842,0,0,1-.4-.145.9.9,0,0,1-.305-.284.128.128,0,0,1-.012-.134.3.3,0,0,1,.256-.117.242.242,0,0,1,.236.117c.012.035.025.052.04.052s.049-.037.08-.113a.218.218,0,0,0-.07-.3c-.06-.043-.1-.075-.1-.116s.039-.121.131-.235a.631.631,0,0,0,.168-.553.093.093,0,0,0-.088-.058,1.058,1.058,0,0,0-.391.291c-.133.154-.229.226-.3.226a.11.11,0,0,1-.08-.036.227.227,0,0,0-.163-.058c-.125,0-.258.072-.258.178,0,.047.058.1.14.1a.235.235,0,0,1,.2.162.246.246,0,0,1-.03.269.241.241,0,0,1-.177.068.862.862,0,0,1-.606-.388.416.416,0,0,1-.079-.382c.031-.088.048-.129.074-.129s.056.038.117.119.085.109.116.109.066-.043.125-.139.078-.141.064-.165-.037-.025-.094-.025c-.078,0-.132-.033-.141-.087s.03-.133.141-.174c.094-.039.141-.078.142-.122s-.078-.122-.242-.2a.554.554,0,0,0-.186-.068c-.058,0-.065.064-.065.2,0,.163-.058.248-.115.248s-.086-.047-.115-.128c-.019-.042-.037-.061-.058-.061s-.056.027-.1.091c-.082.116-.116.2-.1.235a.051.051,0,0,0,.05.024.267.267,0,0,0,.085-.018.235.235,0,0,1,.082-.018.059.059,0,0,1,.061.033c.02.049-.024.138-.112.226a.36.36,0,0,1-.262.111A.792.792,0,0,1,33.5,12c-.158-.135-.234-.268-.2-.356.023-.061.1-.095.205-.095a.811.811,0,0,1,.166.02.84.84,0,0,0,.163.022c.108,0,.127-.055.127-.163,0-.137-.067-.2-.211-.2-.083,0-.134,0-.147-.025s.023-.086.1-.2a.917.917,0,0,0,.16-.451c0-.146-.047-.23-.13-.23s-.228.111-.331.36c-.088.2-.134.287-.2.287a.181.181,0,0,1-.105-.056.241.241,0,0,0-.143-.075c-.038,0-.074.021-.128.075s-.062.083-.058.112.038.063.118.109a.359.359,0,0,1,.16.376.139.139,0,0,1-.14.115,1.056,1.056,0,0,1-.464-.159.757.757,0,0,1-.328-.3.283.283,0,0,1,0-.253.1.1,0,0,1,.079-.045.165.165,0,0,1,.1.047.234.234,0,0,0,.14.061.06.06,0,0,0,.051-.021.154.154,0,0,0,.064-.16c-.017-.045-.07-.071-.144-.071s-.15-.049-.15-.1.067-.129.15-.16c.1-.038.156-.1.146-.154S32.477,10.227,32.378,10.227Zm-2.943,2.417a.325.325,0,0,0-.286.18.512.512,0,0,0,.031.474.254.254,0,0,0,.21.138.306.306,0,0,0,.23-.117.516.516,0,0,0,.111-.4.31.31,0,0,0-.1-.2A.3.3,0,0,0,29.436,12.644Zm3.649-6.218a.288.288,0,0,0-.205.112A.678.678,0,0,0,32.759,7c.006.015.015.022.027.022h0c.011-.011.29-.082.521-.14l.5-.13-.321-.17A1.086,1.086,0,0,0,33.085,6.425ZM3.947,29.779a.51.51,0,0,1-.415-.331.657.657,0,0,1-.039-.288.8.8,0,0,1,.119-.3c.085-.15.152-.339.11-.391a.2.2,0,0,0-.187-.088.56.56,0,0,0-.365.158c-.074.07-.118.105-.154.105s-.083-.069-.147-.226a1.1,1.1,0,0,1,0-.722,3.633,3.633,0,0,0,.11-.752v-.321l-.181.3c-.172.278-.3.45-.383.45s-.152-.208-.218-.591a2.062,2.062,0,0,1,.281-1.694,1.4,1.4,0,0,0,.2-.612c-.02-.262-.027-.391.029-.451a.184.184,0,0,1,.142-.043,2.527,2.527,0,0,1,.3.031h.011a2.223,2.223,0,0,0,.3.027.682.682,0,0,0,.492-.218,2.016,2.016,0,0,0,.511-.762A5.238,5.238,0,0,0,4.8,21.848a7.752,7.752,0,0,1,.9-2.567c.232-.4.288-.592.265-.632a.018.018,0,0,0-.016-.009c-.046,0-.186.139-.43.53A12.468,12.468,0,0,1,4.7,20.294a2.005,2.005,0,0,0-.411.6c0,.239-.425.679-.842.872a2.148,2.148,0,0,1-.85.179,1,1,0,0,1-.574-.139c-.1-.072-.141-.106-.136-.124s.043-.021.126-.026c.289,0,.772-.289.772-.461,0-.083-.04-.113-.155-.113a1.961,1.961,0,0,0-.3.033,2.008,2.008,0,0,1-.269.019.973.973,0,0,1-.944-.511c-.087-.162-.121-.233-.108-.254a.017.017,0,0,1,.016-.007.35.35,0,0,1,.112.041,1.533,1.533,0,0,0,.45.14.074.074,0,0,0,.065-.025c.02-.028.016-.08-.014-.176a3.029,3.029,0,0,1-.145-.973,2.5,2.5,0,0,1,.228-.945,5.375,5.375,0,0,1,.667-1.069c.291-.378.664-.805,1.175-1.345a12.028,12.028,0,0,0,1.351-1.605,1.932,1.932,0,0,0,.373-1.072,1.473,1.473,0,0,0-.15-.672.649.649,0,0,0-.285-.222,1.035,1.035,0,0,0-.767-.008h0c-.14.058-.21.087-.23.139s.016.139.1.318h0a.8.8,0,0,1,.04.742c-.209.717-.636,1.08-2.075,1.765a5.835,5.835,0,0,0-1.584.942.988.988,0,0,1-.3.285.011.011,0,0,1-.009,0A.1.1,0,0,1,0,16.551a2,2,0,0,1,.384-.97,5.421,5.421,0,0,1,.892-.632,4.081,4.081,0,0,0,.716-.53.774.774,0,0,0,.287-.432s0,0,0,0a2.113,2.113,0,0,0-.438.293,1.81,1.81,0,0,1-.917.43.241.241,0,0,1-.176-.059C.705,14.61.69,14.582.7,14.564s.036-.025.088-.025c.131,0,.267-.1.416-.308a4.734,4.734,0,0,0,.476-.925,2.834,2.834,0,0,1,.5-.872.775.775,0,0,1,.581-.269,1,1,0,0,1,.182.018.837.837,0,0,0,.149.013,1.066,1.066,0,0,0,.543-.174,1.6,1.6,0,0,1,.809-.23,1.4,1.4,0,0,1,1.015.429,1.486,1.486,0,0,1,.315.491,1.714,1.714,0,0,1,.117.634,2.306,2.306,0,0,1-.4,1.242A11.033,11.033,0,0,1,4.074,16.3c-1.733,1.813-2.216,2.659-1.985,3.479.121.412.19.511.461.662a.947.947,0,0,0,.441.111,1.152,1.152,0,0,0,.521-.136,2.412,2.412,0,0,0,.558-.41,7.946,7.946,0,0,0,1.238-1.65c.273-.458.778-1.257,1.1-1.745a14.674,14.674,0,0,0,1.735-3.78c.254-.723.52-1.441.572-1.554.032-.07.045-.11.039-.121a.006.006,0,0,0,0,0,3.8,3.8,0,0,0-.616.9c-.26.511-.6.882-.812.882-.044,0-.07-.008-.081-.026s0-.076.051-.174A5.726,5.726,0,0,0,7.5,11.5c.051-.564.12-1.218.151-1.474a.82.82,0,0,0,0-.35.011.011,0,0,0-.008,0,3.619,3.619,0,0,0-.365,1.136,3.138,3.138,0,0,1-.441,1.2l-.241.271.01-.351c0-.2-.032-.661-.07-1a2.155,2.155,0,0,1,.09-1.083c.427-1.128.461-1.254.421-1.3l-.005,0a2.015,2.015,0,0,0-.345.624c-.227.494-.376.694-.572.762a.817.817,0,0,1-.249.068.061.061,0,0,1-.058-.024c-.021-.037.009-.118.1-.264a2.5,2.5,0,0,0,.2-.862,2.678,2.678,0,0,1,.221-.892c.094-.141.132-.208.12-.256s-.045-.06-.109-.095a.949.949,0,0,1-.541-.782c.02-.2.119-.28.461-.381.224-.078.421-.2.421-.261a.476.476,0,0,1,.39-.382.111.111,0,0,1,.081.03.105.105,0,0,0,.079.028A1.377,1.377,0,0,0,7.8,5.595a11.621,11.621,0,0,1,1.644-.7c.823-.277,1.093-.409,1.073-.521a.11.11,0,0,1,.022-.1.257.257,0,0,1,.2-.068.481.481,0,0,1,.36.153c.053.063.093.1.151.1a.678.678,0,0,0,.27-.107.891.891,0,0,1,.4-.118.38.38,0,0,1,.3.133,1.073,1.073,0,0,1,.117.847c-.05.343-.036.362.381.521a2.425,2.425,0,0,0,.582.18c.035,0,.053.014.052.036,0,.047-.083.135-.2.219a.724.724,0,0,1-.339.145.014.014,0,0,0-.015.01,3.077,3.077,0,0,0,.589.763,5.543,5.543,0,0,0,.87.812c.083.044.135.072.133.1s-.069.061-.224.121a.68.68,0,0,1-.244.054.963.963,0,0,1-.428-.144l-.381-.2.471.481c.685.695,1.1,1.2,1.043,1.263a.347.347,0,0,1-.231.054,1.876,1.876,0,0,1-.722-.164h0l-.006,0h0a.982.982,0,0,0-.21-.093s-.007,0-.008,0c-.009.021.094.128.319.364h0a2.993,2.993,0,0,1,.516.658,1.227,1.227,0,0,1,.125.605,1.677,1.677,0,0,0,.15.632,1.453,1.453,0,0,1,.15.531c0,.18.028.243.107.243a.269.269,0,0,0,.074-.013c.063-.021.188-.051.3-.078H15.2l.009,0h.005l.025-.006.013,0,.035-.009.016,0,.029-.007h0l.028-.007.3-.07-.431.461a9.884,9.884,0,0,0-.8,1.052,5.5,5.5,0,0,0-.548.984c-.078.21-.154.341-.2.341a3.177,3.177,0,0,1-.582-.451c-.331-.3-.556-.452-.65-.452-.034,0-.051.02-.051.06s.506.614,1.183,1.354c1.172,1.3,1.514,1.819,1.524,2.3a1.446,1.446,0,0,0,.241.612,1.369,1.369,0,0,1,.241.6c.01.132.04.38.07.552.06.258.033.339-.16.481a.688.688,0,0,1-.305.154.055.055,0,0,1-.048-.021c-.02-.028-.016-.086.012-.173a.493.493,0,0,0-.086-.4.218.218,0,0,0-.165-.1c-.038,0-.109.107-.14.241a.663.663,0,0,1-.612.561c-.1,0-.16,0-.178-.031s.014-.112.1-.28.121-.3.089-.354a.048.048,0,0,0-.044-.023.351.351,0,0,0-.186.106.788.788,0,0,1-.495.226.543.543,0,0,1-.3-.1c-.163-.1-.256-.228-.24-.285,0-.018.021-.027.046-.027a.239.239,0,0,1,.084.021.146.146,0,0,0,.051.009.3.3,0,0,0,.219-.119c.109-.128.1-.178-.04-.331a.519.519,0,0,1-.151-.431.51.51,0,0,1,.291-.341.472.472,0,0,0,.3-.361.279.279,0,0,0-.074-.2.234.234,0,0,0-.169-.072.27.27,0,0,0-.218.121c-.062.086-.123.132-.178.132a.1.1,0,0,1-.076-.038.619.619,0,0,1-.057-.445l.05-.391-.3.251a.752.752,0,0,1-.357.2.052.052,0,0,1-.034-.01,1.147,1.147,0,0,1-.09-.571v-.521l-.251.421c-.169.28-.24.367-.353.367a.5.5,0,0,1-.159-.036,1.619,1.619,0,0,0-.56-.081c-.494,0-1.089.136-1.155.332-.019.058.321.338.792.652a4.867,4.867,0,0,1,1.072.926,1.519,1.519,0,0,1,.379.878,1.18,1.18,0,0,1-.182.659,2.49,2.49,0,0,1-.6.644,3.061,3.061,0,0,0-.693.654.47.47,0,0,0,.021.489,3.37,3.37,0,0,0,1.3,1.354,1.956,1.956,0,0,0,1.011.413.464.464,0,0,0,.373-.153.764.764,0,0,1,.531-.15c.332,0,.472.071.832.421a1.492,1.492,0,0,1,.407.54.474.474,0,0,1-.066.442c-.031.052-.059.086-.092.086s-.078-.044-.159-.167a.583.583,0,0,0-.435-.226.186.186,0,0,0-.156.06.146.146,0,0,0-.011.136.837.837,0,0,1-.361.792.313.313,0,0,1-.133.063c-.025,0-.039-.017-.047-.055a.959.959,0,0,1-.01-.179c0-.23-.08-.39-.2-.39a.2.2,0,0,0-.136.069,1.285,1.285,0,0,1-.622.11,1.165,1.165,0,0,1-.466-.055.878.878,0,0,1-.316-.3c-.169-.216-.344-.35-.455-.35a.094.094,0,0,0-.076.033.275.275,0,0,0-.021.216c.024.115.022.178-.007.213a.136.136,0,0,1-.114.037.676.676,0,0,1-.48-.254,1.462,1.462,0,0,1-.322-.638,2.072,2.072,0,0,0-.182-.495c-.068-.129-.134-.208-.172-.208a.024.024,0,0,0-.018.009c-.021.026-.017.107.011.233a.618.618,0,0,1-.043.47.123.123,0,0,1-.1.049.247.247,0,0,1-.15-.068,2.983,2.983,0,0,1-.692-1.323A.737.737,0,0,0,8.7,22.66a.382.382,0,0,1-.191-.392.128.128,0,0,1,.131-.109.706.706,0,0,0,.44-.252,1.236,1.236,0,0,0,.312-.53A1.862,1.862,0,0,0,9.33,20.3a1.635,1.635,0,0,0-.614-.832l-.221-.14.01.792a6.054,6.054,0,0,1-.11,1.243,3.161,3.161,0,0,1-.358.824,4.235,4.235,0,0,1-.609.772,6.642,6.642,0,0,1-1.891,1.3,6.049,6.049,0,0,0-1.163.662,2.834,2.834,0,0,0,.04,1.865,2.246,2.246,0,0,0,.5.741,1.006,1.006,0,0,0,.609.342.792.792,0,0,0,.461-.251A.852.852,0,0,1,6.6,27.37a.5.5,0,0,1,.395.153.511.511,0,0,0,.331.15.55.55,0,0,1,.511.346.583.583,0,0,1,.041.316.548.548,0,0,1-.151.3c-.085.085-.129.125-.157.125s-.043-.044-.064-.146a.425.425,0,0,0-.137-.249.4.4,0,0,0-.264-.091.086.086,0,0,0-.071.028c-.034.042-.034.135,0,.3a.624.624,0,0,1-.15.6c-.139.183-.268.266-.33.266a.041.041,0,0,1-.036-.017c-.015-.023-.01-.067.016-.128a.183.183,0,0,0,0-.168.136.136,0,0,0-.118-.05.692.692,0,0,0-.425.218c-.167.161-.243.235-.4.235a2.562,2.562,0,0,1-.48-.084h0a2.979,2.979,0,0,0-.571-.068.78.78,0,0,0-.335.058.185.185,0,0,0-.117.17A.126.126,0,0,1,3.947,29.779ZM9.64,8.141a.3.3,0,0,1,.259.116.649.649,0,0,1,0,.567,1,1,0,0,0-.016.676.732.732,0,0,0,.427.427.716.716,0,0,0,.262.071.492.492,0,0,0,.279-.111.549.549,0,0,0,.219-.287.77.77,0,0,0,.025-.373.894.894,0,0,0-.176-.4.672.672,0,0,0-.36-.241A.618.618,0,0,1,10.19,8.3c-.1-.192-.078-.252.16-.431.147-.12.2-.177.191-.218,0-.024-.028-.043-.08-.063-.106-.041-.162-.094-.154-.148.01-.071.13-.127.3-.143s.239-.027.248-.057-.03-.065-.118-.144a.313.313,0,0,0-.22-.1,2.928,2.928,0,0,0-.763.227,4.388,4.388,0,0,0-.866.374.358.358,0,0,0-.2.328c0,.113.04.186.1.186s.106-.056.14-.146a.213.213,0,0,1,.194-.146.169.169,0,0,1,.167.186c0,.109.037.151.131.151a.577.577,0,0,0,.1-.011A.625.625,0,0,1,9.64,8.141ZM8.732,6.427H8.726a3.98,3.98,0,0,0-.5.167h0l-.006,0h0l-.036.013-.02.007-.11.04-.582.231.361.221a.9.9,0,0,0,.45.164c.17,0,.3-.1.393-.314a.715.715,0,0,0,.1-.505A.052.052,0,0,0,8.732,6.427Zm2.346-.963a4.341,4.341,0,0,0-.6.241c-.324.142-.562.3-.541.361a.751.751,0,0,0,.291.251.564.564,0,0,0,.277.088c.2,0,.353-.171.475-.539a1.642,1.642,0,0,0,.1-.4ZM36.793,27.477a.95.95,0,0,1-.675-.255.606.606,0,0,1,.066-1.019.877.877,0,0,1,.45-.12,1.129,1.129,0,0,1,.526.137.71.71,0,0,1,.409.5.627.627,0,0,1-.2.55A.816.816,0,0,1,36.793,27.477Zm-.131-1.1a.6.6,0,0,0-.313.1.291.291,0,0,0-.171.212.4.4,0,0,0,.181.319.6.6,0,0,0,.4.144.515.515,0,0,0,.45-.214c.091-.152.067-.223-.13-.381A.673.673,0,0,0,36.662,26.378ZM21.982,27.44a2.958,2.958,0,0,1-.332-.018,11.3,11.3,0,0,1-1.593-.31,10.311,10.311,0,0,1-1.465-.483,1.71,1.71,0,0,0-.633-.192.566.566,0,0,0-.209.041.966.966,0,0,1-.31.051.514.514,0,0,1-.161-.021,1.323,1.323,0,0,1-.5-.343.79.79,0,0,1-.261-.449,1.126,1.126,0,0,0-.361-.562A7.864,7.864,0,0,1,14.9,23.549a8.959,8.959,0,0,1-.88-1.931c-.169-.549-.241-.8-.171-.89.029-.04.084-.056.189-.056l.1,0h.048a1.153,1.153,0,0,0,.5-.112.447.447,0,0,1,.171-.058.043.043,0,0,1,.05.048c0,.074.055.114.155.114a1.092,1.092,0,0,0,.677-.345L16.065,20l.3.9a9.253,9.253,0,0,0,.592,1.354c.477.765.959,1.2,1.324,1.2a.958.958,0,0,1,.594.233,1.261,1.261,0,0,1,.4.579.568.568,0,0,0,.281.361,7.942,7.942,0,0,0,1.033.451,13.035,13.035,0,0,0,3.72.983c.329,0,.472.027.492.093.025.081-.13.224-.572.529A3.98,3.98,0,0,1,21.982,27.44Zm-.35-1.315a.545.545,0,0,0-.122.015.341.341,0,0,0-.229.237.376.376,0,0,0,.058.355.471.471,0,0,0,.324.124.383.383,0,0,0,.057,0c.2-.02.271-.091.291-.3a.389.389,0,0,0-.09-.306A.383.383,0,0,0,21.632,26.125Zm-4.644-1.842a.049.049,0,0,0-.043.016c-.015.022-.009.066.023.156a.889.889,0,0,1-.09.5,1.428,1.428,0,0,0-.16.541.83.83,0,0,0,.221.521.661.661,0,0,0,.461.251l.271-.01-.271-.221c-.309-.249-.331-.35-.16-.722.068-.15.119-.213.254-.213a1.2,1.2,0,0,1,.2.023.812.812,0,0,0,.149.016c.091,0,.15-.024.177-.073.043-.076,0-.213-.116-.4-.1-.151-.09-.221.06-.391a.689.689,0,0,1,.5-.273.583.583,0,0,1,.327.112h0a.846.846,0,0,0,.2.115.009.009,0,0,0,.008,0c.008-.013-.016-.062-.06-.15h0a.851.851,0,0,0-.278-.289.677.677,0,0,0-.353-.123,1.3,1.3,0,0,0-.431.18,2.627,2.627,0,0,0-.441.361.323.323,0,0,1-.238.116A.289.289,0,0,1,17.1,24.3.429.429,0,0,0,16.988,24.283Zm2.587,1.085a.5.5,0,0,0-.291.16.4.4,0,0,0-.154.242.567.567,0,0,0,.094.31.371.371,0,0,0,.339.19.442.442,0,0,0,.464-.411.52.52,0,0,0-.154-.325A.451.451,0,0,0,19.575,25.367Zm21.7.963a1.067,1.067,0,0,1-.6-.182,1.094,1.094,0,0,1-.385-.458,1.065,1.065,0,0,1,.194-1.166,1,1,0,0,1,.758-.412,1.414,1.414,0,0,1,.626.182.866.866,0,0,1,.4.406,1.122,1.122,0,0,1,.1.564,1.251,1.251,0,0,1-.206.609,1,1,0,0,1-.514.4A1.207,1.207,0,0,1,41.27,26.331Zm.04-1.867a.868.868,0,0,0-.539.192.706.706,0,0,0-.236.519.8.8,0,0,0,.206.6.738.738,0,0,0,.526.217.782.782,0,0,0,.587-.267.752.752,0,0,0-.544-1.265Zm-6.023,1.508a.55.55,0,0,1-.311-.1.823.823,0,0,1-.261-.314.972.972,0,0,1-.137-.589.914.914,0,0,1,.277-.514c.2-.193.333-.272.461-.272a.606.606,0,0,1,.4.232.782.782,0,0,1,.251.662,1.027,1.027,0,0,1-.211.655A.618.618,0,0,1,35.287,25.971Zm0-1.41a.3.3,0,0,0-.186.067.475.475,0,0,0-.144.208.759.759,0,0,0,.038.565.429.429,0,0,0,.233.238.161.161,0,0,0,.048.007.364.364,0,0,0,.265-.181.7.7,0,0,0,.128-.388.587.587,0,0,0-.119-.379A.344.344,0,0,0,35.285,24.561ZM24.747,25.823a3.5,3.5,0,0,1-.541-.055,9.706,9.706,0,0,1-1.3-.258c-.292-.088-.441-.177-.456-.273a.812.812,0,0,1,.193-.6,2.425,2.425,0,0,1,.689-.61,6.154,6.154,0,0,0,2.557-3.9c.072-.388.15-.845.15-.932,0-.118-.382-.14-2.406-.14H21.229v5.314h.391c.365,0,.549.015.608.1.048.071.012.193-.066.378s-.16.381-.171.391h-.005a8.243,8.243,0,0,1-.832-.286,7.129,7.129,0,0,1-.807-.337.015.015,0,0,1,0-.015c.009-.038.123-.1.265-.155l.321-.12V19.05H16.015l-.06-.271A2.821,2.821,0,0,0,15.7,18.2a2.15,2.15,0,0,1-.241-.7,2.554,2.554,0,0,0-.842-1.4,1.445,1.445,0,0,1-.411-.522,8.312,8.312,0,0,1,1-1.935,9.638,9.638,0,0,1,1.042-1.174,3.446,3.446,0,0,1,.884-.731.024.024,0,0,0,.025-.013c.015-.033-.036-.12-.125-.217a.985.985,0,0,1-.261-1.173c.152-.384.148-.408-.22-1.273A9.615,9.615,0,0,0,15.9,7.761l-.281-.421.471-.2a3.084,3.084,0,0,1,.5-.181H16.6a.831.831,0,0,1-.08.3,2.077,2.077,0,0,0-.1.542l.01.271.281-.331L17,7.41l.16.471c.093.267.16.481.16.491h-.007c-.126-.008-.251-.018-.364-.03l-.381-.03.241.2a.969.969,0,0,0,.644.209,1.476,1.476,0,0,0,.592-.123.654.654,0,0,0,.355-.305.311.311,0,0,0-.1-.352.17.17,0,0,0-.122-.052.3.3,0,0,0-.259.323c0,.058-.011.094-.031.094s-.061-.046-.12-.124a1.127,1.127,0,0,1-.128-.752.234.234,0,0,1,.088-.161.287.287,0,0,1,.155-.041.585.585,0,0,1,.3.1.677.677,0,0,1,.237.246l.14.261.18-.351a.83.83,0,0,1,.212-.272.371.371,0,0,1,.226-.088.292.292,0,0,1,.242.139.716.716,0,0,1,.1.4c0,.309-.08.5-.154.5-.037,0-.07-.045-.1-.13a.232.232,0,0,0-.212-.189.237.237,0,0,0-.219.219A.277.277,0,0,0,18.9,8.3a1.04,1.04,0,0,0,.788.219c.561,0,.973-.231,1.073-.6a.194.194,0,0,0-.006-.164.088.088,0,0,0-.074-.031.764.764,0,0,0-.381.2,1.61,1.61,0,0,1-.291.2,3.8,3.8,0,0,1-.03-.6,4.7,4.7,0,0,1,.02-.6,3.419,3.419,0,0,1,.371.211.7.7,0,0,0,.3.119.063.063,0,0,0,.065-.033c.03-.069-.065-.232-.255-.437a1.336,1.336,0,0,1-.251-.321,4.2,4.2,0,0,1,.8-.04h.812l-.321.4c-.192.236-.279.39-.252.446a.049.049,0,0,0,.05.024.911.911,0,0,0,.353-.149l.341-.2.04.592a5.184,5.184,0,0,1,0,.591,1.555,1.555,0,0,1-.291-.2.848.848,0,0,0-.422-.21.085.085,0,0,0-.088.047c-.029.07.027.231.269.473s.367.291.832.291a1.967,1.967,0,0,0,.515-.058A.563.563,0,0,0,23.16,8.3a.273.273,0,0,0,.054-.238.25.25,0,0,0-.237-.228.224.224,0,0,0-.215.188c-.024.1-.048.142-.076.142s-.04-.02-.064-.061a1.207,1.207,0,0,1-.03-.822.221.221,0,0,1,.215-.16.742.742,0,0,1,.568.541c.025.075.045.119.074.119s.1-.08.2-.249c.13-.226.222-.3.378-.3a.7.7,0,0,1,.093.007.334.334,0,0,1,.263.156.751.751,0,0,1-.042.636c-.074.176-.16.285-.225.285a.062.062,0,0,1-.055-.043.33.33,0,0,1-.021-.131c0-.188-.048-.275-.151-.275a.311.311,0,0,0-.109.024.316.316,0,0,0-.141.291.472.472,0,0,0,.3.392,1.44,1.44,0,0,0,.649.148,1,1,0,0,0,.665-.209l.241-.2-.411.04-.411.05.2-.552c.118-.317.179-.434.225-.434.019,0,.037.02.055.063a1.225,1.225,0,0,0,.291.391l.231.2-.06-.4a3.035,3.035,0,0,0-.12-.571c-.019-.05-.029-.087-.016-.1a.038.038,0,0,1,.033-.013,1.7,1.7,0,0,1,.414.147l.5.211-.3.441a10.275,10.275,0,0,0-.652,1.263c-.312.724-.341.862-.241,1.133a1.508,1.508,0,0,1,.1.689,1.025,1.025,0,0,1-.248.554c-.124.15-.194.269-.178.3a.018.018,0,0,0,.018.009,3.289,3.289,0,0,1,.824.678,11.686,11.686,0,0,1,1.041,1.137l.461.611-.3.411a1.981,1.981,0,0,0-.3.541,9.594,9.594,0,0,0,.669,1.465,13.523,13.523,0,0,0,.895,1.563.789.789,0,0,1,.226.4,4.147,4.147,0,0,1-.015.84,9.257,9.257,0,0,1-.686,3.023,8.608,8.608,0,0,1-1.641,2.542,4.659,4.659,0,0,1-.725.689A1.015,1.015,0,0,1,24.747,25.823ZM21.229,12.914V18.75h2.356c2.071,0,2.366-.019,2.426-.16a3.153,3.153,0,0,0-.122-1.057,7.873,7.873,0,0,0-.4-1.35,6.16,6.16,0,0,0-.692-1.189,5.611,5.611,0,0,0-.9-.955,5,5,0,0,0-1.062-.683,4.467,4.467,0,0,0-1.177-.372Zm-.3.02-.221.01a4.413,4.413,0,0,0-.772.15,4.468,4.468,0,0,0-1.143.478,5.073,5.073,0,0,0-1.023.816,6.1,6.1,0,0,0-1.674,3.76l-.03.551,2.436.03,2.426.02V12.934Zm-.423-3.167a13.765,13.765,0,0,0-1.633.069,5.256,5.256,0,0,0-1.112.247,1.226,1.226,0,0,0-.593.375c-.1.145-.148.217-.134.3s.086.173.234.352l.251.3.582-.281a6.224,6.224,0,0,1,2.968-.6,7.812,7.812,0,0,1,1.545.13,4.817,4.817,0,0,1,1.252.431,2.722,2.722,0,0,0,.612.241.435.435,0,0,0,.309-.211.759.759,0,0,0,.152-.421.5.5,0,0,0-.256-.424,2.659,2.659,0,0,0-.827-.318A22.9,22.9,0,0,0,20.505,9.767Zm-.83,13.845c-.259,0-.3-.038-.3-.271a.338.338,0,0,0-.055-.248.56.56,0,0,0-.266-.143,2.594,2.594,0,0,1-.866-.6,3.461,3.461,0,0,1-.708-.924,4.276,4.276,0,0,1-.321-1.023,1.212,1.212,0,0,0-.221-.612.175.175,0,0,1-.086-.194.282.282,0,0,1,.286-.147,3.064,3.064,0,0,1,.682.17,1.424,1.424,0,0,0,.484.12,2.651,2.651,0,0,0,.687-.159h0a3.7,3.7,0,0,1,.876-.209.365.365,0,0,1,.3.139.5.5,0,0,1,.16.3c0,.083.053.14.1.14s.087.036.1.1a.2.2,0,0,1-.107.223c-.08.03-.13.506-.15,1.414C20.236,23.289,20.137,23.613,19.675,23.613Zm-.067-.542h-.013c-.043,0-.066,0-.068.013s.022.022.068.037a.173.173,0,0,1,.06.221c-.024.061-.031.095-.024.105a.009.009,0,0,0,.008,0c.014,0,.041-.019.086-.059a.189.189,0,0,0,.057-.209A.181.181,0,0,0,19.608,23.071ZM17.76,20.354c-.021,0-.04.117-.04.251a2.275,2.275,0,0,0,.682,1.384,2.464,2.464,0,0,0,.891.638c.021,0,.031-.009.031-.027,0-.036-.4-.621-.763-1.149S17.785,20.354,17.76,20.354Zm.391-.2c-.068,0-.13.029-.13.06s.315.514.722,1.093c.47.683.716.975.82.975.042,0,.062-.047.062-.143a5.672,5.672,0,0,0-.684-1.06A4.7,4.7,0,0,0,18.151,20.154Zm.592-.1a.1.1,0,0,0-.084.035.137.137,0,0,0,0,.126,8.066,8.066,0,0,0,.531.822c.283.4.4.536.463.536.027,0,.042-.029.049-.1a1.159,1.159,0,0,0-.206-.526,4.628,4.628,0,0,0-.456-.654C18.947,20.186,18.818,20.053,18.742,20.053Zm1.1-.386a1.386,1.386,0,0,0-.4.135l-.331.15.311.451a1.941,1.941,0,0,0,.371.451.008.008,0,0,0,.006,0A1.228,1.228,0,0,0,19.8,20.4a.788.788,0,0,1,.006-.439.031.031,0,0,1,.024-.012c.057,0,.1-.065.1-.15S19.912,19.667,19.843,19.667Zm2.891,3.879c-.07,0-.1-.035-.1-.114a.239.239,0,0,1,.13-.2.092.092,0,0,0,.064-.061A.073.073,0,0,0,22.8,23.1a.045.045,0,0,0-.033-.012.3.3,0,0,0-.2.163.425.425,0,0,1-.42.2c-.045,0-.094,0-.151-.005-.283-.02-.421-.079-.421-.18s.054-.126.185-.126c.032,0,.067,0,.106.006l.291.04-.261-.321c-.2-.238-.3-.439-.253-.537a.132.132,0,0,1,.133-.065.179.179,0,0,1,.15.19.354.354,0,0,0,.1.261.069.069,0,0,0,.033.009c.042,0,.067-.049.067-.129,0-.185.177-.431.311-.431.044,0,.13.081.191.15s.092.187.05.251a.045.045,0,0,0-.006.047c.018.033.088.053.186.053a.263.263,0,0,0,.2-.055.158.158,0,0,0,.033-.126.119.119,0,0,1,.024-.094c.058-.066.238-.086.617-.107.134-.007.245-.01.331-.01.155,0,.238.011.239.031s-.209.087-.58.15l-.541.09.481.01c.268.008.4.034.443.084a.053.053,0,0,1,.009.047.361.361,0,0,1-.261.16.229.229,0,0,0-.221.221c0,.2-.094.291-.371.351a4.064,4.064,0,0,0-.4.11A.472.472,0,0,1,22.734,23.546Zm.441-.567a.017.017,0,0,0-.013.006.212.212,0,0,0-.019.136c0,.065.01.105.027.105s.022-.016.033-.045a.2.2,0,0,0-.01-.19A.025.025,0,0,0,23.175,22.979Zm.516-.291-.106,0a.591.591,0,0,0-.233.021c0,.006.021.013.063.019a1.325,1.325,0,0,0,.208.015,1.05,1.05,0,0,0,.193-.015c.023-.008.034-.015.033-.021S23.788,22.688,23.691,22.688Zm.661-.746a.148.148,0,0,1-.115-.083.179.179,0,0,1-.036-.135.135.135,0,0,1,.066-.086c.031-.019.044-.035.04-.048s-.054-.032-.14-.032a.725.725,0,0,0-.441.211.443.443,0,0,1-.283.159c-.1,0-.162-.078-.188-.219a.136.136,0,0,1,0-.111.034.034,0,0,1,.028-.014.085.085,0,0,1,.043.014.11.11,0,0,0,.06.021.048.048,0,0,0,.05-.051c0-.069-.028-.1-.087-.1a1.34,1.34,0,0,0-.485.2,1.843,1.843,0,0,1-.85.223.511.511,0,0,1-.411-.129.16.16,0,0,1-.012-.154c.032-.073.115-.11.244-.11a.957.957,0,0,1,.127.01l.321.05-.271-.12a.489.489,0,0,1-.231-.207.38.38,0,0,1-.055-.25.146.146,0,0,1,.156-.124.154.154,0,0,1,.15.151c0,.077.049.15.1.15a.093.093,0,0,0,.1-.09.305.305,0,0,1,.137-.241.473.473,0,0,1,.271-.094.18.18,0,0,1,.2.165.893.893,0,0,1,0,.231.058.058,0,0,0,.012.047.109.109,0,0,0,.083.027.383.383,0,0,0,.1-.014.209.209,0,0,0,.144-.093.051.051,0,0,0,0-.047.062.062,0,0,1,0-.066c.033-.057.151-.111.333-.152a3.129,3.129,0,0,1,.649-.064h.061a1.08,1.08,0,0,1,.391.045c0,.005-.013.011-.04.015-.15.03-.234.106-.228.162s.06.069.148.069a.092.092,0,0,1,.072.029c.041.044.053.144.038.322C24.577,21.711,24.471,21.941,24.352,21.941Zm-.16-.757-.105,0a.6.6,0,0,0-.233.021c0,.006.021.013.063.019a1.321,1.321,0,0,0,.208.015,1.048,1.048,0,0,0,.193-.015c.023-.008.034-.015.033-.021S24.289,21.184,24.192,21.184Zm-.657-.208c-.093,0-.149.009-.152.024s.009.016.031.026a.418.418,0,0,0,.122.015.5.5,0,0,0,.129-.015c.018-.009.027-.017.025-.025S23.63,20.976,23.535,20.976Zm1.31-.451a.166.166,0,0,1-.147-.12.148.148,0,0,1,0-.129.046.046,0,0,1,.039-.021.092.092,0,0,0,.1-.08c0-.033-.058-.054-.152-.054a.868.868,0,0,0-.149.014c-.125.016-.236.058-.253.1a.022.022,0,0,0,0,.023.041.041,0,0,1,0,.045.805.805,0,0,1-.492.22.133.133,0,0,1-.066-.014.3.3,0,0,1-.09-.221c0-.069.028-.1.084-.1a.257.257,0,0,1,.1.024.335.335,0,0,0,.1.027c.007,0,.012,0,.013-.005s-.015-.034-.059-.072a.181.181,0,0,0-.146-.054,1.944,1.944,0,0,0-.556.144,3.379,3.379,0,0,1-1.1.237.493.493,0,0,1-.359-.1.18.18,0,0,1-.05-.187c.028-.059.112-.092.229-.092a.851.851,0,0,1,.172.019h.013a1.9,1.9,0,0,0,.209.028c.018,0,.026,0,.028-.008s-.042-.053-.129-.121h0a.774.774,0,0,0-.322-.171c-.065,0-.13-.028-.13-.08a2.384,2.384,0,0,0-.058-.291v-.009c-.029-.092-.031-.15-.006-.184a.124.124,0,0,1,.106-.037.148.148,0,0,1,.16.14.44.44,0,0,0,.15.261.186.186,0,0,0,.106.057c.047,0,.084-.052.144-.208a.353.353,0,0,1,.315-.25.218.218,0,0,1,.158.064.277.277,0,0,1,.068.206c0,.174.054.23.22.23a.219.219,0,0,0,.167-.052.159.159,0,0,0,.033-.129c-.01-.131.089-.18.441-.221a4.739,4.739,0,0,1,.483-.024c.357,0,.628.038.643.091,0,.011,0,.022-.023.034-.037.025-.053.045-.05.065s.047.055.141.086.211.108.211.16a.085.085,0,0,1-.092.089.2.2,0,0,1-.159-.1.323.323,0,0,0-.245-.068.994.994,0,0,0-.186.018c-.25.038-.393.077-.391.106s.141.044.391.044c.314,0,.523.065.605.187a.281.281,0,0,1,.006.275C25.015,20.444,24.929,20.524,24.845,20.524Zm-1.169-1.073c-.1,0-.169.02-.19.054a.045.045,0,0,0,0,.046.429.429,0,0,0,.311.1c.1,0,.169-.02.19-.054a.045.045,0,0,0,0-.046C23.958,19.495,23.824,19.452,23.675,19.452Zm-.316-1.005c-.017,0-.02-.043-.025-.127a.128.128,0,0,0-.112-.138,1.986,1.986,0,0,0-.48-.033,1.284,1.284,0,0,0-.662.1.165.165,0,0,1-.138.092.412.412,0,0,1-.253-.152.481.481,0,0,1-.15-.383.039.039,0,0,1,.038-.027.1.1,0,0,1,.052.019.017.017,0,0,0,.01,0c.057,0,.09-.335.09-.9,0-.783-.028-.962-.15-.962-.077,0-.15-.049-.15-.1s.065-.1.15-.1c.121,0,.15-.167.15-.852,0-.534-.041-.852-.11-.852-.036,0-.06-.025-.071-.072a.49.49,0,0,1,.181-.449.43.43,0,0,1,.18-.045c.105,0,.171.056.171.146a1.7,1.7,0,0,0,.612.421,4.4,4.4,0,0,1,1.063.782c.266.285.474.435.6.435a.134.134,0,0,0,.032,0,.582.582,0,0,1,.1-.012c.021,0,.033,0,.037.013s-.019.057-.063.11c-.1.117-.066.24.18.692a6.529,6.529,0,0,1,.461,1.163,1.242,1.242,0,0,0,.244.574l.007,0a.037.037,0,0,1,.019-.006.03.03,0,0,1,.022.011.306.306,0,0,1,.03.2.375.375,0,0,1-.13.238.361.361,0,0,1-.22.1.106.106,0,0,1-.11-.08c-.019-.058-.31-.1-.692-.1-.507,0-.692.04-.792.171h0C23.409,18.4,23.377,18.447,23.36,18.447Zm.014-.747a.451.451,0,0,1,.222.1,1.747,1.747,0,0,0,.732.15c.446,0,.51-.027.571-.241a2.328,2.328,0,0,0-.227-1.082c-.183-.461-.393-.788-.535-.833a.514.514,0,0,1-.251-.351,2.667,2.667,0,0,0-1.243-1.2l-.017-.008-.041-.02-.006,0h0a1.147,1.147,0,0,0-.369-.153.231.231,0,0,0-.127.056h0l0,0-.025.016c-.1.06-.12.268-.08.822l0,.067a9.125,9.125,0,0,1,0,1.722l0,.076c-.04.661-.019.863.1.983a.807.807,0,0,0,.529.143,1.02,1.02,0,0,0,.574-.143A.351.351,0,0,1,23.373,17.7Zm-3.2.649a.254.254,0,0,1-.19-.151.147.147,0,0,1,0-.129.047.047,0,0,1,.039-.021.092.092,0,0,0,.1-.08c0-.033-.058-.054-.152-.054a.885.885,0,0,0-.149.014.353.353,0,0,0-.242.1.032.032,0,0,0,0,.033.054.054,0,0,1,0,.058.66.66,0,0,1-.457.18.189.189,0,0,1-.133-.038.158.158,0,0,1-.034-.175.135.135,0,0,1,.195-.076.225.225,0,0,0,.064.03l0,0c0-.006-.015-.03-.067-.088A.2.2,0,0,0,19,17.892a1.919,1.919,0,0,0-.57.156,4.617,4.617,0,0,1-1.278.24c-.159,0-.247-.024-.256-.07-.022-.123-.027-.2.01-.249s.086-.05.189-.05c.044,0,.1,0,.171.008h0c.109.009.2.015.248.015s.066,0,.069-.016-.039-.056-.121-.121a.866.866,0,0,0-.321-.16c-.065,0-.13-.028-.13-.08a2.489,2.489,0,0,0-.059-.3v0a.223.223,0,0,1,.01-.189.083.083,0,0,1,.068-.033c.068,0,.166.069.232.222a.522.522,0,0,0,.251.261.2.2,0,0,0,.065.015c.016,0,.026,0,.03-.012s0-.02-.015-.033a.166.166,0,0,1-.011-.188.417.417,0,0,1,.322-.264.287.287,0,0,1,.244.156.249.249,0,0,1,.006.255.025.025,0,0,0,0,.027c.021.037.137.064.282.064s.23-.012.238-.037-.014-.036-.057-.063c-.079-.048-.113-.094-.1-.135s.112-.1.281-.131a4,4,0,0,1,.692-.049c.151,0,.314,0,.483.014a1.171,1.171,0,0,1,.367.037c0,.013-.063.03-.166.054l-.3.07.281.07c.173.046.284.151.275.215,0,.036-.045.056-.115.056-.033,0-.052.007-.059.021s.006.055.049.11a.456.456,0,0,1,.02.439C20.288,18.3,20.233,18.349,20.176,18.349Zm-.241-.9c-.153,0-.33.038-.361.1a.038.038,0,0,0,0,.041c.02.037.112.059.245.059a.557.557,0,0,0,.361-.1.038.038,0,0,0,0-.041C20.161,17.469,20.069,17.446,19.936,17.446Zm-.973-.2c-.1,0-.177.021-.2.056a.041.041,0,0,0,.005.045.354.354,0,0,0,.261.1c.1,0,.19-.049.19-.1S19.112,17.246,18.963,17.246Zm5.3.4a.309.309,0,0,1-.22-.138c-.051-.056-.069-.091-.061-.119s.043-.049.121-.071.106-.031.1-.04-.04-.015-.145-.021a.522.522,0,0,1-.371-.221.284.284,0,0,0-.212-.143.119.119,0,0,0-.093.042.238.238,0,0,0-.036.192.106.106,0,0,1-.027.091.679.679,0,0,1-.465.165h0a.32.32,0,0,1-.219-.066c-.085-.085-.121-.155-.1-.2s.054-.048.118-.048a.642.642,0,0,1,.135.017.693.693,0,0,0,.163.032.057.057,0,0,0,.05-.018c.014-.019.01-.055-.013-.124-.051-.112,0-.233.15-.341l.221-.17-.211-.06a.413.413,0,0,0-.128-.018.855.855,0,0,0-.363.088.9.9,0,0,1-.359.106.135.135,0,0,1-.042-.005.169.169,0,0,1-.125-.189.176.176,0,0,1,.185-.142c.154,0,.252-.039.29-.117.054-.108-.012-.289-.19-.525-.226-.3-.306-.468-.276-.576a.2.2,0,0,1,.136-.126.206.206,0,0,1,.057-.009c.063,0,.094.046.094.14a.85.85,0,0,0,.231.4c.119.107.181.155.235.155s.084-.035.136-.1.08-.1.07-.126-.037-.024-.1-.024a.242.242,0,0,1-.188-.125.509.509,0,0,1-.083-.276c0-.078.187-.146.34-.146a.356.356,0,0,1,.111.015.616.616,0,0,1,.241.261,1.369,1.369,0,0,1,.13.622.834.834,0,0,0,.291.742.88.88,0,0,0,.347.275.019.019,0,0,0,.014,0,.021.021,0,0,0,.008-.016.931.931,0,0,0-.258-.375,1.474,1.474,0,0,1-.263-.36.348.348,0,0,1-.049-.258.089.089,0,0,1,.091-.053c.057,0,.1.065.1.15a1.23,1.23,0,0,0,.3.481c.2.232.3.35.28.429-.012.054-.074.089-.2.143l-.231.09h.221a.317.317,0,0,1,.259.1.441.441,0,0,1,.012.366C24.438,17.554,24.361,17.644,24.266,17.644Zm-3.879-.8a.222.222,0,0,1-.224-.143.146.146,0,0,1,.073-.168c.035-.021.05-.038.047-.052s-.084-.039-.227-.039c-.216,0-.331.049-.331.14,0,.054-.06.114-.165.164a.781.781,0,0,1-.309.074.25.25,0,0,1-.127-.027c-.074-.046-.109-.107-.093-.162s.078-.089.163-.089c.067,0,.1-.008.108-.026s-.01-.047-.058-.094a.162.162,0,0,0-.121-.049,1.174,1.174,0,0,0-.45.17,2.938,2.938,0,0,1-1.125.264c-.148,0-.233-.026-.239-.073-.027-.14-.035-.225,0-.272s.081-.048.178-.048c.044,0,.1,0,.179.009l.4.02-.311-.17c-.17-.1-.291-.239-.271-.311a.091.091,0,0,0,0-.088.07.07,0,0,0-.061-.032.057.057,0,0,1-.049-.025.141.141,0,0,1,0-.126.211.211,0,0,1,.184-.147.165.165,0,0,1,.157.187c0,.155.04.248.107.248s.126-.072.184-.2a.354.354,0,0,1,.315-.23.28.28,0,0,1,.276.26c.02.129.1.231.18.231A.12.12,0,0,0,18.877,16a.15.15,0,0,0,.026-.127c-.02-.121.073-.191.321-.241a2.486,2.486,0,0,1,.442-.048.585.585,0,0,1,.109.008c.109.02.336.04.5.05.143.006.2.015.206.033s-.027.03-.1.058c-.092.035-.13.058-.13.078s.028.033.09.052.123.141.153.317a1.469,1.469,0,0,1,0,.477C20.482,16.778,20.44,16.845,20.387,16.845Zm-.221-.885a2.236,2.236,0,0,0-.491.083c-.114.03-.18.049-.178.062a1.1,1.1,0,0,0,.359.028c.26,0,.471-.04.471-.09S20.274,15.96,20.166,15.96Zm-1.023-.218c-.078,0-.111.006-.115.019s.023.037.095.081a.521.521,0,0,0,.231.1.042.042,0,0,0,.04-.017c.009-.016,0-.044-.02-.081A.28.28,0,0,0,19.143,15.742Zm1.235-.45a.205.205,0,0,1-.112-.061c-.068-.057-.1-.093-.093-.123s.024-.048.073-.078.054-.045.05-.06-.053-.03-.14-.03c-.131,0-.231.06-.231.14,0,.117-.182.208-.338.208a.205.205,0,0,1-.184-.078.108.108,0,0,1-.012-.091.164.164,0,0,1,.1-.09c.065-.024.1-.047.1-.071s-.012-.033-.041-.049a.16.16,0,0,0-.078-.021.118.118,0,0,0-.1.051.85.85,0,0,1-.45.241,2.469,2.469,0,0,1-.644.1c-.168,0-.271-.033-.29-.092a.213.213,0,0,1,0-.2.291.291,0,0,1,.247-.082,1.248,1.248,0,0,1,.142.009l.361.04-.17-.251c-.08-.12-.11-.2-.1-.253a.106.106,0,0,1,.057-.068.124.124,0,0,1,.069-.021.134.134,0,0,1,.112.061.066.066,0,0,0,.052.033c.044,0,.092-.06.139-.173.061-.143.183-.251.251-.251a.339.339,0,0,1,.266.145.232.232,0,0,1,.045.206.046.046,0,0,0,.006.045,1.13,1.13,0,0,0,.665.191.39.39,0,0,0,.191-.036c.058-.034.083-.071.073-.109-.022-.082-.2-.141-.424-.141-.2,0-.373-.043-.4-.1a.267.267,0,0,1,.028-.261.432.432,0,0,1,.323-.24.343.343,0,0,0,.251-.1.207.207,0,0,1,.17-.1.028.028,0,0,1,.028.015c.014.031-.026.106-.1.186a.992.992,0,0,1-.361.251c-.127.041-.2.093-.188.143.01.065.143.107.338.107a.815.815,0,0,1,.357.081.335.335,0,0,1,.183.175.125.125,0,0,1-.068.145.148.148,0,0,0-.076.088.138.138,0,0,0,.006.1.476.476,0,0,1,.01.321C20.445,15.253,20.418,15.292,20.379,15.292Zm10.052-3.1a.58.58,0,0,1-.581-.553.719.719,0,0,1,.233-.58.917.917,0,0,1,.584-.311.628.628,0,0,1,.368.141.527.527,0,0,1,.216.3.636.636,0,0,1-.016.353,1.008,1.008,0,0,1-.309.453A.781.781,0,0,1,30.431,12.193Zm.2-1.062a.531.531,0,0,0-.358.119.522.522,0,0,0-.1.443.215.215,0,0,0,.114.169.329.329,0,0,0,.113.019.625.625,0,0,0,.5-.325.311.311,0,0,0,.013-.326A.324.324,0,0,0,30.631,11.131ZM23.465,7.46h0l-.171-.311a1.109,1.109,0,0,1-.148-.548.909.909,0,0,1,.2-.5c.138-.2.218-.276.283-.276s.126.094.188.236a1,1,0,0,1-.12,1.1l-.23.291Zm-4.873,0h0l-.281-.341a1.248,1.248,0,0,1-.291-.481,1.525,1.525,0,0,1,.167-.486c.083-.167.187-.336.234-.336s.182.153.291.341a1.035,1.035,0,0,1,.2.489,1.008,1.008,0,0,1-.148.5l-.17.311Zm7.957-.245a.309.309,0,0,1-.056-.005.414.414,0,0,1-.312-.256.28.28,0,0,1,.051-.276.4.4,0,0,1,.3-.155.333.333,0,0,1,.3.185.343.343,0,0,1-.012.341A.32.32,0,0,1,26.549,7.215ZM15.527,7.2a.4.4,0,0,1-.344-.2.233.233,0,0,1,.02-.321.405.405,0,0,1,.3-.153.347.347,0,0,1,.308.2.309.309,0,0,1,.014.315A.35.35,0,0,1,15.527,7.2Zm-.2-.792a.359.359,0,0,1-.314-.185.5.5,0,0,1-.09-.252c.007-.058.054-.108.15-.2s.151-.152.216-.152a.611.611,0,0,1,.235.091.361.361,0,0,1,.181.266.389.389,0,0,1-.379.43ZM26.7,6.389a.255.255,0,0,1-.141-.042.407.407,0,0,1-.2-.319.32.32,0,0,1,.132-.272.336.336,0,0,1,.206-.071.365.365,0,0,1,.239.091.306.306,0,0,1,.106.23.4.4,0,0,1-.107.273A.324.324,0,0,1,26.7,6.389ZM21.43,6.116c-.09,0-.14-.018-.168-.118a2.953,2.953,0,0,1-.033-.614,2.949,2.949,0,0,1,.049-.722.194.194,0,0,1,.222-.15c.1,0,.13.195.13.8C21.63,6.041,21.611,6.116,21.43,6.116ZM20.686,6.1a.6.6,0,0,1-.079-.007c-.107-.017-.179-.045-.2-.078a.035.035,0,0,1,0-.032c.011-.042.02-.41.02-.772a3.141,3.141,0,0,1,.04-.7,1.382,1.382,0,0,1,.181.054h.019c.069.027.106.085.129.2a3.564,3.564,0,0,1,.031.609C20.828,6,20.818,6.1,20.686,6.1Zm-13.464-.5h0l-.491-.5a2.91,2.91,0,0,1-.361-.415c-.053-.087-.053-.144,0-.2s.086-.073.117-.073.065.028.1.093.067.092.081.092.019-.024.019-.081.009-.084.032-.084.055.021.119.074a.258.258,0,0,1,.11.261.159.159,0,0,0,.019.152.3.3,0,0,0,.242.117.228.228,0,0,0,.18-.078.234.234,0,0,0,.059-.241.1.1,0,0,0-.092-.061.192.192,0,0,0-.117.051.141.141,0,0,1-.089.036.115.115,0,0,1-.1-.079A.21.21,0,0,1,7.1,4.442a.1.1,0,0,0,.034-.078.234.234,0,0,0-.094-.152.482.482,0,0,1-.15-.321c0-.1.051-.166.137-.166a.4.4,0,0,1,.314.247c.057.105.135.174.2.174a.08.08,0,0,0,.022,0,.144.144,0,0,1,.193.109.139.139,0,0,1-.063.162.127.127,0,0,0-.075.143c.022.078.138.158.315.158a.428.428,0,0,0,.461-.421c0-.108-.037-.178-.093-.178s-.111.064-.147.168c-.029.068-.048.1-.075.1s-.067-.042-.136-.132c-.115-.149-.153-.234-.129-.283s.081-.058.2-.058.155,0,.16-.016-.041-.051-.134-.12h0l0,0h0c-.084-.065-.131-.1-.126-.135s.07-.062.216-.116a1.126,1.126,0,0,1,.341-.1.072.072,0,0,1,.062.023c.022.029.019.084-.011.19s-.034.155-.021.171a.013.013,0,0,0,.011.005c.022,0,.062-.03.13-.086s.128-.1.164-.1c.055,0,.084.08.137.263.028.083.04.135.022.16a.056.056,0,0,1-.049.018A.553.553,0,0,1,8.8,4.041a.365.365,0,0,0-.079-.011c-.067,0-.113.028-.122.074s.036.13.16.177a.344.344,0,0,0,.121.02.631.631,0,0,0,.445-.2.206.206,0,0,0,.056-.169.173.173,0,0,0-.172-.144.21.21,0,0,0-.038,0,.246.246,0,0,1-.045,0A.113.113,0,0,1,9,3.726c-.016-.056.025-.125.1-.176.059-.029.081-.166.05-.311a.485.485,0,0,1,0-.341.132.132,0,0,1,.111-.076c.085,0,.188.111.21.317.02.149.1.271.181.271a.136.136,0,0,1,.135.123.185.185,0,0,1-.116.208c-.048.02-.07.036-.074.055s.024.07.074.125S9.761,4,9.8,4s.1-.042.182-.115.114-.132.111-.172-.024-.055-.071-.088a.257.257,0,0,1-.1-.259A.434.434,0,0,1,10.17,3a.376.376,0,0,1,.11-.027c.049,0,.073.036.086.128a4.618,4.618,0,0,1,.015.511l-.01.692-.812.271a12.719,12.719,0,0,0-1.574.652L7.222,5.6Zm19.371-.141a.355.355,0,0,1-.31-.128.412.412,0,0,1,0-.384.245.245,0,0,1,.242-.134.426.426,0,0,1,.319.144.326.326,0,0,1,.075.343A.338.338,0,0,1,26.593,5.465Zm-11.129,0a.355.355,0,0,1-.31-.128.411.411,0,0,1,0-.384.245.245,0,0,1,.242-.134.426.426,0,0,1,.319.144.326.326,0,0,1,.075.343A.337.337,0,0,1,15.464,5.465Zm.422-.769a.387.387,0,0,1-.051,0,.352.352,0,0,1-.274-.16.429.429,0,0,1-.007-.382.245.245,0,0,1,.242-.134.425.425,0,0,1,.319.144.336.336,0,0,1,.057.359A.306.306,0,0,1,15.886,4.7Zm10.306-.033c-.215,0-.311-.052-.331-.181a.38.38,0,0,1,.082-.316.371.371,0,0,1,.284-.139.335.335,0,0,1,.055,0c.159.02.211.1.211.331C26.493,4.632,26.462,4.663,26.192,4.663Zm-4.121-.05a.517.517,0,0,1-.273-.152c-.081-.073-.168-.177-.168-.249a.491.491,0,0,1,.159-.242.493.493,0,0,1,.242-.159.479.479,0,0,1,.241.16.486.486,0,0,1,.16.281.425.425,0,0,1-.361.361Zm-2.088-.019a.354.354,0,0,1-.3-.222.377.377,0,0,1,.045-.411.336.336,0,0,1,.251-.143.331.331,0,0,1,.23.113.383.383,0,0,1,.116.289.419.419,0,0,1-.156.3A.28.28,0,0,1,19.983,4.594Zm-13.852-.1a.234.234,0,0,1-.235-.2.223.223,0,0,1,.063-.207.27.27,0,0,1,.193-.068.283.283,0,0,1,.268.138.215.215,0,0,1-.033.2A.321.321,0,0,1,6.131,4.489ZM19.145,4.18a.4.4,0,0,1-.122-.019.3.3,0,0,1-.2-.272.374.374,0,0,1,.167-.37.36.36,0,0,1,.169-.041.392.392,0,0,1,.251.092.3.3,0,0,1,.112.23.378.378,0,0,1-.38.38Zm3.678-.019a.276.276,0,0,1-.238-.117.423.423,0,0,1-.013-.394c.031-.083.147-.137.3-.137s.292.049.336.157a.344.344,0,0,1-.04.321A.41.41,0,0,1,22.823,4.161Zm-1.735-.05a1.46,1.46,0,0,1-.807-.246.708.708,0,0,1-.356-.547c0-.071.392-.11,1.1-.11s1.1.038,1.1.11a1.344,1.344,0,0,1-.341.451,1.3,1.3,0,0,1-.343.268A.768.768,0,0,1,21.089,4.111Zm-4.566,0a.292.292,0,0,1-.056-.005.414.414,0,0,1-.312-.256.279.279,0,0,1,.051-.276.4.4,0,0,1,.3-.155.332.332,0,0,1,.3.185.342.342,0,0,1-.012.341A.321.321,0,0,1,16.522,4.106ZM25.439,4.1a.227.227,0,0,1-.249-.185.389.389,0,0,1,.056-.347.346.346,0,0,1,.279-.139.415.415,0,0,1,.057,0c.159.02.21.1.21.331,0,.256-.046.311-.271.331A.744.744,0,0,1,25.439,4.1ZM23.7,3.911a.311.311,0,0,1-.319-.2.363.363,0,0,1,.34-.492.35.35,0,0,1,.312.2.26.26,0,0,1-.01.351A.426.426,0,0,1,23.7,3.911ZM18.271,3.86a.338.338,0,0,1-.326-.159.327.327,0,0,1,.075-.342.331.331,0,0,1,.254-.145A.408.408,0,0,1,18.5,3.3a.322.322,0,0,1,.1.321.247.247,0,0,1-.083.192A.425.425,0,0,1,18.271,3.86Zm6.367-.05A.375.375,0,0,1,24.3,3.65a.4.4,0,0,1,.058-.366.357.357,0,0,1,.283-.175.4.4,0,0,1,.3.191.373.373,0,0,1,.025.368A.36.36,0,0,1,24.638,3.81Zm-18.549,0a.317.317,0,0,1-.241-.09.252.252,0,0,1,.007-.258.278.278,0,0,1,.234-.153.282.282,0,0,1,.238.409A.274.274,0,0,1,6.089,3.81Zm11.28-.05c-.215,0-.311-.052-.331-.181a.437.437,0,0,1,.1-.345.311.311,0,0,1,.229-.126.42.42,0,0,1,.251.15.325.325,0,0,1,.075.343A.337.337,0,0,1,17.369,3.76ZM6.49,3.3c-.047,0-.1-.043-.17-.113-.133-.143-.138-.2-.03-.321.068-.087.16-.16.2-.16s.133.073.2.16c.108.118.1.178-.03.321C6.585,3.259,6.537,3.3,6.49,3.3ZM7.2,3.209a.3.3,0,0,1-.26-.107.268.268,0,0,1-.011-.253.184.184,0,0,1,.174-.128.254.254,0,0,1,.168.072.337.337,0,0,1,.1.2.205.205,0,0,1-.019.173A.186.186,0,0,1,7.2,3.209Zm.723-.014a.273.273,0,0,1-.251-.128.76.76,0,0,1-.081-.4c0-.147-.007-.218-.05-.218a.188.188,0,0,0-.091.047.2.2,0,0,1-.118.061c-.046,0-.084-.038-.142-.142s-.069-.153-.053-.181.044-.029.1-.029c.077,0,.13-.03.144-.08S7.358,2,7.272,1.945a.08.08,0,0,1-.04-.061c0-.038.034-.085.111-.149A.545.545,0,0,1,7.6,1.614c.067,0,.1.059.1.191,0,.1.009.156.057.156a.38.38,0,0,0,.143-.056.412.412,0,0,1,.154-.05c.031,0,.047.014.047.04a1.132,1.132,0,0,0,.06.251c.019.056.019.093,0,.118s-.071.043-.162.043-.153,0-.16.022.055.077.2.188a.687.687,0,0,1,.2.239.336.336,0,0,1,.031.231.294.294,0,0,1-.266.2A.582.582,0,0,1,7.925,3.194ZM21.61,2.908h-.381V2.457c0-.287.025-.443.155-.443a.624.624,0,0,1,.256.092,1.25,1.25,0,0,1,.434.65.11.11,0,0,1-.013.092A1.223,1.223,0,0,1,21.61,2.908Zm-1.436-.013c-.185,0-.248-.032-.248-.127,0-.228.5-.762.712-.762a.176.176,0,0,1,.139.04c.044.048.052.144.032.381-.03.431-.03.431-.451.461C20.279,2.892,20.221,2.895,20.174,2.895ZM10.2,2.807a.344.344,0,0,1-.251-.1A.227.227,0,0,1,9.981,2.5c.052-.094.144-.19.219-.19a.437.437,0,0,1,.2.15.218.218,0,0,1,.056.231A.267.267,0,0,1,10.2,2.807ZM8.442,2.6c-.1,0-.147-.05-.147-.169a.446.446,0,0,1,.07-.261A.186.186,0,0,1,8.5,2.111a.253.253,0,0,1,.247.245.224.224,0,0,1-.221.231A.461.461,0,0,1,8.442,2.6Zm1.367-.289a.351.351,0,0,1-.261-.1.248.248,0,0,1-.006-.257A.292.292,0,0,1,9.8,1.8c.148,0,.2.066.2.251S9.948,2.306,9.809,2.306Zm-.774-.112c-.108,0-.139-.054-.139-.239s.031-.239.139-.239a.572.572,0,0,1,.092.009.231.231,0,0,1,0,.461A.6.6,0,0,1,9.035,2.195Zm12.575-.34h0l-.591-.03-.582-.04.211-.291c.121-.159.174-.282.147-.337a.056.056,0,0,0-.056-.028.669.669,0,0,0-.312.155,1.6,1.6,0,0,1-.351.221,1.49,1.49,0,0,1-.05-.552A2,2,0,0,1,20.066.4a1.922,1.922,0,0,1,.4.21.854.854,0,0,0,.305.138.035.035,0,0,0,.034-.016c.023-.041-.029-.16-.179-.413L20.427,0h.552a.388.388,0,0,1,.348.18.25.25,0,0,1-.007.262c-.117.2-.157.3-.137.329a.03.03,0,0,0,.029.014A1.124,1.124,0,0,0,21.59.592l.341-.211V1.514l-.261-.2a.8.8,0,0,0-.376-.2.064.064,0,0,0-.062.032c-.034.068.034.227.188.438l.19.271Z" transform="translate(775.273 -1070.002)" fill="#201e1e"/>
    </g>
  </g>
</svg>
