<svg xmlns="http://www.w3.org/2000/svg" width="125.909" height="19.305" viewBox="0 0 125.909 19.305">
  <g id="Example_Company_Samsung_State_00" transform="translate(-1.678 -1.544)">
    <path id="Path_608" data-name="Path 608" d="M10.035,15.169a2.356,2.356,0,0,1,.034,1.331,1.558,1.558,0,0,1-1.753,1.213,1.61,1.61,0,0,1-1.808-1.631V14.336H1.678v1.386c0,4.014,3.156,5.227,6.541,5.227,3.253,0,5.932-1.107,6.359-4.111a8.793,8.793,0,0,0-.017-2.949c-.761-3.769-7.588-4.893-8.1-7a2.3,2.3,0,0,1-.017-.946A1.483,1.483,0,0,1,8.087,4.733,1.531,1.531,0,0,1,9.756,6.364V7.479h4.491V6.211c0-3.921-3.52-4.534-6.063-4.534-3.2,0-5.818,1.061-6.3,4A6.277,6.277,0,0,0,1.931,8.1c.782,3.676,7.174,4.741,8.1,7.069" transform="translate(0 -0.1)" fill="#707070"/>
    <path id="Path_609" data-name="Path 609" d="M68.271,3.947,64.933,21.942H69.8l2.463-16.33h.1l2.4,16.33h4.838l-3.317-18Zm27.189,0L93.241,17.7h-.106L90.922,3.947H83.583l-.4,17.995h4.5L87.8,5.764h.1l3,16.178h4.567L98.48,5.768h.1l.114,16.174h4.5l-.4-18Z" transform="translate(-47.326 -1.795)" fill="#707070"/>
    <path id="Path_610" data-name="Path 610" d="M10.035,15.169a2.356,2.356,0,0,1,.034,1.331,1.558,1.558,0,0,1-1.753,1.213,1.61,1.61,0,0,1-1.808-1.631V14.336H1.678v1.386c0,4.014,3.156,5.227,6.541,5.227,3.253,0,5.932-1.107,6.359-4.111a8.793,8.793,0,0,0-.017-2.949c-.761-3.769-7.588-4.893-8.1-7a2.3,2.3,0,0,1-.017-.946A1.483,1.483,0,0,1,8.087,4.733,1.531,1.531,0,0,1,9.756,6.364V7.479h4.491V6.211c0-3.921-3.52-4.534-6.063-4.534-3.2,0-5.818,1.061-6.3,4A6.277,6.277,0,0,0,1.931,8.1c.782,3.676,7.174,4.741,8.1,7.069" transform="translate(58.506 -0.134)" fill="#707070"/>
    <path id="Path_611" data-name="Path 611" d="M308.387,17.8a1.618,1.618,0,0,0,1.724-1.3,3.941,3.941,0,0,0,.042-.689V2.5h4.555V15.4q0,.592-.042,1.183c-.317,3.359-2.97,4.449-6.279,4.449s-5.966-1.09-6.283-4.449c-.013-.177-.046-.853-.042-1.183V2.5h4.555V15.809a3.593,3.593,0,0,0,.042.693,1.616,1.616,0,0,0,1.728,1.3m22-15.3.245,14.125h-.1L326.4,2.5h-6.676v17.8h4.424L323.9,5.694h.1l4.441,14.615h6.41V2.5Zm15.527,15.113a1.68,1.68,0,0,0,1.838-1.31,3.873,3.873,0,0,0,.042-.676v-2.62h-1.846v-2.62h6.376v4.825a11.142,11.142,0,0,1-.063,1.183c-.3,3.279-3.139,4.449-6.329,4.449s-6.029-1.17-6.329-4.449c-.051-.6-.063-.845-.063-1.183V7.646c0-.321.042-.887.076-1.183.4-3.367,3.127-4.449,6.317-4.449s5.987,1.073,6.317,4.445a10.492,10.492,0,0,1,.042,1.183v.6h-4.538V7.236a4.267,4.267,0,0,0-.055-.684,1.644,1.644,0,0,0-1.8-1.31,1.662,1.662,0,0,0-1.791,1.31,4.069,4.069,0,0,0-.076.849v8.226a4.443,4.443,0,0,0,.042.684,1.689,1.689,0,0,0,1.842,1.306" transform="translate(-224.742 -0.352)" fill="#707070"/>
  </g>
</svg>
