<?xml version="1.0" encoding="UTF-8"?>
<!DOCTYPE svg PUBLIC "-//W3C//DTD SVG 1.1//EN" "http://www.w3.org/Graphics/SVG/1.1/DTD/svg11.dtd">
<svg version="1.1" xmlns="http://www.w3.org/2000/svg" xmlns:xlink="http://www.w3.org/1999/xlink" x="0" y="0" width="595.276" height="141.732" viewBox="0, 0, 595.276, 141.732">
  <g id="Ebene_x0020_1">
    <path d="M567.053,29.827 L567.053,46.35 C558.493,43.119 550.872,41.485 544.202,41.485 C540.251,41.485 537.105,42.216 534.739,43.631 C532.373,45.057 531.166,46.813 531.166,48.886 C531.166,51.642 533.837,54.093 539.214,56.288 L554.75,63.849 C567.31,69.836 573.541,77.786 573.541,87.773 C573.541,96.077 570.236,102.699 563.566,107.601 C556.944,112.552 548.031,115.003 536.934,115.003 C531.812,115.003 527.216,114.783 523.131,114.32 C519.046,113.881 514.351,112.978 509.144,111.686 L509.144,94.395 C518.692,97.626 527.386,99.26 535.215,99.26 C544.555,99.26 549.201,96.553 549.201,91.09 C549.201,88.371 547.299,86.176 543.434,84.456 L526.179,77.103 C519.814,74.226 515.082,70.738 511.985,66.604 C508.937,62.434 507.388,57.654 507.388,52.191 C507.388,44.545 510.607,38.387 516.972,33.705 C523.386,29.059 531.898,26.73 542.482,26.73 C545.921,26.73 549.884,27.034 554.274,27.595 C558.701,28.193 562.956,28.925 567.053,29.827 z" fill="#616364"/>
    <path d="M81.364,29.827 L81.364,46.35 C72.804,43.119 65.194,41.485 58.524,41.485 C54.561,41.485 51.427,42.216 49.062,43.631 C46.696,45.057 45.489,46.813 45.489,48.886 C45.489,51.642 48.196,54.093 53.574,56.288 L69.109,63.849 C81.62,69.836 87.863,77.786 87.863,87.773 C87.863,96.077 84.547,102.699 77.925,107.601 C71.255,112.552 62.39,115.003 51.257,115.003 C46.135,115.003 41.526,114.783 37.441,114.32 C33.356,113.881 28.71,112.978 23.467,111.686 L23.467,94.395 C33.051,97.626 41.745,99.26 49.525,99.26 C58.866,99.26 63.512,96.553 63.512,91.09 C63.512,88.371 61.622,86.176 57.793,84.456 L40.538,77.103 C34.124,74.226 29.393,70.738 26.344,66.604 C23.247,62.434 21.735,57.654 21.735,52.191 C21.735,44.545 24.93,38.387 31.332,33.705 C37.697,29.059 46.221,26.73 56.805,26.73 C60.28,26.73 64.195,27.034 68.633,27.595 C73.023,28.193 77.279,28.925 81.364,29.827 z" fill="#616364"/>
    <path d="M97.167,28.278 L122.47,28.278 L122.47,113.454 L97.167,113.454 z" fill="#616364"/>
    <path d="M203.987,28.278 L203.987,44.021 L166.393,44.021 L166.393,62.909 L199,62.909 L199,77.103 L166.393,77.103 L166.393,96.931 L204.756,96.931 L204.756,113.454 L142.042,113.454 L142.042,28.278 z" fill="#616364"/>
    <path d="M321.111,28.278 L321.111,113.454 L297.49,113.454 L297.49,57.276 L272.981,114.234 L258.397,114.234 L234.826,57.276 L234.826,113.454 L217.742,113.454 L217.742,28.278 L248.63,28.278 L269.713,80.42 L291.772,28.278 z" fill="#616364"/>
    <path d="M402.593,28.278 L402.593,44.021 L365.204,44.021 L365.204,62.909 L397.811,62.909 L397.811,77.103 L365.204,77.103 L365.204,96.931 L403.361,96.931 L403.361,113.454 L340.647,113.454 L340.647,28.278 z" fill="#616364"/>
    <path d="M492.377,28.278 L492.377,113.454 L465.538,113.454 L435.42,58.824 L435.42,113.454 L418.347,113.454 L418.347,28.278 L445.968,28.278 L475.307,81.969 L475.307,28.278 z" fill="#616364"/>
  </g>
</svg>
