<svg xmlns="http://www.w3.org/2000/svg" width="256" height="256" viewBox="0 0 256 256">
  <g id="Tower_of_london" data-name="Tower of london" transform="translate(3138 -1551)">
    <rect id="Rectangle_25" data-name="Rectangle 25" width="256" height="256" rx="50" transform="translate(-3138 1551)" fill="#f9f9f9"/>
    <g id="Tower-of-London" transform="translate(-3169.732 1996.203)">
      <path id="Path_1132" data-name="Path 1132" d="M375.022-366.546a.448.448,0,0,0,.409.454c.182,0,.273.545.136,1.227-.227,1.181-4.316,5.588-5.179,5.588-.545,0-.454.545.273,1.318.409.454.681,1.954.727,4.134.136,4.68.136,4.634-1,4.452-.772-.091-1.09-.5-1.181-1.408-.136-1.045-.363-1.227-1.5-1.227s-1.363.227-1.59,1.363c-.318,1.545-2,2-2,.5a1.622,1.622,0,0,0-3.18-.5,1.231,1.231,0,0,1-1.363,1.136c-.636,0-1.181-.273-1.181-.591-.045-.273-.091-.772-.136-1.045,0-.273-.591-.409-1.272-.318-.909.091-1.318.409-1.408,1.181-.227,1.5-2.544,1.272-2.726-.273-.136-.863-.363-1.045-1.136-.818a11.143,11.143,0,0,1-1.272.273c-.182,0-.409.409-.545.863-.182.772-.681.863-3.907.863-3.635.045-3.68.045-3.68-1.09,0-1-.182-1.136-1.454-1-1.136.091-1.545.363-1.636,1.136a1.182,1.182,0,0,1-2.362-.091c0-.954-.227-1.136-1.363-1.136s-1.363.182-1.363,1.136c0,.636-.182,1.181-.454,1.181-1.318.227-1.59.091-1.817-.954-.227-.909-.545-1.136-1.59-1.136s-1.363.227-1.59,1.136c-.182.727-.591,1.136-1.136,1.136s-.954-.409-1.136-1.136c-.227-.909-.545-1.136-1.59-1.136s-1.363.227-1.59,1.136c-.182.727-.591,1.136-1.136,1.136-.772,0-.909-.363-1-3.407-.045-2.408.136-3.725.636-4.589.727-1.181.681-1.272-1.318-3.317a9.826,9.826,0,0,0-2.59-2.09c-.273,0-.5-.863-.5-2.044,0-1.5-.182-2.044-.682-2.044a.827.827,0,0,0-.727.772c-.091,2.272-.454,2.953-2.771,5.225-2.408,2.317-2.5,2.5-1.908,3.589.454.863.682,5.861.909,20.535l.318,19.4,34.347-.091,34.347-.136v-19.763c0-14.993.136-19.99.591-20.763.727-1.272.682-1.5-.136-1.5-.363,0-.681-.182-.681-.409,0-.545-1.954-2.59-3.135-3.18a1.668,1.668,0,0,1-.909-1.318c.182-2.044-.045-2.817-.954-2.817C375.43-367,375.022-366.818,375.022-366.546ZM336.45-345.193a1.894,1.894,0,0,1,.863,1.59c0,1-.182,1.136-1.59,1.136-1.363,0-1.59-.136-1.59-1.045a2.482,2.482,0,0,1,.545-1.59C335.359-345.783,335.359-345.783,336.45-345.193Zm10.586-.182a1.641,1.641,0,0,1,.727,1.59c0,1.181-.136,1.318-1.59,1.318-1.363,0-1.59-.136-1.59-1.045,0-1,.727-2.135,1.408-2.135A5.068,5.068,0,0,1,347.035-345.374Zm11.085,1.454c.136,1.454.091,1.5-1.363,1.363q-1.5-.136-1.636-.954a1.731,1.731,0,0,1,1.908-2.044C357.757-345.465,358.03-345.056,358.121-343.92Zm10.9-.045c.136,1.454.091,1.5-1.408,1.5-1.772,0-2.408-.909-1.636-2.317a1.472,1.472,0,0,1,1.681-.772C368.661-345.465,368.934-345.147,369.025-343.966Zm-42.388.363c0,1.227-.136,1.363-1.363,1.363-.954,0-1.408-.227-1.5-.818-.273-1.5.273-2.226,1.59-2.044C326.454-344.965,326.636-344.738,326.636-343.6Zm20.4,5.952c.545.227.727.909.727,2.726v2.453h-3.18v-2.181C344.582-337.424,345.309-338.287,347.035-337.651Zm10.449,0c.545.227.727.909.727,2.726,0,2.408,0,2.453-1.363,2.453s-1.363-.045-1.363-2.408C355.486-337.878,355.8-338.287,357.485-337.651Zm10.9,0c.545.227.727.909.727,2.726v2.453h-3.18v-2.408C365.935-337.923,366.389-338.423,368.388-337.651Zm-41.616,3.044.136,2.635-1.5-.136c-1.408-.136-1.5-.227-1.636-2.135-.182-2.726.091-3.317,1.59-3.135C326.591-337.242,326.636-337.106,326.773-334.607Zm10.313-.136c0,2.453,0,2.5-1.363,2.5-1.227,0-1.363-.182-1.5-1.545-.273-2.681.227-3.771,1.636-3.589C337.04-337.242,337.086-337.106,337.086-334.743Zm-10.222,10.949v3.589h-3.18v-3.407c0-3.589.5-4.452,2.317-4C326.773-327.383,326.863-326.883,326.863-323.794Zm9.9-3.589c.318.318.545,1.908.545,3.907v3.317l-1.454-.136-1.5-.136-.045-2.953C334.223-327.428,335.177-328.973,336.768-327.383Zm10.9,3.453.136,3.771-1.5-.136-1.5-.136-.136-3.089c-.136-3.407.363-4.543,1.908-4.316C347.444-327.7,347.535-327.338,347.671-323.93Zm10.54-.454c.273,3.816.091,4.316-1.408,4.089-1-.136-1.09-.363-1.227-3.271-.182-3.816.045-4.452,1.363-4.271C357.894-327.7,357.984-327.383,358.212-324.385Zm10.813.182.136,3.544h-3.226v-3.317a12.45,12.45,0,0,1,.318-3.68,2.3,2.3,0,0,1,1.5-.182C368.843-327.7,368.888-327.565,369.025-324.2Z" transform="translate(-133.102)"/>
      <path id="Path_1133" data-name="Path 1133" d="M67.687-315.455a22.465,22.465,0,0,0-.5,3.589c-.318,3.089-.273,3.226.681,3.226.545,0,.954-.273.954-.636a4.435,4.435,0,0,1,1.09-1.908c.909-1.09,1.408-1.272,3.5-1.318h2.453l-.136,10.4c-.091,6.361-.318,10.677-.591,10.995a3.206,3.206,0,0,1-1.681.727c-1.5.182-1.772,1.863-.318,2.09,3.135.454,3.135.363.227,3.271a11.321,11.321,0,0,0-3.68,5.952c-2.135,7.042.5,14.584,6.315,17.991,2.681,1.59,8.4,2,11.722.863,1.5-.5,2.317-.591,2.681-.273s3,.409,6.633.363c5.225-.136,6.088-.227,6.224-.909.091-.5-.318-.818-1.363-1.045a6.622,6.622,0,0,1-2.044-.772c-.772-.636-.818-9.041-.045-9.813.636-.636,3.953-.727,5.588-.091a2.214,2.214,0,0,1,1.408,1.817c.227.954.545,1.363,1.136,1.363.772,0,.863-.409.863-5,0-4.225-.091-5-.727-5-.363,0-.909.636-1.181,1.408-.591,1.726-1.726,2.135-4.861,1.817l-2.453-.273.091-4.089a23.413,23.413,0,0,1,.363-4.452c.273-.454,7.087-.182,8.4.363a4.581,4.581,0,0,1,1.59,2.09c1.181,2.544,2.135,2.181,2.317-.954.273-4.589.318-4.543-5.134-4.543-4.452,0-6-.454-3.862-1.136,2.317-.727,6.361-6.951,6.361-9.813a1.493,1.493,0,0,1,.363-1.045c.545-.318,4.361,11.04,4.271,12.676-.091,1.318.045,1.454,1.59,1.863l1.726.409.136,11.085c.091,7.769-.045,11.267-.409,11.676a2.525,2.525,0,0,1-1.772.636c-1.272,0-1.863.681-1.5,1.681.182.454,2.771.591,11.085.591h10.858l.681-1.09.727-1.09,2.59,1.363c2.408,1.272,2.862,1.318,6.679,1.181a14.26,14.26,0,0,0,5.634-.954c1.408-.681,1.636-.727,1.954-.091.318.545,1.408.681,5.634.681,4.725,0,5.225-.091,5.088-.772-.091-.454-.772-.909-1.681-1.09a3.552,3.552,0,0,1-1.908-.954c-.5-.772-.545-16.128,0-16.446.409-.273,1,.409,9.5,10.813,3.044,3.68,5.543,7.087,5.543,7.542a1.406,1.406,0,0,0,.545,1.181,60.5,60.5,0,0,0,8.9.227c9.223-.136,11.494-.545,14.538-2.771a11.8,11.8,0,0,1,2.272-1.363,4.856,4.856,0,0,1,1.636,1.318c3.453,3.589,9.813,5,15.174,3.317,2.272-.727,2.908-.772,3.18-.318.363.727,7.5,1.363,9.632.909,2-.454,1.817-1.772-.318-2.317l-1.726-.409-.136-8.632c-.091-7.905-.045-8.541.636-7.905.409.409,4,4.68,8.042,9.541,7.769,9.223,9.177,10.631,10.449,10.131.681-.273.772-1.454.772-13.221v-12.9l1.817-.772c1.136-.5,1.817-1.09,1.817-1.59,0-.681-.545-.772-5.406-.772-4.5,0-5.452.136-5.679.727-.363.954.045,1.545,1.136,1.545a3.167,3.167,0,0,1,1.772.909c.818.818.909,1.5.909,7.951,0,4.316-.182,7.042-.454,7.042a118.308,118.308,0,0,1-8.178-9.041l-7.723-9-4-.273a15.462,15.462,0,0,0-4.589.136,3.5,3.5,0,0,1-2.135-.273c-3.544-1.454-9.9-.409-13.357,2.181-1.09.818-2.226,1.681-2.5,1.908-.409.318-1.181-.091-2.453-1.181-2.862-2.408-4.634-2.771-15.038-3.089-8.95-.227-9.314-.273-9.45-1.181-.091-.636-.681-1.045-2.09-1.454-2.09-.545-3.089-1.59-7.224-7.451l-2.181-3.044,1.5-.682a9.824,9.824,0,0,0,2.862-2.044c1.227-1.318,1.363-1.772,1.363-4.271,0-3.317-1.045-5.179-3.725-6.5-1.59-.772-3.18-.863-18.4-1-14.811-.136-16.719-.045-16.719.545,0,.409.681,1,1.545,1.363,1.5.636,1.545.727,1.136,2.181-1.045,3.725-4.816,13.584-5.225,13.675-.545.091-5.179-13.266-5.043-14.675a1.373,1.373,0,0,1,1.227-1.363,1.709,1.709,0,0,0,1.272-1.045c.136-.681-.409-.772-5.316-.772a25.568,25.568,0,0,0-5.679.363c-.318.545.273,1.181,1.636,1.772.863.363,1.454,1.272,2.135,3.089a20.9,20.9,0,0,1,.954,2.862c0,.818-3.5,9.722-3.862,9.768-.545.136-5.361-14.538-5.043-15.356a1.261,1.261,0,0,1,1.136-.681c.863,0,1.636-1.136,1.045-1.545-.863-.5-9.677-.818-10.222-.318-.454.363-1.181.318-2.771-.227a14.589,14.589,0,0,0-9.359.454c-1.272.591-1.59.636-2,.091-.409-.5-2.862-.681-11.04-.863C72.685-315.728,67.823-315.682,67.687-315.455Zm32.938,3.317c2.635,1.726,3.317,3.453,3.544,9.041.227,5.815-.318,8.4-2.362,10.586-2.726,2.862-7.36,3.044-9.9.363-2.044-2.226-2.771-4.225-3-8.178-.318-6.088,1.454-10.813,4.589-12.176C95.764-313.5,98.9-313.365,100.626-312.139Zm-14.493.182c.318.318.091,1.045-.681,2.135-1.5,2.226-2.226,5.77-2.044,9.632a12.9,12.9,0,0,0,4.952,9.95c2.226,1.772,3.135,3.407,1.5,2.726-.454-.182-1.954-.681-3.317-1.045a11.307,11.307,0,0,1-2.771-1.09,3.885,3.885,0,0,0-1.59-.772l-1.318-.318-.136-10.631c-.091-8.178.045-10.722.454-10.995C81.907-312.866,85.542-312.547,86.133-311.957Zm66.286,1.272c.5,1.045.727,3.407.818,9.768.182,10.54.409,10.131-6.542,10.359-5.543.182-5.316.454-5.088-5.815l.136-3.862,3.544-.136c3.953-.136,4.634.136,5.088,2.226.227.954.545,1.318,1.045,1.227.681-.136.772-.863.772-5.134,0-3.907-.136-5-.636-5-.318,0-.818.681-1.136,1.545-.591,1.863-2.135,2.453-6.088,2.226l-2.59-.136-.136-2.5a23.561,23.561,0,0,1,.136-4.452l.273-1.954,4.861.136,4.861.136Zm12.13-.045a5.47,5.47,0,0,1,.182,6.27c-1.363,1.681-6.088,2.908-6.5,1.59a41.576,41.576,0,0,1,0-5.043l.136-4.452,2.544.182C163-312,163.686-311.73,164.549-310.73Zm-27.941,19.354a3.082,3.082,0,0,1-1.954,1.59c-.863.318-1.545.818-1.545,1.181,0,.5.909.681,3.771.772,2.044.091,3.725.273,3.68.454a7.836,7.836,0,0,1-2.135,1.726c-5.225,3.407-7.405,10.995-5.043,17.446,1.5,4.134,1.545,4.316.182,4.907-1.59.727-9.4.727-10.131,0-.681-.681-.772-19.218-.136-20.944.318-.863.909-1.227,2.181-1.454,3.135-.545,3.635-1.318,7.178-11.494,1.817-5.179,3.5-9.813,3.68-10.313C136.88-308.731,137.108-292.784,136.608-291.376Zm-11.949-4.18c1.272,3.68,2.317,7,2.317,7.315,0,.454-1.045.545-4.725.409a28.852,28.852,0,0,1-5.088-.454c-.318-.363,4.407-13.993,4.861-13.993A60.145,60.145,0,0,1,124.659-295.556Zm37.3-1.59c.863,1.227,2.817,3.862,4.316,5.906L169-287.514l2.408.136c2,.136,2.362.273,2.362,1.045,0,.636.318.863,1.318.863,2.226,0,2.362.591,2.226,9.132l-.136,7.86-5.043-6.133c-9.768-11.812-10.631-12.9-10.631-13.948,0-.727-.273-1-1-1-2.09,0-2.362-.591-2.544-5.452l-.182-4.634,1.272.182C160.006-299.372,160.778-298.736,161.959-297.146Zm-75.19,12.13a6.736,6.736,0,0,1,3,2.862c1,1.772,1.09,2.408,1.09,7.814,0,5.634-.045,6-1.227,8.042a7.542,7.542,0,0,1-7.542,3.816,6.621,6.621,0,0,1-5.316-3.362c-2.635-4-2.681-12.63-.091-16.537a9.57,9.57,0,0,1,6.633-3.544A9.765,9.765,0,0,1,86.769-285.016Zm7.451.273c.136.727.045.772-.591.227-.863-.727-.954-1.545-.136-1.318A1.669,1.669,0,0,1,94.22-284.743Zm57.154.636c3.953,2.908,4.861,13.993,1.59,19.036-1.5,2.272-3.362,3.226-6.542,3.226s-4.77-1.045-6.5-4.134c-1.318-2.362-1.363-2.681-1.363-7.905,0-4.952.091-5.634,1.136-7.5a11.37,11.37,0,0,1,2.726-3.089C144.6-285.97,149.193-285.788,151.373-284.107Zm67.694.273c4.18,3.089,5.5,13.4,2.5,19.218-2.5,4.816-9.586,5.316-12.948.863-2.862-3.725-3.407-12.085-1.09-16.81,1.636-3.362,3.635-4.543,7.451-4.316A7.28,7.28,0,0,1,219.067-283.834Zm-61.2-.045c.909,1.09.273,1.272-.681.227-.454-.5-.591-.909-.363-.909A1.872,1.872,0,0,1,157.87-283.88Zm35.8.045a10.584,10.584,0,0,1,5.225,4.952c1.454,2.635,1.408,9.177,0,11.858-2.044,3.816-5.088,5.361-10.131,5.088l-2.953-.136-.136-10.359c-.045-6.633.045-10.677.363-11.222.409-.772.954-.909,3.226-.909A13.521,13.521,0,0,1,193.671-283.834ZM158.325-263.8c0,1.272-.591,1.863-2.044,2.226l-1.363.318,1.545-1.681C158.279-264.8,158.325-264.844,158.325-263.8Zm-64.059.091c0,.591-1.318,1.59-1.681,1.272-.318-.363.681-1.681,1.272-1.681A.407.407,0,0,1,94.265-263.708Zm132.208,1.817a1.3,1.3,0,0,1-.954,1.181c-1.408.454-1.59-.091-.363-1.09C226.518-262.935,226.473-262.935,226.473-261.891Z" transform="translate(0 -27.92)"/>
    </g>
  </g>
</svg>
