<svg xmlns="http://www.w3.org/2000/svg" width="256" height="256" viewBox="0 0 256 256">
  <g id="Twickenham" transform="translate(1245 -1551)">
    <rect id="Rectangle_30" data-name="Rectangle 30" width="256" height="256" rx="50" transform="translate(-1245 1551)" fill="#fff5f8"/>
    <g id="Twickenham-2" data-name="Twickenham" transform="translate(-1211.592 1788.869)">
      <path id="Path_1122" data-name="Path 1122" d="M660.922-128.59a3.828,3.828,0,0,0-1.675,1.566,45.432,45.432,0,0,0-4.264,8.55l-.7,2.023-1.871.8a21.273,21.273,0,0,0-2.393,1.153l-.522.37.457.5a5.927,5.927,0,0,1,.7,1.11c.218.544.348.609,1.371.609,1.044,0,1.11.022.979.479-.065.283-.261,1.153-.392,1.958-.218,1.175-.2,1.566.022,1.98.544,1.023,2.306,1.392,2.807.587a22.123,22.123,0,0,0,.892-2.633,16.026,16.026,0,0,1,.849-2.415,34.68,34.68,0,0,1,5.613-1.044c.413,0,.5.239.848,1.915.718,3.633,2.567,8.463,3.351,8.7.218.065.261,0,.174-.261a1.927,1.927,0,0,1,0-1c.087-.522.218-.631.522-.544.3.109.413.022.413-.261a1.033,1.033,0,0,1,.239-.653c.152-.152.109-.718-.131-1.936a30.209,30.209,0,0,1-.5-4.308c-.131-2.915-.109-2.915,1.806-3.786a13.273,13.273,0,0,0,2.284-1.632,10.152,10.152,0,0,1,1.566-1.24c.479,0,.087-.892-.566-1.284-.631-.392-1.066-.457-3.329-.457h-2.611l-.457-1.806c-.261-.979-.522-2.154-.587-2.589a6.193,6.193,0,0,0-3.307-4.482C661.945-128.917,661.9-128.917,660.922-128.59Zm.957,7.55c.261,1.98.261,2-.2,2.176a6.474,6.474,0,0,1-2.5.348c0-.653,2.11-4.852,2.328-4.634A18.139,18.139,0,0,1,661.88-121.041Z" transform="translate(-507.728)" fill="#bb0039"/>
      <path id="Path_1123" data-name="Path 1123" d="M398.68-125.337c-4.939,1.088-10.965,3.525-11.466,4.634-.218.457-.2.566.065.674.2.065.283.218.218.326s.174.3.522.457c.37.152.653.37.653.479,0,.131-.435,1.61-.979,3.285-1.392,4.308-1.871,6.353-1.893,7.876a4.2,4.2,0,0,0,2.741,4.33,4.73,4.73,0,0,0,2.763.587c2.72-.022,6.157-1.479,6.592-2.807a4.268,4.268,0,0,1,.848-1.327,2.509,2.509,0,0,0,.587-.849c0-.348-2.2-.5-3.807-.261-3.285.5-3.764.5-4.786.131a3.115,3.115,0,0,1-.979-.5,6.981,6.981,0,0,1,1.088-2.676,13.729,13.729,0,0,1,2.023-.435c3.155-.479,5.852-1.741,5.983-2.828a2.179,2.179,0,0,1,.5-1,1.81,1.81,0,0,0,.413-.609,7.564,7.564,0,0,0-2.328-.087,9.758,9.758,0,0,0-4.025.761l-1.675.653.109-.566c.065-.3.283-1.305.5-2.2l.37-1.632,1.284-.152c2.437-.3,5.135-1.327,5.7-2.132a6.4,6.4,0,0,1,1.436-1.044c1.414-.783,1.893-1.305,1.479-1.566-.239-.131-.174-.239.174-.435a.708.708,0,0,0,.413-.827c-.065-.566-.131-.587-1.371-.631A16.568,16.568,0,0,0,398.68-125.337Z" transform="translate(-301.4 -2.449)" fill="#bb0039"/>
      <path id="Path_1124" data-name="Path 1124" d="M12.538-122.474c-1.566.283-4.243.761-5.961,1.066-2.415.413-3.351.674-4.134,1.153a3.791,3.791,0,0,0-1.849,2.937c-.044,1.262.674,1.392,5.309.979.653-.044.631-.413.239,6.483-.152,2.633-.326,5.722-.392,6.853-.109,1.871-.065,2.2.392,3.22.522,1.131.522,1.131,1.545,1.131.914,0,1.044-.065,1.175-.522a1.053,1.053,0,0,1,.8-.718c.7-.2.7-.2.74-1.719.022-.849.2-2.763.392-4.243a100.569,100.569,0,0,0,.979-10.247v-1.653l1.958-.457c2.045-.479,3.633-1.044,3.438-1.24-.065-.065.131-.37.457-.7a9.052,9.052,0,0,0,.892-1.11c.174-.283.5-.718.7-1,.218-.261.3-.544.239-.631C19.152-123.192,15.192-122.953,12.538-122.474Z" transform="translate(0 -4.55)" fill="#bb0039"/>
      <path id="Path_1125" data-name="Path 1125" d="M302.112-122.395c-.653.74-.849,1.327-1.284,4.025-.566,3.568-1.566,11.618-1.675,13.728-.087,1.305-.044,1.784.218,2.067a6.256,6.256,0,0,1,.544,2.067c.218,1.719.435,2.284.653,1.675a5.869,5.869,0,0,1,1.023-1.2,8.981,8.981,0,0,0,1.2-1.392,18.547,18.547,0,0,0,.544-3.22l.283-2.72,1.044-1.066a8.628,8.628,0,0,1,1.175-1.066,4.34,4.34,0,0,1,.74,1.24c1.871,3.96,3.155,6.288,3.72,6.9,1.7,1.719,4.264,2.415,5.657,1.545,1.371-.892,1.479-1.175.631-1.719-1.023-.674-3.133-3.894-4.852-7.419-.936-1.915-1.784-3.7-1.849-3.96-.2-.609.718-2.35,2.132-4.068,1.218-1.5,1.479-2.11,1.414-3.285a2.654,2.654,0,0,1,.109-1.153c.261-.413-.7-.326-1.719.174a20.641,20.641,0,0,0-5.113,4.678,23.183,23.183,0,0,1-1.632,1.806c-.022-.044.022-1.436.109-3.111l.131-3.046-.783-.8C303.592-122.7,302.613-122.982,302.112-122.395Z" transform="translate(-233.573 -4.803)" fill="#bb0039"/>
      <path id="Path_1126" data-name="Path 1126" d="M575.9-122.337a15.431,15.431,0,0,0-1.327,4.395c-.2.957-.479,2.176-.631,2.7l-.239.957-2.154.718a12.6,12.6,0,0,1-2.828.7l-.674-.022v-4.068c0-4.373-.131-4.96-1.131-5.417a2.564,2.564,0,0,0-1.958-.065c-.762.479-1.632,3.263-2.241,7.223-.13.892-.348,2.219-.457,2.937a109.353,109.353,0,0,0-.979,12.641c.13.348,1.545.413,2.393.087a1.657,1.657,0,0,0,.827-.761c.131-.3.37-.544.522-.544.3,0,1.5-3.525,1.719-5.048a2.6,2.6,0,0,1,.413-1.24,30.311,30.311,0,0,1,5.2-1.414l.8-.152v3.916a31.32,31.32,0,0,0,.218,4.5c.218.566.261.566,1.588.413,1.479-.152,1.893-.392,1.893-1.023,0-.218.087-.37.218-.283.109.065.131.283.065.5-.087.261-.065.3.109.152a20.448,20.448,0,0,0,.7-4.134c.609-5.526.7-6.135,1.044-6.788a2.635,2.635,0,0,0,.218-1.175,3.6,3.6,0,0,1,.37-1.806.5.5,0,0,0-.218-.7c-.326-.239-.37-.566-.3-2.306.022-1.11.043-2.633.022-3.394-.044-1.5-.109-1.588-1.936-1.893C576.334-122.859,576.2-122.815,575.9-122.337Z" transform="translate(-438.674 -4.731)" fill="#bb0039"/>
      <path id="Path_1127" data-name="Path 1127" d="M767.829-122.511c-.609.37-.718.609-1.131,2.546-.761,3.612-1.305,6.81-1.675,9.877-.2,1.61-.479,4.112-.653,5.548-.37,3.024-.413,4.243-.131,4.243a3.055,3.055,0,0,1,.914.674l.7.653.479-.587a1.8,1.8,0,0,1,.979-.609c.653-.022.7-.2,1.5-5.591.892-5.831,1.131-7.2,1.284-7.049a26.845,26.845,0,0,1,.936,2.785c.457,1.458,1.066,3.394,1.371,4.286s.653,2.023.783,2.524a1.714,1.714,0,0,0,1.936,1.392c.849,0,1.044-.326,1.327-2.067a14.725,14.725,0,0,1,1.7-5.113c1.066-2.284,1.175-2.284,1.458.131a64.776,64.776,0,0,0,1.218,6.723c.109.348.392,1.61.631,2.763.522,2.393,1.153,3.438,1.871,3.046a2.744,2.744,0,0,0,1.371-1.915c.2-.8.2-.8.239-.2.043.413.087.5.152.261.087-.3.174-.348.413-.131.174.131.37.2.435.131a13.824,13.824,0,0,0-.218-2.7c-.174-1.414-.392-3.263-.457-4.09-.2-2.176-.74-6.048-1.11-7.832-.174-.849-.479-2.676-.653-4.09-.457-3.677-.653-4.09-2.458-4.917a7.429,7.429,0,0,0-2.154-.674c-.566,0-.718.109-.8.587a15.119,15.119,0,0,1-1,2.284,25.3,25.3,0,0,0-1.392,3.394,23.5,23.5,0,0,1-.8,2.328c-.3.566-.326.522-.892-1.675-.718-2.828-2.393-6.157-3.416-6.875A2.427,2.427,0,0,0,767.829-122.511Z" transform="translate(-597.36 -4.644)" fill="#bb0039"/>
      <path id="Path_1128" data-name="Path 1128" d="M174.022-121.434c-1.414,1.218-1.849,2.915-2.284,9.355-.174,2.633-.37,5.548-.457,6.505a18.692,18.692,0,0,0,.7,6.2c.326,1.044.392,1.131.522.653.109-.457.152-.479.283-.152a.724.724,0,0,0,1.131.152c.065-.131.37-.218.653-.218a1.535,1.535,0,0,0,1.066-.718c.5-.631.566-1.066.87-4.5.2-2.089.435-4.743.587-5.874a37.841,37.841,0,0,0-.326-9.7c-.413-1.327-1.11-2.263-1.654-2.263A2.59,2.59,0,0,0,174.022-121.434Z" transform="translate(-133.527 -5.35)" fill="#bb0039"/>
      <path id="Path_1129" data-name="Path 1129" d="M469.017-120.307a5.63,5.63,0,0,1-1.088.761c-.566.2-1.023,1.284-1.5,3.568-.239,1.153-.479,2.176-.522,2.241a77.313,77.313,0,0,0-.87,7.724,36.963,36.963,0,0,1-.457,3.894c-.3,1.545-.3,1.806,0,2.393a10.093,10.093,0,0,1,.435,1.066c.109.348.283.37,1.153.239a3.409,3.409,0,0,0,1.2-.283,65.023,65.023,0,0,0,2.154-8.355,14.378,14.378,0,0,1,.609-2.546,9.014,9.014,0,0,1,1.044,1.588,64.359,64.359,0,0,0,6.092,7.854,13.341,13.341,0,0,1,1.414,1.762c.239.544,1.066.674,1.871.261a4.418,4.418,0,0,0,1.24-1.784,3.711,3.711,0,0,0,.544-3.046c-.109-.849-.218-3.677-.218-6.309-.022-5.613-.261-8.7-.8-10.334-.392-1.175-.413-1.2-1.305-1.262-.674-.044-.936.022-.936.218a3.681,3.681,0,0,1-1.11,1.153c-1.023.8-1.088.914-.979,1.632.283,1.61.413,8.92.174,8.92-.544,0-2.959-4.243-4.634-8.159-.892-2.154-1.588-3.285-2.132-3.59C469.8-121,469.822-121,469.017-120.307Z" transform="translate(-362.86 -6.216)" fill="#bb0039"/>
      <path id="Path_1130" data-name="Path 1130" d="M218.833-117.717a20.834,20.834,0,0,0-5.069,3.046,17.114,17.114,0,0,0-4.177,7.288,16.754,16.754,0,0,1-.479,1.61,8.241,8.241,0,0,0-.218,2.263,3.966,3.966,0,0,0,1,3.046,8.774,8.774,0,0,0,4.09,3.416,6.972,6.972,0,0,0,5.7.5c2.48-.609,2.937-.849,3.829-2a6.183,6.183,0,0,1,1-1.11c.5-.3,2.154-3.851,1.806-3.851a5.361,5.361,0,0,0-1.175.761c-1.828,1.392-5.026,2.72-6.549,2.72-1.828,0-3.59-1.5-3.59-3.068a16.5,16.5,0,0,1,1.654-5.4c1.371-2.48,4.2-5.744,5.374-6.157,1.284-.457.131-2.763-1.414-2.785a1.031,1.031,0,0,1-.718-.218C219.768-117.87,219.529-117.891,218.833-117.717Z" transform="translate(-162.978 -8.61)" fill="#bb0039"/>
      <path id="Path_1131" data-name="Path 1131" d="M83.479-111.75a11.536,11.536,0,0,0-.892,1.566c-.7,1.436-.761,2.785-.261,7.332A53.73,53.73,0,0,0,84.066-93.1c.587,1.849.74,2.089,1.675,2.915l.566.522.435-.957a6.281,6.281,0,0,1,1.088-1.566,5.7,5.7,0,0,0,1.262-2.437c.326-1,.674-1.762.783-1.7a20.867,20.867,0,0,1,2.154,4.438c.827,2.176.914,2.284,1.436,2.067a1.976,1.976,0,0,1,.5-.2,5.363,5.363,0,0,0,.718-.609c.74-.7,1.2-2.11,2.219-6.7.457-1.98.936-3.894,1.088-4.286.326-.761,1.719-6.157,1.958-7.528.152-.892-.239-1.436-1-1.458a1.94,1.94,0,0,1-.87-.413c-.457-.37-.587-.37-1.066-.131a3.1,3.1,0,0,0-1.023,1.131,59.583,59.583,0,0,0-2.458,7.245c-.326,1.24-.544.892-.957-1.61-.326-2.067-.392-2.2-1.262-2.415-.522-.131-.631-.022-1.479,1.392a26.308,26.308,0,0,0-1.762,4,15.8,15.8,0,0,1-.849,2.263c-.022-.761-.936-8.42-1.131-9.616C85.633-111.555,84.458-112.882,83.479-111.75Z" transform="translate(-63.696 -13.054)" fill="#bb0039"/>
    </g>
  </g>
</svg>
