<svg xmlns="http://www.w3.org/2000/svg" xmlns:xlink="http://www.w3.org/1999/xlink" width="256" height="256" viewBox="0 0 256 256">
  <defs>
    <radialGradient id="radial-gradient" cx="0.904" cy="0.28" r="1.212" gradientTransform="translate(0.172) scale(0.656 1)" gradientUnits="objectBoundingBox">
      <stop offset="0" stop-color="#39b54a"/>
      <stop offset="1" stop-color="#cbdb2a"/>
    </radialGradient>
    <radialGradient id="radial-gradient-2" cx="0.527" cy="5.3" r="5.274" gradientTransform="translate(0.683) scale(0.28 1)" gradientUnits="objectBoundingBox">
      <stop offset="0.841" stop-color="#005361"/>
      <stop offset="0.865" stop-color="#005c6b"/>
      <stop offset="0.929" stop-color="#007082"/>
      <stop offset="0.963" stop-color="#00788a"/>
    </radialGradient>
    <radialGradient id="radial-gradient-3" cx="0.521" cy="11.64" r="11.663" gradientTransform="translate(0.796) scale(0.155 1)" gradientUnits="objectBoundingBox">
      <stop offset="0.933" stop-color="#005361"/>
      <stop offset="0.995" stop-color="#00788a"/>
    </radialGradient>
  </defs>
  <g id="Wates" transform="translate(2016 -1351)">
    <rect id="Rectangle_21" data-name="Rectangle 21" width="256" height="256" rx="50" transform="translate(-2016 1351)" fill="#f3fdff"/>
    <g id="Wates_Group-Logo.wine" transform="translate(-1986.227 1452.065)">
      <path id="Path_34" data-name="Path 34" d="M64.958,93.206a20.34,20.34,0,0,1-5.049,3.441,11.888,11.888,0,0,1-4.992,1.128,9.642,9.642,0,0,1-6.628-2.313,7.3,7.3,0,0,1-2.651-5.782,7.617,7.617,0,0,1,4.2-7.08c2.821-1.58,7.023-2.369,12.636-2.369h1.185V76.705c0-4.146-1.946-6.234-5.81-6.234a9.784,9.784,0,0,0-6.29,2.341l-.338,2.849H48.007V70.274a30.9,30.9,0,0,1,11.141-2.4q10.239,0,10.239,8.546V89.144c0,3.554.959,5.3,2.877,5.3a5.761,5.761,0,0,0,1.382-.2l.367,2.792a12.006,12.006,0,0,1-3.695.649c-2.821.085-4.626-1.438-5.359-4.485M63.633,91.8V82.854H62.279q-5.289,0-7.954,1.523A4.985,4.985,0,0,0,51.673,89a4.818,4.818,0,0,0,1.58,3.695,5.661,5.661,0,0,0,4.005,1.467,8.355,8.355,0,0,0,2.933-.592A14.87,14.87,0,0,0,63.633,91.8Zm29.56,2.256a9.157,9.157,0,0,1-3.413.818,4.1,4.1,0,0,1-3.441-1.495,7.252,7.252,0,0,1-1.156-4.457v-17.4h8.01V68.61h-8.01V62.151l-5.726,1.3V68.61H75.169v2.905h4.287v16.7c0,3.3.762,5.7,2.285,7.249s3.892,2.313,7.136,2.313a12.075,12.075,0,0,0,4.316-.818Zm28.714,1.805a29.819,29.819,0,0,1-9.957,1.946,15.1,15.1,0,0,1-11.17-4.259,14.7,14.7,0,0,1-4.316-10.972,14.708,14.708,0,0,1,3.864-10.521,13.018,13.018,0,0,1,9.929-4.09c3.723,0,6.6,1.156,8.631,3.441,2,2.285,3.018,5.585,3.018,9.844v.959H102.5c0,3.751.9,6.713,2.708,8.828a9.436,9.436,0,0,0,7.559,3.187,20.248,20.248,0,0,0,9.139-2.256ZM102.839,79.611h13v-.649c0-5.613-1.974-8.434-5.923-8.434a5.926,5.926,0,0,0-4.992,2.285C103.77,74.308,103.064,76.592,102.839,79.611Zm24.68,16.077V89.37h3.554v3.244a16.49,16.49,0,0,0,3.751,1.946,10.065,10.065,0,0,0,3.526.649,7.145,7.145,0,0,0,4.457-1.3,4,4,0,0,0,1.721-3.356c0-2.087-1.664-3.695-4.992-4.88l-2.905-1.044c-5.951-2.087-8.913-5.021-8.913-8.744a6.845,6.845,0,0,1,3.046-5.726,12.5,12.5,0,0,1,7.728-2.256,29.765,29.765,0,0,1,4.71.395,31.775,31.775,0,0,1,4.823,1.213V75.69h-3.554V72.418a14.658,14.658,0,0,0-3.1-1.467,10.177,10.177,0,0,0-2.99-.479,5.722,5.722,0,0,0-3.78,1.269,3.871,3.871,0,0,0-1.523,3.1,3.472,3.472,0,0,0,1.382,2.792,21.785,21.785,0,0,0,5.359,2.595l2.651.987a16.839,16.839,0,0,1,6.092,3.385,6.124,6.124,0,0,1,1.721,4.513,7.371,7.371,0,0,1-3.328,6.234,14.551,14.551,0,0,1-8.716,2.4,27.071,27.071,0,0,1-5.472-.536,23.408,23.408,0,0,1-5.246-1.523M43.8,63.759l-10.3,33.678H30.547L22.4,71.4,14.018,97.437H11.226L2.482,63.759H0V61.192H12.213v2.567H8.321l6.064,23.3L20.9,66.608,19.18,61.192h5.951l8.152,26.09,7.193-23.524H36.188V61.192h10.1v2.567Z" transform="translate(0 -43.933)" fill="#00788a"/>
      <g id="Group_10" data-name="Group 10" transform="translate(124.437 5.759)">
        <path id="Path_35" data-name="Path 35" d="M554.362,137.427a53.619,53.619,0,0,1,10.436-6.234C548.8,121.322,540.371,126.427,554.362,137.427Z" transform="translate(-547.275 -125.927)" fill="url(#radial-gradient)"/>
      </g>
      <path id="Path_36" data-name="Path 36" d="M444.7,6.344c3.385-2.087,14.583,1.241,28.065,13.511,0,0,21.972-18.165,42.929-16.049C495.95-.962,458.859-2.4,444.7,6.344Z" transform="translate(-319.268 0)" fill="url(#radial-gradient-2)"/>
      <path id="Path_37" data-name="Path 37" d="M515.723,3.805C493.3-.369,472.4,5.695,461.229,11.026,453.19,6.062,447.069,4.877,444.7,6.344,458.859-2.4,495.95-.962,515.723,3.805Z" transform="translate(-319.268 0)" fill="url(#radial-gradient-3)"/>
    </g>
  </g>
</svg>
