<svg xmlns="http://www.w3.org/2000/svg" width="256" height="256" viewBox="0 0 256 256">
  <g id="Zurich" transform="translate(1690 -1351)">
    <rect id="Rectangle_22" data-name="Rectangle 22" width="256" height="256" rx="50" transform="translate(-1690 1351)" fill="#eff7ff"/>
    <g id="Zurich_Insurance_Group_logo" transform="translate(-1751.314 1323.577)">
      <path id="Path_38" data-name="Path 38" d="M306.446,96.746a32.093,32.093,0,0,0-25.511,51.543L307.6,113.25h-5.7a43.777,43.777,0,0,0-7.945.611,8.6,8.6,0,0,0-3.259,1.335,12.7,12.7,0,0,0-3.26,3.893c-.09.182-.25.454-.43.815l-1.562-.339,2.6-10.072h33.412l-26.575,35.492a34.474,34.474,0,0,1,3.826-.2c1.063,0,2.694.068,4.912.2l4.709.272c1.7.113,3.123.159,4.21.159a17.512,17.512,0,0,0,5.59-.679,13.047,13.047,0,0,0,3.441-1.652,15.75,15.75,0,0,0,4.753-5.433q.17-.306.476-.95l1.4.362a20.882,20.882,0,0,1-1.4,4.006,16.291,16.291,0,0,1-5.251,6.949,12.926,12.926,0,0,1-7.764,2.559h-.454a55.551,55.551,0,0,1-9.189-1,70.583,70.583,0,0,0-10.8-1.11,30.782,30.782,0,0,0-5.228.43,16.933,16.933,0,0,0-5.3,1.584,32.075,32.075,0,1,0,23.632-53.736" transform="translate(-122.921)" fill="#2b73c2"/>
      <path id="Path_39" data-name="Path 39" d="M424.668,376.745a10.338,10.338,0,0,1,.321-3.445,4.431,4.431,0,0,1,.443-.955,4.329,4.329,0,0,1,1.15-1.281h-9.849a5.329,5.329,0,0,1,1.141,1.212,4.613,4.613,0,0,1,.474,1,11.153,11.153,0,0,1,.321,3.3c0,.935,0,1.551,0,1.851V396.8a8.889,8.889,0,0,1-.483,2.973,4.2,4.2,0,0,1-.49.893,7.235,7.235,0,0,1-.935,1.082H426.5a3.8,3.8,0,0,1-.944-1.082,4.493,4.493,0,0,1-.489-.935,8.294,8.294,0,0,1-.413-2.692v-18.5l.011-1.8" transform="translate(-220.837 -188.675)" fill="#2b73c2"/>
      <path id="Path_40" data-name="Path 40" d="M591.141,376.73a12.35,12.35,0,0,1,.338-3.251,4.726,4.726,0,0,1,.485-1.132,4.169,4.169,0,0,1,1.212-1.287H583.164a4.325,4.325,0,0,1,1.122,1.248,5.316,5.316,0,0,1,.51,1.07,10.571,10.571,0,0,1,.328,3.227v7.454h-13.75v-5.6c0-1.7.011-2.807.082-3.642a5.639,5.639,0,0,1,.249-1.333,6.34,6.34,0,0,1,1.268-2.1c.067-.074.194-.19.339-.332h-9.835a7,7,0,0,1,1.01,1.183,4.481,4.481,0,0,1,.533,1.038,9.318,9.318,0,0,1,.332,3.248l.033,1.943v16.8a26.291,26.291,0,0,1-.124,3.232,6.61,6.61,0,0,1-.3,1.22,4.35,4.35,0,0,1-1.184,1.715c-.071.071-.182.168-.337.306h9.717a5.679,5.679,0,0,1-.824-1.012,6.635,6.635,0,0,1-.491-.951,7.2,7.2,0,0,1-.451-2.693c-.007-.654-.011-1.257-.011-1.832v-7.436h13.75v7.488a19.781,19.781,0,0,1-.14,3.12,4.653,4.653,0,0,1-.328,1.326,4.426,4.426,0,0,1-1.1,1.609c-.091.079-.222.217-.423.382h9.8a5.837,5.837,0,0,1-.818-.949,4.852,4.852,0,0,1-.57-1.007,6.788,6.788,0,0,1-.4-2.777c-.018-.9-.023-1.427-.023-1.589l.023-16.884V376.73" transform="translate(-321.738 -188.671)" fill="#2b73c2"/>
      <path id="Path_41" data-name="Path 41" d="M332.805,384.583a9.937,9.937,0,0,1-3.862,1.243,10.8,10.8,0,0,1-1.6.148c-.155,0-.263,0-.5-.023V374.591c.391-.011.539-.011.8-.011a15.648,15.648,0,0,1,4.125.5,5.617,5.617,0,0,1,2.088,1.111,4.743,4.743,0,0,1,1.581,3.768,5.065,5.065,0,0,1-1.2,3.467,5.978,5.978,0,0,1-1.432,1.151Zm11.72,15.046c-1.081-1.028-2.046-2-3.477-3.567-.911-.976-1.657-1.82-2.239-2.494l-4.767-5.613a12.312,12.312,0,0,0,1.359-.468,13.056,13.056,0,0,0,3.785-2.187,7.543,7.543,0,0,0,2.793-5.866,7.112,7.112,0,0,0-2.072-5.032,10.135,10.135,0,0,0-4.987-2.768,25.35,25.35,0,0,0-5.244-.532c-.921-.023-1.876-.035-2.848-.035h-7.918a5.451,5.451,0,0,1,1.023,1.156,4.466,4.466,0,0,1,.545,1.117,11.989,11.989,0,0,1,.291,3.271v20.136a8.7,8.7,0,0,1-.339,2.971,4.68,4.68,0,0,1-.529.971,7.549,7.549,0,0,1-1.038,1.066h9.756a8.447,8.447,0,0,1-.848-1,4.193,4.193,0,0,1-.52-.937,7.435,7.435,0,0,1-.389-2.835c-.016-.461-.023-.978-.023-1.537v-6.9l5.688,6.816c.265.323.694.815,1.266,1.487.668.745,1.163,1.3,1.509,1.65a13.472,13.472,0,0,0,3.166,2.52,6.4,6.4,0,0,0,3.044.717c.5.016,1.037.02,1.6.02h3.849c-.507-.4-.726-.578-1.121-.922-.416-.365-.859-.759-1.315-1.2" transform="translate(-153.523 -188.676)" fill="#2b73c2"/>
      <path id="Path_42" data-name="Path 42" d="M486.093,395.627a13.333,13.333,0,0,1-5.356,1.138,10.444,10.444,0,0,1-7.9-3.3,12.307,12.307,0,0,1-3.056-8.5,12.8,12.8,0,0,1,2.77-8.281,10.034,10.034,0,0,1,2.778-2.273,12.094,12.094,0,0,1,5.942-1.476,14.458,14.458,0,0,1,5.51,1.109,10.011,10.011,0,0,1,2.523,1.387v-5.771a15.131,15.131,0,0,0-1.861-.5,25.437,25.437,0,0,0-5.406-.544,21.992,21.992,0,0,0-8.742,1.629,17.669,17.669,0,0,0-4.221,2.5,15.681,15.681,0,0,0-5.839,12.543,14.963,14.963,0,0,0,5.605,12.061,18,18,0,0,0,11.463,3.549,27.989,27.989,0,0,0,8.614-1.376c.115-.033.282-.089.5-.159v-5.574c-.74.488-.989.646-1.431.906a16.588,16.588,0,0,1-1.888.937" transform="translate(-252.818 -186.985)" fill="#2b73c2"/>
      <path id="Path_43" data-name="Path 43" d="M227.543,372.272a4.266,4.266,0,0,1,.454,1.044,11.162,11.162,0,0,1,.271,3.212V388.2a34.939,34.939,0,0,1-.26,5.212,6.225,6.225,0,0,1-.789,2.25,6.121,6.121,0,0,1-3.77,2.628,9.211,9.211,0,0,1-2.181.249c-2.632,0-4.894-.985-5.993-2.6-.845-1.254-1.077-2.445-1.116-5.6l-.02-2.531v-9.252c0-1.794.007-2.648.072-3.562a6.069,6.069,0,0,1,.224-1.407,7.145,7.145,0,0,1,1.228-2.224c.07-.063.143-.148.261-.272h-9.975a4.141,4.141,0,0,1,1.111,1.242,3.984,3.984,0,0,1,.434,1.067,6.346,6.346,0,0,1,.21,1.415c0,.3.01.937.011,1.9l.016,1.777v8.788c0,3.265.012,4.091.122,5.4a9.876,9.876,0,0,0,2.15,5.656c2.323,2.922,6.059,4.453,10.822,4.453a18.339,18.339,0,0,0,6.165-.972,11.771,11.771,0,0,0,4.569-3.045,10.123,10.123,0,0,0,2.473-5.964,50.457,50.457,0,0,0,.215-5.48v-8.826l-.026-1.753v-.345a10.563,10.563,0,0,1,.262-2.8,4.451,4.451,0,0,1,1.733-2.517h-9.783a3.894,3.894,0,0,1,1.109,1.183" transform="translate(-75.863 -188.691)" fill="#2b73c2"/>
      <path id="Path_44" data-name="Path 44" d="M118.033,397.437a30.743,30.743,0,0,1-4.817.435c-.646.018-1.454.018-2.455.018h-4.7l18.6-26.828H100.529l-2.964,6.55a19.282,19.282,0,0,1,2.242-1.059,22.423,22.423,0,0,1,4.34-1.227,28.925,28.925,0,0,1,4.326-.373c.85-.028,1.649-.044,2.385-.044h3.569l-18.775,26.84h26.54l3.065-7A22.569,22.569,0,0,1,123,395.932a19.862,19.862,0,0,1-4.968,1.5" transform="translate(0 -188.673)" fill="#2b73c2"/>
      <path id="Path_45" data-name="Path 45" d="M681.758,340.644h-.832v-1.172h.785c.545,0,.933.11.933.581C682.645,340.451,682.376,340.644,681.758,340.644Zm1.468-.6c0-.952-.656-1.118-1.728-1.118h-1.107V342.6h.535v-1.432h.961a.329.329,0,0,0,.1-.01l.767,1.441h.618l-.84-1.561a1.052,1.052,0,0,0,.693-1" transform="translate(-402.18 -166.57)" fill="#2b73c2"/>
      <path id="Path_46" data-name="Path 46" d="M676.908,340.477a2.97,2.97,0,1,1,2.9-2.966A2.85,2.85,0,0,1,676.908,340.477Zm0-6.438a3.468,3.468,0,1,0,3.464,3.472,3.383,3.383,0,0,0-3.464-3.472" transform="translate(-397.395 -163.209)" fill="#2b73c2"/>
    </g>
  </g>
</svg>
