<?xml version="1.0" encoding="utf-8"?>
<!-- Generator: Adobe Illustrator 23.0.1, SVG Export Plug-In . SVG Version: 6.00 Build 0)  -->
<svg version="1.1" id="Layer_1" xmlns="http://www.w3.org/2000/svg" xmlns:xlink="http://www.w3.org/1999/xlink" x="0px" y="0px"
	 viewBox="0 0 46.63 46.6" style="enable-background:new 0 0 46.63 46.6;" xml:space="preserve">
<style type="text/css">
	.st0{fill:#009ADA;}
	.st1{fill:#FFFFFF;}
	.st2{fill:#090304;}
	.st3{fill:#00AEEF;}
</style>
<g id="rI17ZC.tif">
	<g>
		<g>
			<path class="st1" d="M23.34,45.96c-11.8,0.16-22.75-9.3-22.7-22.72c0.04-12.8,10.11-22.61,22.7-22.6
				c13.26,0.01,22.73,10.88,22.65,22.8C45.91,35.82,35.77,46.05,23.34,45.96z M5.08,23.26c-0.36,9.12,7.26,18.32,18.28,18.38
				c9.96,0.05,18.28-8.28,18.3-18.21c0.01-10.05-8.11-18.15-17.93-18.41C13.43,4.75,4.75,13.57,5.08,23.26z"/>
			<path class="st1" d="M17.28,23.3c3.95-3.98,8-8.07,11.98-12.08c2.1,2.12,4.2,4.24,6.26,6.31c-3.96,3.94-8.03,8.01-12.05,12.02
				C21.45,27.51,19.34,25.39,17.28,23.3z"/>
			<path class="st1" d="M21.12,31.78c-2.67,0.6-5.27,1.19-8.04,1.82c0.68-2.74,1.33-5.32,1.97-7.9
				C17.08,27.74,19.04,29.7,21.12,31.78z"/>
		</g>
	</g>
</g>
</svg>
