<svg id="ic_TrackManage" xmlns="http://www.w3.org/2000/svg" width="105.779" height="105.779" viewBox="0 0 105.779 105.779">
  <g id="Group_250" data-name="Group 250" transform="translate(0 0)">
    <g id="Rectangle_733" data-name="Rectangle 733" transform="translate(105.779 105.779) rotate(180)" fill="#4e4e4e" stroke="#707070" stroke-width="2">
      <rect width="105.779" height="105.779" rx="33" stroke="none"/>
      <rect x="1" y="1" width="103.779" height="103.779" rx="32" fill="none"/>
    </g>
  </g>
  <g id="SU_Groups" data-name="SU Groups" transform="translate(0 0)">
    <g id="Group_250-2" data-name="Group 250" transform="translate(0 0)">
      <g id="Rectangle_733-2" data-name="Rectangle 733" transform="translate(105.779 105.779) rotate(180)" fill="#4e4e4e" stroke="#7a7a7a" stroke-width="1">
        <rect width="105.779" height="105.779" rx="15" stroke="none"/>
        <rect x="0.5" y="0.5" width="104.779" height="104.779" rx="14.5" fill="none"/>
      </g>
    </g>
  </g>
  <path id="Path_510" data-name="Path 510" d="M10401.922-9286.8h18.006l9.639-15.594h11.182" transform="translate(-10376.825 9334.111)" fill="none" stroke="#fff" stroke-width="1"/>
  <path id="Path_511" data-name="Path 511" d="M10406.926-9302.4h14.025l9.627,15.594h11.23" transform="translate(-10377.82 9359.544)" fill="none" stroke="#fff" stroke-width="1"/>
  <path id="Path_512" data-name="Path 512" d="M10406.926-9408.437h34.883" transform="translate(-10377.82 9460.884)" fill="none" stroke="#fff" stroke-width="1"/>
  <g id="Rectangle_1556" data-name="Rectangle 1556" transform="translate(12.063 41.755)" fill="#4e4e4e" stroke="#fff" stroke-width="2">
    <rect width="18.558" height="22.269" rx="9.279" stroke="none"/>
    <rect x="1" y="1" width="16.558" height="20.269" rx="8.279" fill="none"/>
  </g>
  <g id="Rectangle_1555" data-name="Rectangle 1555" transform="translate(63.096 66.808)" fill="none" stroke="#929292" stroke-width="1">
    <rect width="31.548" height="12.063" rx="6.031" stroke="none"/>
    <rect x="0.5" y="0.5" width="30.548" height="11.063" rx="5.531" fill="none"/>
  </g>
  <g id="Rectangle_1566" data-name="Rectangle 1566" transform="translate(63.096 47.322)" fill="none" stroke="#929292" stroke-width="1">
    <rect width="31.548" height="10.207" rx="5.103" stroke="none"/>
    <rect x="0.5" y="0.5" width="30.548" height="9.207" rx="4.603" fill="none"/>
  </g>
  <g id="Rectangle_1567" data-name="Rectangle 1567" transform="translate(63.096 25.98)" fill="none" stroke="#929292" stroke-width="1">
    <rect width="31.548" height="11.135" rx="5.567" stroke="none"/>
    <rect x="0.5" y="0.5" width="30.548" height="10.135" rx="5.067" fill="none"/>
  </g>
  <path id="check" d="M3.63,72.967l-3.474-3.5a.541.541,0,0,1,0-.761l.756-.761a.532.532,0,0,1,.756,0L4.008,70.3,9.02,65.256a.532.532,0,0,1,.756,0l.756.761a.541.541,0,0,1,0,.761L4.386,72.967a.532.532,0,0,1-.756,0Z" transform="translate(15.892 -16.967)" fill="#929292"/>
  <g id="Polygon_22" data-name="Polygon 22" transform="translate(62.506 47.744) rotate(90)" fill="#fff">
    <path d="M 7.680017471313477 7.727940082550049 L 1.723157644271851 7.727940082550049 C 1.463287711143494 7.727940082550049 1.334167718887329 7.553780078887939 1.29070770740509 7.478910446166992 C 1.247257709503174 7.404030323028564 1.160107731819153 7.205510139465332 1.289037704467773 6.979880332946777 L 4.267457485198975 1.76753032207489 C 4.397387504577637 1.540140271186829 4.61433744430542 1.515600323677063 4.701587677001953 1.515600323677063 C 4.788827896118164 1.515600323677063 5.005777835845947 1.540140271186829 5.135717868804932 1.76753032207489 L 8.114137649536133 6.979880332946777 C 8.243067741394043 7.205510139465332 8.155918121337891 7.404030323028564 8.112467765808105 7.478910446166992 C 8.069007873535156 7.553780078887939 7.939887523651123 7.727940082550049 7.680017471313477 7.727940082550049 Z" stroke="none"/>
    <path d="M 4.701587677001953 2.015590190887451 L 1.723167896270752 7.227940559387207 C 1.723167896270752 7.227940559387207 1.723167896270752 7.227940559387207 1.72315788269043 7.227940559387207 L 7.680007934570312 7.227940559387207 L 4.701597690582275 2.015600204467773 C 4.701595306396484 2.01559591293335 4.701594352722168 2.015590667724609 4.701587677001953 2.015590190887451 M 4.701583862304688 1.015595436096191 C 5.039735317230225 1.015595436096191 5.377887725830078 1.183550357818604 5.56983757019043 1.519460201263428 L 8.548257827758789 6.731810569763184 C 8.929197311401367 7.398470401763916 8.447827339172363 8.227940559387207 7.680007934570312 8.227940559387207 L 1.72315788269043 8.227940559387207 C 0.955348014831543 8.227940559387207 0.4739780426025391 7.398470401763916 0.8549175262451172 6.731810569763184 L 3.833337783813477 1.519460201263428 C 4.025282859802246 1.183550357818604 4.363432884216309 1.015595436096191 4.701583862304688 1.015595436096191 Z" stroke="none" fill="#4e4e4e"/>
  </g>
  <g id="Polygon_24" data-name="Polygon 24" transform="translate(62.506 67.885) rotate(90)" fill="#fff">
    <path d="M 7.680017471313477 7.727940082550049 L 1.723157644271851 7.727940082550049 C 1.463287711143494 7.727940082550049 1.334167718887329 7.553780078887939 1.29070770740509 7.478910446166992 C 1.247257709503174 7.404030323028564 1.160107731819153 7.205510139465332 1.289037704467773 6.979880332946777 L 4.267457485198975 1.76753032207489 C 4.397387504577637 1.540140271186829 4.61433744430542 1.515600323677063 4.701587677001953 1.515600323677063 C 4.788827896118164 1.515600323677063 5.005777835845947 1.540140271186829 5.135717868804932 1.76753032207489 L 8.114137649536133 6.979880332946777 C 8.243067741394043 7.205510139465332 8.155918121337891 7.404030323028564 8.112467765808105 7.478910446166992 C 8.069007873535156 7.553780078887939 7.939887523651123 7.727940082550049 7.680017471313477 7.727940082550049 Z" stroke="none"/>
    <path d="M 4.701587677001953 2.015590190887451 L 1.723167896270752 7.227940559387207 C 1.723167896270752 7.227940559387207 1.723167896270752 7.227940559387207 1.72315788269043 7.227940559387207 L 7.680007934570312 7.227940559387207 L 4.701597690582275 2.015600204467773 C 4.701595306396484 2.01559591293335 4.701594352722168 2.015590667724609 4.701587677001953 2.015590190887451 M 4.701583862304688 1.015595436096191 C 5.039735317230225 1.015595436096191 5.377887725830078 1.183550357818604 5.56983757019043 1.519460201263428 L 8.548257827758789 6.731810569763184 C 8.929197311401367 7.398470401763916 8.447827339172363 8.227940559387207 7.680007934570312 8.227940559387207 L 1.72315788269043 8.227940559387207 C 0.955348014831543 8.227940559387207 0.4739780426025391 7.398470401763916 0.8549175262451172 6.731810569763184 L 3.833337783813477 1.519460201263428 C 4.025282859802246 1.183550357818604 4.363432884216309 1.015595436096191 4.701583862304688 1.015595436096191 Z" stroke="none" fill="#4e4e4e"/>
  </g>
  <g id="Polygon_23" data-name="Polygon 23" transform="translate(62.506 27.015) rotate(90)" fill="#fff">
    <path d="M 7.680017471313477 7.727940082550049 L 1.723157644271851 7.727940082550049 C 1.463287711143494 7.727940082550049 1.334167718887329 7.553780078887939 1.29070770740509 7.478910446166992 C 1.247257709503174 7.404030323028564 1.160107731819153 7.205510139465332 1.289037704467773 6.979880332946777 L 4.267457485198975 1.76753032207489 C 4.397387504577637 1.540140271186829 4.61433744430542 1.515600323677063 4.701587677001953 1.515600323677063 C 4.788827896118164 1.515600323677063 5.005777835845947 1.540140271186829 5.135717868804932 1.76753032207489 L 8.114137649536133 6.979880332946777 C 8.243067741394043 7.205510139465332 8.155918121337891 7.404030323028564 8.112467765808105 7.478910446166992 C 8.069007873535156 7.553780078887939 7.939887523651123 7.727940082550049 7.680017471313477 7.727940082550049 Z" stroke="none"/>
    <path d="M 4.701587677001953 2.015590190887451 L 1.723167896270752 7.227940559387207 C 1.723167896270752 7.227940559387207 1.723167896270752 7.227940559387207 1.72315788269043 7.227940559387207 L 7.680007934570312 7.227940559387207 L 4.701597690582275 2.015600204467773 C 4.701595306396484 2.01559591293335 4.701594352722168 2.015590667724609 4.701587677001953 2.015590190887451 M 4.701583862304688 1.015595436096191 C 5.039735317230225 1.015595436096191 5.377887725830078 1.183550357818604 5.56983757019043 1.519460201263428 L 8.548257827758789 6.731810569763184 C 8.929197311401367 7.398470401763916 8.447827339172363 8.227940559387207 7.680007934570312 8.227940559387207 L 1.72315788269043 8.227940559387207 C 0.955348014831543 8.227940559387207 0.4739780426025391 7.398470401763916 0.8549175262451172 6.731810569763184 L 3.833337783813477 1.519460201263428 C 4.025282859802246 1.183550357818604 4.363432884216309 1.015595436096191 4.701583862304688 1.015595436096191 Z" stroke="none" fill="#4e4e4e"/>
  </g>
  <g id="Path_543" data-name="Path 543" transform="translate(71.185 48.662)" fill="#fff" stroke-linejoin="round">
    <path d="M 13.3328685760498 25.53775978088379 L 10.8328685760498 25.53775978088379 L 2.036458253860474 25.53775978088379 L -0.4635417461395264 25.53775978088379 L -0.4635417461395264 23.03775978088379 L -0.4635417461395264 14.44357013702393 L -0.4635417461395264 11.94357013702393 L -0.4635417461395264 11.15756034851074 C -0.4635417461395264 9.353480339050293 0.02615826018154621 7.563089847564697 0.9919582605361938 5.83611011505127 C 1.83793830871582 4.323390007019043 3.056148290634155 2.824299812316895 4.716208457946777 1.253169894218445 L 4.724838256835938 1.245009899139404 L 4.733538150787354 1.236929893493652 C 4.850464344024658 1.128355145454407 4.963928699493408 1.022170662879944 5.074386596679688 0.9179299473762512 L 4.311398029327393 0.9179299473762512 L -4.940001964569092 0.9179299473762512 L -7.440001964569092 0.9179299473762512 L -7.440001964569092 -1.582070112228394 L -7.440001964569092 -2.542600154876709 C -7.440001964569092 -4.828929901123047 -6.990451812744141 -6.971499919891357 -6.103831768035889 -8.91079044342041 C -5.265371799468994 -10.74475002288818 -4.058401584625244 -12.35397052764893 -2.516441822052002 -13.69377040863037 C 0.367768257856369 -16.1998405456543 4.210958480834961 -17.57999992370605 8.305168151855469 -17.57999992370605 C 12.3741283416748 -17.57999992370605 16.12476921081543 -16.13804054260254 18.86618804931641 -13.51972961425781 C 21.4539680480957 -11.04817008972168 22.93813896179199 -7.710500240325928 22.93813896179199 -4.362540245056152 C 22.93813896179199 -2.182830095291138 22.42621803283691 -0.2115200757980347 21.37313842773438 1.664049983024597 C 20.37846946716309 3.435575723648071 18.8918342590332 5.165206432342529 16.69479942321777 7.106820106506348 C 14.31308841705322 9.260475158691406 13.39947891235352 10.41229152679443 13.32511806488037 11.35431003570557 L 13.27859687805176 11.94357013702393 L 13.3328685760498 11.94357013702393 L 13.3328685760498 14.44357013702393 L 13.3328685760498 23.03775978088379 L 13.3328685760498 25.53775978088379 Z M 7.163287162780762 -3.853030204772949 C 7.117833614349365 -3.79361367225647 6.811398029327393 -3.327385425567627 6.811398029327393 -1.582070112228394 L 6.811398029327393 -0.8351808190345764 C 7.800664901733398 -1.936579704284668 8.231758117675781 -2.703546762466431 8.231758117675781 -3.300909996032715 C 8.231758117675781 -3.616830348968506 8.188841819763184 -3.809890270233154 8.157471656799316 -3.899590492248535 C 8.098631858825684 -3.915005922317505 7.985875129699707 -3.935260057449341 7.799618244171143 -3.935260057449341 C 7.372329711914062 -3.935260057449341 7.199604511260986 -3.869430780410767 7.163287162780762 -3.853030204772949 Z" stroke="none"/>
    <path d="M 10.8328685760498 23.03775978088379 L 10.8328685760498 14.44357013702393 L 2.036458253860474 14.44357013702393 L 2.036458253860474 23.03775978088379 L 10.8328685760498 23.03775978088379 M 10.8328685760498 11.15756034851074 C 10.98452854156494 9.236499786376953 12.40004825592041 7.618770122528076 15.02885818481445 5.242730140686035 C 18.92151832580566 1.805049896240234 20.43813896179199 -0.9248700737953186 20.43813896179199 -4.362540245056152 C 20.43813896179199 -9.670720100402832 15.68605804443359 -15.07999992370605 8.305168151855469 -15.07999992370605 C 1.480368256568909 -15.07999992370605 -4.940001964569092 -10.5301399230957 -4.940001964569092 -2.542600154876709 L -4.940001964569092 -1.582070112228394 L 4.311398029327393 -1.582070112228394 C 4.311398029327393 -5.171410083770752 5.423578262329102 -6.43526029586792 7.799618244171143 -6.43526029586792 C 9.771227836608887 -6.43526029586792 10.73175811767578 -5.272510051727295 10.73175811767578 -3.300909996032715 C 10.73175811767578 -1.329300045967102 9.265687942504883 0.4400899410247803 6.434668064117432 3.068909883499146 C 3.603638172149658 5.748270034790039 2.036458253860474 8.326529502868652 2.036458253860474 11.15756034851074 L 10.8328685760498 11.15756034851074 M 10.8328685760498 28.03775978088379 L 2.036458253860474 28.03775978088379 C -0.7249617576599121 28.03775978088379 -2.963541746139526 25.79917907714844 -2.963541746139526 23.03775978088379 L -2.963541746139526 14.44357013702393 C -2.963541746139526 13.86799335479736 -2.8663010597229 13.31517505645752 -2.687326908111572 12.80056476593018 C -2.8663010597229 12.28595447540283 -2.963541746139526 11.7331371307373 -2.963541746139526 11.15756034851074 C -2.963541746139526 8.921130180358887 -2.366841793060303 6.720180034637451 -1.190011739730835 4.615859985351562 C -0.9656146764755249 4.214609146118164 -0.7200383543968201 3.815783977508545 -0.4521426558494568 3.417929887771606 L -4.940001964569092 3.417929887771606 C -7.701421737670898 3.417929887771606 -9.940001487731934 1.179349899291992 -9.940001487731934 -1.582070112228394 L -9.940001487731934 -2.542600154876709 C -9.940001487731934 -5.190160274505615 -9.414291381835938 -7.682460308074951 -8.377481460571289 -9.95028018951416 C -7.389611721038818 -12.1110200881958 -5.969361782073975 -14.00543975830078 -4.156161785125732 -15.58090972900391 C -0.8171117305755615 -18.4821891784668 3.608408212661743 -20.07999992370605 8.305168151855469 -20.07999992370605 C 13.02031803131104 -20.07999992370605 17.38417816162109 -18.39224052429199 20.59289741516113 -15.32763004302979 C 23.672119140625 -12.38669967651367 25.43813896179199 -8.390080451965332 25.43813896179199 -4.362540245056152 C 25.43813896179199 -1.742870092391968 24.82151794433594 0.6287999153137207 23.55302810668945 2.888000011444092 C 22.41873931884766 4.908201694488525 20.76864051818848 6.84149169921875 18.36121368408203 8.970495223999023 C 17.41236114501953 9.828823089599609 16.76542854309082 10.46459484100342 16.32640838623047 10.97011947631836 C 15.99021244049072 11.35724639892578 15.85477542877197 11.57812023162842 15.80682182312012 11.66745090484619 C 15.76664161682129 12.06089496612549 15.68135833740234 12.44004249572754 15.55642318725586 12.79990291595459 C 15.73549747467041 13.31464195251465 15.8328685760498 13.86782455444336 15.8328685760498 14.44357013702393 L 15.8328685760498 23.03775978088379 C 15.8328685760498 25.79917907714844 13.59428787231445 28.03775978088379 10.8328685760498 28.03775978088379 Z" stroke="none" fill="#4e4e4e"/>
  </g>
</svg>
